<svg viewBox="0 0 159 150">
<title>Group coaching calls</title>
<description>A person wearing headphones and is chatting with someone else through a laptop</description>
  <path d="M88.2 14c-6 .4-11.9 1.4-17.7 2.8-5.6 1.4-10.9 3.8-15.8 6.8-2.7 1.6-5.1 3.5-7.6 5.4-.9.7-1.8 1.6-2.7 2.4-.9.8-1.8 1.7-2.6 2.6-1.9 2.2-3.9 4.3-5.6 6.7-.6.8-1.2 1.7-1.7 2.6-2.4 2.4-4.5 5-6.4 7.8l-1.5 2.4c-.3.6-.7 1.1-1 1.7-1.3 2.7-2.6 5.5-3.4 8.4-.4 1.3-.7 2.7-.9 4.1-.2 1.7-.6 3.4-.7 5-.2 2.6-.3 5.2-.1 7.9.2 2.4.5 4.8.9 7.2.2 1.2.5 2.4.8 3.6.6 2.6 1.5 5 2.5 7.4.8 2.1 1.7 4.1 2.6 6.2 1 2.3 2 4.7 3.2 6.9 1.9 3.2 4 6.2 6.5 8.9.9.9 1.8 1.8 2.8 2.6 1.7 1.4 3.4 2.9 5.4 3.9 2.3 1.3 4.8 2.4 7.2 3.6 2 1 4.1 1.8 6.2 2.6 1.3.5 2.6.8 4 1.2 3.4.9 6.9 1.3 10.4 1.7 2.8.3 5.5.2 8.2-.1 1.2-.1 2.5-.2 3.7-.3 1.4-.1 2.8-.1 4.1-.2 2.1-.2 4.3-.5 6.4-.8 2.5-.4 4.9-1.1 7.3-1.6 2.5-.6 5.1-1 7.5-1.8 2.8-.9 5.6-2 8.2-3.4 1.3-.7 2.5-1.5 3.8-2.3 2.8-1.8 5.5-3.7 7.8-6 1.9-1.9 3.4-4.2 4.9-6.4.8-1.2 1.4-2.4 2-3.6.5-1 1.1-2.1 1.5-3.1.8-1.9 1.6-3.7 2.3-5.6.5-1.2.9-2.5 1.3-3.7.8-2.5 1.4-5 1.9-7.6.6-3.2 1-6.4 1.4-9.7.3-2.5.2-5.1 0-7.6-.3-3.3-.7-6.5-1.2-9.8-.6-4-1.9-7.7-3.5-11.4-.6-1.4-1.4-2.9-2.2-4.2-1.4-2.2-2.8-4.4-4.2-6.7-3.2-5.2-7-10-11.5-14.2-1.5-1.4-3.2-2.6-4.8-3.7-1-.7-2-1.3-3-1.9-3-1.6-6.1-3.1-9.3-4.1-2.6-.8-5.2-1.3-7.9-1.7-2.6-.4-5.3-.8-8-.8-.5-.1-1-.1-1.5-.1z" fill="#FEF9CC" />
  <path d="M80.6 2.3c-2.6.4-5.1 1-7.6 1.5-5.1 1.1-10.1 2.5-15 4.3-8 3-15.9 7-22.3 12.9-2.8 2.6-5.2 5.6-7.5 8.7-2.1 2.9-3.4 6.4-4.8 9.7-2 4.8-3 9.9-4 15-.6 3.1-1.1 6.4-1.2 9.6-.2 2.6-.2 5.2 0 7.8-.4 1-.8 2-1.1 3-.5 1.5-1 3.2-1.3 4.8-.4 2.8-.9 5.7-1 8.5-.1 3 .4 6.1.9 9 .2 1.4.4 2.8.6 4.1.4 2.6 1 5.1 1.9 7.6 1.4 3.7 3 7.3 4.7 10.9 1.1 2.3 2.4 4.5 4 6.6 2.3 3.1 4.7 6.4 7.6 8.9 6.4 5.6 13.5 10.5 21.8 12.7 1 .3 2.1.5 3.2.7 2.7.5 5.4.8 8.1 1 2.5.1 5.2-.4 7.6-.8 1.2-.2 2.3-.4 3.5-.7 1.2-.2 2.4-.5 3.6-.7 3.8-.7 7.5-1.4 11.3-2 1.7-.2 3.5-.4 5.2-.6 4-.5 7.9-1 11.6-2.4 7.3-2.8 14.3-6.1 20.7-10.5.6-.4 1.1-.9 1.7-1.3 1.5-1.1 3-2.2 4.4-3.5 1.1-1 2.2-1.9 3.2-3 .4-.4.7-.8 1-1.2 1.2-1.5 2.6-3.1 3.7-4.7.8-1.2 1.6-2.4 2.3-3.6 3.3-5.5 5.7-11.6 8-17.5.5-1.3 1-2.6 1.4-3.9.5-1.3.8-2.7 1.1-4.1.4-2 .6-4.1.8-6.2.1-.8.2-1.7.1-2.5-.2-4-.7-7.9-1.3-11.9-.4-2.6-.9-5.1-1.4-7.7-.5-2.6-1.3-5.1-2.1-7.6-1.2-3.7-2.8-7.3-4.3-10.9-1-2.4-2.5-4.6-4-6.8-3.8-5.5-7.4-11.2-12.2-15.9-4.7-4.6-10.1-8.3-15.6-11.8-.5-.3-1.1-.6-1.6-.9-1.4-.7-3.3-1.4-5-2.1-.3-.1-.6-.3-.9-.4l-3.9-1.2c-3.9-1.1-7.9-1.8-12-2.2-1.4-.1-2.7-.2-4-.2-3.4.2-6.7.9-9.9 1.5zm-.2 32.4c1.7-.1 3.5-.2 5.2-.1 2.5.6 4.9 1.3 7.3 2 2.2.6 4.3 1.4 6.4 2.2 3.7 1.8 7.4 3.8 10.8 6.1 2 1.7 4 3.5 5.8 5.4 2.2 2.3 4.3 4.7 6.4 7.1.6.9 1.2 1.8 1.8 2.8.4.6.8 1.3 1.1 2 .6 1.8 1.2 3.5 1.7 5.3.4 1.6.8 3.3 1.1 4.9.3 3.5.3 7 .1 10.5-.4 2-1 3.9-1.6 5.8-.5 1-1 2-1.6 3.1-.4.8-1 1.6-1.5 2.4-1.7 2-3.5 4-5.3 6-1.9 2-3.9 3.9-6 5.7-2.1 1.6-4.3 3.1-6.6 4.3-1.2.3-2.3.6-3.5.8-3.7.4-7.5.8-11.2 1.5l-4.8.9c-1.1.2-2.3.5-3.4.7-1.9.2-3.8.2-5.7.2-.3-.1-.5-.2-.8-.2l-5.1-2.4c-2.8-1.2-5.6-2.5-8.4-3.4-1.1-.4-2.1-.8-3.2-1.2-1.6-.7-3.3-1.4-4.9-2-.6-.2-1.2-.5-1.8-.7-.3-.2-.7-.3-1-.5-.4-.2-.8-.5-1.2-.7-2.4-2.1-4.6-4.4-6.7-6.8-1.1-1.6-2.3-3.3-3.3-5-.9-1.4-1.6-2.8-2.3-4.3-1-2.8-1.7-5.7-2.2-8.7-.2-2.8-.1-5.6 0-8.4.1-1.9.2-3.7.4-5.6 0-.2.1-.4.1-.6.7-1.3 1.5-2.6 2.3-3.9 1.7-2.9 3.7-5.6 5.7-8.3-.2.3-.4.5-.6.8 1.2-1.6 2.5-3.2 3.9-4.6 1.7-1.6 3.4-3 5.2-4.4.6-.5 1.2-.9 1.9-1.3 1.2-.8 2.4-1.4 3.7-2 .8-.3 1.7-.7 2.5-1 1.8-.7 3.7-1.2 5.6-1.7 1.9-.5 3.8-.8 5.7-1.3 1.6-.4 3.2-.7 4.8-1 1.1-.2 2.1-.3 3.2-.4zM42 93.9c.5.7 1 1.3 1.6 2-.6-.7-1.1-1.3-1.6-2z" fill="#FEF9CC" />
  <path d="M63.1 11.9c-3.7.6-7.3 1.9-10.7 3.5-2.4 1.1-4.8 2.4-7.2 3.6-1.1.6-2.2 1.1-3.3 1.8-2.1 1.3-4 2.7-5.9 4.2-2.2 1.7-4.2 3.5-6.2 5.4-1.9 1.9-3.5 3.9-5.2 6-2.2 2.7-4.4 5.6-5.9 8.7-.7 1.3-1.3 2.7-1.9 4C15.9 51 15 53 14.4 55c-.4 1.3-.9 2.6-1.1 3.9-.4 2.3-.7 4.6-1 6.9-.3 2.4-.5 4.9-.3 7.3.4 4.1 1.1 8.1 2.1 12.1.8 3.3 2.2 6.5 3.5 9.6 1.1 2.7 2.1 5.5 3.3 8.2 1 2.4 2.2 4.7 3.6 6.9.9 1.5 1.9 2.9 3.1 4.2.7.8 1.6 1.5 2.4 2.2.9.8 1.8 1.5 2.7 2.3 2.5 2.2 4.6 4.8 7.4 6.6 1 .7 2.1 1.2 3.1 1.8.8.4 2 1.1 2.9.9 1-.3 1.2-1.2 1.4-2.1-.2.4-.3.8-.6 1.1l-.2.2c-.1 0-.1.1-.2.1s-.1 0-.2.1h-.2c-.2 0-.4-.1-.6-.2h.1c-.5-.2-.9-.5-1.3-.9-1.5-1.2-2.8-2.5-4-4-1.5-1.9-2.5-4.2-3.7-6.3-1.2-1.9-2.5-3.7-3.5-5.7-.8-2-1.1-4.1-1.5-6.2-.3-1.3-.5-2.6-.8-3.9-.2-1.7-.3-3.3-.5-5-.2-2-.5-3.9-.7-5.9-.4-3.6-.1-7.2.3-10.9.3-1.8.7-3.6 1.3-5.3.6-1.8 1.3-3.6 1.9-5.3.8-1.6 1.6-3.2 2.6-4.7 1.2-1.8 2.3-3.5 3.5-5.3.5-.6 1-1.2 1.5-1.7.9-.9 1.8-1.8 2.7-2.8.9-.9 1.7-1.9 2.6-2.8.9-.9 1.8-1.7 2.7-2.5 1.2-.9 2.4-1.7 3.6-2.5 2.1-1.4 4.3-2.6 6.5-3.8 2.2-1.2 4.2-2.5 6.3-3.7 1.3-.8 2.6-1.4 4-2.1l3.6-1.2c1.1-.3 2.1-.6 3.2-.8.7-.1 1.3-.1 2-.1 1.2 0 2.4.1 3.6.2.9.2 1.7.3 2.6.5 1.2.3 2.4.7 3.6 1.1 4.1 1.9 8.1 3.9 12.1 6.2 3.9 2.2 7.7 4.5 11.3 7.1 2.9 2.4 5.6 5.1 8 7.9 2 2.8 4 5.6 5.5 8.6.7 2.1 1.2 4.2 1.5 6.3.2 2.1.2 4.3-.1 6.4-.7 4.1-1.8 8.1-3.3 11.9-1.4 3.2-3.2 6.1-5.2 8.8-2.4 3-5.2 5.8-8.2 8.2-3.1 2.3-6.5 4.3-10.1 5.8-3.4 1.4-6.8 2.4-10.4 2.9-1.9.2-3.7.2-5.6-.1-1.4-.2-2.9-.4-4.3-.6 1.6.7 3.3 1.2 4.9 1.7 3.6 1.1 7.4 1.1 11.1.8 7.6-.7 15.1-3 21.7-7 3.4-2 6.6-4.5 9.6-7.2 2.7-2.4 5.1-4.9 7.4-7.7 2.7-3.3 5.1-6.8 7-10.6 1.7-3.6 3.3-7.6 3.9-11.5.4-2.7.9-5.4 1.1-8.1.2-1.8.2-3.6 0-5.4-.3-2.8-.7-5.4-1.6-8-.6-1.6-1.3-3.3-2-4.9-.3-.6-.5-1.2-.8-1.7-.6-1.2-1.2-2.3-1.9-3.5-.7-1.2-1.4-2.2-2.2-3.3-1.4-1.9-2.8-3.7-4.4-5.4-.9-1-1.9-1.9-2.9-2.7-1.3-1.1-2.7-2.1-4.1-3.1-.5-.3-1-.7-1.6-.9-5.5-2.8-11.2-5.4-16.9-7.8-2.5-1-4.9-2-7.4-2.9-2.4-.9-4.8-1.9-7.3-2.6-1.4-.4-2.7-.8-4.1-1.1-2.1-.5-4.3-.8-6.4-1-2.7-.3-5.5-.5-8.2-.5H73c-3.3.5-6.6.9-9.9 1.4zm-19 114.5l.1.1c0-.1 0-.1-.1-.1z" fill="#FEF9CC" />
  <path d="M25.7 79.2c-1.1 2.4-2.1 4.8-3.3 7.1-1.1 2.2-2.2 4.3-3.4 6.4-1.4 2.5-2.8 5-4.2 7.6-1.3 2.3-2.5 4.6-3.8 6.8-.9 1.4-1.7 2.9-2.5 4.4-1.7 3.2-3.7 6.3-5.8 9.1-.9 1.1-1.8 2.2-2.7 3.2 5.3-2.8 9.3-7.3 12.5-12.2 1.5-2.3 2.9-4.6 4.1-7 2.5-5.1 4.6-10.3 6.5-15.6 1.1-3.1 2-6.5 2.6-9.8zm8.1 32.1c-4.3 1.7-8.7 3.1-13.1 4.6-2.4.8-4.8 1.7-7.1 2.8-2.7 1.2-5.4 2.5-8.1 3.7-1.8.7-3.5 1.4-5.3 2.1 2.7.3 5.3.3 8-.1 1.3-.2 2.6-.5 3.9-.9 1.9-.5 3.7-1.3 5.5-2-.1 0-.2.1-.3.1 6.1-2.6 12-5.5 16.5-10.3z" fill="#FEF9CC" />
  <path d="M17.9 102.1c-.9.5-1.5 1.2-2 2.1-.5.2-1 .5-1.4.9-1.1 1.2-2.2 2.5-3.2 3.8-1 1.3-1.9 2.6-2.5 4.1-.5 1.1-.9 2.3-.9 3.5-.2.1-.4.2-.6.4-.4.4-.7.9-1 1.3-.3.5-.5 1-.8 1.5-.4.2-.7.6-1 1-.2.2-.3.4-.5.7-.5.4-1 .9-1.3 1.4.1-.1.2-.2.4-.3.1-.1.3-.2.4-.2.1 0 .2-.1.2-.1v.3c-.5.1-.9.2-1.1.7-.2.5.1.8.6.9.4 0 .9-.3 1.3-.6h.1c.8.2 1.3-.1 1.8-.6h.1c.4.1.8.1 1.2 0 .6-.2 1-.6 1.3-1l-.1.1c.2-.2.4-.4.5-.6 1.2.6 2.9.4 3.9-.6.9-.3 1.7-.9 2.3-1.6.5.1 1.1.1 1.6-.1 1.2-.4 2-1.3 2.7-2.1.5-.6 1-1.2 1.4-1.9.2-.3.3-.5.5-.8l1.2-1.2c.3-.3.7-.6 1-.9.7-.6 1.3-1.3 1.5-2.2.3-1.2.2-2.2-.4-3.3-.4-.8-1.3-1.4-2.1-1.7 0-.3-.1-.5-.1-.8-.2-.9-.9-1.7-1.6-2.1-.5-.3-1.1-.5-1.7-.5-.5 0-1.1.2-1.7.5zm-14 20.5v.3c-.1.1-.3.2-.4.4 0 0 .1 0 .1-.1-.1.1-.2.2-.4.2v-.3s0-.1.1-.1l.1-.1c.2-.1.3-.2.5-.3zm-.6.8c0 .1 0 .1 0 0 0 .1 0 .1 0 0 0 .1 0 .1 0 0z" fill="#FEF9CC" />
  <path d="M14.1 67.8c-.7 4.1-1.3 8.1-1.1 12.2.1 2.1.3 4.1.4 6.2.1 1 .1 2.1.2 3.1.1 1.5.2 2.9.1 4.4-.3 1.4-.7 2.8-1.1 4.1-.3 1.2-.6 2.3-.9 3.5-.6 2.4-1.4 4.7-2.3 6.9-2.7 5.8-5.5 11.7-9.4 16.9 4.2-3.2 7.4-7.5 10.5-11.7 1.6-2.2 3.1-4.3 4.5-6.7 1.4-2.4 2.5-5 3.5-7.5.6-1.4 1.1-2.8 1.4-4.3.5-2.2.2-4.4-.1-6.5-.3-2.4-.9-4.7-1.8-7-.8-2.3-1.8-4.5-2.5-6.8-.5-2.1-1-4.4-1.4-6.8z" fill="#FEF9CC" />
  <path d="M2.7 123.5c-.7.1-1.6.3-2 .9-.1.2 0 .4.1.6.5.3 1.4-.2 1.8-.4.3-.1.6-.3.9-.5.3.1.6 0 .7-.3v-.2c-.2-.1-.4-.2-.6-.2-.3 0-.6.1-.9.1z" fill="#FEF9CC" />
  <path d="M31.1 109c-2.2 1.6-4.4 3.3-6.6 4.8-3 2-6.1 3.5-9.4 5.1-2.3.9-4.5 1.7-6.8 2.4-2.6.9-5.3 1.7-7.8 2.9 1.4-.1 2.8-.1 4.1-.1 1.3 0 2.5 0 3.8-.1 2.7-.1 5.3-.3 7.9-1 3-.8 6-2.7 8.3-4.8 1.3-1.2 2.4-2.7 3.4-4.1.7-1 1.3-2.1 1.9-3.1.4-.5.8-1.2 1.2-2z" fill="#FEF9CC" />
  <path d="M4.5 121.4l-.3.3c-.2.1-.3.2-.4.3 0 .1-.1.1-.1.2l-.3.3v-.2c0-.1 0-.1.1-.2v-.1c-.1.1-.3.3-.3.6 0 .1.1.1.1.2-.1.2.2.4.4.3.1-.1.3-.2.4-.3.7 0 1.5-.8 2-1.3.3-.3.1-.7-.2-.8h-.2c-.4-.2-.9.4-1.2.7z" fill="#FEF9CC" />
  <path d="M55.7 68.8h4.2c1.1.1 2.1.1 3.2.2 1 .1 1.9.2 2.9.3l2.4.3c.9.1 1.8.1 2.7.2.8 0 1.5.1 2.3.2.4 0 .9.1 1.3.1.3 0 .7 0 1 .1v3.3c0 .6.1 1.2.2 1.7.1.3.2.5.3.8.1.1.2.3.3.4.1.2.4.2.5.3.4.2.8 0 1.2 0 .2 0 .4-.1.7-.1.4-.1.7-.2 1.1-.2.3-.1.5-.1.8-.2l-.4.4c-.7.7-1.3 1.4-2 2.1L76.1 81 75 82.1c-.4.4-.8.7-1.1 1-.1.1-.2.2-.3.4-.1.2-.2.3-.3.5-.1.2-.1.3-.2.5-.1.3-.2.6-.2.9-.2.8-.2 1.6-.5 2.4-.1.1-.1.2-.2.3-.2.1-.4.1-.6.1-.6.1-1.2 0-1.7 0s-.9-.1-1.4-.1c-1-.1-2.1-.2-3.1-.3-2.1-.2-4.2-.3-6.3-.4-1.4-.1-2.7-.1-4.1-.3-.6-.1-1.2-.2-1.8-.4V81c0-2.1 0-4.2.2-6.2.1-.6.1-1.3.2-2 .1-.9.3-1.8.4-2.7.2-.1.4-.3.4-.5s.1-.4.2-.6c0 0 0-.1.1-.1.2-.1.6-.1 1-.1zM44.5 32.2c.5 0 1-.1 1.5-.1.6 0 1.3-.1 1.9-.1h7.8c4.2 0 8.4.1 12.6.1H73c.4 0 .8-.1 1.3-.1v.1c.1.8.1 1.7 0 2.5v1.5c0 1 0 2-.1 3 0 2.1-.1 4.3-.1 6.4v4.3c-.1.2-.2.2-.3.2-.4.1-.7.2-1.1.3-1 .1-2 .3-3 .3-1.1 0-2.1 0-3.2.1s-2.2.1-3.3.2c-1 0-2-.1-3-.1h-4.6c-.3 0-.6-.1-.9-.1-.4 0-.8.1-1.2.3-.3.2-.6.5-.9.9-.2.3-.4.6-.6.8-.6.7-1.2 1.5-1.8 2.2-.6.8-1.3 1.6-1.9 2.4l-1.2 1.8c.1-.7.3-1.5.4-2.2.2-.9.4-1.9.6-2.8.2-.9.4-1.7.6-2.6.1-.5.2-1 .4-1.5.1-.2.1-.4.2-.7.1-.3.3-.6.2-.9-.1-.2-.2-.4-.5-.5-.3-.1-.5 0-.7.2l-.1.1c-.1.1-.2.1-.3.1-.4.1-.7.2-1.1.3-1 .1-1.9.1-2.9 0-.2 0-.4-.1-.6-.1-.2 0-.4 0-.5-.1.1-.5.1-1 .2-1.5.1-.6.1-1.1.1-1.7v-3c-.1-2.2-.2-4.3-.4-6.5 0-.6-.1-1.2-.1-1.8 0-.6-.1-1.1 0-1.7.2-.1.5-.1.7-.2.2.2.7.2 1.2.2z" fill="#F8E100" />
  <path d="M68.6 29.9c-2 0-4 .1-6 .1-2.1 0-4.2 0-6.3.1-2.1 0-4.2 0-6.3.1-.6 0-1.3.1-1.9.1-.5 0-1.1.1-1.6.1l-3 .3c-.5.1-1 .1-1.5.3-.3.1-.6.3-.8.6-.2.3-.2.6-.3.9V34c0 1.1.1 2.1.2 3.2.1 1.8.2 3.5.3 5.3v2.6c0 .5 0 1-.1 1.5 0 .4-.1.8-.1 1.2 0 .2-.1.4-.1.5 0 .3-.1.6-.1.9.1.3.3.5.5.7.2.1.5.1.7.2.2 0 .3 0 .5.1.2 0 .5.1.7.1.5.1 1 .1 1.5.1.3 0 .7 0 1-.1.5 0 1.1-.1 1.6-.2l-.3 1.2c-.2 1-.4 1.9-.6 2.9-.1.6-.2 1.1-.4 1.7-.1.3-.1.7-.2 1-.1.7-.2 1.4-.4 2.1l-.3 2.1c0 .1 0 .3.1.4-.1.1-.1.2-.1.3-.1.2-.1.5 0 .7.1.5.8.9 1.3.7.6-.2.9-.8 1.3-1.3.3-.4.5-.8.8-1.2.5-.8 1-1.5 1.6-2.3.7-.9 1.4-1.7 2.1-2.5.4-.5.8-.9 1.2-1.4.2-.2.4-.4.5-.7.2-.3.5-.6.7-.9.1 0 .2.1.4.1.3.1.7.1 1 .1h4.6c.5 0 1 0 1.6.1.5 0 1 0 1.5-.1l3-.3c1.1-.1 2.3-.1 3.4-.3.5-.1 1-.2 1.6-.3.7-.1 1.5-.3 2.1-.5.6-.2 1.2-.6 1.5-1.2.2-.4.2-.8.3-1.3 0-.5.1-1 .1-1.5 0-1 .1-2 .1-3 0-2.1.1-4.2.1-6.3v-5.1c0-.6 0-1.1-.1-1.6 0-.2 0-.3-.1-.5 0-.2-.1-.3-.2-.5l-.1-.1-.3-.3c-.1-.1-.3-.2-.5-.2-.2-.1-.4-.1-.6-.1-.3 0-.7-.1-1-.1-.5-.1-1-.1-1.5-.1h-2.3c-.3.1-.5.1-.8.1zm-24.1 2.3c.5 0 1-.1 1.5-.1.6 0 1.3-.1 1.9-.1h7.8c4.2 0 8.4.1 12.6.1H73c.4 0 .8-.1 1.3-.1v.1c.1.8.1 1.7 0 2.5v1.5c0 1 0 2-.1 3 0 2.1-.1 4.3-.1 6.4v4.3c-.1.2-.2.2-.3.2-.4.1-.7.2-1.1.3-1 .1-2 .3-3 .3-1.1 0-2.1 0-3.2.1s-2.2.1-3.3.2c-1 0-2-.1-3-.1h-4.6c-.3 0-.6-.1-.9-.1-.4 0-.8.1-1.2.3-.3.2-.6.5-.9.9-.2.3-.4.6-.6.8-.6.7-1.2 1.5-1.8 2.2-.6.8-1.3 1.6-1.9 2.4l-1.2 1.8c.1-.7.3-1.5.4-2.2.2-.9.4-1.9.6-2.8.2-.9.4-1.7.6-2.6.1-.5.2-1 .4-1.5.1-.2.1-.4.2-.7.1-.3.3-.6.2-.9-.1-.2-.2-.4-.5-.5-.3-.1-.5 0-.7.2l-.1.1c-.1.1-.2.1-.3.1-.4.1-.7.2-1.1.3-1 .1-1.9.1-2.9 0-.2 0-.4-.1-.6-.1-.2 0-.4 0-.5-.1.1-.5.1-1 .2-1.5.1-.6.1-1.1.1-1.7v-3c-.1-2.2-.2-4.3-.4-6.5 0-.6-.1-1.2-.1-1.8 0-.6-.1-1.1 0-1.7.2-.1.5-.1.7-.2.2.2.7.2 1.2.2zm-2 .2c-.1 0-.1 0-.2.1.1-.1.1-.1.2-.1zm-.3.1c0 .1 0 .1 0 0 0 .1 0 .1 0 0zM74 49.9c0 .1 0 .1 0 0 0 .1 0 .1 0 0zm-1.3.4s-.1 0 0 0c-.1 0 0 0 0 0zM52 52.7c0 .1-.1.1-.1.2 0 0 .1-.1.1-.2z" fill="#2C2C2C" />
  <path d="M46.7 39c0 .3.1.7.4.9.3.3.6.4.9.4 3.2.2 6.4.4 9.7.6.8 0 1.5.1 2.3.2.7.1 1.3.1 2 .1 1.4.1 2.7.1 4.1.1.8 0 1.5.1 2.3.2.3 0 .7.1 1 .1.4 0 .9 0 1.3-.2.5-.2.9-.6.9-1.2 0-.5-.4-1-.9-1.2-.4-.1-.8-.2-1.2-.2-.3 0-.7 0-1-.1-.7 0-1.3-.1-2-.1h-4c-.7 0-1.5-.1-2.2-.1-.8-.1-1.7-.1-2.5-.2-1.3-.1-2.6-.2-3.9-.2-2-.1-4-.2-5.9-.4h-.1c-.7 0-1.2.7-1.2 1.3zm-1.1 5.9c-.2.2-.3.5-.3.8 0 .3.1.6.3.8.2.2.5.3.8.3 1.2.1 2.4.3 3.5.3h1.6c.5 0 1-.1 1.5-.1.2 0 .3 0 .5-.1s.4-.3.5-.6c.1-.3 0-.5-.1-.8-.1-.2-.4-.4-.6-.5-.6-.1-1.1-.1-1.7-.1h-1.5c-1.2 0-2.4-.1-3.6-.3h-.1c-.4-.1-.6.1-.8.3zm12.2-.7c-.3.3-.4.6-.4 1s.1.7.4 1c.3.3.6.4 1 .4l3 .3c1.1.1 2.2.1 3.3.1 1 0 2 0 3 .1.4 0 .9 0 1.3.1.5 0 1 .1 1.6.1.6 0 1.1-.4 1.2-.9.1-.3 0-.7-.1-1-.2-.3-.4-.5-.8-.6-.5-.2-1.1-.2-1.6-.3-.5-.1-1-.1-1.5-.1-1 0-2 0-3-.1-1.1 0-2.2-.1-3.3-.1-1 0-2-.2-3.1-.3h-.1c-.3-.1-.7.1-.9.3zM59 66.6c-1 0-1.9.1-2.9.2-.5 0-.9 0-1.4.1-.2 0-.4 0-.5.1-.3.1-.6.2-.8.4-.5.5-.7 1.2-.7 1.9-.2 1.1-.4 2.2-.5 3.3-.1.6-.1 1.2-.2 1.7 0 .4-.1.9-.1 1.3-.1 1.1-.1 2.3-.1 3.4v8c0 .1 0 .3.1.4 0 .1.1.1.1.2.1.1.1.2.2.3l.1.1c.1.1.2.1.3.2.1.1.3.1.5.2l1.2.3c.9.2 1.7.2 2.6.3.5 0 .9.1 1.4.1 1.2.1 2.3.1 3.5.2 2 .1 4.1.3 6.1.5 1 .1 2.1.2 3.1.3h1.1c.3 0 .5-.1.8-.2.1 0 .3-.1.4-.2.1-.1.3-.2.4-.3.2-.2.4-.5.5-.7.2-.5.3-1 .4-1.5l.3-1.5c.1-.4.1-.8.3-1.2.2-.2.4-.3.6-.5.2-.2.4-.3.6-.5l1.2-1.2c.7-.7 1.5-1.4 2.2-2.1.7-.7 1.4-1.5 2.2-2.3.7-.7 1.4-1.3 2.1-1.9.3-.2.5-.5.6-.8v-.5c-.1-.2-.2-.4-.4-.5-.4-.3-1-.2-1.5-.1-.3 0-.6.1-.8.2-.4.1-.8.2-1.2.2-.7.1-1.5.3-2.2.4 0-.1 0-.2-.1-.3-.1-.8-.1-1.6-.1-2.4 0-.5 0-1.1.1-1.6v-1.4c0-.1-.1-.3-.1-.4l-.3-.3c-.2-.3-.6-.4-.9-.5-.3-.1-.5-.1-.8-.1-.3 0-.5 0-.8-.1-1-.1-2.1-.2-3.1-.2-1-.1-2.1-.1-3.1-.2-.2 0-.4 0-.6-.1-1-.1-2.1-.3-3.1-.4-1-.1-2-.1-3-.1-.9 0-1.8-.1-2.6-.1-.8-.1-1-.1-1.1-.1zm9.3.6h.3-.3zm-13.7 1.4s0 .1 0 0c0 .1 0 0 0 0zm1.1.2h4.2c1.1.1 2.1.1 3.2.2 1 .1 1.9.2 2.9.3l2.4.3c.9.1 1.8.1 2.7.2.8 0 1.5.1 2.3.2.4 0 .9.1 1.3.1.3 0 .7 0 1 .1v3.3c0 .6.1 1.2.2 1.7.1.3.2.5.3.8.1.1.2.3.3.4.1.2.4.2.5.3.4.2.8 0 1.2 0 .2 0 .4-.1.7-.1.4-.1.7-.2 1.1-.2.3-.1.5-.1.8-.2l-.4.4c-.7.7-1.3 1.4-2 2.1L76.1 81 75 82.1c-.4.4-.8.7-1.1 1-.1.1-.2.2-.3.4-.1.2-.2.3-.3.5-.1.2-.1.3-.2.5-.1.3-.2.6-.2.9-.2.8-.2 1.6-.5 2.4-.1.1-.1.2-.2.3-.2.1-.4.1-.6.1-.6.1-1.2 0-1.7 0s-.9-.1-1.4-.1c-1-.1-2.1-.2-3.1-.3-2.1-.2-4.2-.3-6.3-.4-1.4-.1-2.7-.1-4.1-.3-.6-.1-1.2-.2-1.8-.4V81c0-2.1 0-4.2.2-6.2.1-.6.1-1.3.2-2 .1-.9.3-1.8.4-2.7.2-.1.4-.3.4-.5s.1-.4.2-.6c0 0 0-.1.1-.1.2-.1.6-.1 1-.1zm22.4 6.1c0 .1 0 .1 0 0 0 .1 0 .1 0 0 0 .1 0 .1 0 0zm-5.8 13c0 .1 0 .1 0 0 0 .1 0 .1 0 0z" fill="#2C2C2C" />
  <path d="M69.6 74.8c-.6 0-1.3 0-1.9.1-.6 0-1.3.1-1.9.1H59c-.2 0-.5.1-.7.1-.2 0-.4.3-.3.5.1.2.2.3.4.3.6 0 1.2.1 1.7.2.4 0 .9.1 1.3.1.3 0 .5 0 .8.1.4 0 .9.1 1.3.1H69c.3 0 .5 0 .8.1.2 0 .5 0 .7.1.3 0 .6.1.9.2.2.1.5 0 .7-.1.2-.1.4-.3.4-.5.1-.2 0-.5-.1-.7 0-.1-.1-.1-.1-.2-.1-.1-.2-.2-.4-.2-.3-.1-.6-.1-.9-.2h-1c-.1-.1-.2-.1-.4-.1zm-2 6.8c-.8 0-1.5.1-2.3.1-.8 0-1.6.1-2.3.1h-3.1c-.1-.2-.3-.3-.5-.3-.2.1-.4.1-.7.2H58.4c-.2 0-.3.1-.4.3-.1.2-.1.6.2.7.1.1.2.1.4.2.1 0 .2.1.4.1.2.1.5.1.8.1.5.1.9.1 1.4.1.5 0 .9 0 1.4.1h2.2c1.5 0 3 .1 4.5.2h.7c.5 0 1-.5 1-1s-.5-1-1-1h-.2c-.7 0-1.5.1-2.2.1zM39.9 73.2c-.2 0-.4.1-.6.2-.2.2-.2.4-.2.6 0 .2.1.4.2.6.1.1.4.3.6.2.2 0 .4-.1.7-.1h.7c.3.1.6.1.9.3.7.3 1.3.7 1.9 1.1.5.4 1 .9 1.4 1.4.5.7.9 1.3 1.3 2.1.3.8.5 1.6.7 2.5 0 .3.1.6.1.9.1.8.2 1.6.2 2.5 0 .9.1 1.7.1 2.6v18.5c0 .9-.1 1.8-.1 2.7v3.7c-.1.1-.2.3-.2.5 0 .4.1.8.1 1.2.1.6.9.7 1.3.3.1-.1.2-.2.3-.4 0-.1.1-.2.1-.4V112c0-.8 0-1.7.1-2.5 0-.9.1-1.8.1-2.7V88.3c0-.9 0-1.8-.1-2.6 0-.9-.1-1.8-.2-2.7-.1-1-.3-1.9-.6-2.8-.3-1-.8-1.9-1.4-2.8l-.9-1.2c-.5-.6-1.2-1.2-1.9-1.6-.6-.4-1.3-.8-2.1-1-.4-.1-.8-.2-1.2-.2h-.3c-.4-.3-.7-.2-1-.2z" fill="#2C2C2C" />
  <g fill="#2C2C2C">
    <path d="M114.9 47c0 .4.3.7.7.7.4 0 .7-.3.7-.7 0-.4-.3-.7-.7-.7-.3-.1-.7.3-.7.7zm-4-9.9c0 .7 0 1.3-.1 2 .1.4.1.8.2 1.1.1.7.1 1.4.2 2.1v6.8c0 .1 0 .1.1.2 0 .1.1.3.2.3.2.1.3.1.5 0 .3-.1.4-.3.5-.5-.1-.1-.1-.3-.1-.4-.1-.4-.1-.8-.2-1.1v-.5c-.2-.4-.3-.9-.4-1.4-.1-1.3 0-2.7 0-4v-.1c0-.6-.1-1.2-.1-1.9v-2c0-.2 0-.4.1-.6-.1-.3-.3-.7-.4-1 0 .3-.2.7-.5 1zm-7.3-.9l-.6.9c-.2.4-.4.7-.5 1.1-.1.3-.2.7-.3 1 .1.9.2 1.8.4 2.8.2 1.7.5 3.8-.3 5.4v.1c.1.8.3 1.6.7 2.3.2.3.6.5 1 .3.3-.2.5-.6.3-1-.1-.1-.1-.2-.2-.4-.3-.7-.4-1.5-.5-2.3-.2-1.8-.2-3.6 0-5.4.1-.4.1-.8.2-1.2 0-.1.1-.3.1-.4-.2-.3-.2-.4-.2-.8v-1.1c0-.5-.1-.9-.1-1.3.1-.1.1-.1 0 0 .1-.1 0-.1 0 0z" />
    <path d="M105.4 48.3c-.8.1-1.5.3-2.2.6-.7.3-1.3.7-2 1.2-.2-.1-.5 0-.7.1-.3.1-.6.3-.9.4l-.9.6c-.3.3-.7.6-.9.9 0 0 0 .1-.1.1 0 .1-.1.3-.1.4-.2.7-.6 1.3-1.2 1.7-.3.5-.5 1-.7 1.6-.2.5-.4.9-.5 1.4-.3 1-.4 2.1-.4 3.1 0 .5 0 1 .1 1.5.1.6.1 1.1.3 1.7.1.5.3 1 .6 1.5.2.5.4.9.7 1.4.3.5.6.9 1 1.4.3.4.7.7 1 1.1.8.7 1.6 1.4 2.5 2 .5.3 1 .5 1.6.8.7.3 1.4.4 2.2.5h1.5c.6-.1 1.2-.1 1.7-.2 1-.2 2-.4 2.9-.7 1.5-.5 2.9-1.1 4-2.2.4-.4.7-.8 1-1.2.2-.3.4-.5.6-.8.3-.4.5-.9.7-1.4.3-.8.5-1.7.7-2.6-.2-.7-.1-1.5-.1-2.3v-.7c-.1-.3-.1-.7-.1-1-.3-.3-.6-.8-.7-1.3-.2-.5-.3-1.1-.4-1.7-.1-.6-.3-1.2-.5-1.8-.4-1-.9-1.9-1.5-2.8l-.2-.2c-.4-.4-.9-.7-1.4-1-.4-.3-.8-.5-1.2-.7-1-.5-2-.9-3.1-1.2-.5-.1-1.1-.2-1.6-.2h-.3c-.5-.1-.9-.1-1.4 0zm-5.8 5.8c0-.2.1-.4.2-.6.1-.2.2-.3.3-.4.2-.2.4-.5.6-.7.3-.2.6-.4.9-.5.2-.1.4-.3.4-.6.5-.4 1-.7 1.6-1 .5-.2.9-.3 1.4-.4.3 0 .6-.1 1-.1s.7 0 1.1.1c.4.1.7.1 1.1.2.4.1.8.3 1.2.4.3.1.6.3.9.4.4 0 .7.2 1 .5.4.3.7.6 1.1.9 0 0 .1 0 .1.1.3.2.5.4.8.7.3.3.5.5.7.8.3.4.5.8.8 1.2.3.4.5.9.7 1.4.2.4.3.9.4 1.3.1.4.1.7.2 1.1.1.7.1 1.4.1 2 0 .6-.1 1.2-.1 1.8-.1.4-.2.9-.3 1.3-.1.4-.2.7-.4 1.1-.2.5-.5.9-.8 1.3-.4.5-.9 1-1.4 1.4-.4.3-.8.5-1.3.7-1.4.5-2.8.9-4.2 1.1-1 .1-2.1.2-3.1.1-.4-.1-.7-.2-1.1-.3-.4-.2-.7-.4-1.1-.6-.4-.2-.7-.4-1-.7-.8-.7-1.6-1.4-2.3-2.2l-.6-.9c-.2-.3-.4-.7-.6-1.1-.1-.3-.3-.7-.4-1-.1-.4-.2-.8-.3-1.1-.1-.5-.1-1.1-.1-1.6s0-1 .1-1.4c.1-.5.2-1 .4-1.5.1-.4.3-.9.5-1.3.2-.3.3-.7.5-1 .1-.1.1-.3.2-.4h.2c.3-.1.6-.3.6-.5zm16.3 8.7c0 .1 0 .1 0 0 0 .1 0 .1 0 0z" />
    <path d="M107.1 55.2c-.6 0-1.2.1-1.8.4-.6.3-1.1.7-1.6 1.3-.4.5-.7 1-.8 1.6-.1.3-.1.7-.2 1v.9c-.1 0-.2 0-.3.1v.1c0 .7.1 1.4.2 2 0 .2.1.3.1.5 0 .1.1.3.1.4.1.1.1.2.2.3.4.6.9 1.1 1.5 1.5.3.2.6.3 1 .4.2.1.3.1.5.1.3 0 .5.1.8.1.7 0 1.5-.2 2.1-.6.3-.2.6-.4.8-.6.3-.2.5-.5.8-.8.4-.5.7-1.1 1-1.7v-.1c.1-.9.1-1.7 0-2.6-.1-.5-.2-.9-.4-1.4-.2-.4-.4-.8-.6-1.1 0 0-.1 0-.1-.1-.9-.5-1.8-1.1-2.7-1.5-.2-.2-.4-.2-.6-.2zm-.5 8.1c-.2 0-.5-.1-.7-.2-.1-.1-.2-.1-.4-.2-.5-.5-1-1-1.4-1.6.2-.2.2-.5.1-.8v-.1c0-.1-.1-.2-.1-.3v-.9c0-.3.1-.6.2-.9.1-.3.3-.5.5-.8.2-.2.3-.4.5-.5.2-.1.3-.2.5-.3.2-.1.5-.1.7-.2h1.1c.3 0 .6.1.8.2.2.1.4.2.5.3l.3.3c.1.2.3.4.4.6.1.3.2.7.3 1v1l-.3 1.2c-.1.2-.2.4-.4.6-.2.3-.5.5-.7.7l-.9.6c-.2.1-.3.1-.5.1h-.2c-.1.3-.2.2-.3.2zm-4.4-24.4h.2c.1 0 .2-.1.3-.2.1-.2.1-.6-.2-.7l-.3-.6c0-.1-.1-.2-.1-.2 0-.1-.1-.2-.1-.2v-.1c0 .6.1 1.3.2 2zm.3-1.1c0 .1 0 .1 0 0 0 .1 0 .1 0 0zm-4.7 14.4c0 .1-.1.3-.1.4-.1.3-.2.6-.4.9.1.1.1.1.1.2.1.1.2.2.2.3.1.1.2.2.4.3.2 0 .3 0 .5-.1.3-.2.4-.5.2-.8-.1-.2-.2-.3-.3-.5-.1-.2-.3-.4-.4-.6-.1 0-.1-.1-.2-.1zm-7.9-6.5c-.1.8-.3 1.5-.4 2.3-.1.4-.1.8-.2 1.1.2 0 .4.1.5.2.3.2.5.5.7.7.1-.3.1-.6.1-1 .1-.6.2-1.3.2-1.9 0 0 0-.1-.1-.1-.3-.6-.6-1.2-.9-1.7.1.2.1.3.1.4zm27.6 17.4c-.3.3-.3.7 0 1 .2.2.4.4.7.5l.9.3c.2 0 .4.1.7.1-.4-.1-.7-.4-1-.7-.4-.4-.7-.9-.8-1.4-.3.1-.4.1-.5.2zm4.4 1.9c.1 0 .3 0 .4-.1h.2-.3c-.1 0-.2.1-.3.1z" />
    <path d="M102.2 38.7h.3c.1 0 .2-.1.3-.2.1-.1.1-.2.2-.3 0-.1.1-.1.1-.2 0 .1 0 .1.1.2.1.2.3.2.5.2.1 0 .1 0 .1-.1V37.3c-.1-.2-.1-.4-.2-.6-.1-.3-.1-.6-.4-.7-.2-.1-.4-.1-.6 0l-.2.2c-.1.1-.1.2-.1.3 0-.2-.1-.3-.1-.5s-.1-.4-.1-.6c0-.2-.1-.3-.2-.5 0-.1-.1-.2-.1-.2 0 1.3.2 2.7.4 4z" />
    <path d="M102.3 39.5v-1.6c0-.2-.1-.3-.1-.4 0-.1-.1-.2-.2-.3.1.8.2 1.6.3 2.3zm-5.9 1.8c0 .1.1.2.1.2 0 .2.1.4.1.6 0 .2.1.4.1.5.1.1.1.2.1.4v.1c-.1-.6-.2-1.3-.2-1.9-.1 0-.1.1-.2.1zm5.1 7.3c-.4.4-.8.7-1.2 1.1.1.2.2.3.3.3.2.1.4 0 .5-.2 0-.1.1-.1.1-.2.1.1.2.1.4.1.2-.1.3-.2.3-.4v-1.1c-.1.1-.2.3-.4.4zm-3.4 3.2c-.1.2-.2.3-.3.5 0 .1-.1.3-.1.4l.3.3h.2c.1 0 .3 0 .4-.1.1 0 .1-.1.2-.2s.1-.3.1-.4v-.2c0-.1 0-.2-.1-.3 0 0 0-.1-.1-.1.1-.1.2-.2.2-.3 0-.1.1-.2.1-.3v-.2c.1 0 .2-.1.3-.1.1-.1.2-.3.1-.5v-.1c-.5.7-.9 1.1-1.3 1.6zm22.4 13.4c0 .1-.1.2-.1.3-.6 1.4-1.4 2.7-2.3 4-.5.6-1 1.2-1.6 1.8-.6.6-1.3 1.2-2 1.7l-.9.9c-.4.4-.7.8-1 1.2-.1.2-.2.3-.3.5-.1.3-.3.6-.4.8-.1.2-.2.5-.2.7-.1.3-.1.7-.2 1 0 .2.1.4.2.6.1.3.4.4.7.5.6.2 1.2-.2 1.4-.8.1-.4.3-.8.4-1.2.2-.4.4-.8.7-1.2.7-.8 1.5-1.6 2.3-2.3.8-.8 1.6-1.6 2.3-2.4.8-.9 1.5-1.9 2.1-3 .3-.5.6-1.1.8-1.7.1-.3.2-.5.3-.8.1-.3.1-.6.2-.8h-.7c-.6.1-1.2.2-1.7.2zM98 81.7c-.2.2-.3.4-.5.7 0 .1-.1.1-.1.2-.1.2-.2.5-.4.7h.2c.1 0 .3 0 .4-.1.2-.1.3-.3.3-.5.1-.2.1-.5.1-.7v-.3z" />
    <path d="M108.9 78.8c-.2 0-.3 0-.5.1-.3.2-.6.3-1 .4-.4.1-.8.1-1.2.1h-.7c-.5.1-1 .1-1.4.2-.4.1-.8.1-1.2.2-.7.1-1.4.2-2 .4-.1 0-.1.1-.2.1-.2.1-.4.2-.7.3-.2.1-.3.2-.5.3 0 0-.1 0-.1.1-.1.1-.2.2-.4.2-.1.1-.2.1-.4.2-.1.1-.2.1-.3.1h-.2c-.2.2-.3.7-.1.9.2.4.7.5 1.1.3.5-.2.9-.5 1.4-.7.2-.1.4-.2.7-.3.5-.2 1-.3 1.5-.4.9-.1 1.8-.2 2.8-.3 1-.1 2-.3 3-.5 1.1-.1 2.3-.1 3.4-.2 1.2 0 2.3 0 3.5.2.5.1 1 .1 1.4.2.3.1.5.1.8.2l-.1-.1s-.1 0-.1-.1c-.1-.1-.2-.1-.3-.2-.1-.1-.3-.2-.3-.4V80l-.1-.1h-.1c-.1 0-.1 0-.2-.1 0 0-.1 0-.1-.1-.1 0-.1-.1-.2-.1-.1-.1-.3-.2-.4-.3l-.1-.1h-.1c-.1 0-.2-.1-.2-.1h-.1c-.1 0-.2 0-.3-.1-.1-.1-.2-.1-.3-.2 0-.1-.1-.2-.1-.3v-.1h-1.4c-1.4.1-2.8.2-4.2.4zm21.4 38.3v-.3.3z" />
    <path d="M99.1 81.2c-.1.1-.2.1-.4.2-.1.1-.2.1-.3.1h-.3l-.3.3c-.1.2-.3.4-.4.6 0 .1-.1.1-.1.2-.1.3-.3.6-.5.9-.1.2-.4.3-.6.2-.1.1-.2.3-.3.4-.1.2-.3.4-.4.7-.2.4-.4.8-.6 1.3-.2.5-.4 1-.5 1.5-.1.4-.2.9-.3 1.3-.1.5-.2 1-.3 1.6-.2 1-.3 2-.3 3-.1 1.3-.1 2.6-.1 3.9v2.8c0 .6 0 1.2.3 1.7.2.4.7.6 1.1.4.2-.1.4-.2.6-.4.1-.2.1-.5.1-.7v-2.8c0-.9-.1-1.9 0-2.8 0-.9 0-1.9.1-2.8 0-.5.1-1.1.1-1.6 0-.4.1-.8.1-1.2.1-.6.2-1.3.4-1.9.1-.3.2-.7.3-1l.3-.9c.1-.2.1-.3.2-.5s.2-.4.3-.5c.2-.5.5-.9.8-1.3.3-.4.6-.7 1-1 .1-.1.2-.1.3-.2.1 0 .2-.1.3-.1.4-.1.6-.5.5-.9-.1-.3-.4-.5-.7-.5-.1-.1-.2-.1-.4 0z" />
    <path d="M105.6 88.1c-.2.8-.2 1.6-.3 2.5-.1.7-.1 1.5-.1 2.2-.1 1.5-.1 3-.3 4.5-.1.6-.2 1.2-.4 1.8-.1.3-.3.6-.5.9l-.4.4c-.4.3-.9.6-1.3.8-.5.2-1.1.3-1.7.4-.4.1-.8.1-1.2.2-.3 0-.6.1-.9.1-.4 0-.7 0-1.1.1l-2.4.3c-.4 0-.8.1-1.2.1-.5 0-1 0-1.5-.1h-1.4c-.5 0-.9.1-1.4.1-.5 0-.9.1-1.4.1-.5.1-.9.1-1.4.2-.7.2-1.3.6-1.8 1-.8.6-1.6 1.3-2.3 2-.5.5-.9 1.2-1.3 1.8-.2.3-.3.7-.5 1.1-.2.5-.4 1.1-.5 1.7-.1.6-.3 1.2-.4 1.8-.1.3-.1.5-.1.8 0 .1 0 .2-.1.3-.1.2-.1.4-.1.6 0 .2 0 .3.1.5s.3.3.6.4c.2.1.5.1.6.1h1.2c.2 0 .5 0 .7-.1.3 0 .5 0 .8-.1H85c.5 0 1.1 0 1.6.1h2.9c1 0 2.1-.1 3.1-.1s2 0 3.1-.1h2.9c2 .1 4.1.1 6.1.1 1 0 1.9-.1 2.9-.1s2 0 3-.1c.6 0 1.1-.1 1.7-.2.2 0 .4-.1.6-.1.7-.1 1.3-.5 1.9-.9.3-.2.5-.4.7-.6.2-.2.4-.5.6-.8.4-.6.7-1.3 1-2 .3-1 .5-2 .6-3.1.1-1 .1-1.9.2-2.9 0-1.1.1-2.2.1-3.3 0-.9.1-1.9.1-2.8 0-1 0-2 .1-3 0-.9.1-1.8.1-2.7 0-.9.1-1.9 0-2.8 0-.5-.4-1-1-1-.3 0-.5.1-.7.3-.2.2-.3.4-.3.7-.1 1-.1 2-.1 3s-.1 2-.1 3.1v2.9c0 1.1-.1 2.2-.1 3.3 0 1-.1 1.9-.1 2.9 0 .6-.1 1.1-.1 1.7 0 .5-.1 1-.2 1.5v-.3c-.1.8-.3 1.6-.6 2.4-.2.4-.4.7-.6 1-.2.2-.4.5-.7.7-.2.2-.5.3-.7.4-.6.2-1.3.3-1.9.4-1 .1-2 .1-3 .2-1 0-2 .1-3 .1s-2.1.1-3.1.1h-2.9c-1 0-2-.1-3 0-1 0-2 .1-3 .1-2 .1-4.1.2-6.1.2h-3.3c-.5 0-1.1.1-1.6.1h-.6v-.1c.1-.4.2-.9.3-1.3.2-.8.5-1.7.8-2.5.2-.5.5-1 .8-1.5.7-.9 1.6-1.6 2.5-2.3l.9-.6c.2-.1.5-.2.8-.2.7-.1 1.5-.1 2.2-.1.8 0 1.5-.1 2.3 0 .8.1 1.6.2 2.3.2.8 0 1.7-.2 2.5-.4 1-.1 1.9-.2 2.8-.4.5-.1 1-.2 1.5-.4.4-.1.8-.2 1.1-.4.3-.1.6-.3.9-.5.1-.1.2-.2.4-.2.3-.2.5-.4.8-.6.5-.4.8-.8 1.1-1.4.2-.3.3-.7.4-1 .1-.4.2-.8.2-1.2.2-1 .2-2.1.2-3.1 0-.8 0-1.6.1-2.5 0-.5 0-.9.1-1.4 0-.5.1-1 .1-1.5.1-.4.1-.8.2-1.2.1-.4-.1-.8-.5-.9h-.2c-.1.1-.4.3-.5.6zm-19.3 17.1c-.1 0-.1.1-.2.1 0 0 .1-.1.2-.1z" />
    <path d="M92.5 114.7c-.2.2-.2.4-.2.6-.1 1.3-.2 2.7-.3 4 0 .6-.1 1.1-.1 1.7v.4c-.1.1-.1.2-.1.4v1.4c.1.3.4.6.8.6.2 0 .4-.1.6-.2.2-.2.2-.4.2-.6.1-.6.1-1.3.1-1.9 0-.6.1-1.1.1-1.7.1-1.4.2-2.7.3-4.1 0-.4-.4-.8-.8-.8-.2 0-.4 0-.6.2zm11.9-15.1c-.2.4-.1.9.3 1.2.4.2.8.5 1.2.7.4.2.8.4 1.3.6.8.4 1.7.7 2.6 1 .4.1.9.2 1.3.3.4.1.9.2 1.3.3.5.1 1 .2 1.5.2.4.1.9.1 1.3.1h.6c.2 0 .3 0 .5-.1.2 0 .4-.1.5-.2.1-.1.3-.2.4-.3.3-.3.3-.8.1-1.2-.2-.4-.7-.5-1.1-.4-.2.1-.5.1-.7.1-.7.1-1.5 0-2.2 0-.7-.1-1.3-.2-1.9-.3-.4-.1-.7-.2-1.1-.2-.7-.2-1.4-.4-2.1-.7l-1.2-.6c-.5-.3-1-.5-1.5-.8-.1-.1-.3-.1-.4-.1-.2-.1-.5.1-.7.4zm8.1-50.2c-.3.3-.3.8 0 1.1.2.2.4.3.6.5.1.1.2.2.4.3.2.1.4.3.6.4.2.1.4.3.6.4l.2.2c.2.1.3.3.5.4-.3-.5-.6-1.1-.9-1.6l-.9-.9c-.3-.3-.6-.6-.8-1-.1.1-.2.2-.3.2zm4.7 9.5v2c0 .2 0 .5.1.7.1.3.3.6.6.8-.1-.6 0-1.2 0-1.7V60c-.1-.3-.1-.7-.1-1-.1-.2-.3-.3-.4-.5-.2.1-.2.2-.2.4zm-15.7-10.3c-.6.6-1.3 1.2-2 1.7-.3.2-.5.5-.8.7.2.3.5.4.8.3h.4c.1 0 .2-.1.3-.1l.3-.3c.1-.1.1-.2.2-.2.1-.1.3-.2.4-.3.2-.1.3-.3.5-.5h.2c.1 0 .3-.1.3-.2.1.1.2.1.4.1.3 0 .7-.2.8-.6 0-.2.1-.3.1-.5s-.1-.5-.1-.7c0-.1 0-.3-.1-.4 0-.2-.1-.4-.1-.6v-.4c-.1-.5-.1-1-.3-1.6 0 1.3-.3 2.6-1.3 3.6z" />
    <path d="M112.2 47c-.2 0-.3.2-.4.3-.1.2-.1.3-.1.5.1.3.1.6.2.9v.2c0 .2.1.5.1.7 0 .1.1.3.3.4.1.1.2.2.3.2h.4c.1 0 .2-.1.3-.1-.4-.4-.7-.9-.8-1.4-.1-.4-.1-.8-.2-1.1v-.5l-.1-.1zm-.4-12.9c-.1 0-.2.1-.3.2 0 0-.1.1-.1.2v1.6c0 .2.1.5.1.7.1.4.1.8.2 1.1v-.4c0-.5.1-.9.3-1.4V34h-.2c.1.1 0 .1 0 .1zM39.3 72.5c-.2.2-.2.4-.3.6-.1 1.4-.2 2.7-.3 4.1-.1.9-.1 1.9-.1 2.8v6c.1 3.8.1 7.6 0 11.5v5.9c0 1 0 2.1.1 3.1v2.8c0 1.7 0 3.4.1 5.1v4.6c0 .3 0 .7.1 1 .1.3.4.6.8.6.3 0 .7-.2.8-.6v-.4c0-.9 0-1.9.1-2.8 0-1 .1-1.9.1-2.9 0-1.9.1-3.8.1-5.7 0-2 0-3.9-.1-5.9 0-1.9 0-3.8-.1-5.7 0-1.9 0-3.9-.1-5.8 0-2.1-.1-4.2-.2-6.3 0-.9 0-1.8-.1-2.7v-2.6c0-2 .2-4 .3-6 0-.5-.4-.9-.9-.9.1-.1-.1 0-.3.2z" />
    <path d="M39.6 73.1c-.2 0-.4.1-.6.2-.2.2-.2.4-.2.6 0 .2.1.4.2.6.1.1.4.3.6.2.2 0 .4-.1.7-.1h.7c.3.1.6.1.9.3.7.3 1.3.7 1.9 1.1.5.4 1 .9 1.4 1.4.5.7.9 1.3 1.3 2.1.3.8.5 1.7.7 2.5 0 .3.1.6.1.9.1.8.2 1.7.2 2.5 0 .9.1 1.8.1 2.6v18.6c0 .9-.1 1.8-.1 2.7v3.7c-.1.1-.2.3-.2.5 0 .4.1.8.1 1.2.1.6.9.7 1.3.3.1-.1.2-.2.3-.4 0-.1.1-.2.1-.4v-2.3c0-.9 0-1.7.1-2.6 0-.9.1-1.8.1-2.7V88c0-.9 0-1.8-.1-2.7 0-.9-.1-1.8-.2-2.7-.1-1-.3-1.9-.6-2.9s-.8-1.9-1.4-2.8l-.9-1.2c-.6-.6-1.2-1.2-1.9-1.6-.7-.4-1.3-.8-2.1-1-.4-.1-.8-.2-1.2-.2h-.3c-.4.1-.7.2-1 .2z" />
    <path d="M47.3 114c-.1.1-.1.2-.2.3-.1.1-.1.2-.1.3v.4c.2.6.9.9 1.4 1 1.2.4 2.5.6 3.7.6 1.1 0 2.1 0 3.2.1.9 0 1.7.1 2.6.1h2.6c.9 0 1.8-.1 2.8-.1h2.6c.9 0 1.8 0 2.7.1.8 0 1.7.1 2.5.1 1 0 1.9 0 2.9.1h2.5c.9 0 1.8 0 2.7-.1.9 0 1.8-.1 2.6 0 .6.1 1.2.2 1.8.4.3.1.6.3.9.5.4.4.8.8 1.2 1.3.2.3.4.5.6.8.1.1.2.3.3.5.1.2.3.4.5.6.1.1.2.2.4.2.2.1.5 0 .6-.1l.3-.3c.1-.2.2-.5.1-.6-.1-.3-.2-.5-.4-.8l-.3-.6c-.2-.4-.5-.8-.8-1.1-.7-.9-1.5-1.7-2.5-2.2-.5-.2-1.1-.4-1.6-.5-.5-.1-1-.2-1.5-.2h-1.3c-.9 0-1.8.1-2.7.1-1.8 0-3.6.1-5.3 0-1.8 0-3.5-.1-5.3-.1H64c-.8 0-1.7.1-2.5.2-.5 0-.9.1-1.4.1-.5 0-.9 0-1.4.1h-4.6c-1.3 0-2.5.1-3.8-.1-.7-.1-1.3-.2-2-.5 0 0-.1 0-.1-.1 0 0 0-.1.1-.1.2-.3.1-.7-.2-.8-.1-.1-.2-.1-.3-.1-.2.2-.4.3-.5.5z" />
    <path d="M41.3 119.7c-.1 0-.1.1-.2.1-.4.2-.5.7-.3 1 .2.3.4.5.7.6.3.1.6.2 1 .2.7.1 1.4.1 2.1.1.6 0 1.2 0 1.8-.1 1 0 2-.1 2.9-.1 1.1 0 2.2-.1 3.2 0h1.8c.5 0 1.1 0 1.6.1.5 0 1.1.1 1.6.1s1.1.1 1.6.2c2.972.51 6.366.919 9.772 1.285 1 .1 2.1.1 3.1.1 1.1 0 2.2-.1 3.2-.1s2-.1 2.9-.1c1-.1 2-.2 3.1-.2 1.2 0 2.5-.1 3.7-.1h1.8c.3 0 .5 0 .8.1.2 0 .5.1.7 0 .3-.1.5-.2.7-.5.1-.2.2-.4.1-.7 0-.2 0-.3-.1-.5s-.3-.4-.6-.4h-.5c-.3-.1-.7-.2-1.1-.2-.5-.1-1.1-.1-1.6-.1h-3c-1 0-2.1.1-3.1.2s-2 .2-2.9.2c-1.1 0-2.2.1-3.3.2-1 .1-2.1.1-3.1.1s-2.1-.1-3.1-.1c-1-.1-2-.2-2.9-.3-1.1-.1-2.3-.2-3.4-.3-.5-.1-1.1-.1-1.6-.2s-1-.1-1.6-.1c-1-.1-2-.1-3.1-.1-1 0-2.1 0-3.1.1-1.2.1-2.4.1-3.6.2-.5 0-1 .1-1.5.1-1 .1-1.9.1-2.9 0h-.2v-.1c-.1-.2-.4-.4-.6-.4-.1-.1-.2-.1-.3 0l-.472-.285zm60.1-87.4c0 .6.1 1.2.2 1.8.1 1 .3 2 .4 3 .1.1.1.1.2.1.2.1.5 0 .6-.2.1-.1.1-.2.2-.3 0-.1.1-.2.1-.3.1.2.4.3.6.2v-.4c0-.4.1-.7.3-1-.1-.1-.2-.1-.2-.2-.2-.2-.4-.5-.4-.8 0-.2 0-.3-.1-.5v-.4c-.1-.1-.2-.2-.4-.2-.1 0-.2 0-.4.1-.1.1-.2.3-.3.4l-.3-.9c-.1-.2-.2-.3-.4-.4h-.1zm.1 1.6v-.3.3zm10.7-.4c-.3 0-.6.2-.8.4l-.1.1c0 .6.1 1.2.1 1.8v.6c.1.3.2.7.2 1 0 .2.1.3.1.5v-.3c0-.5.1-.9.3-1.4 0-.8 0-1.7.1-2.5.1 0 .1-.1.1-.2z" />
    <path d="M111.7 31.3h-.9c0 .1.1.1.1.2.1.3.2.5.2.7.1.5.1.9.2 1.4.1.7.1 1.5.1 2.2 0 .5-.2.9-.5 1.2 0 1.2-.1 2.5-.1 3.7v2.4c0 1.2 0 2.3.1 3.5v4.5c0 .1-.1.1-.1.2.1.1.2.1.3.2.5.5 1.1.9 1.6 1.4.1-.1.2-.2.2-.3.1-.2.2-.4.2-.6v-.2c0-.2.1-.4.1-.6 0-.3.1-.6.1-.9v-.1c-.4-.4-.7-1-.9-1.5-.1-.4-.1-.8-.2-1.1v-.5c-.2-.4-.3-.9-.4-1.4-.1-1.3 0-2.7 0-4v-.1c0-.6-.1-1.2-.1-1.9v-2c0-.5.1-.9.3-1.4v-2.5c0-.7.2-1.3.6-1.8-.1-.1-.1-.3-.3-.4 0-.2-.2-.3-.6-.3zm-8.6.4c-.2 0-.3.1-.4.2-.2.1-.3.3-.4.4-.2.2-.2.5-.2.8v5c.2 1.3.4 2.6.5 3.9.2 1.3.4 2.9.1 4.2.1.8.3 1.7.4 2.5.1.5.7.8 1.2.7.2-.1.5-.2.6-.5.1-.2.2-.5.1-.8l-.6-3.6c-.1-1.6-.3-3.2-.3-4.8-.1-.1-.1-.2-.2-.3-.2-.4-.2-.5-.2-.9V36.1c0-.4.1-.7.3-1-.1-.1-.2-.1-.2-.2-.2-.2-.4-.5-.4-.8 0-.2 0-.3-.1-.5v-.1c0-.4 0-.8.1-1.1 0-.3.1-.7.3-.9-.3.1-.4.1-.6.2z" />
    <path d="M117 30.4c-.3 0-.5.1-.8.2l-1.2.3c-.5.1-.9.3-1.4.5-.5.2-1 .5-1.4.9-.2.2-.2.6 0 .9.2.2.7.2.9 0l.3-.3c.3-.2.6-.4 1-.5.5-.2 1.1-.4 1.6-.5.3-.1.6-.1.9-.2 0 .1-.1.2-.1.3-.1.1-.1.2-.2.4-.1.1-.1.3-.2.4v.3c0 .1.1.3.1.4.1.2.3.3.4.3h.5c.2 0 .4-.1.6-.2.2-.1.5-.1.7-.1h.9c-.2.3-.4.5-.6.8-.1.1-.2.3-.3.4-.1.1-.2.2-.2.4-.1.2-.1.3-.1.5s.1.3.2.4c.2.2.6.3.9.4.2 0 .4.1.6.1l.9.3c.1.1.3.1.4.2-.2.3-.5.5-.8.8-.3.3-.6.6-.6 1 0 .6.6 1 1 1.3.6.4 1.2.8 1.7 1.3-.1.1-.3.2-.4.3-.2.2-.4.3-.5.6-.2.4-.1.9.1 1.4.1.2.3.5.5.7.1.1.2.3.3.4.1.2.3.3.4.5.1.2.3.4.4.6.1.2.2.4.4.6.2.4.4.7.6 1.1.1.3.2.5.3.8-.1 0-.2.1-.4.1-.2.1-.4.3-.5.5-.1.1-.1.2-.1.3 0 .2-.1.3-.1.5 0 .5.1 1 .1 1.5.1.6.1 1.2.2 1.8.1.7.1 1.4.1 2.1 0 .8.1 1.5 0 2.3-.2-.2-.4-.4-.7-.5-.4-.1-.9.1-1.2.4-.3.3-.4.7-.4 1-.1.5-.1 1-.1 1.5 0 .8 0 1.6-.1 2.4-.1-.1-.2-.2-.3-.2-.1-.1-.3-.1-.5-.1s-.3 0-.5.1c-.6.3-.6 1.1-.7 1.7v.3h-.1c-.3-.1-.5-.2-.8-.4 0-.1 0-.2-.1-.3-.1-.2-.3-.3-.5-.4-.4-.1-.8.1-.9.5 0 .1-.1.2-.1.3v.3c0 .1 0 .3.1.4.1.2.3.4.5.5.2.1.4.2.5.3.4.2.8.4 1.1.6.4.2.8.4 1.2.3.1 0 .3-.1.4-.3l.2-.2c0-.1.1-.2.1-.3v-1h.7c.1 0 .3-.1.4-.2.2-.1.3-.3.5-.5.1-.1.1-.3.2-.4 0-.1.1-.2.1-.3 0-.2.1-.4.1-.6 0-.2 0-.4.1-.6 0-.5 0-.9.1-1.4v-.8l.3.3c.2.2.5.3.8.2.2 0 .4-.1.5-.2l.4-.4c.1-.1.1-.3.2-.4 0-.1.1-.3.1-.5v-3.2c0-.8-.1-1.5-.1-2.3 0-.4-.1-.8-.1-1.2 0-.3-.1-.5-.1-.8 0-.3-.1-.6-.1-.9h.3c.2 0 .4-.1.5-.2l.3-.3c.1-.1.2-.4.1-.6 0-.2 0-.3-.1-.5 0-.2-.1-.3-.1-.4-.2-.7-.5-1.4-.8-2.1-.6-1.2-1.4-2.3-2.3-3.4l-.1-.1.6-.6c.2-.2.4-.5.4-.8v-.1c0-.1 0-.3-.1-.4-.1-.1-.2-.3-.3-.4-.2-.2-.4-.3-.6-.5-.6-.5-1.2-.9-1.8-1.3.2-.2.3-.4.5-.6.1-.2.3-.3.4-.5.2-.2.2-.5.2-.8 0-.3-.2-.6-.4-.8l-.3-.3c-.1 0-.2-.1-.2-.1-.4-.2-.8-.4-1.2-.5-.2-.1-.4-.1-.6-.2.1-.2.3-.3.4-.5.3-.4.6-1 .5-1.5 0-.3-.2-.5-.5-.7-.2-.1-.4-.1-.6-.2-.3 0-.5-.1-.8-.1h-.7c-.2 0-.4.1-.6.1 0 0 0-.1.1-.1.1-.2.2-.4.2-.6.1-.4-.1-.7-.4-.9-.2-.1-.3-.1-.5-.1.6.3.4.3.2.3zm3 2.5s0 .1 0 0c0 .1 0 0 0 0zm1.9 4.1c0 .1 0 .1 0 0 0 .1 0 .1 0 0zm.2 1.7c.1 0 .1.1.2.1-.1-.1-.1-.1-.2-.1zm2.1 12.4s0 .1 0 0c0 .1 0 0 0 0zM97.8 33.9c-.4.1-.7.3-1.1.4-.3.1-.6.2-.9.4-.3.1-.5.2-.7.4-.3.1-.5.3-.8.5-.2.1-.4.3-.7.4-.3.2-.6.4-.9.7-.1.1-.3.4-.3.6 0 .1 0 .3.1.4l.3.3c.3.2.7.1 1 .1h.1l-.9.6c-.5.3-1 .6-1.4 1-.5.3-.9.8-1.3 1.2-.2.2-.3.4-.5.6-.1.1-.2.2-.2.3-.1.1-.2.2-.2.3 0 .1-.1.1-.1.2-.1.1-.1.2-.1.4s.1.3.2.4c.1.1.2.1.3.2h.3c.2 0 .4-.2.5-.3 0 .1-.1.1-.1.2-.3.6-.6 1.2-.8 1.8-.1.3-.3.7-.4 1l-.3.9c-.1.3-.2.7-.2 1.1 0 .2.1.5.2.6.2.2.5.3.7.2.3-.1.6-.4.8-.6.2-.2.4-.4.5-.7v2.2c0 .2 0 .3.1.5.1.3.1.6.3.9.1.2.3.3.5.4.2.1.4 0 .6-.1.2-.1.3-.3.4-.4.1-.2.1-.3.2-.5 0 .1.1.3.1.4 0 .1.1.3.2.4.1.2.2.4.3.5.2.3.5.6.9.6.2 0 .4 0 .6-.1.2-.1.3-.2.4-.4l.1-.1c0 .2.1.3.1.5 0 .1.1.3.1.4.1.1.1.3.2.4 0 .1.1.1.2.2s.3.2.4.2h.6c.1 0 .2-.1.2-.1s.1 0 .1-.1c.1 0 .1-.1.1-.1 0 .1.1.2.1.3.1.1.1.3.2.4.1.2.3.3.6.2.2-.1.4-.4.3-.6-.1-.4-.2-.8-.4-1.2-.1-.1-.2-.2-.4-.3-.2-.1-.5-.2-.7-.1-.2 0-.3.1-.4.2-.2-.4-.3-.9-.4-1.3 0-.1-.1-.3-.2-.4-.1-.1-.1-.3-.2-.4-.1-.1-.2-.1-.3-.2h-.4c-.1 0-.1.1-.2.1l-.3.3c-.1.3-.3.5-.4.7 0-.1-.1-.1-.1-.2-.2-.4-.3-.9-.4-1.3 0-.2-.1-.4-.1-.6 0-.1-.1-.3-.1-.4 0-.1-.1-.3-.2-.4-.1-.1-.2-.1-.3-.2-.2-.2-.6-.1-.8.1-.1.1-.2.2-.2.3-.1.1-.1.2-.2.3 0 0 0 .1-.1.1v-2.3c0-.2 0-.4-.1-.6 0-.1-.1-.1-.1-.2-.1-.1-.2-.1-.3-.2-.2-.1-.4 0-.6.1l-.2.2c-.1 0-.1.1-.2.2l-.1.1c0-.1.1-.2.1-.3.2-.5.4-1 .6-1.4.1-.3.3-.5.4-.8.1-.2.3-.5.4-.7.1-.2.2-.3.3-.5.1-.3.3-.5.3-.8 0-.2 0-.5-.2-.7l-.1-.1.9-.6c.4-.3.8-.5 1.2-.8l.9-.6c.3-.2.5-.4.6-.7.1-.3 0-.7-.3-.9-.2-.1-.4-.2-.7-.2.2-.1.3-.2.5-.3.2-.1.5-.3.7-.4.2-.1.5-.2.7-.3.4-.2.9-.3 1.3-.5.3-.1.6-.5.5-.8-.1-.3-.3-.5-.6-.5 0-.1-.1-.1-.1-.1zm-4.2 14.6s-.1 0 0 0c-.1 0 0 0 0 0zm.8 1.8s0 .1 0 0c0 .1 0 0 0 0z" />
    <path d="M99.5 31.6c-.1.1-.1.2-.1.4v.4h-.5c-.4 0-.8 0-1.2.1-.2 0-.4.1-.5.1-.1 0-.2.1-.3.1-.2.1-.4.2-.5.3-.2.2-.3.4-.3.6 0 .3.3.5.6.6h.5c.3 0 .5.1.8.2.2.1.3.1.4.2l.6.6c.2.2.4.2.6 0 .2-.2.2-.5 0-.6-.2-.2-.4-.4-.6-.5-.2-.1-.3-.3-.5-.4-.1-.1-.3-.1-.4-.2-.1 0-.1-.1-.2-.1.3 0 .6 0 1-.1h1.3c.1 0 .2 0 .3-.1.1-.1.2-.2.2-.3v-.3c0-.1 0-.1-.1-.2v-.1c.3.1.6.3.8.4.3.2.7.4 1 .5.2.1.5 0 .6-.2.1-.2.1-.6-.2-.7-.3-.1-.6-.3-.8-.4-.3-.2-.6-.3-.9-.4-.2-.1-.3-.1-.5-.2s-.3-.1-.5-.1-.5.2-.6.4zm1 .2s0 .1 0 0c0 .1 0 0 0 0z" />
    <path d="M96.7 30.8c-.1 0-.3.1-.4.1-.3.1-.6.2-.8.4-.1.2-.2.3-.2.5 0 .3.2.5.4.6.2.2.5.2.7.2.3 0 .5.1.8.2h.1c-.2 0-.4 0-.5.1l-1.2.3c-.3.1-.6.2-.9.4-.3.1-.6.3-.9.4-.2.1-.4.2-.5.4-.3.3-.5.7-.2 1.1.3.5.9.5 1.5.5-.4 0-.5 0-.6.1-.4.2-.8.4-1.2.7-.2.2-.5.3-.7.5-.3.2-.6.4-.8.7-.1.1-.1.4-.1.5 0 .1.1.1.1.2-.2.2-.4.3-.7.5-.3.3-.6.6-.8.9-.1.1-.2.2-.3.4-.3.4-.6.8-.6 1.3 0 .4.3.6.6.6.2 0 .4 0 .7-.2.2-.1.4-.2.5-.3.2-.1.3-.2.5-.3.1 0 .1-.1.2-.1-.2.4-.3.7-.5 1.1-.1.3-.2.6-.3.8-.1.3-.2.6-.2.9-.1.3-.1.5-.1.8 0 .2.1.4.3.5h.1c-.1.1-.1.3-.1.4 0 .2 0 .3.1.4-.2 0-.5.2-.6.4-.1.2-.2.6 0 .9.1.2.2.3.4.4.1.1.3.1.4.2 0 .1 0 .3.1.4.1.2.3.3.5.4.2.1.4 0 .6-.1.2-.1.4-.3.5-.4.1 0 .3-.1.4-.2h.1v.8c0 .3-.1.6 0 .8.1.3.3.5.6.6h.1l.1.1c.3.3.7.5 1.2.5s.9-.1 1.3-.3v.1c0 .1.1.2.2.2 0 .3.2.7.5.9.4.2.8.2 1.2 0 .1 0 .1-.1.2-.1h.1c.2.1.6 0 .8-.1.2-.1.3-.2.5-.4l.2-.2c.1-.2.3-.3.4-.5 0-.1.1-.1.1-.2.2-.2.4-.4.5-.6.2-.2.4-.4.5-.6.1-.2.3-.3.4-.5l.3-.3c.1-.2.2-.3.3-.5.1-.1.2-.3.3-.4.1-.2.1-.3.1-.5 0-.1 0-.3-.1-.4-.1-1.8-.3-3.7-.4-5.5-.1-.9-.1-1.8-.2-2.7-.1-.9-.1-1.7-.2-2.6 0-.1 0-.3-.1-.4 0-.3-.1-.6-.1-.9 0-.5-.1-.9-.2-1.4 0-.1-.1-.2-.1-.2.2-.1.3-.2.4-.3.1-.2.1-.4.1-.6 0-.2-.2-.4-.3-.4-1-.4-2-.9-3.1-1.1-.4-.1-.8-.1-1.3-.1-.1 0-.4.1-.7.2zm2 1.5c0-.1 0-.1 0 0 .5 0 1 .2 1.5.4h.1l-.1.1c-.1-.1-.1-.2-.2-.2s-.2-.1-.3-.1c-.2 0-.4 0-.5.1h-.1c-.2-.1-.3-.2-.4-.3zm-2.1 2.1s0 .1 0 0c-.1.1-.1 0-.2 0h.2zm-3.5 5v.1c0 .2 0 .3-.1.5-.1-.1-.3-.3-.5-.2h-.2c.3-.2.5-.3.8-.4zm20.1-7.1c-.1.3-.1.5-.1.8v.1c-.2 0-.4.2-.5.4l-.3.6c0 .2 0 .5-.1.7 0 .2 0 .3-.1.5 0 .2 0 .4-.1.6v.1c0 .2-.1.5-.1.7v3.9c-.1.1-.1.3-.1.4 0 .2 0 .3-.1.5 0 .2 0 .3-.1.5 0 .4-.1.7-.1 1.1V45c0 .5.1 1 .1 1.5 0 .2.1.4.1.6.1.3.2.6.5.7 0 .4.1.8.2 1.2.1.3.3.5.6.6 0 .3.2.5.4.7.1.1.3.1.4.1h.3c.2.6.5 1.2.8 1.8.2.5.5 1.1.7 1.6l.6 1.2c.2.5.5 1 .7 1.6.1.3.2.6.4.9.1.2.2.3.4.4.1.1.2.2.4.2.1 0 .2.1.4.1s.4-.1.6-.2c.2-.2.3-.5.2-.8-.1-.3-.2-.5-.2-.8-.1-.2-.1-.4-.2-.6.2-.2.3-.5.2-.7 0-.1-.1-.2-.1-.4.1 0 .1 0 .2-.1.2-.1.3-.2.4-.4.1-.2.1-.5 0-.7-.1-.2-.1-.4-.2-.6 0-.2-.1-.3-.1-.5.2-.1.4-.4.3-.7v-.4l-.6-1.5c-.1-.3-.3-.7-.4-1v-.1s0-.1-.1-.1c-.2-.4-.4-.8-.5-1.3l-.6-1.5c-.1-.3-.3-.6-.4-1-.1-.1-.1-.2-.2-.4V40.5c0-.5-.1-1-.2-1.5 0-.1-.1-.3-.2-.4v-.5c-.1-.6-.1-1.3-.2-1.9-.1-.5-.2-1-.2-1.4 0-.2-.1-.4-.1-.6-.1-.1-.1-.2-.2-.4l-.3-.3c0-.2-.1-.5-.1-.7-.1-.3-.2-.6-.4-.9l-.3-.3c-.1-.1-.3-.1-.4-.1-.5.2-.9.5-1 .8zm4.5 19.1c0-.1-.1-.1-.1-.2.1 0 .1.1.1.2.1.1.1.3.2.4-.1-.1-.1-.3-.2-.4zm-.7 5.2c0 .1 0 .1 0 0 0 .1 0 .1 0 0z" />
    <path d="M102.7 33.8c.1 2.7.1 5.4.2 8.1v3.4c0 .1.1.1.1.2.1.2.3.3.4.3.1 0 .2 0 .3-.1.1-.1.2-.2.2-.3.1-.2.1-.3.1-.5v-3c0-1.3-.1-2.6-.1-3.8 0-1 0-2-.1-3l-.1-.1c-.2-.2-.4-.5-.4-.8 0-.2 0-.3-.1-.5v-.6c-.3.1-.5.3-.5.7z" />
    <path d="M103.4 41.4c0 .8-.1 1.6-.1 2.4v1.7c0 .3 0 .5.1.8 0 .2.2.3.4.3s.4-.2.4-.4V43c0-1.1.1-2.3.1-3.4 0-1.2.1-2.4.1-3.6v-.1c-.1-.2-.2-.5-.3-.8-.1-.1-.2-.2-.4-.3-.1-.1-.1-.1-.1-.2 0 2.3-.1 4.6-.2 6.8zm13.2-10.1c-.1 0-.1.1-.2.2-.1 0-.1.1-.2.1l-.1.1h-.1c-.2-.1-.4 0-.5 0-.2 0-.3.1-.5.2-.1.1-.2.4-.1.5 0 .1.1.2.2.3-.2.1-.4.3-.7.4-.1 0-.2-.1-.3-.1-.2 0-.3 0-.5.2-.1.1-.2.2-.2.3v-.1c0-.2 0-.4-.1-.6-.1-.2-.2-.4-.4-.4-.3-.1-.6.1-.7.3-.1.2-.1.5-.2.7v.6c-.1.2-.1.5-.1.8v8c0 .5 0 1.1.1 1.6 0 .2.2.4.5.5h.2c.2.7.3 1.4.5 2.1 0 .1.1.2.1.3.1.3.2.5.2.8.1.3.2.6.3.8v.1s-.1 0-.1.1c-.3.2-.4.5-.4.9-.1.2-.1.4-.1.6 0 .1 0 .2.1.3 0 .2.1.3.2.5s.2.3.3.5c.1.2.2.3.4.5.1.1.1.2.2.3 0 .1.1.2.1.3.1.1.2.2.2.4.1.2.2.3.3.5.1.2.2.3.3.5.1.2.3.4.4.6 0 .1 0 .2.1.3v.2c0 .2.1.4.2.6 0 .1.1.2.1.4 0 .3.1.6.1.8.1.3.1.5.2.8.1.2.1.4.2.6.1.2.1.5.2.7.1.2.1.3.2.5.1.3.2.6.2 1 .1.6.3 1.2.5 1.8 0 .1.1.1.1.2 0 .3.1.5.1.7.1.2.1.4.2.7 0 .1.1.2.2.3.1.1.3.2.5.2.1 0 .3 0 .4-.1h.1c0 .1.1.2.1.2l.3.3v.3c0 .1.1.3.2.4.1.3.6.4.9.4.1 0 .2-.1.3-.1.1.1.2.3.2.4.1.2.1.3.2.5 0 .2.1.4.1.5.1.3.3.6.6.6h.5c.2 0 .4-.2.5-.3.5-.1.9-.5.9-1 0-.8 0-1.5-.1-2.3 0-.7-.1-1.4-.1-2 0-.7-.1-1.4-.1-2.1 0-.6-.1-1.2-.2-1.8.1-.1.2-.2.2-.3.1.1.1.1.2.1.1.1.3.2.5.2s.4-.1.5-.2c.1-.1.2-.3.2-.5 0-.4-.1-.7-.1-1.1-.1-.6-.1-1.2-.1-1.8 0-.4-.1-.8-.1-1.2 0-.3 0-.5-.1-.8v-.8c0-.2.1-.3.1-.5l.3-.9c.1-.3.2-.5.3-.8 0-.1.1-.1.1-.2s.1-.2.1-.3v-.2c0-.5-.2-1-.5-1.4-.1-.1-.1-.2-.2-.4 0-.1 0-.3-.1-.4-.3-.6-.7-1.2-1.1-1.9-.1-.1-.1-.2-.2-.4-.1-.3-.4-.4-.7-.4-.2-.2-.3-.4-.5-.6-.2-.3-.5-.4-.8-.6 0-.1-.1-.1-.1-.2-.2-.2-.4-.5-.7-.7-.2-.2-.5-.3-.8-.2-.1 0-.2.1-.2.1-.1-.1-.2-.1-.3-.1-.1-.1-.1-.2-.2-.3 0-.1-.1-.2-.1-.3-.1-.2-.2-.4-.2-.6-.2-.4-.3-.8-.5-1.2 0 0 0 .1.1.1l-.3-.6c0-.1-.1-.2-.1-.3 0-.2-.1-.3-.1-.5-.1-.2-.1-.5-.2-.7 0-.1-.1-.2-.1-.3 0-.1-.1-.3-.2-.4 0-.1-.1-.1-.1-.2s-.1-.2-.2-.2l-.1-.1c-.1-.2-.1-.3-.2-.5 0 0 0 .1.1.1-.1-.3-.3-.6-.3-.9v-.4c0-.2.1-.4.2-.6 0-.1.1-.3.1-.4.2-.2.3-.4.4-.7v-.1c.1-.1.1-.3.1-.4 0-.1 0-.3-.1-.4v-.1c0-.1-.1-.2-.2-.3-.1 0-.1-.1-.2-.1-.4-.6-.4-.5-.5-.5zm-2.6 4.8c.1-.3.1-.6.2-.9 0-.2.1-.3.1-.5.1.1.3.1.4 0 0 .1.1.1.1.1.2.2.5.2.7.1v2.8h-.1c-.5-.1-1 .3-.8.8.2.9.5 1.8.7 2.7-.2.2-.3.5-.2.7.1.4.1.7.2 1.1 0 .1.1.3.1.4l.3 1.2h-.1c-.2.1-.4.2-.5.4-.1.2-.1.4-.1.6.1.5.2.9.3 1.4.1.5.3 1 .5 1.5.1.4.3.8.4 1.3 0 .1 0 .1.1.2 0 0-.1 0-.1.1-.1-.3-.3-.6-.4-.9l-.3-.6c0-.1-.1-.1-.1-.2s0-.1-.1-.2c0-.1-.1-.2-.1-.2s0-.1-.1-.1c-.1-.1-.1-.2-.2-.2-.1-.2-.2-.5-.2-.7-.1-.2-.1-.3-.2-.5-.2-.7-.3-1.3-.5-2-.2-.6-.3-1.3-.4-1.9v-3.3c0-.2.1-.5.1-.7v-.4c.1-.9.2-1.5.3-2.1zm3.2 14zm3.9 12.9c.1-.2.1-.3.2-.5 0 .1.1.1.2.2v1s-.1-.1-.2-.1c-.1-.1-.2-.1-.3-.2 0-.1 0-.2-.1-.2.2 0 .2-.1.2-.2zm2.7 1.7s0 .1 0 0c0 .1 0 .1 0 0 0 .1 0 .1 0 0z" />
    <path d="M118.1 33.1c-.2 0-.4 0-.6.1-.2.1-.4.2-.5.4 0 .1-.1.1-.1.2h-.1c-.2.1-.3.2-.4.4-.1.1-.1.3-.1.4-.1 0-.1 0-.1.1l-.3.3c-.1.1-.1.2-.1.4v.4c0 .2.1.4.1.6 0 .1 0 .2.1.3 0 .2.1.5.1.7 0 .1 0 .3.1.4-.3-.5-.6-1-.9-1.6-.2-.3-.3-.6-.5-.9-.1-.2-.3-.4-.4-.6-.1-.2-.3-.3-.4-.5-.1-.1-.3-.3-.4-.3-.1 0-.3-.1-.4-.1h-.1c-.1 0-.2 0-.3.1-.1 0-.2.1-.3.2l-.2.2c0 .1-.1.2-.1.3v.4c0 .3-.1.7-.1 1 0 .3 0 .6-.1.9v.3c-.1 1-.1 2.1-.1 3.1 0 .2.1.4.3.5 0 .1 0 .2.1.3.1.2.1.2.3.3.1.1.3.1.5 0s.2-.2.2-.4c0-.5.1-1 .1-1.5.1-.5.1-1 .2-1.6.1-.4.1-.9.1-1.3 0-.2 0-.4.1-.7.2.3.4.7.6 1.1.2.4.4.7.6 1.1.3.6.6 1.2.9 1.7.1.2.2.4.4.6.1.2.2.3.3.5.2.3.6.3.9.3.3-.1.5-.2.6-.4.1-.1.1-.3.1-.4 0 .3.1.6.1 1 0 .1.1.3.2.4.2.2.4.2.6.2h.2c.1.1.2.2.2.3.1.2.2.4.4.5.1.2.3.3.4.5.1.2.3.3.5.5.2.1.4.2.7.2.2 0 .3-.1.5-.1l.4-.4c0-.1.1-.2.1-.3v-.6s.1 0 .1-.1c.1-.1.2-.1.3-.2.3 0 .6-.2.8-.5.2-.3.2-.6 0-.9-.1-.2-.3-.4-.4-.6 0 0-.1-.1-.1-.2-.1-.1-.1-.2-.2-.3 0-.1 0-.1-.1-.2s-.1-.2-.2-.2c-.1-.1-.2-.2-.4-.2h-.4c0-.3.1-.5.1-.8 0-.4 0-.8-.1-1.1 0-.2-.1-.4-.1-.5-.1-.2-.4-.4-.6-.5-.1-.1-.1-.2-.2-.2-.3-.2-.6-.2-1-.2.1-.2.1-.3.2-.5v-.5c0-.1-.1-.3-.2-.4.1-.1.2-.2.2-.4v-.4c0-.1 0-.1-.1-.2l-.3-.3c-.2-.1-.4-.1-.6-.1-.1 0-.2-.1-.2-.1h-.6c-.2.1-.3.1-.3.1zm-.2 5.7c0-.3-.1-.6-.2-.9h.1c0 .2 0 .5.1.7v.2z" />
    <path d="M118.7 32.1c-.2 0-.5.2-.7.3-.3.2-.7.4-1 .6-.4.2-.7.5-1 .9-.2.3-.1.9.3 1.1.2.1.4.1.6.1.2-.1.3-.2.5-.4l.3-.3c.2-.1.4-.2.6-.4l.6-.3c.1 0 .2-.1.3-.1.1.1.2.1.3.2.4.2.9.1 1.1-.3.2-.4.1-.8-.3-1.1-.1-.1-.3-.2-.4-.3-.2-.1-.4-.1-.6-.1-.3 0-.5.1-.6.1zm-3.8 2c-.1.1-.3.2-.4.3-.1.1-.2.2-.3.4-.2.3-.3.7-.3 1.1-.1.4-.1.7-.1 1.1v1.3c0 .8.1 1.6.1 2.4.1 1.1.1 2.3.2 3.4 0 .6.1 1.2.2 1.7 0 .3.1.6.1.9 0 .2 0 .3.1.5v.3c0 .1.1.3.1.4 0 .2.2.3.4.2.2-.1.3-.2.2-.4 0-.1-.1-.2-.1-.4v.1c0-.2-.1-.5-.1-.7 0-.3-.1-.7-.1-1-.1-.6-.1-1.1-.1-1.7-.1-1.1-.1-2.3-.2-3.4v-.9c0-.6 0-1.1-.1-1.6v-1.7c0-.2.1-.4.1-.6 0-.2.1-.4.2-.7 0-.1.1-.2.1-.2 0-.1.1-.1.2-.2l.1-.1.2-.2v-.3c0-.1-.1-.1-.2-.2h-.1l-.2.2z" />
    <path d="M112.8 35.5c-.1.1-.2.3-.2.4-.2 0-.3.1-.4.3-.1.2-.2.3-.2.5s-.1.3-.1.5c0 .1 0 .3-.1.4 0 .3-.1.6-.1.9 0 .3-.1.7-.1 1v1.1c0 .4.2.9.3 1.3.1.3.5.6.8.5.3-.1.6-.5.5-.8-.1-.3-.2-.5-.2-.8.1-.1.2-.3.2-.5v-3.8c.2.2.5.2.7 0 .2-.2.2-.5 0-.7-.1-.1-.1-.2-.2-.2-.1-.1-.2-.2-.4-.3-.1 0-.1-.1-.2-.1-.1.1-.3.2-.3.3zm3.5-6.1c-.9.1-1.9.2-2.8.5-.4.1-.8.3-1.2.5-.4.2-.7.3-1.1.5-.2.1-.4.3-.4.5 0 .1.1.1.1.2.1.3.2.5.2.7v.3c.1.1.2.1.3.1.3.1.5 0 .8-.1.3-.2.6-.3.9-.4l.9-.3c.5-.2 1-.2 1.5-.3.5 0 .9-.1 1.4-.1.2.4.6.6 1 .5.2-.1.4-.1.6-.2.3-.1.5-.2.7-.5.1-.2.1-.4.1-.5 0-.2 0-.3-.1-.5-.1-.1-.1-.2-.2-.2-.2-.2-.5-.3-.7-.4-.4-.1-.9-.2-1.3-.2-.2-.1-.4-.1-.7-.1z" />
    <path d="M104.8 28.9h-.7c-.2 0-.4.1-.6.1h-.3c-.3.1-.5.3-.5.6 0 .5-.1 1.1-.1 1.6 0 .3 0 .6.1.9 0 .2 0 .3.1.5 0 .2 0 .4.1.6.1.2.2.3.4.4 0-.4 0-.8.1-1.1 0-.3.1-.7.3-1l.1-.1c0-.2 0-.4.1-.6v-.4h1.1c.3 0 .5 0 .8.1.6 0 1.1.1 1.7.1h1.2c.4 0 .8 0 1.2.1h.5v.2l.6.6c.1.3.2.5.2.7.1.5.1.9.2 1.4 0 .3 0 .6.1.9h.1c.4 0 .8-.3.8-.8 0-.8-.1-1.6-.2-2.4 0-.4-.1-.9-.2-1.3 0-.3-.1-.5-.3-.7-.2-.2-.4-.3-.6-.4-.2-.1-.4-.1-.6-.1h-.3c-1.4 0-2.8-.1-4.2-.1-.5.2-.8.2-1.2.2z" />
    <path d="M103.7 30.3c-.2.1-.4.3-.4.6 0 .1 0 .2-.1.3-.1.1-.2.2-.3.4-.1.4-.1.8-.1 1.2v4.6c0 .7 0 1.4.1 2 0 .3.1.5.3.7.2.2.4.3.7.3.5 0 1-.4 1-1v-5.5c0-.6.1-1.1.2-1.7v.3c.1-.3.1-.6.2-1 0-.3 0-.5-.1-.7-.1-.2-.3-.4-.6-.4h-.2c-.3-.3-.5-.2-.7-.1z" />
    <path d="M103.6 29.2c-.2.1-.3.3-.4.5-.1.2 0 .5.1.7.1.2.3.4.5.4.7.1 1.5.3 2.2.4.6.1 1.1.1 1.7 0h2.8c0 .3 0 .7.1 1 0 .4 0 .9.1 1.3 0 .8.1 1.5.2 2.3.2 1.6.3 3.1.4 4.7 0 .6.1 1.2.1 1.9v.8c0 .4.1.8.1 1.1.1.3.3.4.6.4.1 0 .2 0 .3-.1.1-.1.3-.2.3-.4.1-.4.1-.8.1-1.3v-1.2c0-.7-.1-1.5-.1-2.2-.1-.8-.1-1.6-.2-2.4-.1-.8-.2-1.5-.3-2.3-.1-.8-.1-1.5-.2-2.3 0-.5-.1-.9-.1-1.4v-.3c0-.3-.1-.6-.2-.8-.1-.1-.2-.3-.3-.3-.1-.1-.2-.1-.3-.1-.1 0-.2 0-.3-.1-.7-.1-1.3-.1-2-.2-.7 0-1.4 0-2.1-.1-.3 0-.6 0-.9-.1-.6-.1-1.1-.2-1.7-.3h-.2c0 .3-.1.3-.3.4zm-.2 6.9c.1.8.2 1.6.2 2.5 0 .5.1.9.1 1.4.1 1.1.2 2.3.2 3.4 0 .8.1 1.6.1 2.4 0 .4 0 .8.1 1.1v.8c0 .2 0 .4.1.6 0 .1.1.2.1.2.1.1.2.2.4.2.1 0 .3-.1.4-.2.1-.1.1-.2.2-.4v-.7c0-.2 0-.4-.1-.6 0-.1 0-.2-.1-.3v-.1l-.3-3.3-.3-3.3c0-.5-.1-.9-.1-1.4-.1-.8-.2-1.6-.2-2.4 0-.1 0-.2-.1-.3-.1-.1-.2-.1-.3-.1-.2 0-.4.2-.4.5z" />
    <path d="M100.2 29.9h-.8c-.2 0-.3 0-.4.1-.2.1-.3.4-.3.6 0 .2.1.5.3.6.1 0 .2.1.3.2.2.2.5.4.6.6.1.1.1.2.2.3.1.2.1.3.1.5.1.4.5.6.8.5.4-.1.6-.5.5-.8l-.3-.9s0-.1-.1-.1c.1 0 .3 0 .4.1.1.1.3.2.4.3.1.1.2.1.3.2.1.1.3.1.4.1.2 0 .4-.1.6-.2.1-.1.1-.1.1-.2.1 0 .3-.1.4-.2.3-.3.3-.7 0-.9-.2-.2-.3-.4-.6-.5-.2-.1-.4-.2-.7-.3-.5-.2-1.1-.4-1.6-.5-.2-.2-.5.1-.6.5z" />
    <path d="M100.4 29.9c-.2.1-.4.4-.4.6 0 .3.1.5.3.7l.3.3.2.2.3.3c.1.1.3.2.4.3.2.1.4.2.6.2.1 0 .2 0 .3-.1.1-.1.2-.1.2-.2s.1-.1.1-.2c.1 0 .1 0 .2.1.3.1.6-.1.7-.4 0-.2 0-.3-.1-.5.1-.2.1-.3.1-.5-.1-.1-.1-.3-.2-.4l-.2-.2c-.1-.1-.3-.1-.4-.1-.2-.1-.4-.1-.6-.1-.1 0-.3 0-.4-.1-.2 0-.4-.1-.6-.1-.4.1-.6.1-.8.2zm-9.6 19c-.5 1.5-1 3-1.5 4.6-.5 1.5-.8 2.9-1.3 4.4-.2.7-.5 1.4-.7 2-.5 1-1 2-1.4 3-.1.4-.2.7-.3 1.1v.6c0 .2.1.4.2.6.1.2.2.3.3.4l.2.2c.1.1.2.1.3.2.3.2.5.3.8.4.3.1.6.3.9.4l.2.2c.2-.3.5-.6.9-.7.1 0 .2 0 .3-.1-.1-.2-.3-.4-.5-.5-.2-.2-.5-.4-.8-.5-.2-.1-.3-.2-.5-.2-.2-.1-.3-.2-.5-.3l-.2-.2v-.1c0-.1 0-.1-.1-.2V64c.1-.3.2-.6.3-.8.3-.7.7-1.3 1-1.9.4-.7.7-1.5.9-2.3.5-1.4.8-2.9 1.1-4.3.5-1.8 1-3.6 1.6-5.4.1-.4-.1-.8-.5-.9h-.2c-.1 0-.4.2-.5.5zm1 10.4c0 .4.3.7.7.7.4 0 .7-.3.7-.7 0-.4-.3-.7-.7-.7-.4 0-.7.3-.7.7z" />
    <path d="M89.9 54.8c-.2.1-.3.3-.4.5-.2 1-.2 2-.2 3.1v1.2c0 .4.1.7.1 1.1 0 .2.1.4.1.6.1.4.3.8.6 1.1.2.2.6.3.9.1.3-.2.4-.5.3-.8-.2-.5-.2-.9-.3-1.4 0-.4-.1-.9-.1-1.3-.1-1 0-2 .1-3.1v-.2c0-.2 0-.4-.1-.6-.1-.2-.3-.3-.5-.4h-.2s-.2 0-.3.1z" />
    <path d="M96 56.1c-.9 0-1.8.1-2.7.3-1 .2-1.9.4-2.8.6-.4.1-.6.6-.5.9.1.4.5.6.9.5 1-.3 2.1-.5 3.2-.7.6-.1 1.3-.1 1.9-.2.2 0 .4-.1.5-.2.1-.1.2-.3.2-.5.1-.3-.2-.7-.7-.7zm-6 10.3c0 .1.1.3.3.3.2 0 .3-.1.3-.3v-.1c-.1-.1-.2-.1-.2-.2-.3.1-.4.2-.4.3z" />
    <path d="M89.8 66.4c.1.7.4 1.1.6 1.8.2.7.3 1.3.5 2 .1.6.3 1.3.5 1.9.2.7.4 1.3.7 1.9.1.3.3.6.4.8.1.2.3.4.5.6.2.2.5.4.8.6.6.3 1.3.5 1.9.6h.5c.1 0 .1 0 .2.1.4.1.9.1 1.3.2h2.1c.2 0 .4-.1.6-.1.3-.1.5-.3.5-.6 0-.2-.1-.3-.2-.5-.1-.1-.3-.2-.5-.2-.6.1-1.1.1-1.7.1-.5 0-1 0-1.6-.1-.4-.1-.7-.1-1.1-.2-.4-.1-.7-.2-1.1-.4-.2-.1-.5-.2-.7-.4l-.3-.3c-.2-.3-.4-.6-.5-1-.2-.6-.4-1.1-.6-1.7-.2-.6-.4-1.1-.5-1.7-.3-1-.5-1.9-.8-2.9-.2-.1-.4-.2-.6-.4-.2-.1-.3 0-.5-.2-.1-.1-.1-.1-.1-.2-.1 0-.1-.1-.2-.1-.1.2-.1.3-.1.4zM97.7 82c.1-.1.1-.1.1-.2 0 .1 0 .1-.1.2z" />
    <path d="M95.9 69.8c-.2.1-.4.1-.5.2-.1.1-.2.1-.3.2l-.6.3c-.3.1-.5.2-.8.2H93c-.2 0-.4-.1-.7-.2-.3-.1-.7.1-.8.5-.1.3.1.7.5.8.2.1.5.1.8.2.3.1.7.1 1 0 .5 0 .9-.2 1.4-.4l.6-.3c.1-.1.3-.2.4-.3l.3-.3c.2-.2.2-.5.1-.7-.1-.2-.3-.3-.5-.3-.1.1-.1.1-.2.1zm-8.1-4.4c-.2.2-.3.7-.1.9.2.2.5.5.8.7l.6.3c.2.1.3.1.5.2.1 0 .2.1.3.1.1.1.3.1.5.1s.3-.1.4-.3c.2-.2.1-.6 0-.8l-.3-.3s-.1 0-.1-.1l-.6-.3-.1-.1c-.1-.1-.3-.1-.4-.1-.1 0-.2-.1-.3-.1l-.2-.2h-.1c-.1 0-.2-.1-.2-.2h-.4c-.1.1-.2.1-.3.2zm18.2-10c-.9 0-1.6.4-2.3 1-.5.4-.9 1-1.2 1.7 0 .1-.1.3-.1.4-.1.7-.1 1.4 0 2.1v.2c0 .1.1.2.2.3.1.2.2.3.3.5.2.3.6.4.9.2.3-.2.4-.6.2-.9-.1-.2-.3-.4-.4-.7 0-.1-.1-.2-.1-.4v-.3c0-.2.1-.3.1-.5.2-.4.4-.7.6-1 .1-.2.3-.3.5-.4l.6-.3c.2-.1.3-.1.5-.1h.5c.2 0 .4.1.6.2h.6c.3 0 .5.1.8.2.2.1.5.3.7.5.2.2.4.4.5.7l.3.6c.2 0 .4 0 .5-.1.2-.1.3-.3.4-.5.1-.2 0-.4-.1-.6-.2-.5-.5-.9-.8-1.3-.3-.4-.8-.6-1.2-.8-.7-.3-1.4-.6-2.1-.6-.4-.2-.4-.1-.5-.1z" />
    <path d="M106.5 55.9c-.3.1-.5.1-.8.2-.2.1-.4.1-.6.2-.7.3-1.4.8-1.9 1.5-.3.4-.5.7-.6 1.2 0 .2-.1.4-.1.6 0 .3 0 .6.1.9.2.6.5 1.1.8 1.6.2.3.5.4.8.2.3-.1.4-.5.2-.8-.2-.3-.4-.7-.6-1-.1-.1-.1-.3-.1-.4v-.4c0-.2.1-.3.1-.5.1-.2.2-.3.3-.5.2-.2.4-.5.7-.7.3-.2.7-.4 1.1-.6.1 0 .3-.1.4-.1.1 0 .2-.1.3-.1.1 0 .2 0 .2-.1.4-.1.6-.5.5-.8-.1-.3-.4-.5-.7-.5 0 .1-.1.1-.1.1zm11 6.7c-.3.2-.4.4-.4.8v.2l-.1.1c-.1.3-.1.6 0 .8 0 .1.1.3.1.4v.3c-.1 0-.2.1-.3.1-.2.1-.4.3-.4.5-.1.5-.1 1-.1 1.6 0 .6-.1 1.1 0 1.7 0 .3.1.6.2.8v.5c0 .4 0 .8.1 1.2 0 .1.1.2.2.3.1.1.3.2.5.2.4 0 .7-.3.8-.7.1-.1.1-.2.1-.3.1-.2.1-.4.1-.6.3 0 .7-.1.9-.3.1-.1.2-.3.2-.4 0-.1.1-.2.1-.3v-.1c.1 0 .2 0 .3-.1.2-.1.3-.3.4-.5.1-.2 0-.4 0-.6.1-.2.1-.5.1-.7 0-.3 0-.7-.1-1-.1-.3-.2-.7-.3-1-.2-.6-.5-1.3-.8-1.9-.1-.2-.2-.3-.4-.3v-.2c-.1-.3-.3-.6-.7-.7h-.2c0 .1-.2.1-.3.2z" />
    <path d="M122.2 60.3c-.2.2-.3.4-.3.7 0 .5.1 1.1.1 1.6v.9c0 .2 0 .5-.1.7 0 .2 0 .3-.1.5 0 .2-.1.3-.1.5-.1.4-.2.7-.3 1.1 0 .1-.1.2-.1.3 0-.1-.1-.2-.1-.2-.1-.2-.2-.4-.3-.5-.1-.2-.3-.4-.5-.4-.1 0-.3.1-.3.3 0 .2.1.4.1.5v.2c.1.8.1 1.5 0 2.3v.2c0 .2-.1.4-.1.6 0 .2.1.4.2.6l.1.1c0 .1.1.3.2.4.2.2.6.3.9.2.1 0 .2-.1.3-.1.2-.1.3-.3.4-.4 0-.1.1-.1.1-.2.1-.1.1-.2.2-.4.2-.3.3-.6.4-1 .2-.5.4-1 .5-1.5.1-.3.2-.7.2-1.1.1-.4.1-.9.2-1.4v-1.7c0-.4-.1-.7-.1-1-.1-.4-.1-.9-.2-1.3s-.5-.7-.9-.7c0-.1-.2 0-.4.2zm-23.6 16c-.1.1-.2.2-.3.4v.1h1.6c0-.1-.1-.2-.2-.3-.1-.3-.4-.4-.7-.4-.1 0-.3.1-.4.2zm1.6 4.4c-.2.1-.3.2-.5.3 0 0-.1 0-.1.1-.1.1-.2.1-.4.2-.1.1-.2.1-.3.2.2.4.6.6.9.6.3 0 .5-.1.7-.3.2-.2.3-.4.3-.7 0-.1 0-.3-.1-.4v-.2c-.2 0-.3.1-.5.2z" />
    <path d="M98.4 75.7c-.2.1-.2.3-.2.5v.7c0 .2.1.4.1.7 0 .3.1.7.1 1l-.1.1c0 .1-.1.1-.1.2v.4c0 .3.1.5.1.8v.3c0 .3 0 .6.2.8.2.3.5.4.8.3.2-.1.4-.2.5-.3.1-.1.1-.2.1-.4s0-.4-.1-.6c0-.1 0-.2-.1-.4-.1-.3-.1-.6-.2-.9v-.2c-.1-.6-.2-1.1-.3-1.7.2-.1.3-.3.2-.5-.1-.2-.2-.5-.3-.7-.1-.1-.2-.2-.3-.2h-.1c-.1 0-.2 0-.3.1zm-1.3-26c-.1.1-.2.2-.2.4-.3 0-.6.3-.6.7v.1c-.1.1-.1.1-.1.2-.1.2 0 .5.1.7.1.2.2.3.3.4.2.1.3.1.5.1.1.2.4.4.6.3.2-.1.4-.3.4-.5v-.2c0-.1 0-.3-.1-.4 0-.2-.1-.5-.1-.7.1 0 .2-.1.2-.2.1-.2.1-.6-.2-.7-.1-.1-.3-.1-.4-.2h-.1c-.1-.1-.2-.1-.3 0zm-5.5-4.1c-.1.1-.1.2-.2.2-.1-.1-.3-.2-.4-.2-.2 0-.4.1-.5.3-.1.1-.1.2-.1.4v.1c-.1.2-.2.5-.3.7 0 .1 0 .1-.1.2 0 .1 0 .2-.1.3 0 .1 0 .2.1.3 0 .1.1.3.2.3.1.2.2.3.3.4.1.1.3.1.5.1.2-.1.4-.2.5-.5 0-.2.1-.4.1-.5l.1-.1c0-.1.1-.2.1-.3h.5c.2 0 .4-.2.4-.4s-.2-.4-.4-.4h-.1c.1-.1.1-.2.2-.4s.1-.4-.1-.6c-.1-.1-.2-.1-.4-.1-.1.1-.2.1-.3.2zm20.6 33.3c-.1.4.1.9.6 1 .5.1 1 .3 1.4.5.2.1.4.2.6.4.4.3.7.7 1 1.1.3.4.6.9.9 1.3.3.5.5.9.8 1.4.5 1 1.1 2.1 1.6 3.1.5 1.2.8 2.4 1.1 3.6.3 1.3.6 2.6.8 3.9.3 2 .4 4.1.5 6.1.1 1.1.1 2.2.1 3.3v9.5c0 2.2.1 4.4.1 6.6v1.5c0 .6 0 1.2.2 1.8.1.3.3.5.6.6.4.1.8-.1 1-.4.1-.2.2-.4.2-.6 0-.2 0-.4.1-.6v-18.5c0-1.1 0-2.2-.1-3.3-.1-1.1-.1-2.2-.2-3.3-.1-1-.2-2.1-.3-3.1-.1-1.1-.4-2.1-.7-3.2-.5-2-1.1-4.1-2.1-5.9-.4-.8-.9-1.5-1.3-2.2-.2-.3-.4-.6-.6-1-.2-.4-.5-.7-.7-1.1-.2-.3-.5-.6-.7-.9-.1-.1-.3-.2-.3-.4l-.2-.2c-.1 0-.1 0-.2-.1 0 0-.1 0-.1-.1-.1 0-.1-.1-.2-.1-.1-.1-.3-.2-.4-.3l-.1-.1h-.1c-.1 0-.2-.1-.2-.1h-.1c-.1 0-.2 0-.3-.1-.1-.1-.2-.1-.3-.2 0-.1-.1-.1-.1-.2-.4-.1-.8-.3-1.2-.4h-.2c-.5.1-.8.4-.9.7z" />
    <path d="M99 81c-.6.3-1.1.7-1.6 1.2-.3.3-.5.6-.7.9-.2.2-.4.5-.5.8v.1c-.1.1-.1.2-.2.3-.1.2-.3.5-.3.8v.4c0 .1.1.2.2.3.1.1.2.2.3.2.1.1.2.1.2.2.3.1.6-.1.7-.4l.3-.9c.2-.3.3-.6.5-.9.2-.3.5-.5.7-.7.2-.1.3-.2.5-.3.2-.2.5-.3.7-.5.2-.1.2-.4.2-.6 0-.2 0-.4-.1-.5-.1-.2-.4-.3-.6-.3-.1-.2-.2-.2-.3-.1z" />
  </g>
</svg>