<svg style="margin-top: -3rem;" class="jsPackageSvg" viewBox="0 0 121.77 125.61">
  <title>Complete Preorder</title>
  <description>SVG of a person with a map and treasure box</description>
  <defs>
    <style>
      .theme-color {
        fill: var(--theme-color);
      }

      .strokes {
        fill: #2c2c2c;
      }
    </style>
  </defs>
  <g id="treasure">
    <path class="theme-color" d="M73.1,100.5a4.87,4.87,0,0,0-.7.3c-.1,0-.1.1-.2.1H72a1.06,1.06,0,0,0-.5.2,1.34,1.34,0,0,0-.6.7,1.21,1.21,0,0,0-.5.5h0c-.1.2-.2.3-.2.5a1,1,0,0,0,.7.9,16.55,16.55,0,0,1,2.1.6h.1a1.76,1.76,0,0,1,.5.4c.1,0,.1.1.2.1.1.2.3.4.4.6a1.05,1.05,0,0,0,1.8-.7,1.42,1.42,0,0,0-.2-.6,1,1,0,0,0,0-.9.78.78,0,0,0-.4-.4.6.6,0,0,0-.4-.1l-.3-.3a.1.1,0,0,1-.1-.1h0a.66.66,0,0,0,.4-.5c0-.2.1-.3,0-.5a.52.52,0,0,0-.2-.4,1.16,1.16,0,0,0-1-.4Z" transform="translate(-0.1)" />
    <path class="theme-color" d="M65.1,101.9c-.3.1-.6.3-.9.4s-.6.3-.9.5h0c-.1-.1-.2-.1-.3-.2a1.27,1.27,0,0,0-.6-.1h-.5a1.7,1.7,0,0,0-.7.1,5.49,5.49,0,0,0-2.1,1.2c-.1.1-.2.1-.4.2h0a6.89,6.89,0,0,0-.8-.3,4.33,4.33,0,0,1-.5-.1h-.5a3.18,3.18,0,0,0-.9.3c-.3.1-.5.4-.8.6a4.18,4.18,0,0,0-1.1,1.5c-.1.3-.3.6-.4.9a4.25,4.25,0,0,0-.2,1.1,1.27,1.27,0,0,0,.1.6,1,1,0,0,0,.5.4.66.66,0,0,0,.6-.1,1,1,0,0,0,.4-.5c.1-.3.1-.6.2-.9s.1-.5.2-.8a3.51,3.51,0,0,1,.5-.8,2.65,2.65,0,0,1,.6-.5.52.52,0,0,1,.4-.2c.1,0,.2-.1.3-.1h.3c.1,0,.2,0,.2.1a1.42,1.42,0,0,0,.6.2,1.73,1.73,0,0,0,1-.1,8.34,8.34,0,0,0,1.2-.8,2,2,0,0,1,.8-.4c.3-.1.5-.1.8-.2h.6a.37.37,0,0,0,.3.1c.2,0,.3.1.5.1a1.78,1.78,0,0,0,1-.4,10.91,10.91,0,0,0,1.1-.6c.1,0,.2-.1.3-.1h.2c.1,0,.1.1.2.1l.1.1a1.76,1.76,0,0,0,.4.5c.1.1.2.2.3.2s.3.1.4,0,.5-.1.7-.1a1.48,1.48,0,0,1,.7-.1,9.15,9.15,0,0,1,1.6.1c.3.1.6.1.9.2s.3.2.5.3a1.88,1.88,0,0,0,.8.2.6.6,0,0,0,.4-.1c.1,0,.2-.1.3-.1s.4-.1.6-.2h.2c.1,0,.1,0,.2.1a4.88,4.88,0,0,0,.7.3c.2.1.5-.1.6-.3s-.1-.5-.3-.6l-1.1-.3a2.2,2.2,0,0,0-.8-.1h-.7c-.1,0-.1-.1-.2-.1a.76.76,0,0,0-.4-.2c-.3-.1-.7-.2-1-.3h0c-.3,0-.6-.1-.9-.1a5.28,5.28,0,0,0-1.3-.1,1.27,1.27,0,0,0-.6.1c-.2,0-.3.1-.5.1l-.3-.3a1.61,1.61,0,0,0-.7-.4,1.85,1.85,0,0,0-.7-.2,5.47,5.47,0,0,0-1.2.2Zm2.4.8Zm-4.1,0c-.1,0-.1.1,0,0-.1.1-.1,0,0,0Zm-.2.1Zm9.2.6Zm-13.8.6Zm-.2,0Zm15.6.4Zm-13.6.1Z" transform="translate(-0.1)" />
    <path class="theme-color" d="M63.1,98.1a2.65,2.65,0,0,0-.6.5,2.18,2.18,0,0,0-.5.8,1.7,1.7,0,0,0-.1.7,1.85,1.85,0,0,0,.2.7c.1.3.2.5.3.8s.1.3.3.4a.75.75,0,0,0,.5.1c.2,0,.3-.1.4-.3a.75.75,0,0,0,.1-.5c-.1-.2-.1-.4-.2-.6a1.45,1.45,0,0,1-.2-.7v-.3c0-.1.1-.1.1-.2l.2-.2a.35.35,0,0,0,.2-.1c.1,0,.3-.1.4-.1a6.6,6.6,0,0,1,1.4.1c.3,0,.6.1.9.1h1.7a5.78,5.78,0,0,1,1.4.5,2.09,2.09,0,0,1,.6.4,4.35,4.35,0,0,1,.6.7,6.72,6.72,0,0,1,.6,1.2c0-.1,0-.1-.1-.2,0,.1.1.2.1.3s.1.3.3.4a.9.9,0,0,0,.5.1c.4-.1.5-.4.5-.8a4.87,4.87,0,0,0-1.5-2.7,3.75,3.75,0,0,0-1.2-.7c-.2-.1-.5-.2-.7-.3-.4-.1-.8-.2-1.3-.3a4,4,0,0,0-1.1,0H64.4a2,2,0,0,0-1.3.2Zm.1,1.5Zm0,.1Z" transform="translate(-0.1)" />
    <path class="theme-color" d="M66.5,99.4c-.8.1-1.6.4-2.3.5H62.8a2.38,2.38,0,0,0-1.2.3,4.35,4.35,0,0,1-.7.4,1.48,1.48,0,0,0-.7-.1,1.93,1.93,0,0,0-1,.3,3.74,3.74,0,0,0-1.3,1.5,2.25,2.25,0,0,0-.4,1.9.68.68,0,0,0,.3.5c.2.1.3.3.6.4s.3.1.5.1.4-.1.6-.1a.86.86,0,0,0,.6-1.1,1,1,0,0,0-.4-.5.37.37,0,0,0-.3-.1,3.51,3.51,0,0,1,.5-.8l.4-.4h0c.1,0,.1.1.2.1a.6.6,0,0,0,.4.1,1.88,1.88,0,0,0,.8-.2,3.51,3.51,0,0,0,.8-.5.37.37,0,0,0,.3-.1h.9a8.75,8.75,0,0,0,1.6-.2l1.5-.3h.5a5.64,5.64,0,0,1,1.2.4c.3.1.5.3.8.4a9.22,9.22,0,0,0,.8.5,13,13,0,0,0,1.8,1.5.92.92,0,0,0,1-.1.82.82,0,0,0,0-1.2,6,6,0,0,0-.8-.8,5.5,5.5,0,0,0-.9-.7l-.9-.6a3.7,3.7,0,0,0-1.1-.5,10.37,10.37,0,0,0-1-.4,4.33,4.33,0,0,1-.5-.1c-.2,0-.4-.1-.6-.1H67c-.1-.1-.3,0-.5,0ZM61,100.6h-.1c0,.1,0,0,.1,0Zm-.3.1Zm-.4,1.4Zm0,.1Zm-.1,0h0Z" transform="translate(-0.1)" />
    <path class="theme-color" d="M64.9,99.3l-.3.3h-.1c-.2,0-.5.1-.5.4s-.1.7-.2,1.1c-.1,0-.1.1-.2.1-.6.3-1.2.5-1.8.8a11.1,11.1,0,0,0-2.7,1.7,5.55,5.55,0,0,0-.8.6c-.1.1-.3.2-.4.3s-.2,0-.2.1a.76.76,0,0,0-.4.2c-.2.1-.3.3-.5.5s-.1.4-.2.6,0,.5.1.6.1.1.2.2a1.18,1.18,0,0,0,1.1,1c.6,0,1.2-.1,1.8-.1.3,0,.5-.1.8-.1.6-.1,1.2-.2,1.7-.3h0c.2,0,.4-.1.6-.1l1.5-.3h.2c0,.1.1.1.1.2a.91.91,0,0,0,.7.3c.7-.1,1.5-.1,2.2-.2s1.3-.1,1.9-.1h2.1a21.05,21.05,0,0,0,2.5-.2.87.87,0,0,0,.6-.8,1.42,1.42,0,0,0-.2-.6,1.14,1.14,0,0,0-.6-.3h-.5a.9.9,0,0,1-.5-.1,1.42,1.42,0,0,1-.6-.2c-.2-.1-.3-.2-.5-.2-.3-.2-.7-.4-1-.6l-.1-.1a.37.37,0,0,1-.1-.3,1.88,1.88,0,0,1-.2-.8,4.33,4.33,0,0,1-.1-.5.52.52,0,0,0-.2-.4c0-.1-.1-.2-.2-.3s-.4-.2-.6-.2-.2.1-.3.2a.76.76,0,0,0-.2.5v.5c-.1,0-.1-.1-.2-.1a1.27,1.27,0,0,0-.6-.1c-.2,0-.3-.1-.5-.1h0c-.3-.1-.7-.1-1-.2v-.4a.45.45,0,0,0,0-.5c0-.1-.1-.2-.2-.3l-.3-.9a1.21,1.21,0,0,0-.5-.5.37.37,0,0,0-.3-.1c0-.4-.2-.3-.3-.2Zm.3.6Zm.2,0Zm-.1.1h0c0,.1.1.1.1.2s.1.2.1.3-.2.1-.3.1v-.4c.1-.1.1-.1.1-.2Zm0,0Zm.3,2.4h.1v.4c0-.2-.1-.3-.1-.4Zm-1,.2c0,.2.1.3.1.5s.1.4.2.6.1.4.2.6c-.4.1-.8.2-1.3.3h0a1.27,1.27,0,0,0,.1-.6c.1-.3.1-.6.2-.9v-.2a2.19,2.19,0,0,0,.5-.3Zm3.8.8c-.1-.1-.2-.3-.3-.4.2,0,.3.1.5.1h.1v.5c-.1-.1-.2-.1-.3-.2Zm.1-.4Zm.1,0Zm.1.2Zm-1.7.5Zm-5.5.8c.4-.3.8-.5,1.2-.8,0,.2-.1.3-.1.5v.1l-.1.1a6.11,6.11,0,0,1-1.4.7.6.6,0,0,0-.4.1,1.38,1.38,0,0,1,.4-.3c.1-.2.3-.3.4-.4Zm4.6-.5h.4l-.2.2h-.2V104Zm-3.5.1Zm-.2.3Zm-1.3.7Z" transform="translate(-0.1)" />
    <path class="strokes" d="M52.3,105.9c-.1,5.4,0,10.9.4,16.3v.7a1.7,1.7,0,0,0,.1.7c0,.2.2.4.4.6a1,1,0,0,0,1,.3,1.39,1.39,0,0,0,.8-.7v-.3h0V119c0-1.3-.1-2.5-.1-3.8-.1-2.5-.1-4.9-.1-7.4V106a1.24,1.24,0,0,0-1.2-1.3h0a1.18,1.18,0,0,0-1.3,1.2Z" transform="translate(-0.1)" />
    <path class="strokes" d="M74.9,104.8c-.7,0-1.4.1-2.2.1l-4.7.3c-2.9.3-5.7.6-8.5,1-2.2.3-4.3.7-6.5,1a1.44,1.44,0,0,0-.5,2.6,2,2,0,0,0,1.1.2c1.5-.3,3.1-.5,4.6-.7,1-.2,2-.3,3-.5l4.2-.6,2.8-.3c2.3-.2,4.5-.4,6.8-.4,0,.2.1.4.1.7.1,1,.1,2.1.2,3.1,0,.8.1,1.5.1,2.3.1,1,.2,2.1.3,3.1.1,1.2.3,2.4.4,3.6s.3,2.4.4,3.6l.3.6a1.49,1.49,0,0,0,.9.4,1.24,1.24,0,0,0,1.3-1.2c0-1.2-.1-2.4-.2-3.6l-.3-3.3-.3-3.3c-.1-1.9-.2-3.9-.4-5.8v0a5,5,0,0,0-.2-1.2,3.39,3.39,0,0,0-.9-1.4,1.8,1.8,0,0,0-1.2-.3Zm3.2,2.9Z" transform="translate(-0.1)" />
    <path class="strokes" d="M71.9,121.7c-1.5,0-3,.1-4.5.2-3.5.2-7,.4-10.5.5-1,0-2.1.1-3.1.1a1.5,1.5,0,0,0-1.6,1.5c0,.8.7,1.7,1.5,1.6,3.6-.1,7.3-.2,10.9-.4,1.6-.1,3.3-.2,4.9-.2s3.5-.1,5.2-.2a4.87,4.87,0,0,0,1.2-.1,5.66,5.66,0,0,0,1.8-.3,1.46,1.46,0,0,0,.9-.6,1.39,1.39,0,0,0,.2-1.1,1.46,1.46,0,0,0-.6-.9,1.8,1.8,0,0,0-1-.2H74.8c-1.1,0-2,.1-2.9.1Z" transform="translate(-0.1)" />
    <path class="strokes" d="M65.1,93c-.5,0-1.1.1-1.6.1s-.8.1-1.2.1a22.11,22.11,0,0,0-2.5.5,8.75,8.75,0,0,0-2.2,1,8.65,8.65,0,0,0-1,.7,5.72,5.72,0,0,0-.8.7l-.6.6c-.3.3-.5.6-.8.9a8.34,8.34,0,0,0-.8,1.2,8.18,8.18,0,0,0-.9,1.9c-.1.2-.2.5-.3.7-.1.5-.3.9-.4,1.4a7.1,7.1,0,0,0-.1,2.5,7,7,0,0,0,.3,1.4,6.12,6.12,0,0,0,.5,1.2,1,1,0,0,0,1.8-1c-.1-.2-.2-.3-.3-.5a4.25,4.25,0,0,1-.2-1.1v-1.5a14.16,14.16,0,0,1,.7-2.2,17.61,17.61,0,0,1,1.4-2.3,18,18,0,0,1,2-1.9,16.18,16.18,0,0,1,1.8-1,13.1,13.1,0,0,1,2.7-.6c1.3-.1,2.6-.2,3.9-.2a13.55,13.55,0,0,1,2,.2l1.7.3a10.46,10.46,0,0,1,1.7.4,8.8,8.8,0,0,1,1.5.5c.1.1.3.1.4.2l.3.3a2.51,2.51,0,0,1,.4.7,35.6,35.6,0,0,1,1,4.7,14.16,14.16,0,0,0,.4,2,13.32,13.32,0,0,0,.5,1.9,1,1,0,0,0,.9.7,1,1,0,0,0,1-.9c-.1-1.4-.3-2.8-.5-4.2a20.53,20.53,0,0,0-1-4.8,5.71,5.71,0,0,0-1.3-2.1,4.25,4.25,0,0,0-1.7-1,7.49,7.49,0,0,0-1.6-.5c-1.2-.3-2.4-.5-3.6-.7a12.25,12.25,0,0,0-1.9-.2h-.3a4.89,4.89,0,0,0-1.3-.1Z" transform="translate(-0.1)" />
    <path class="strokes" d="M56,109.2a4.1,4.1,0,0,1-.1,1.1,8.8,8.8,0,0,1-.5,1.5c-.3.5-.6,1-.9,1.6a1,1,0,0,0-.5.4.86.86,0,0,0,.3,1.2c1.3.8,2.3-.9,2.8-1.9a8.61,8.61,0,0,0,1-3.8,1,1,0,0,0-1-1.1h0a1,1,0,0,0-1.1,1Zm-1,4.2Z" transform="translate(-0.1)" />
    <path class="strokes" d="M72,106.7a.91.91,0,0,0-.3.7,3.44,3.44,0,0,0,.4,2,5.55,5.55,0,0,0,.6.8,2.41,2.41,0,0,0,.8.6,8.8,8.8,0,0,0,2.7,1,.86.86,0,0,0,1.1-.6.8.8,0,0,0-.6-1.1c-.4-.2-.9-.3-1.3-.5a8.79,8.79,0,0,1-1-.6,1.38,1.38,0,0,1-.3-.4.76.76,0,0,1-.2-.4c0-.1-.1-.3-.1-.4v-.4a1,1,0,0,0-1-1.1h0a2,2,0,0,0-.8.4Z" transform="translate(-0.1)" />
    <path class="strokes" d="M53.5,119.8c-.2,0-.3.1-.5.2a1,1,0,0,0-.5.4,1,1,0,0,0,0,1.4,1.08,1.08,0,0,0,.7.3c.2,0,.6-.1.7-.3a.1.1,0,0,1,.1-.1h.3c.3.1.5.1.8.2a10.39,10.39,0,0,1,2.4,1.7l.2.2h0a.76.76,0,0,0,.8.6.88.88,0,0,0,.9-.8v-.5a.76.76,0,0,0-.2-.4,2.7,2.7,0,0,0-.7-.8,4.62,4.62,0,0,1-.7-.7c-.3-.3-.7-.5-1-.8a3.13,3.13,0,0,0-1-.5,2.66,2.66,0,0,0-1.2-.3h-.5a.73.73,0,0,1-.6.2Zm.6,2Zm0,0Zm-.2.1Zm3.7,2Zm.1.1ZM54,121.8Z" transform="translate(-0.1)" />
    <path class="strokes" d="M75.4,117.7a1,1,0,0,0-.5.4,19.23,19.23,0,0,1-1.3,1.7c-.2.2-.3.4-.5.6a3.13,3.13,0,0,0-.5,1c0,.2-.1.4,0,.6a.86.86,0,0,0,.3.6l.3.3a.76.76,0,0,0,.5.2h.4a.85.85,0,0,0,.5-.3.78.78,0,0,0-.2-1h-.1a14.63,14.63,0,0,1,.9-1.3c.3-.5.7-.9,1-1.4a.73.73,0,0,0-.3-1.1.6.6,0,0,0-.4-.1c0-.2,0-.2-.1-.2Z" transform="translate(-0.1)" />
    <path class="strokes" d="M49.2,100.3a.5.5,0,1,0,.5-.5c-.3.1-.5.3-.5.5Z" transform="translate(-0.1)" />
    <path class="strokes" d="M42.5,102.6c-.1,0-.3.1-.4.1a1.44,1.44,0,0,0-.7,1.1,1.25,1.25,0,0,0,.6,1.1,2.19,2.19,0,0,1,.5.3,1.27,1.27,0,0,0,.6.1c.2,0,.3.1.5.1s.6.1,1,.2a27.41,27.41,0,0,0,2.8.5,1.42,1.42,0,0,0,1.1-.1,2.7,2.7,0,0,0,.7-.8,1.45,1.45,0,0,0-.1-1.1,1.78,1.78,0,0,0-.8-.7c-1.6-.3-3.3-.7-4.9-.9h0a.9.9,0,0,0-.5-.1c-.2.2-.3.2-.4.2Z" transform="translate(-0.1)" />
    <path class="strokes" d="M45.7,97.5a1,1,0,0,0,0,1.4c.8.8,1.7,1.6,2.6,2.4a1,1,0,0,0,.8.3,1.13,1.13,0,0,0,.8-1.9c-.9-.7-1.9-1.4-2.8-2.2a.91.91,0,0,0-.7-.3h0a.91.91,0,0,0-.7.3Z" transform="translate(-0.1)" />
    <path class="strokes" d="M59.4,84.8c-.2.1-.5.4-.5.6a7.77,7.77,0,0,0-.2,1.6v.8c0,.8.1,1.6.1,2.4a1.14,1.14,0,0,0,.3.8,2,2,0,0,0,.8.4A1,1,0,0,0,61,90.3c0-.8-.1-1.6-.1-2.3a16.15,16.15,0,0,1,0-2.2c.1-.5-.3-.9-.8-1.1h-.3c-.1-.1-.3,0-.4.1Z" transform="translate(-0.1)" />
    <path class="strokes" d="M76.1,85.5a1,1,0,0,0-.5.4,50.41,50.41,0,0,0-3.1,4.9.87.87,0,0,0,.3,1.3,1,1,0,0,0,1.3-.3c1-1.7,1.9-3.4,3-5a.84.84,0,0,0-.3-1.2.75.75,0,0,0-.5-.1Z" transform="translate(-0.1)" />
    <path class="strokes" d="M85.6,95.1a12.55,12.55,0,0,0-2.6.7.74.74,0,0,0-.5.6,1,1,0,0,0,.1.9c.1.3.4.4.6.5a1.41,1.41,0,0,0,.9-.1.1.1,0,0,0,.1-.1,11.36,11.36,0,0,1,2.5-.6c1.1-.1,2.2-.1,3.4-.1a1.05,1.05,0,1,0,.1-2.1H87.8a16.6,16.6,0,0,1-2.2.3Zm-1.2,2.6c-.1,0-.1,0-.2.1a.31.31,0,0,1,.2-.1Z" transform="translate(-0.1)" />
    <path class="strokes" d="M88.4,111.4c-1.9,0-3.8.2-5.7.3a1,1,0,0,0-.9.4,1.49,1.49,0,0,0-.4.9,1.4,1.4,0,0,0,.3.9,1.49,1.49,0,0,0,.9.4c1.9-.1,3.8-.3,5.8-.4a1.61,1.61,0,0,0,.9-.3,1.23,1.23,0,0,0,.4-.8,1.42,1.42,0,0,0-1.3-1.4Z" transform="translate(-0.1)" />
    <path class="strokes" d="M82.6,119.9a1.29,1.29,0,0,0,.8,1.5c1.4.5,2.9,1.1,4.4,1.5a1.17,1.17,0,0,0,1.4-.7.75.75,0,0,0-.1-.8c-.1-.3-.4-.4-.6-.5-1.4-.6-2.9-1.1-4.3-1.7-.1,0-.2-.1-.3-.1a1.09,1.09,0,0,0-1.3.8Z" transform="translate(-0.1)" />
    <path class="strokes" d="M50.5,117.2c-2.9,2-5.7,4-8.6,6a.7.7,0,0,0-.4.5.66.66,0,0,0,.1.6,1,1,0,0,0,.5.4c.2.1.5.1.6-.1l8.5-6.1a.78.78,0,0,0,.4-.4.66.66,0,0,0-.1-.6c-.1-.2-.3-.3-.4-.4h-.2c-.2,0-.3,0-.4.1Z" transform="translate(-0.1)" />
    <path class="strokes" d="M64.4,110.8h0a2.35,2.35,0,0,0-.8.2c-.1.1-.3.2-.4.3a2.19,2.19,0,0,0-.3.5,2.92,2.92,0,0,0-.2.9,3.39,3.39,0,0,0-1.5.6c-.1.1-.2.1-.2.2a.79.79,0,0,0-.8.8v.7a14.08,14.08,0,0,0,.1,2,.86.86,0,0,0,.7.6h.3v.1a1.09,1.09,0,0,0,.4.9,1.27,1.27,0,0,0,.9.4,34.31,34.31,0,0,0,3.4-.6l.3-.1c.6-.2,1.3-.4,2-.6a3.24,3.24,0,0,0,1.8-1.3,1.39,1.39,0,0,0,.2-1.1v-.6a4.31,4.31,0,0,0-.9-2.2,1.5,1.5,0,0,0-1.1-.4h-.5a3.75,3.75,0,0,0-1,.1l-.2-.2c-.1-.2-.3-.4-.4-.6a1.56,1.56,0,0,0-.8-.6,3.19,3.19,0,0,1-1,0Zm-.3,1.7c0-.1,0-.1.1-.2l.1-.1h.1l.1.1.2.2Zm-.5,2.5h.1c.2,0,.3-.2.4-.3a.75.75,0,0,0,.1-.5c.6,0,1.2-.1,1.8-.1h1.8l.1.2c.1.2.1.3.2.5l.1.3v.2l.1.3a.37.37,0,0,1-.3.1,16.66,16.66,0,0,1-2.9.6c-.4,0-.8.1-1.2.1-.6,0-1.1.1-1.7.1a.76.76,0,0,0-.5.2c0-.3.1-.5.1-.7a.75.75,0,0,0,.4-.9l-.1-.2c0-.1-.1-.2-.1-.3a.31.31,0,0,0,.2-.1c.2-.1.5-.1.7-.2a.52.52,0,0,0,.2.4.55.55,0,0,0,.5.3Z" transform="translate(-0.1)" />
    <path class="strokes" d="M66,113.5c-.1.1-.1.3-.2.4a.1.1,0,0,1,.1-.1c0,.1,0,.1-.1.2h0c0,.1-.1.1-.1.2s0,.2-.1.2-.2,0-.2.1h0v-.3a.9.9,0,0,0-1.8,0v1.1a1.14,1.14,0,0,0,.3.6,1.58,1.58,0,0,0,1.2.5,2.77,2.77,0,0,0,.9-.1,1.33,1.33,0,0,0,.8-.3,1.45,1.45,0,0,0,.7-1c0-.2.1-.3,0-.5v-.4a.76.76,0,0,0-.6-.8h-.2a.43.43,0,0,0-.7.2Zm-.3.9Zm-.3.4Zm.4-1Z" transform="translate(-0.1)" />
  </g>
  <g id="human">
    <path class="strokes" d="M19.3,39.3a4.1,4.1,0,0,0-1.1.1c-.6.1-1.1.1-1.7.2a11.24,11.24,0,0,0-3.1,1,12.71,12.71,0,0,0-2.7,1.8,10.91,10.91,0,0,0-2.1,2.7,13.69,13.69,0,0,0-1.5,3.8,10.62,10.62,0,0,0-.4,1.9,14.92,14.92,0,0,0-.2,2.1v1.8a20.24,20.24,0,0,0,.4,2.6c.1.3.2.7.3,1.1A18,18,0,0,0,8,60.5,20.68,20.68,0,0,0,9.5,63a14.28,14.28,0,0,0,2.7,2.8c2,1.5,5.1,1.8,7.6,1.5a15.67,15.67,0,0,0,3.1-.8A29.94,29.94,0,0,0,26.7,65a9.23,9.23,0,0,0,3.1-2.4l.9-1.2A14.79,14.79,0,0,0,32,59.3c.2-.5.4-1,.6-1.6s.2-1.1.3-1.7c0-.4.1-.8.1-1.2a21.75,21.75,0,0,0-.1-2.5,28.68,28.68,0,0,0-.5-3.1c-.4-1.1-.9-2.1-1.4-3.2a22.47,22.47,0,0,0-1.2-2.1A13.74,13.74,0,0,0,27,41.3a13.68,13.68,0,0,0-4.4-1.6,14.45,14.45,0,0,0-2.9-.4Zm1.1,3c.7.1,1.3.3,2,.4a13.89,13.89,0,0,1,1.9.6,8.79,8.79,0,0,1,1,.6,12.09,12.09,0,0,1,1.6,1.6,16.65,16.65,0,0,1,1.2,2.3,6.94,6.94,0,0,1,.5,1.3c.3.8.4,1.6.6,2.3a18.39,18.39,0,0,1,.1,4.7,8.12,8.12,0,0,1-2.5,4.5A12.61,12.61,0,0,1,22.6,64a12.78,12.78,0,0,1-5.1.9,5.09,5.09,0,0,1-3.4-.8,15.3,15.3,0,0,1-1.8-1.8,18.12,18.12,0,0,1-2-3.3,19,19,0,0,1-1.1-3.9,22.6,22.6,0,0,1-.1-2.6c0-.4.1-.8.1-1.1a20,20,0,0,1,.9-3.5,10.89,10.89,0,0,1,1.4-2.3,16.6,16.6,0,0,1,1.3-1.4,13.24,13.24,0,0,1,2-1.2,7.34,7.34,0,0,1,2-.5A15,15,0,0,1,20.4,42.3Z" transform="translate(-0.1)" />
    <path class="strokes" d="M20.3,45.2a2.65,2.65,0,0,0-.6.5,4.74,4.74,0,0,1-1,1,5.24,5.24,0,0,1-1.1,1,9.13,9.13,0,0,1-1.3.8,13.32,13.32,0,0,1-1.9.5,2.92,2.92,0,0,0-.9.2c-.7.1-1.4.3-2.1.4a5.65,5.65,0,0,1-1.3,0,2.93,2.93,0,0,1-1-.3,8.79,8.79,0,0,1-1-.6A.75.75,0,0,0,7,49a1.27,1.27,0,0,0-.1.6,1.76,1.76,0,0,0,.4.5,6.73,6.73,0,0,0,1.1.7,8.45,8.45,0,0,0,1.7.5,11.33,11.33,0,0,0,2.6-.1l2.8-.3a7.61,7.61,0,0,0,3-1A14.31,14.31,0,0,0,20,48.8a6.47,6.47,0,0,0,.9-.8c.3.5.6.9.9,1.4.5.6,1,1.1,1.5,1.6a7.49,7.49,0,0,0,2,1.5,9.78,9.78,0,0,0,2.9.9h1.4a2.92,2.92,0,0,0,.9-.2c.2-.1.5-.2.7-.3a1.28,1.28,0,0,0,.6-1.4,1.06,1.06,0,0,0-.6-.7,1.15,1.15,0,0,0-1-.1,3.55,3.55,0,0,1-1,.2H27.9a5,5,0,0,1-1.3-.4,4.73,4.73,0,0,1-1.2-.7A16.18,16.18,0,0,1,23.5,48c-.3-.4-.5-.8-.8-1.2a4,4,0,0,0-1-1.2c-.2-.5-.4-.6-.7-.6a1.85,1.85,0,0,0-.7.2ZM9.1,49.3Zm2.2.3Z" transform="translate(-0.1)" />
    <path class="strokes" d="M15.2,55.2a1.5,1.5,0,1,0,1.5-1.5,1.61,1.61,0,0,0-1.5,1.5Z" transform="translate(-0.1)" />
    <path class="strokes" d="M19.7,55.1A1.3,1.3,0,1,0,21,53.8a1.32,1.32,0,0,0-1.3,1.3Z" transform="translate(-0.1)" />
    <path class="strokes" d="M16,58.9a.85.85,0,0,0,0,1.3l.5.5a9.29,9.29,0,0,0,1,.5,5.85,5.85,0,0,0,1.9.4c.4,0,.7-.1,1.1-.1a3.55,3.55,0,0,0,.9-.4c.3-.2.5-.4.8-.6a1.06,1.06,0,0,0,.2-1.2,1,1,0,0,0-.6-.5,1.13,1.13,0,0,0-.8.1,8.79,8.79,0,0,1-1,.6,1.27,1.27,0,0,1-.6.1h-.5l-1.1-.3c-.1-.1-.3-.1-.4-.2l-.2-.2a.91.91,0,0,0-.7-.3,1.46,1.46,0,0,0-.5.3Z" transform="translate(-0.1)" />
    <path class="strokes" d="M26.3,62.1a1.5,1.5,0,0,0-1.1,1.5,2.35,2.35,0,0,0,.2.8c.2.3.6.7.9.7a1.91,1.91,0,0,1,.8.3c.2,0,.3.1.5.2l.9.6.9.9,1.5,2.4c.6.9,1.2,1.7,1.9,2.6a13,13,0,0,1,1,1.5,9.22,9.22,0,0,1,.5.8c.2.3.3.5.5.8-.5.3-1,.5-1.4.8s-1,.7-1.5,1c-.1-.2-.3-.5-.4-.7-.3-.6-.6-1.1-.9-1.7-.1-.1-.1-.3-.2-.4-.3-.8-.6-1.9-1.7-2.1a1.39,1.39,0,0,0-.9,0,1.83,1.83,0,0,0-1,.7,4.09,4.09,0,0,0-.3,2.2v1.6c0,1.1,0,2.2.1,3.3s.1,2.3.1,3.4c0,.6.1,1.1.1,1.7s.1,1,.1,1.5c-.5,0-.9-.1-1.4-.1h-2c-1.4,0-2.8.1-4.1.2s-2.7.1-4.1.2H11.8c-.1-.7-.1-1.4-.2-2.1a26.35,26.35,0,0,1-.2-2.8c-.1-1.1-.1-2.1-.2-3.2,0-.5-.1-.9-.1-1.4a6.48,6.48,0,0,0-.2-2,1.79,1.79,0,0,0-.5-.7,1.09,1.09,0,0,0-.5-.1,1.27,1.27,0,0,0-.6.1,1.33,1.33,0,0,0-.6,1c0,.2-.1.4-.1.6l-.3,1.5c-.1.5-.2.9-.3,1.4a.37.37,0,0,1-.1.3h0a4.83,4.83,0,0,0-1.4-.9c-.6-.3-1.3-.6-1.9-.9.1-.1.2-.3.3-.4.2-.4.5-.8.7-1.2.5-.8.8-1.7,1.3-2.6s.9-1.7,1.4-2.6A25.43,25.43,0,0,1,9.9,68a4.62,4.62,0,0,1,.7-.7c.4-.3.9-.6,1.3-.9A10.7,10.7,0,0,0,13.5,65a1,1,0,0,0-1.4-1.4,6.47,6.47,0,0,1-.9.8c-.5.3-1,.6-1.6.9a1.79,1.79,0,0,0-.7.5,5.39,5.39,0,0,0-1.4,1.6c-.7,1.2-1.4,2.4-2,3.6s-1.2,2.3-1.7,3.4c-.3.6-.5,1.1-.8,1.6-.1.3-.3.5-.4.8-.1.1-.1.2-.2.4s-.1.3-.2.5a1.73,1.73,0,0,0,.1,1,1.38,1.38,0,0,1,.3.4c.1-.1.3,0,.4.1a2.19,2.19,0,0,1,.5.3c.3.2.5.3.8.5a7.74,7.74,0,0,0,1.6.7l1.5.6a3.26,3.26,0,0,0,1.4.4,1.42,1.42,0,0,0,.6-.2c0,.7.1,1.4.1,2.1s.1,1.3.1,1.9c0,.4.1.7.1,1.1a4.4,4.4,0,0,0,.2,1,1.37,1.37,0,0,0,.5.8,1.5,1.5,0,0,0,1.1.4h3.2q3.3,0,6.6-.3c1-.1,2-.2,3-.2s2.2-.1,3.3-.3h.3a1.39,1.39,0,0,0,1-.5,2.39,2.39,0,0,0,.5-1.4c.1-.7.1-1.3.2-2,.1-1.2.2-2.5.2-3.7,0-.6.1-1.2.1-1.8a2.65,2.65,0,0,0,.5.6,1.54,1.54,0,0,0,1.3.5,2.84,2.84,0,0,0,1.2-.4c.6-.3,1.1-.7,1.6-1s1.1-.7,1.7-1.1c.3-.2.5-.3.8-.5a1.84,1.84,0,0,0,1-1,1.39,1.39,0,0,0,0-.9,12.2,12.2,0,0,0-.7-1.7c-.2-.3-.4-.7-.6-1a9.5,9.5,0,0,0-1-1.7,8.65,8.65,0,0,0-.7-1,6.73,6.73,0,0,1-.7-1.1c-.5-.8-1-1.5-1.5-2.3A9.62,9.62,0,0,0,31,63.8a5.67,5.67,0,0,0-1.8-1.2,3.55,3.55,0,0,0-.9-.4c-.1,0-.2-.1-.3-.1a5.13,5.13,0,0,0-1-.1,2,2,0,0,0-.7.1Zm1.2,24.1Z" transform="translate(-0.1)" />
    <path class="strokes" d="M27,83.9a4.18,4.18,0,0,0-.4,1c-.1.4-.1.8-.2,1.2v-.3c-.1.4-.1.8-.2,1.3a3.4,3.4,0,0,1-.1,1,13.4,13.4,0,0,1-.1,2c-.1,1.3-.1,2.6-.1,4-.1,2.7-.1,5.4-.1,8.1a46.08,46.08,0,0,0,.2,5.3c.2,1.8.5,3.5.8,5.3a23.08,23.08,0,0,1,.3,3.7H25.4a27.15,27.15,0,0,1-2.8.1c-.1-1.2-.1-2.4-.2-3.6-.1-1.4-.2-2.7-.3-4.1-.2-2.8-.3-5.7-.4-8.5,0-1.1-.1-2.1-.1-3.2V94.9a10.82,10.82,0,0,0,0-1.8,1.6,1.6,0,0,0-.7-.9,1.1,1.1,0,0,0-1.1-.1,1.27,1.27,0,0,0-.9.7c-.1.1-.1.2-.1.4h0a8.58,8.58,0,0,0-.2,2.3c0,.6-.1,1.3-.1,1.9-.1,1.4-.1,2.7-.1,4.1v16.2c-.4,0-.7-.1-1.1-.1s-1-.1-1.5-.1H14.1a4.1,4.1,0,0,0-1.1.1v-2.5c0-1.4-.1-2.7-.1-4s0-2.6-.1-3.9-.2-2.6-.3-4c-.1-1.1-.2-2.2-.2-3.4s-.1-2.1-.1-3.2v-3c.1-1.5.2-2.9.3-4.4.1-.3.1-.7.2-1v-.1a1.16,1.16,0,0,0-.4-1.6,1,1,0,0,0-.9-.1,1.79,1.79,0,0,0-.7.5,3.58,3.58,0,0,0-.4,1.1,7.72,7.72,0,0,0-.2,1.5A6.62,6.62,0,0,0,10,91c-.1.8-.1,1.7-.2,2.5a16.2,16.2,0,0,0-.1,2.2v1.9c0,2.8.2,5.6.3,8.4.1,2.6-.1,5.3,0,7.9,0,.6.1,1.3.1,1.9a7.49,7.49,0,0,0,.2,2.1,2.54,2.54,0,0,0,.2.7,1.46,1.46,0,0,0,.6.9,2.54,2.54,0,0,0,1.5.3,3.75,3.75,0,0,0,1.1-.1,3.08,3.08,0,0,0,1-.1h3a4.82,4.82,0,0,0,1.2,0c1.6-.1,1.4-2.1,1.5-3.3v0a3.26,3.26,0,0,0,1,2.3,5,5,0,0,0,1.3.3h1.2a3.4,3.4,0,0,0,1-.1h2.8a2,2,0,0,0,1.3-.4,1.87,1.87,0,0,0,.5-1.4,11.54,11.54,0,0,0-.1-2.6,42.93,42.93,0,0,0-.7-5,24.33,24.33,0,0,1-.3-3.8V97.3c0-1.3.1-2.7.1-4q0-3,.3-6c.1-.4.1-.9.2-1.3.1-.6.5-1.4.1-2a1.22,1.22,0,0,0-1-.6,1,1,0,0,0-1.1.5ZM12.7,88.1a.1.1,0,0,1-.1.1l.1-.1Zm10,28.3v0Zm0,.1Zm4.5.5Z" transform="translate(-0.1)" />
    <path class="strokes" d="M18,116.6a1.56,1.56,0,0,0-.8.6,1.31,1.31,0,0,0,.5,1.8,2.19,2.19,0,0,1,.5.3l.3.3.3.6a13.32,13.32,0,0,1,.5,1.9.76.76,0,0,0,.1.4c-.3,0-.6-.1-.8-.1a15,15,0,0,0-3,0,13.4,13.4,0,0,0-2,.1,3.4,3.4,0,0,0-1,.1c-.3,0-.6.1-.9.1a8.6,8.6,0,0,1,.1-1.6,1.88,1.88,0,0,1,.2-.8,1.06,1.06,0,0,0,1.4-.1,1.12,1.12,0,0,0,0-1.6,2,2,0,0,0-1.1-.6,2.3,2.3,0,0,0-1.4.2,3,3,0,0,0-1.4,2.3,19.67,19.67,0,0,0-.3,2.4V124a1.35,1.35,0,0,0,.5.9,2.69,2.69,0,0,0,1.5.5,7.57,7.57,0,0,0,1.5-.1h2.9a26.13,26.13,0,0,1,2.8,0,12.31,12.31,0,0,1,2,.2,1.37,1.37,0,0,0,1.2-.4,2,2,0,0,0,.4-1.5,4.25,4.25,0,0,1-.2-1.1,12.86,12.86,0,0,0-.4-1.9,6.39,6.39,0,0,0-.8-1.9,6.47,6.47,0,0,0-.8-.9c-.2-.1-.3-.3-.5-.4s-.5-.2-.7-.3h-.3c-.1-.5-.2-.5-.3-.5Zm-5.9,3.2Zm.1.1h0Zm-.3.1Zm0,0Zm8.9,2.6h0Z" transform="translate(-0.1)" />
    <path class="strokes" d="M28.1,116.4a1.22,1.22,0,0,0,0,1.6c.1.1.3.2.4.3s.2.3.3.5a16.55,16.55,0,0,1,.6,2.1,5.7,5.7,0,0,1,.1,1.3H28.4c-.7,0-1.4.1-2.1.1a19.27,19.27,0,0,1-2.4.1H22.4a10.87,10.87,0,0,1,.1-1.8c.1-.5.2-.9.3-1.4a2.19,2.19,0,0,1,.3-.5l.2-.2a1.1,1.1,0,1,0,0-2.2,2.52,2.52,0,0,0-1.9,1.1,5.28,5.28,0,0,0-1.1,2.4,15.44,15.44,0,0,0-.4,3,2.88,2.88,0,0,0,.3,1.6c.1.3.4.4.6.6a2.35,2.35,0,0,0,.8.2h.8c.6,0,1.2-.1,1.8-.1A10.87,10.87,0,0,0,26,125l2.1-.3a8.47,8.47,0,0,0,1.7-.4,3.55,3.55,0,0,0,.9-.4c.1-.1.3-.1.4-.2a1,1,0,0,0,.4-.5c0-.2.1-.3,0-.5a11.4,11.4,0,0,0-.2-2.6c-.1-.4-.1-.9-.2-1.3a5.18,5.18,0,0,0-1.2-2.6,1.14,1.14,0,0,0-.8-.3,3,3,0,0,0-1,.5Zm-5,2.4-.1.1.1-.1Zm6.2,2v0Z" transform="translate(-0.1)" />
    <path class="strokes" d="M3,77.2q-.9,3.3-1.5,6.6A50.48,50.48,0,0,0,.4,90.4L.1,93.7v1.5c0,.5.1,1,.1,1.5a8.75,8.75,0,0,0,.2,1.6,4.51,4.51,0,0,0,.3,1.1,1.06,1.06,0,0,0,.7.6,4.17,4.17,0,0,0,.6.2h.6a1.8,1.8,0,0,0,.9-.4,5,5,0,0,0,.8-.7,7.24,7.24,0,0,0,1.1-1.9c.2-.6.4-1.2.6-1.7a28.27,28.27,0,0,1,1.1-3.1c.4-1,.7-2,1.1-3s.6-1.9.8-2.9.4-2.1.6-3.2l.3-2.1a1.27,1.27,0,0,0-.1-.6,1.28,1.28,0,0,0-.7-.5,1.41,1.41,0,0,0-.9.1.94.94,0,0,0-.5.7c-.2,1.2-.3,2.5-.5,3.7-.2,1-.3,2-.6,3-.1.5-.3,1-.4,1.5a8.8,8.8,0,0,1-.5,1.5c-.4,1-.7,2.1-1.1,3.1s-.6,2.2-1,3.2c-.2.4-.4.7-.6,1.1l-.4.4c-.1.1-.2.1-.3.2h0v-.3c0-.3-.1-.6-.1-.9V95.1a4.87,4.87,0,0,1,.1-1.2c.1-1.6.3-3.3.5-4.9v0a45.43,45.43,0,0,1,.9-5.1c.4-2,.8-3.9,1.4-5.9a1.09,1.09,0,0,0-.7-1.2H4.2c-.7-.2-1.1,0-1.2.4ZM2,98.3Zm.6-9.6Z" transform="translate(-0.1)" />
    <path class="strokes" d="M35.3,74.5c-.1.1-.2.1-.3.2a.86.86,0,0,0-.3.6,2.52,2.52,0,0,0,.1,1.7,3.55,3.55,0,0,0,.4.9c.3.7.6,1.3.9,1.9a1.79,1.79,0,0,0,.5.7,7,7,0,0,0,.8,1,6.91,6.91,0,0,0,2.2,1.6,11.76,11.76,0,0,0,2,.7,10.93,10.93,0,0,0,1.7.5,19.68,19.68,0,0,0,3.5.6c.3,0,.5.1.8.1a8.47,8.47,0,0,1,1.7.4,3,3,0,0,1,.8.4,18.29,18.29,0,0,1-2.5.8c-.9.2-1.8.3-2.7.5a24.39,24.39,0,0,1-5.4.1,12.09,12.09,0,0,1-1.8-.5c-.3-.2-.6-.3-.9-.5a11.37,11.37,0,0,1-1.5-1.6c-.3-.5-.6-.9-.9-1.4l-.3-.6a3,3,0,0,1-.4-1c-.2-.6-.5-1.2-.7-1.8-.1-.3-.2-.5-.3-.8s-.1-.4-.2-.5a2,2,0,0,0-.4-.8.62.62,0,0,0-.7-.1c-.4.1-.5.4-.4.6v.2a.35.35,0,0,0,.1.2c.1.5.3,1.1.4,1.6s.3,1.2.5,1.8.4,1.3.6,2A17.07,17.07,0,0,0,34,86.7a5.39,5.39,0,0,0,1.4,1.6,6.06,6.06,0,0,0,2.1,1.1,9.18,9.18,0,0,0,2.8.5,18.8,18.8,0,0,0,4.1-.2c1.2-.2,2.4-.3,3.5-.6a12.67,12.67,0,0,0,1.8-.6,14.58,14.58,0,0,0,1.9-.7,1.76,1.76,0,0,0,.9-.8,2.28,2.28,0,0,0,.3-1.1,5,5,0,0,0-.3-1.3c-.1-.2-.3-.4-.4-.6s-.4-.3-.6-.5a4.05,4.05,0,0,0-.9-.5,5,5,0,0,0-1.3-.5,7.37,7.37,0,0,0-1.4-.4c-1.2-.3-2.4-.6-3.5-.9s-2-.7-3-1.1a6.38,6.38,0,0,1-1.4-.8,5.73,5.73,0,0,1-1.1-1.1L38,76.7c-.1-.3-.3-.5-.4-.8a.76.76,0,0,1-.2-.4c-.1-.2-.3-.4-.4-.6a1.39,1.39,0,0,0-1.2-.7,2.19,2.19,0,0,1-.5.3ZM50.6,85.6Zm-.3.5Z" transform="translate(-0.1)" />
  </g>
  <g id="map">
    <path class="strokes" d="M83,24.1c-1.3.1-2.5.1-3.8.2l-7.8.3c-1.3.1-2.6.1-4,.1-1.2,0-2.5.1-3.7.1-2.5.1-4.9.1-7.4.1-2,0-3.9.1-5.9.2a28.1,28.1,0,0,1-2.9.1c-1.2,0-2.3-.1-3.5-.1a1.32,1.32,0,0,0-1.3,1.3A1.4,1.4,0,0,0,44,27.7c1.4.1,2.9.1,4.3.1,1.2,0,2.4-.1,3.7-.2,2.5-.2,5-.1,7.5-.1H71c1.2,0,2.5-.1,3.7-.1,1,0,1.9-.1,2.9-.1h3a28.25,28.25,0,0,0,2.9-.2c.5,0,.9-.1,1.4-.1a2.2,2.2,0,0,0,.8-.1c.2-.1.3-.1.5-.2s.1-.1.2-.1a1,1,0,0,0,.7-.7,1.19,1.19,0,0,0-.4-1.1l-.6-.3a2.38,2.38,0,0,0-1.2-.3h-.7a4.87,4.87,0,0,0-1.2-.1Z" transform="translate(-0.1)" />
    <path class="strokes" d="M42.3,26.7a1.29,1.29,0,0,0-.6,1.5,4.05,4.05,0,0,0,.5.9,5,5,0,0,0,.7.8A15,15,0,0,1,44,31.2a11,11,0,0,0,1,1.1c.2.2.5.4.7.6-.5.6-1.1,1.1-1.6,1.7a11.32,11.32,0,0,0-1,1.3,2.16,2.16,0,0,0-.1,2.2c.2.5.5.9.7,1.4.5.9,1,1.7,1.4,2.6.2.5.5,1,.7,1.4a10.93,10.93,0,0,1,.8,1.5,8.34,8.34,0,0,1-.8,1.2,10,10,0,0,1-1,1.1,4.35,4.35,0,0,1-.7.6c-.2.2-.4.3-.5.5-.3.3-.5.6-.8.9a2,2,0,0,0-.3,1.1,1.78,1.78,0,0,0,.4,1,2.65,2.65,0,0,1,.5.6,10.63,10.63,0,0,1,.9,1.1c.6.8,1.1,1.6,1.6,2.4a34.47,34.47,0,0,1,2,3.2c0,.1.1.2.1.3l-1.3,1.3c-.5.4-.9.8-1.4,1.2-.3.2-.6.5-.9.7-.8.5-1.7,1.1-1.7,2.2a2.81,2.81,0,0,0,.6,1.5,10.63,10.63,0,0,0,.9,1.1l1.2,1.5a18.76,18.76,0,0,1,1.2,1.8c-.3.2-.5.4-.8.6-.6.5-1.2.9-1.8,1.4-.3.2-.5.5-.8.7A3.77,3.77,0,0,0,42,74.6a1.7,1.7,0,0,0,0,1,1.37,1.37,0,0,0,.5.8,2.62,2.62,0,0,0,.9.5c.1,0,.1,0,.2.1s.4.1.6.1a9.85,9.85,0,0,0,1.7.2h0c1.6.2,3.2.5,4.8.6s3.3.1,5,.1H61c1.7,0,3.4.1,5.1.2l5.4.3c1.7.2,3.5.3,5.2.5a45.33,45.33,0,0,0,5.2.3,21.75,21.75,0,0,0,2.6-.1,21.12,21.12,0,0,0,2.6-.2,23.64,23.64,0,0,0,5.3-1c.7-.2,1.4-.4,2-.6a13,13,0,0,0,1.7-.8,7,7,0,0,0,1.7-1.3,7.9,7.9,0,0,0,1.9-2.5,6,6,0,0,0,.6-1.9,6.73,6.73,0,0,0-.1-2,7.09,7.09,0,0,0-1.5-3,5.85,5.85,0,0,0-2.1-1.7,7.58,7.58,0,0,0-3.6-.8,8.75,8.75,0,0,0-1.6.2,7.49,7.49,0,0,0-1.6.5,6.84,6.84,0,0,0-2.1,1.7,5.64,5.64,0,0,0-1.5,3.1,5.18,5.18,0,0,0,.5,3,4.06,4.06,0,0,0,2.5,1.7c1.7.4,4-.2,4.6-2a5,5,0,0,0,.2-1.2,2.84,2.84,0,0,0-.4-1.3,4.44,4.44,0,0,0-.8-1.1c-.3-.3-.6-.5-.9-.8a1,1,0,1,0-1,1.8H91a2.34,2.34,0,0,1,.7.7c.1.2.2.3.3.5v.4c0,.1,0,.2-.1.2s-.1.1-.1.2a1.38,1.38,0,0,1-.4.3l.2-.2c-.1.1-.2.1-.3.2s-.4.1-.6.2h-.6a1.45,1.45,0,0,1-.7-.2c-.1-.1-.3-.1-.4-.2l-.2-.2c-.1-.1-.1-.2-.2-.3s-.1-.3-.1-.4v-.8c.1-.3.1-.5.2-.8a2.18,2.18,0,0,1,.5-.8,4.74,4.74,0,0,1,1-1,2.51,2.51,0,0,1,.7-.4c.3-.1.7-.2,1-.3a7.52,7.52,0,0,1,1.5,0,5,5,0,0,1,1.3.4c.2.1.5.3.7.4a6,6,0,0,1,.8.8,4.05,4.05,0,0,1,.5.9c.1.3.2.6.3,1v.7a1.42,1.42,0,0,1-.2.6,4.7,4.7,0,0,1-.6.9,5.73,5.73,0,0,1-1.1,1.1,6.73,6.73,0,0,1-1.1.7,23.25,23.25,0,0,1-3.6.8,16.35,16.35,0,0,1-2.2.2H85.6c-1.7,0-3.5,0-5.2-.1-3.5-.2-7-.6-10.5-.8-1.8-.1-3.6-.1-5.4-.1H59.2c-3.4,0-6.7.1-10.1-.1-.5,0-1-.1-1.6-.1a6,6,0,0,0,.8-.8l.5-.5c.1-.2.3-.3.4-.5a1.92,1.92,0,0,0,.4-1.2,4.82,4.82,0,0,0-1.1-3,17,17,0,0,0-1-1.4,15.58,15.58,0,0,0-1.6-2l.3-.3c.2-.2.5-.4.7-.6a18.48,18.48,0,0,0,1.4-1.4,17.41,17.41,0,0,0,1.2-1.4,4.7,4.7,0,0,0,.6-.9,4.1,4.1,0,0,0,.1-1.1,6.35,6.35,0,0,0-.9-2.1c-.7-1.1-1.4-2.2-2.1-3.4a28.32,28.32,0,0,0-2-2.8c.5-.5,1-.9,1.5-1.4a17.41,17.41,0,0,0,1.2-1.4,11,11,0,0,0,.9-1.4,2.13,2.13,0,0,0,.1-1.9,9.14,9.14,0,0,0-.7-1.4c-.5-1-.9-2-1.5-3-.3-.5-.6-1.1-.9-1.6s-.5-.7-.7-1.1a1,1,0,0,1,.4-.5c.5-.6,1.1-1.2,1.6-1.8l.9-1.2a1.4,1.4,0,0,0,.2-1.4,1.16,1.16,0,0,0-.5-.7l-.3-.3a16.92,16.92,0,0,1-2.8-3.2h0c-.1-.1-.1-.2-.2-.3s-.2-.3-.3-.4l.1.1c-.1-.2-.3-.3-.4-.5a1,1,0,0,0-.9-.4,1.33,1.33,0,0,1-.6.5Zm3,10.2a.1.1,0,0,1-.1.1h0a.1.1,0,0,0,.1-.1Zm1.4,7.9V45h0v-.2Zm0,.3h0v0Zm1.4,13.7Zm44,11.7v0Zm0,.3V71a.14.14,0,0,1,0-.2Zm-.1.3Zm-.1.1a.1.1,0,0,1-.1.1.1.1,0,0,1,.1-.1Zm-.6.3h-.1c.1.1.1.1.1,0ZM45.4,77.1h0Z" transform="translate(-0.1)" />
    <path class="strokes" d="M92,20.2a4,4,0,0,0-1.5.3,4.62,4.62,0,0,0-1.5.9c-.3.3-.6.7-.9,1a4.13,4.13,0,0,0-.7,1.1,8.65,8.65,0,0,0-.7,1.7,24.3,24.3,0,0,0-.8,4.7,30.85,30.85,0,0,0,0,4.3v2.3c0,.8-.1,1.5-.1,2.3-.1,1.4.1,2.9.1,4.3s.1,3,.1,4.6.1,3.1.1,4.6v4.5c0,1.5.1,3.1.1,4.6s.1,3,.2,4.5c0,1.1.1,2.2.1,3.3a1.32,1.32,0,0,0,1.3,1.3,1.26,1.26,0,0,0,1.3-1.3c-.1-3.2-.2-6.3-.1-9.5,0-1.5.1-3,.1-4.5s.1-3,.1-4.5-.1-3.1-.1-4.6-.2-3-.3-4.5a19.27,19.27,0,0,1-.1-2.4V36.9c0-1.4-.1-2.8-.2-4.3,0-.8-.1-1.5-.1-2.3a17,17,0,0,1,.1-2.3v.2a19.72,19.72,0,0,1,.7-3.5,6.38,6.38,0,0,1,.8-1.4,2.34,2.34,0,0,1,.7-.7c.1-.1.3-.2.4-.3a1.85,1.85,0,0,1,.7-.2h.5c.2,0,.3.1.5.1a4.05,4.05,0,0,1,.9.5l.3.3a10.91,10.91,0,0,1,.6,1.1c.2.6.4,1.1.6,1.7a8,8,0,0,1,.3,1.5c.2,1.4.3,2.7.4,4.1s.1,3.1.1,4.6v4.7c0,1.5-.1,3-.2,4.5a33.79,33.79,0,0,0,0,4.5V60.5a16.35,16.35,0,0,0,.2,2.2l.3,2.4a6,6,0,0,0,.6,2.3,1.56,1.56,0,0,0,1.3.7A1.47,1.47,0,0,0,99.6,67a6.46,6.46,0,0,0,0-2.4c0-.7-.1-1.4-.1-2.1s-.1-1.4-.1-2.1V58.2c0-1.5-.1-2.9-.1-4.4s-.1-2.9-.2-4.3-.2-3.1-.2-4.6,0-3-.1-4.5-.1-3-.2-4.6-.1-3.1-.3-4.7c-.1-.8-.2-1.5-.3-2.3a18.46,18.46,0,0,0-.4-2.3c-.1-.3-.1-.7-.2-1a5.64,5.64,0,0,0-.4-1.2l-.6-1.5a5.67,5.67,0,0,0-.8-1.3,4,4,0,0,0-1.2-1,4.63,4.63,0,0,0-2.5-.8c.2.5.2.5.1.5Zm-.1,2.2h0Z" transform="translate(-0.1)" />
    <path class="theme-color" d="M55.2,65.6a1.38,1.38,0,0,0-.4.3c-.1.1-.2.2-.2.3-.4.4-.8.9-1.2,1.3l-1.9,2.2a1.49,1.49,0,0,0-.4.9,1.09,1.09,0,0,0,.4.9,1.27,1.27,0,0,0,1.8,0l1.9-2.2a14.62,14.62,0,0,0,1.6-2.1,1.06,1.06,0,0,0-.2-1.4,1.14,1.14,0,0,0-.8-.3.66.66,0,0,0-.6.1Z" transform="translate(-0.1)" />
    <path class="theme-color" d="M51.9,65.1a1.46,1.46,0,0,0-.5,2c.6.9,1.1,1.7,1.7,2.6.2.3.5.7.7,1,.4.5.8,1.2,1.4,1.3a1.52,1.52,0,0,0,1.3-.3.86.86,0,0,0,.3-.6.85.85,0,0,0,0-.7,1.49,1.49,0,0,0-.3-.7,2.19,2.19,0,0,0-.3-.5l-.6-.9c-.6-.9-1.1-1.7-1.7-2.6a1.71,1.71,0,0,0-1.3-.7.63.63,0,0,0-.7.1Z" transform="translate(-0.1)" />
    <path class="strokes" d="M60.6,67.2a14.62,14.62,0,0,1-2,.5,1.2,1.2,0,0,0,.7,2.3,5,5,0,0,0,2.1-.9.78.78,0,0,0,.4-.4,1.08,1.08,0,0,0-.9-1.6.37.37,0,0,0-.3.1Z" transform="translate(-0.1)" />
    <path class="strokes" d="M65.1,64.6c-.4.4-.9.8-1.3,1.2a.92.92,0,1,0,1.3,1.3c.4-.4.8-.9,1.2-1.3a1,1,0,0,0,0-1.2.73.73,0,0,0-.6-.2,1.07,1.07,0,0,0-.6.2Z" transform="translate(-0.1)" />
    <path class="strokes" d="M69.9,60.5a1,1,0,0,0-.5.4c-.1.1-.1.2-.2.2a17.38,17.38,0,0,1-1.3,1.5c-.1.1-.2.1-.3.2a.78.78,0,0,0-.4.4.88.88,0,0,0-.1.7.86.86,0,0,0,1.1.6A4.41,4.41,0,0,0,70,63c.3-.4.5-.7.8-1.1a1,1,0,0,0-.3-1.2.6.6,0,0,0-.4-.1.31.31,0,0,0-.2-.1Zm-.6.5-.1.1.1-.1Z" transform="translate(-0.1)" />
    <path class="strokes" d="M71.1,54.7a.76.76,0,0,0-.2.4l-.3,3.3a.75.75,0,0,0,.7.7.68.68,0,0,0,.7-.7c0-.5.1-1.1.1-1.6V55.1a.65.65,0,0,0-.6-.6c-.2,0-.3,0-.4.2Z" transform="translate(-0.1)" />
    <path class="strokes" d="M69.4,49.3a.8.8,0,0,0-.6,1.1,11.88,11.88,0,0,0,1.3,2.5,1,1,0,0,0,1.7-.9c-.4-.7-.9-1.5-1.4-2.2l-.3-.3a.75.75,0,0,0-.5-.1.31.31,0,0,0-.2-.1Z" transform="translate(-0.1)" />
    <path class="strokes" d="M63.8,46.2c-.1.1-.1.2-.1.4a.76.76,0,0,0,.2.5,1.35,1.35,0,0,0,.9.5c.2.1.5.2.7.3.5.2,1,.4,1.6.6.4.2.9-.2,1.1-.6a1,1,0,0,0-.6-1.1c-.5-.2-1-.3-1.4-.5a7.84,7.84,0,0,0-1.4-.5h-.2a.81.81,0,0,0-.8.4Z" transform="translate(-0.1)" />
    <path class="strokes" d="M60.8,41.3a4.88,4.88,0,0,0-.3.7,1.39,1.39,0,0,0,0,.9,1.91,1.91,0,0,0,.3.8c.1.2.3.5.4.7a.65.65,0,0,0,1.1-.7,3,3,0,0,1-.4-.8.75.75,0,0,1-.1-.5V42a.37.37,0,0,1,.1-.3.45.45,0,0,0-.3-.6.37.37,0,0,0-.3-.1.55.55,0,0,0-.5.3Z" transform="translate(-0.1)" />
    <path class="strokes" d="M65.4,35.6a5.78,5.78,0,0,0-1.4.5,7.1,7.1,0,0,0-1.4,1,3.27,3.27,0,0,0-1.1,1.5.88.88,0,0,0-.1.7,2.09,2.09,0,0,0,.4.6.88.88,0,0,0,.7.1c.2-.1.5-.2.5-.4l.3-.6a6.47,6.47,0,0,1,.9-.8c.6-.4,1.2-.7,1.8-1.1a.87.87,0,0,0,.4-.9.76.76,0,0,0-.8-.6Z" transform="translate(-0.1)" />
    <path class="strokes" d="M70.4,35.5a4.87,4.87,0,0,0-1.2.1.4.4,0,0,0,0,.8,4.87,4.87,0,0,0,1.2-.1.4.4,0,0,0,0-.8Z" transform="translate(-0.1)" />
    <path class="strokes" d="M60.9,41a3.55,3.55,0,0,0-.4.9,3.3,3.3,0,0,0,0,1.4A2,2,0,0,0,62,44.9h.4a1,1,0,0,0,.5-.4.8.8,0,0,0-.3-1.1h-.1c-.1-.1-.1-.2-.2-.3s-.1-.3-.1-.5v-.2c0-.1,0-.1.1-.2s.1-.2.1-.3a1,1,0,0,0-.3-1.3.75.75,0,0,0-.5-.1,1.28,1.28,0,0,0-.7.5Z" transform="translate(-0.1)" />
    <path class="strokes" d="M70.2,34.8c-.3,0-.7.1-1,.1h-.3a.37.37,0,0,0-.2.5.76.76,0,0,0,.2.4c.1.1.3.1.4.2a1.09,1.09,0,0,0,.5.1,5.85,5.85,0,0,0,1.3.2.8.8,0,1,0,0-1.6H71a2.49,2.49,0,0,0-.8.1Z" transform="translate(-0.1)" />
    <path class="theme-color" d="M73.5,31.3a1.13,1.13,0,0,0-.4,1.5A24.76,24.76,0,0,0,75,35.4a25,25,0,0,0,2.3,2.3c.6.6,1.4,1,2,1.7a.9.9,0,0,0,1.1.1,1,1,0,0,0,.4-.5.82.82,0,0,0-.1-.7,6.53,6.53,0,0,0-1.3-1.6c-.4-.4-.8-.7-1.2-1.1a15.37,15.37,0,0,1-1.7-1.9,24.26,24.26,0,0,1-1.4-2,1.19,1.19,0,0,0-.9-.5,1.48,1.48,0,0,0-.7.1Z" transform="translate(-0.1)" />
    <path class="theme-color" d="M79.9,30.8a2.81,2.81,0,0,0-1.4,1l-.8.8a20,20,0,0,0-1.4,1.6c-1.2,1.5-2.4,3-3.5,4.5a.94.94,0,0,0-.1.9,1.79,1.79,0,0,0,.5.7,1,1,0,0,0,.9.1,1.79,1.79,0,0,0,.7-.5c.2-.2.3-.5.5-.7l-.1.1c0-.1.1-.1.1-.2V39h0c.4-.6.9-1.1,1.3-1.7A21,21,0,0,1,78,35.6a17.88,17.88,0,0,1,1.3-1.4A12.88,12.88,0,0,0,81,32.6a1.17,1.17,0,0,0-.8-2c-.1.2-.2.2-.3.2Zm-4.6,8.4Z" transform="translate(-0.1)" />
    <path class="strokes" d="M79.6,53.5c-.8,1.6-1.6,3.1-2.3,4.7-.3.7-.7,1.5-1,2.2-.1.3-.3.7-.4,1a.6.6,0,0,0-.1.4,2.35,2.35,0,0,0-.2.8.75.75,0,0,0,.1.5,1.28,1.28,0,0,0,.7.5c.1,0,.3.1.4,0s.5-.1.7-.1h0c-.1.2-.3.5-.4.7l-.3.6a1.68,1.68,0,0,0-.3,1.2,1.07,1.07,0,0,0,.7.9,2.77,2.77,0,0,0,.9.1h.7a7.57,7.57,0,0,0,1.5-.1c.5,0,1-.1,1.5-.1h.7a1.27,1.27,0,0,0,.6-.1c.1-.1.2-.1.4-.2a2.19,2.19,0,0,0,.3-.5c.1-.1,0-.3.1-.5a.9.9,0,0,0-.1-.5c-.1-.3-.1-.6-.2-.8a2.35,2.35,0,0,1-.2-.8c-.1-.2-.1-.5-.2-.7l1.2-.3a1.17,1.17,0,0,0,.9-1.1,1.27,1.27,0,0,0-.1-.6c0-.1-.1-.2-.1-.3a6.89,6.89,0,0,0-.4-1,16.67,16.67,0,0,0-.8-2c-.3-.6-.5-1.1-.8-1.7l-.3-.9a7.84,7.84,0,0,0-.5-1.4.89.89,0,0,0-.8-.5.1.1,0,0,1-.1-.1,1.42,1.42,0,0,0-.6-.2c-.5.3-1,.5-1.2.9Zm-1,7.8c.3-.6.6-1.3.9-1.9.5-1,.9-1.9,1.4-2.9a5.94,5.94,0,0,0,.4.8c.2.4.5.8.7,1.2s.3.7.5,1.1.2.5.3.8c0,.1.1.2.2.4-.3.1-.6.1-.9.2a1.47,1.47,0,0,0-1,.9v.5c0,.1.1.2.1.3s.1.1.1.2l.3.6h0c0,.1,0,.1.1.2v-.1a4.88,4.88,0,0,1,.3.7,6.47,6.47,0,0,1,.4,1.3H78.5a9.15,9.15,0,0,0,.9-1.7,6.89,6.89,0,0,0,.3-.8.9.9,0,0,0,.1-.5c0-.2-.1-.4-.1-.6s-.4-.5-.6-.5-.4-.1-.6-.1a.1.1,0,0,0,.1-.1Zm4.7.3Zm-.9,4.2Zm-.7-2.2Z" transform="translate(-0.1)" />
    <path class="strokes" d="M78.7,65.8a1.49,1.49,0,0,0-.4.9c-.1.9-.2,1.9-.3,2.8,0,.4-.1.8-.1,1.2a2,2,0,0,0,.5,1.5,2.19,2.19,0,0,0,.5.3.6.6,0,0,1,.4.1c.3,0,.5-.1.8-.1h.2c.3-.1.5-.2.8-.3a2.18,2.18,0,0,0,.5-.4,1.76,1.76,0,0,0,.4-.5,4.44,4.44,0,0,0,.2-2.3,17,17,0,0,0-.1-2.3A1.11,1.11,0,0,0,81,65.6a1.42,1.42,0,0,0-.6.2h0a1.27,1.27,0,0,0-.9-.4,1.23,1.23,0,0,0-.8.4Z" transform="translate(-0.1)" />
    <path class="strokes" d="M55.1,47.6c-.8,2.6-1.6,5.1-2.3,7.7-.1.2-.1.5-.2.7s-.1.2-.1.3a.37.37,0,0,1-.1.3,1.27,1.27,0,0,0-.1.6,1.45,1.45,0,0,0,.2.7,1.21,1.21,0,0,0,.5.5,1.69,1.69,0,0,0,1,.3c.6.1,1.1.1,1.7.2h2.1l.6-.3a1.62,1.62,0,0,0,.5-.9,6,6,0,0,0-.1-2.3c-.2-1.4-.5-2.7-.7-4-.1-.7-.2-1.3-.3-2,0-.3-.1-.6-.1-.8-.1-.6-.1-1.2-.7-1.5h0a.76.76,0,0,0-.4-.2h-.3a1,1,0,0,0-1.2.7ZM55,56.5c.1-.4.2-.8.3-1.1.2-.7.4-1.5.6-2.2.1-.2.1-.4.2-.6.2,1.2.5,2.4.7,3.7v.5h-.5c-.4,0-.9-.1-1.3-.1v-.2Zm1.8.8Z" transform="translate(-0.1)" />
    <path class="strokes" d="M54.7,57.6c0,.7-.1,1.4-.1,2.1a2,2,0,0,1-.1.8c0,.5-.1,1,.3,1.3a.91.91,0,0,0,1.4-.2.35.35,0,0,1,.1-.2,5.54,5.54,0,0,0,.2-1.8c0-.7.1-1.4.1-2.1a1.08,1.08,0,0,0-1-1,1.17,1.17,0,0,0-.9,1.1Z" transform="translate(-0.1)" />
    <path class="strokes" d="M60.3,49.6a.9.9,0,0,0-.7,1v.3l-1.5,3.6c-.3.7-.5,1.3-.8,2a6.89,6.89,0,0,1-.3.8,1.81,1.81,0,0,0-.2,1.4,1.16,1.16,0,0,0,.5.7,1,1,0,0,0,.9.1c.1,0,.3-.1.4-.1a17.65,17.65,0,0,1,2.3,0,8.81,8.81,0,0,1,1.7.2,1.7,1.7,0,0,0,1,0,1,1,0,0,0,.7-1,3.36,3.36,0,0,0-.5-1.4c-.5-1.3-.9-2.6-1.3-3.9-.2-.5-.3-1.1-.5-1.6-.1-.2-.1-.4-.2-.6s.1-.1.1-.2a1.41,1.41,0,0,0-.1-.9c-.1-.3-.4-.4-.7-.5h-.6c-.1.1-.1.1-.2.1Zm-.7,7.3c.2-.6.5-1.3.7-1.9.1-.2.1-.4.2-.6a19.17,19.17,0,0,0,1.1,3.1,16.35,16.35,0,0,0-2.2-.2c.1-.1.1-.2.2-.4Z" transform="translate(-0.1)" />
    <path class="strokes" d="M60,58a.76.76,0,0,0-.2.4c-.1,1.1-.2,2.1-.3,3.2a.68.68,0,0,0,.4.6,1.09,1.09,0,0,0,.5-.1,1.38,1.38,0,0,0,.3-.4c.2-1.1.3-2.2.4-3.3a.65.65,0,0,0-.6-.6.59.59,0,0,0-.5.2Z" transform="translate(-0.1)" />
    <path class="strokes" d="M52.2,29.9a1.49,1.49,0,0,0-.4.9,3.59,3.59,0,0,0,.2,1.1V32c-.1.3-.3.6-.4.9a19.45,19.45,0,0,0-.8,2.2l-.6,1.8c-.2.6-.4,1.3-.6,1.9a3.54,3.54,0,0,0-.3,1.1,1.49,1.49,0,0,0,.2.9,1.72,1.72,0,0,0,.6.6,4.88,4.88,0,0,0,.7.3,2,2,0,0,0,.8.1c.3,0,.7.1,1,.1h2.1a1.68,1.68,0,0,0,1.2-.3c.2-.2.4-.3.5-.5a1.42,1.42,0,0,0,.2-.6,3.79,3.79,0,0,0,0-1.5c-.1-.4-.1-.8-.2-1.1-.2-.7-.4-1.4-.6-2.2s-.5-1.7-.7-2.6c-.1-.2-.1-.4-.2-.5.1-.2.2-.5.3-.7a1.1,1.1,0,0,0,.1-1.1,1.27,1.27,0,0,0-.7-.9,2,2,0,0,0-1.1-.2,1.27,1.27,0,0,0-.6-.1c-.2-.1-.5.1-.7.3Zm.9,7.2c.1-.2.1-.3.2-.5,0,.1.1.3.1.4a18,18,0,0,1,.6,2.2h-.5c-.3,0-.7-.1-1-.1.2-.6.4-1.3.6-2Z" transform="translate(-0.1)" />
    <path class="strokes" d="M52.3,39.8c-.2.2-.2.4-.3.6a17.85,17.85,0,0,0-.2,2.3,7.41,7.41,0,0,0-.1,2.1.8.8,0,0,0,1.6,0c0-.7.2-1.4.2-2.1a17.85,17.85,0,0,0,.2-2.3.71.71,0,0,0-.3-.6.86.86,0,0,0-.6-.3c-.1.1-.4.2-.5.3Z" transform="translate(-0.1)" />
  </g>
  <g class="stars">
    <g class="star">
      <path class="theme-color" d="M107.1,94.6a1,1,0,0,0-.4,1.4,30.87,30.87,0,0,0,2.6,3.7c.5.6,1,1.1,1.5,1.7l1,1c.5.4,1,.9,1.5,1.3a.76.76,0,0,0,1-.1c.4-.3.3-.8.1-1.2l-1.8-2.1a26.92,26.92,0,0,1-2.7-3.2c-.4-.6-.8-1.3-1.2-1.9a1,1,0,0,0-.6-.5c-.1,0-.2-.1-.3-.1-.4-.1-.5-.1-.7,0Z" transform="translate(-0.1)" />
      <path class="theme-color" d="M112.8,94.5c-.3.1-.4.3-.5.6-.8,1.6-1.5,3.3-2.2,5-.6,1.5-1.2,3.1-1.7,4.7a1,1,0,0,0,.6,1.2.9.9,0,0,0,1.2-.6c.6-1.5,1.2-3.1,1.8-4.6.7-1.7,1.4-3.4,2.2-5a.78.78,0,0,0-.1-.8,1,1,0,0,0-.6-.5c-.1,0-.2-.1-.3-.1a.76.76,0,0,0-.4.1Z" transform="translate(-0.1)" />
      <path class="theme-color" d="M116.8,98.6l-2.7.3h.2a28.25,28.25,0,0,1-2.9.2l-5.1.3a1.85,1.85,0,0,0-.7.2.86.86,0,0,0-.3.6,1.85,1.85,0,0,0,.2.7.71.71,0,0,0,.6.3c1.2-.1,2.3-.1,3.5-.2.9-.1,1.8-.1,2.6-.2s1.4-.1,2.1-.2a20.23,20.23,0,0,0,2.6-.4.83.83,0,0,0,.6-1,.66.66,0,0,0-.4-.5.6.6,0,0,0-.4-.1Z" transform="translate(-0.1)" />
    </g>
    <g class="star">
      <path class="theme-color" d="M110.6,47.5a1.85,1.85,0,0,0-.7.8,1.15,1.15,0,0,0,.1,1,4.7,4.7,0,0,0,.6.9,5.24,5.24,0,0,0,1.1,1,18.82,18.82,0,0,0,2.3,1.6,21.48,21.48,0,0,0,2.6,1.4c1.3.7,2.5,1.3,3.8,1.9a.64.64,0,0,0,.6,0c.3-.1.6-.2.7-.5a1.23,1.23,0,0,0-.3-1.6c-1-.6-2-1.2-2.9-1.8a34.71,34.71,0,0,1-5.4-3.4,2.65,2.65,0,0,1-.5-.6.37.37,0,0,1-.1-.3,1.39,1.39,0,0,0-.8-.7c-.1,0-.3-.1-.4-.1a5.74,5.74,0,0,1-.7.4Z" transform="translate(-0.1)" />
      <path class="theme-color" d="M119,46.8c-.1,0-.1.1-.2.1L117,48.1c-.7.5-1.5,1-2.2,1.5-1.7,1.1-3.3,2.3-4.9,3.5a1.06,1.06,0,0,0-.1,1.4.91.91,0,0,0,.7.3,1.45,1.45,0,0,0,.7-.2c1.2-.9,2.5-1.8,3.7-2.8.8-.6,1.6-1.1,2.4-1.7,1-.7,1.9-1.4,2.8-2.1a.82.82,0,0,0,.1-1.2.86.86,0,0,0-.6-.3h0a.86.86,0,0,0-.6.3Z" transform="translate(-0.1)" />
      <path class="theme-color" d="M113.8,43.8c-.2.2-.4.5-.3.7.1,1.7.2,3.3.3,5,.1,1.1.1,2.2.2,3.3.1,1.3.3,2.5.4,3.8.1,1.1.2,2.2.4,3.3.1.3.1.6.2.9a1.1,1.1,0,0,0,1.2.8,1,1,0,0,0,.8-1.2c-.3-1.4-.4-2.8-.6-4.3-.1-1.3-.3-2.7-.4-4-.1-1-.1-2-.2-3.1l-.3-4.5a1.33,1.33,0,0,0-.3-.8,1.08,1.08,0,0,0-.7-.3h-.1c-.1.2-.4.3-.6.4Z" transform="translate(-0.1)" />
    </g>
    <g class="star">
      <path class="theme-color" d="M76.5.6a1.23,1.23,0,0,0-.4.8c.1,1.8.3,3.6.4,5.4.1.7.1,1.3.2,2,0,.2.1.5.1.7a4.19,4.19,0,0,0,.4,1.6.88.88,0,0,0,1,.5.52.52,0,0,0,.4-.2.78.78,0,0,0,.3-.7,1.27,1.27,0,0,0-.1-.6h0a12.16,12.16,0,0,0,0-3.3v.3c-.1-1.9-.3-3.7-.4-5.6a1.14,1.14,0,0,0-.3-.8,2,2,0,0,0-.8-.4h-.1a1.08,1.08,0,0,0-.7.3Z" transform="translate(-0.1)" />
      <path class="theme-color" d="M72.9,3.6a1.19,1.19,0,0,0,.4,1.7A24.92,24.92,0,0,0,75.7,7c.5.4,1.1.7,1.6,1.1s1.3.8,1.9,1.2a19.4,19.4,0,0,1,2.4,1.5,1.42,1.42,0,0,0,.6.2,1.14,1.14,0,0,0,.8-.3,1.22,1.22,0,0,0,.1-1.6,8.4,8.4,0,0,0-2.4-1.8c-.6-.4-1.3-.8-1.9-1.2-1.4-.9-2.8-1.8-4.1-2.8a1.6,1.6,0,0,0-.8-.3,1.1,1.1,0,0,0-1,.6Z" transform="translate(-0.1)" />
      <path class="theme-color" d="M83.7.1c-.9.5-1.8,1.1-2.7,1.7s-1.9,1.3-2.8,1.9c-2.2,1.5-4.3,3-6.4,4.6a1.23,1.23,0,0,0-.4.8,1.14,1.14,0,0,0,.3.8,1.23,1.23,0,0,0,.8.4,1.14,1.14,0,0,0,.8-.3c1.8-1.3,3.5-2.6,5.3-3.9.9-.6,1.8-1.2,2.7-1.9,1.1-.8,2.2-1.5,3.3-2.2a.67.67,0,0,0,.7-.5,1,1,0,0,0-.1-.9,1.1,1.1,0,0,0-1-.6,1.09,1.09,0,0,0-.5.1Z" transform="translate(-0.1)" />
    </g>
    <g class="star">
      <path class="theme-color" d="M16.5,21.1a1.36,1.36,0,0,0,.8,1.6l6.6,2.4c2,.7,4.1,1.4,6.2,2a1.11,1.11,0,1,0,.7-2.1c-4.2-1.6-8.5-3.1-12.7-4.7-.1,0-.3-.1-.4-.1a1.59,1.59,0,0,0-1.2.9Z" transform="translate(-0.1)" />
      <path class="theme-color" d="M27.6,16.8c-1.5,1.6-3,3.2-4.4,4.8-1.6,1.8-3.2,3.6-4.7,5.4a1.23,1.23,0,0,0-.4.8,1.14,1.14,0,0,0,.3.8,1.23,1.23,0,0,0,.8.4,1.14,1.14,0,0,0,.8-.3c1.6-1.8,3.1-3.6,4.7-5.4s3-3.4,4.4-5.2a.91.91,0,0,0-.1-1.2,1.14,1.14,0,0,0-.8-.3.48.48,0,0,0-.6.2Z" transform="translate(-0.1)" />
      <path class="theme-color" d="M21.9,16.5a1,1,0,0,0-.5.4.82.82,0,0,0-.1.7l.3,2.1c0,.4.1.8.1,1.1.1.7.1,1.4.2,2.2.1,1,.1,2,.2,2.9,0,.6.1,1.1.1,1.7a20.62,20.62,0,0,0,.3,2.6,1,1,0,0,0,1.2.7.91.91,0,0,0,.7-1.2,18.59,18.59,0,0,1-.4-3.3,26.35,26.35,0,0,1-.2-2.8c-.1-.8-.1-1.6-.2-2.4-.1-.6-.1-1.2-.2-1.7s-.1-1-.2-1.6c0-.1.1-.3,0-.4s-.1-.2-.1-.3a1,1,0,0,0-.4-.5.75.75,0,0,0-.5-.1.37.37,0,0,0-.3-.1Zm-.6,1.2v.1h0v-.1Zm.6,5.4Z" transform="translate(-0.1)" />
    </g>
  </g>
</svg>
