<svg xmlns="http://www.w3.org/2000/svg" width="12em" viewBox="0 0 85.17 106.58">
  <title>30-day money back guarantee badge</title>
  <path
    d="M34.77,76.18a.58.58,0,0,0-.24.14c-.36.28-.26.78-.23,1.18v.68a8.34,8.34,0,0,0,.08,1.41c0,.91.09,1.82.14,2.73s.1,2,.24,3,.29,2,.43,3,.28,1.88.45,2.81.35,1.78.5,2.68c.08.51.17,1,.24,1.55s.14,1,.22,1.44a5.58,5.58,0,0,0,.2.88c.11.35.32.79.73.86h.36a.85.85,0,0,0,.29-.17,2.9,2.9,0,0,0,.25-.36,2.75,2.75,0,0,0,.17-.29c.23-.39.45-.78.67-1.18.36-.65.73-1.3,1.11-1.93L41,93.56c.2-.31.41-.6.62-.9L42,92.2l.27-.32a6.25,6.25,0,0,1,.44-.45c.14.08.27.18.41.27l.48.33,1,.7,1,.71,1,.74c.34.28.67.56,1,.86l.49.48.31.31.19.16a1.39,1.39,0,0,0,.54.33.73.73,0,0,0,.69-.19A1.06,1.06,0,0,0,50,95.8a1.45,1.45,0,0,0,0-.3,1.89,1.89,0,0,0,0-.41V94.4A11,11,0,0,0,49.94,93c0-.93-.14-1.86-.21-2.79l-.21-2.94c-.13-1.95-.24-3.9-.31-5.85V78.52a.2.2,0,0,0,.14-.24,5.11,5.11,0,0,1-.13-.53,1.57,1.57,0,0,0,0-.23.26.26,0,0,0-.19-.2.3.3,0,0,0-.33.13c0,.06-.06.13-.08.19a1,1,0,0,0,0,.23,4.4,4.4,0,0,0,0,.51v5.55c0,1.88,0,3.76.12,5.63,0,.94.09,1.88.13,2.82,0,.68.06,1.35.09,2l-.31-.3c-.17-.16-.34-.32-.52-.47l-.65-.53c-.79-.6-1.6-1.17-2.39-1.77-.36-.27-.72-.54-1.09-.8l-.29-.2a1.69,1.69,0,0,0-.57-.28.88.88,0,0,0-.28,0,.92.92,0,0,0-.4.11,2,2,0,0,0-.43.29l-.32.32c-.13.14-.25.28-.37.43l-.53.69-.15.23-.27.4c-.14.19-.26.4-.38.6l-.36.59c-.35.6-.7,1.21-1,1.83-.16.31-.33.62-.49.94,0,.09-.08.17-.13.26a4.28,4.28,0,0,0-.1-.59l-.12-.72c-.07-.48-.13-1-.21-1.45l-.28-1.55c-.1-.55-.17-.85-.24-1.29s-.15-.89-.22-1.34-.15-1-.22-1.54c-.12-.89-.25-1.78-.37-2.68v.16c-.06-.46-.13-.92-.17-1.38s-.06-.93-.08-1.4c0-1-.11-1.9-.15-2.85a10.59,10.59,0,0,0-.08-1.59V76.88a.54.54,0,0,0-.5-.73H35.1Z"
    transform="translate(0 -0.02)"
    fill="#2c2c2c"
    stroke="#2c2c2c"
    stroke-miterlimit="10"
    stroke-width="0.55"
  />
  <path
    d="M57.41,73.9a.63.63,0,0,0-.43.43,1.12,1.12,0,0,0,0,.41v1.68c0,.63.12,1.25.18,1.87.14,1.34.24,2.68.33,4s.17,2.72.24,4.07c0,.64.09,1.27.14,1.9s.13,1.29.18,1.93q.06.56.09,1.11L57,90.3c-.23-.2-.46-.4-.67-.61l-.41-.39-.32-.3-.78-.83c-.23-.25-.44-.51-.66-.76s-.46-.58-.7-.87a1,1,0,0,0-.46-.36.67.67,0,0,0-.62.16,1.78,1.78,0,0,0-.23.31l-.15.24c-.43.69-.84,1.4-1.25,2.1-.2.34-.38.68-.57,1l-.9,1.64a.54.54,0,0,0,.19.74h0a.55.55,0,0,0,.75-.19c.51-.94,1-1.88,1.55-2.81l.69-1.19c.13-.22.26-.45.4-.67.17.23.34.45.52.67s.42.52.64.77l.77.84c.23.26.49.49.73.74l.66.62c.27.23.53.47.79.71l.73.64.19.15a1.37,1.37,0,0,0,.51.32.72.72,0,0,0,.41,0,.79.79,0,0,0,.33-.19,1,1,0,0,0,.18-.23,1.6,1.6,0,0,0,.1-.23v-.26a10.47,10.47,0,0,0,0-1.77l-.09-1c0-.61-.11-1.23-.15-1.84-.08-1.35-.13-2.7-.21-4s-.18-2.74-.28-4.12q-.07-.94-.18-1.89c-.07-.62-.15-1.25-.18-1.88V75a2.28,2.28,0,0,0,0-.26.85.85,0,0,0-.36-.74.72.72,0,0,0-.32-.08h-.16Z"
    transform="translate(0 -0.02)"
    fill="#2c2c2c"
    stroke="#2c2c2c"
    stroke-miterlimit="10"
    stroke-width="0.55"
  />
  <path
    d="M70.68,49.44a7.64,7.64,0,0,1,.45-1.65,18,18,0,0,1,1.1-2l.24-.38a13.51,13.51,0,0,0,1-2,2.76,2.76,0,0,0,.24-1.25A1.79,1.79,0,0,0,73,40.9a5.69,5.69,0,0,0-.72-.4L72,40.36a14.24,14.24,0,0,1-1.83-1.07,10,10,0,0,1-1.52-1.53,6,6,0,0,1-.57-1,4.88,4.88,0,0,1-.24-1,7.68,7.68,0,0,1,0-1.66,9.91,9.91,0,0,1,.57-2.08l.43-.94c.06-.14.13-.29.19-.44a1.34,1.34,0,0,0,0-.84,1.19,1.19,0,0,0-.81-.79,2.2,2.2,0,0,0-.41-.07,10.09,10.09,0,0,1-1.76-.51,7.6,7.6,0,0,1-1.49-.83,5.84,5.84,0,0,1-.79-.78,4.54,4.54,0,0,1-.36-.6,4.57,4.57,0,0,1-.18-.66,12.64,12.64,0,0,1,0-2V21.87a5,5,0,0,0-.08-.77,1.76,1.76,0,0,0-.32-.79,1.53,1.53,0,0,0-.81-.59,2.46,2.46,0,0,0-.5-.08,1.3,1.3,0,0,0-.4,0H61a5.6,5.6,0,0,0-.59.12c-.39.1-.78.22-1.16.33s-.76.22-1.14.31l-.72.19-.47.11h-.1c-.45.11-.91.23-1.38.31a.88.88,0,0,0-.5-.36l-.18-.1a1.9,1.9,0,0,1-.24-.25,2.5,2.5,0,0,1-.3-.53,13.43,13.43,0,0,1-.83-3.14L53.32,16A1.35,1.35,0,0,0,52.84,15a1,1,0,0,0-1,0,3.43,3.43,0,0,0-.45.35l-.12.11-.24.22a19,19,0,0,1-1.62,1.38l-.46.36-.49.37a8.49,8.49,0,0,1-1.59,1,8,8,0,0,1-1.7.5,10.61,10.61,0,0,1-2,0A5.23,5.23,0,0,1,42.1,19a5,5,0,0,1-.78-.45,7.26,7.26,0,0,1-1-1,17,17,0,0,1-.93-1.45c-.08-.12-.15-.24-.22-.36l-.1-.16a3,3,0,0,0-.82-1,1.2,1.2,0,0,0-.69-.22h-.29a1,1,0,0,0-.51.3,1.64,1.64,0,0,0-.37.63l-.06.15a14.38,14.38,0,0,1-1.64,2.74,9,9,0,0,1-1.27,1.32,7.83,7.83,0,0,1-1.3.74,8.34,8.34,0,0,1-1.7.48,11.17,11.17,0,0,1-2.66-.08,9,9,0,0,1-2.14-.51,5.36,5.36,0,0,1-1-.54A6.53,6.53,0,0,1,24,19l-.17-.17a3,3,0,0,0-.4-.4,1,1,0,0,0-1.78.75,2.22,2.22,0,0,0,.12.69v.09l.15.52a7.92,7.92,0,0,1,.18.8,10.14,10.14,0,0,1,0,1.9,7.58,7.58,0,0,1-.41,1.58,6.55,6.55,0,0,1-.61,1,6.63,6.63,0,0,1-1,1,6.6,6.6,0,0,1-1.34.76,7.12,7.12,0,0,1-1.55.42,7.68,7.68,0,0,1-1.66,0,13.07,13.07,0,0,1-2.76-.83L12.63,27l-.27-.1H12a1.09,1.09,0,0,0-.73.29,1.07,1.07,0,0,0-.38.86v.07a1.22,1.22,0,0,0,.09.38l.05.13.12.29c.05.13.11.25.16.37l.1.22c.18.44.37.88.55,1.33l.4,1c.34.82.71,1.65,1.06,2.44.11.28.23.55.34.83a11.06,11.06,0,0,1,.72,2.66,8.92,8.92,0,0,1,0,2.13,9.21,9.21,0,0,1-.53,2,7,7,0,0,1-.74,1.28,16.54,16.54,0,0,1-1.48,1.54l-.57.56a2.43,2.43,0,0,0-.33.38,2,2,0,0,0-.43.74,1.53,1.53,0,0,0,0,1,1.79,1.79,0,0,0,.59.79l.63.48.31.24a13,13,0,0,1,2.19,2A7.74,7.74,0,0,1,15,52.36a10.74,10.74,0,0,1,.61,2.31,9.07,9.07,0,0,1,0,2,10.35,10.35,0,0,1-.65,2.25c-.31.7-.67,1.47-1.12,2.4-.09.2-.19.4-.29.6s-.2.4-.29.6a9.42,9.42,0,0,0-.5,1.16,1.61,1.61,0,0,0,.71,2,3.46,3.46,0,0,0,.86.24l.49.1H15l1.26.21.43.07a17.07,17.07,0,0,1,3.07.63c.16.05.32.12.52.2a11.49,11.49,0,0,1,2.23,1.28,4.11,4.11,0,0,1,.63.62,4.27,4.27,0,0,1,.3.51,5.32,5.32,0,0,1,.2.73,3.53,3.53,0,0,1,0,.65A11.91,11.91,0,0,1,23,73l-.18.52c-.07.21-.13.39-.18.56a5.64,5.64,0,0,0-.15.85,2,2,0,0,0,.07.75l.15.34a1.53,1.53,0,0,0,.54.56l.37.16h.06l.4.05h.07a3.78,3.78,0,0,0,.64-.12c.55-.16,1.11-.33,1.67-.46s1-.23,1.63-.32l.56-.06a9.33,9.33,0,0,1,1.9,0,8.66,8.66,0,0,1,1.88.51,6.7,6.7,0,0,1,1.41.81l.47.35.08.07c.45.39.92.79,1.35,1.21l.2.2.47.48c.2.22.39.43.57.65l.14.2.28.38a2.06,2.06,0,0,0,.45.43,1.48,1.48,0,0,0,.88.27,2.12,2.12,0,0,0,.49-.06,2.19,2.19,0,0,0,1.13-.93l.27-.37c.13-.18.25-.37.38-.53l.07-.08a5.24,5.24,0,0,1,.59-.65l.13-.13a3.65,3.65,0,0,1,.3-.27l.3-.24a7.9,7.9,0,0,1,1.32-.77A6.49,6.49,0,0,1,45,77a8.79,8.79,0,0,1,1.77,0,6.64,6.64,0,0,1,1.16.32,14.79,14.79,0,0,1,1.35.74,10.52,10.52,0,0,0,2.07,1,2,2,0,0,0,1.94-.37,2.71,2.71,0,0,0,.71-1c.07-.17.13-.35.2-.52s.12-.32.17-.47a7.8,7.8,0,0,1,.83-1.5,5.25,5.25,0,0,1,.75-.74,6.55,6.55,0,0,1,1.23-.71,7.18,7.18,0,0,1,1.58-.44,7.26,7.26,0,0,1,1.68,0,9.13,9.13,0,0,1,1.32.3l.38.13.23.08.38.13L63,74l.27.09a3.5,3.5,0,0,0,.93.2h.51a1.17,1.17,0,0,0,.56-.33,1.43,1.43,0,0,0,.29-.42,1.79,1.79,0,0,0,.17-.68V68.29a22.41,22.41,0,0,1,.2-2.25,11.15,11.15,0,0,1,.33-1.7,12.35,12.35,0,0,1,.56-1.69,8.11,8.11,0,0,1,.79-1.43,5.39,5.39,0,0,1,.68-.67,10.38,10.38,0,0,1,1.9-1.08c.24-.1.5-.18.75-.26l.3-.08.44-.13a1.84,1.84,0,0,0,.89-.57l.14-.18a3.24,3.24,0,0,0,.13-.33,1.52,1.52,0,0,0,0-.7,3.15,3.15,0,0,0-.42-.93l-.06-.09L72,55.55v-.08a10.41,10.41,0,0,1-.54-1c-.17-.36-.37-.78-.57-1.22a6.08,6.08,0,0,1-.41-1.35,8.77,8.77,0,0,1,.07-1.71Zm-3.62,1.87a31.3,31.3,0,0,1-.51,3.34,32,32,0,0,1-.87,3.47,32.86,32.86,0,0,1-1.36,3.31,13.21,13.21,0,0,1-.78,1.43,13.78,13.78,0,0,1-1,1.51,12.24,12.24,0,0,1-1.06,1.21A16.16,16.16,0,0,1,60,66.83a16.47,16.47,0,0,1-2.84,1.66,25.28,25.28,0,0,1-3.43,1.37c-1.11.34-2.22.69-3.34,1-.54.15-1.08.3-1.62.43s-1.17.28-1.76.38l-.94.15c-.35.06-.71.08-1.06.12a15,15,0,0,1-1.64,0,35.89,35.89,0,0,1-6.86-.63L34.59,71l-.72-.17c-.3-.07-.61-.13-.9-.22-.51-.17-1-.32-1.52-.51s-1.3-.53-1.94-.82-1.08-.52-1.62-.79a12,12,0,0,1-1.78-1.15,16.59,16.59,0,0,1-1.7-1.44c-.6-.61-1.2-1.2-1.74-1.86a15.54,15.54,0,0,1-1.43-2,18.57,18.57,0,0,1-.91-2c-.21-.51-.43-1-.62-1.52s-.42-1.09-.59-1.64a23.69,23.69,0,0,1-.73-2.75,18,18,0,0,1-.25-1.94c0-.38-.06-.76-.08-1.14V47.77A16.59,16.59,0,0,1,18.19,46c.07-.72.17-1.43.29-2.15a28.65,28.65,0,0,1,2.22-6.8q.38-.82.78-1.65c.26-.52.55-1,.83-1.55.11-.21.24-.41.37-.62s.3-.52.47-.77c.31-.45.61-.92.94-1.35l.65-.87c.19-.24.37-.5.57-.74.37-.42.72-.86,1.11-1.25a25.22,25.22,0,0,1,1.91-1.82,17.75,17.75,0,0,1,4.14-2.64c.83-.36,1.66-.71,2.52-1a13.38,13.38,0,0,1,2.25-.53,16.49,16.49,0,0,1,2.33-.16,16.08,16.08,0,0,1,1.84.1c1.19.14,2.39.27,3.58.48l2,.35a2.92,2.92,0,0,1,.65.15l1.16.26a18.63,18.63,0,0,1,3.64,1.25l.14.06.23-.1a2.45,2.45,0,0,1,.54-.1,1.63,1.63,0,0,1,.54,0,5.58,5.58,0,0,1,.67.28l.7.37a12.68,12.68,0,0,1,1.44,1,18.9,18.9,0,0,1,2.22,2.07c.69.74,1.37,1.48,2,2.25s1.43,1.63,2.1,2.49v0c.31.4.62.8.89,1.23s.49.83.71,1.26.47.9.68,1.37a13.51,13.51,0,0,1,.53,1.51c.15.5.3,1,.44,1.49s.22.93.31,1.4a31.23,31.23,0,0,1,.52,3.12,29.43,29.43,0,0,1,.17,3.38A32.17,32.17,0,0,1,67.06,51.31Z"
    transform="translate(0 -0.02)"
    fill="#f8e100"
  />
  <path
    d="M34.88,37.56a1.77,1.77,0,0,0-.63.27,3.15,3.15,0,0,0-.54.49A4.18,4.18,0,0,0,33,39.66a5.64,5.64,0,0,0-.25,2.2,10.69,10.69,0,0,0,.37,2.24,6.45,6.45,0,0,0,.71,1.69.62.62,0,0,0,.09.32,5.3,5.3,0,0,0,.39.54l.2.26a4,4,0,0,0,.6.56,2.32,2.32,0,0,0,1.38.4A2.53,2.53,0,0,0,38,47.26a3,3,0,0,0,.85-1.21,3.87,3.87,0,0,0,.17-.67,4.48,4.48,0,0,0,.06-.64V43.63a11.47,11.47,0,0,0-.32-2.34,8.07,8.07,0,0,0-.49-1.38,5.5,5.5,0,0,0-.84-1.29,3.66,3.66,0,0,0-1-.84,2.34,2.34,0,0,0-.67-.24H35.4a1.88,1.88,0,0,0-.47,0Zm.56,1.15.29.08.38.23a3.58,3.58,0,0,1,.54.56,5.41,5.41,0,0,1,.57,1,8.78,8.78,0,0,1,.47,1.83,10.46,10.46,0,0,1,0,2.5,3.38,3.38,0,0,1-.16.7,3.24,3.24,0,0,1-.21.35,2.29,2.29,0,0,1-.27.27l-.29.17-.27.07H36.3l-.11-.07a5.08,5.08,0,0,1-.59-.35l-.32-.29-.21-.25v-.07L35,45.31a6.72,6.72,0,0,1-.4-.75A8.53,8.53,0,0,1,34,42.5a7.24,7.24,0,0,1,0-1.74,4.35,4.35,0,0,1,.25-.94,3.55,3.55,0,0,1,.36-.63,2.06,2.06,0,0,1,.29-.3l.21-.14h.17Zm-8.06,1.53,2.69-.76-.57-.73a32.25,32.25,0,0,0-1.69,4.68.5.5,0,0,0,.62.61c3.84-1.24,3.21,6,0,3.41-.5-.4-1.21.31-.71.71,1.79,1.45,3.92,1.22,4.44-1.31a3.13,3.13,0,0,0-4-3.77l.62.62a30.61,30.61,0,0,1,1.59-4.45.5.5,0,0,0-.57-.73l-2.68.75a.52.52,0,0,0,.26,1Zm14.51-2.06v4c0,1.11,0,2.21.08,3.32v.28a.82.82,0,0,0,.13.5.5.5,0,0,0,.19.19.58.58,0,0,0,.41,0,.5.5,0,0,0,.38-.49V44.78a.35.35,0,0,0,0-.17V38.08a.54.54,0,1,0-1.08,0Z"
    transform="translate(0 -0.02)"
    fill="#333"
  />
  <path
    d="M42.06,38.35a.79.79,0,0,0-.49.59,1.78,1.78,0,0,0,.22.84.28.28,0,0,0,.38.1.31.31,0,0,0,.13-.17.3.3,0,0,0,0-.21l-.06-.13a2.76,2.76,0,0,1-.08-.27v-.16l.19-.1.31-.08h.41a2.13,2.13,0,0,1,.45.13,2.18,2.18,0,0,1,.49.29,4.06,4.06,0,0,1,.66.65,5.76,5.76,0,0,1,.7,1.17,4.84,4.84,0,0,1,.3,1,3.57,3.57,0,0,1,0,.8,4.57,4.57,0,0,1-.27,1,5,5,0,0,1-.56,1,2.74,2.74,0,0,1-.45.45,2.21,2.21,0,0,1-.36.23l-.28.13a2.73,2.73,0,0,1-.57.19.81.81,0,0,1-.22,0,.64.64,0,0,0-.17,1.25,2.09,2.09,0,0,0,.51.07,1.65,1.65,0,0,0,.53-.13,4.76,4.76,0,0,0,.84-.43A4,4,0,0,0,46,45.07a6.13,6.13,0,0,0,.4-.91,4.77,4.77,0,0,0,.23-1.06,4.15,4.15,0,0,0-.28-2,6.35,6.35,0,0,0-.41-.88,6.71,6.71,0,0,0-.59-.84,4.24,4.24,0,0,0-.64-.63l-.41-.29a3.68,3.68,0,0,0-.45-.21A2.34,2.34,0,0,0,43,38.1a2.08,2.08,0,0,0-.92.22Zm5.77-1.13a.72.72,0,0,0-.09.2,1.77,1.77,0,0,0-.12.37v.28l-.09.58a7,7,0,0,1-.12.89c-.09.67-.17,1.35-.24,2A15.45,15.45,0,0,0,47,43.16c-.07.89-.13,1.77-.18,2.65a.67.67,0,0,0,.67.67.65.65,0,0,0,.67-.63s0,0,0,0c0-.74.09-1.47.15-2.21l.13-1.78a1.49,1.49,0,0,1,.06-.51l.11-1.07a2.89,2.89,0,0,0,0-.29c.08.28.16.57.25.86.14.48.28,1,.44,1.44s.35,1,.53,1.58c.09.29.19.58.29.87a3.64,3.64,0,0,0,.39.88.61.61,0,0,0,1,.12.58.58,0,0,0,.18-.43,4.63,4.63,0,0,0-.11-.56,1,1,0,0,0-.13-.36l-.33-.91c-.21-.55-.4-1.1-.6-1.66s-.31-1-.46-1.48-.19-.67-.29-1-.21-.76-.34-1.13a3.9,3.9,0,0,0-.21-.57,1.81,1.81,0,0,0-.2-.33l-.17-.18a.66.66,0,0,0-.46-.19.62.62,0,0,0-.55.32Z"
    transform="translate(0 -0.02)"
    fill="#333"
  />
  <path
    d="M48.41,42a.45.45,0,0,0,0,.9c1.08,0,2.15-.09,3.23-.17a.44.44,0,0,0,.28-.12.39.39,0,0,0,.11-.28.4.4,0,0,0-.39-.4h-.42C50.29,41.93,49.35,41.93,48.41,42Zm3.07-4.81a.84.84,0,0,0,0,1.19h0c.63.55,1.26,1.12,1.91,1.66.26.21.51.43.78.64l.45.37.43.32.23.15a1.21,1.21,0,0,0,.44.15.65.65,0,0,0,.39,0,.72.72,0,0,0,.44-.34.74.74,0,0,0-.26-1l-.1-.06c-1.16-1-2.34-2.06-3.52-3.08a.83.83,0,0,0-1.17,0Zm4.58,3,.1.07Z"
    transform="translate(0 -0.02)"
    fill="#333"
  />
  <path
    d="M56.27,36.28a.77.77,0,0,0-.39.51l-.78,4.5-.36,2c-.06.3-.11.6-.16.91a.9.9,0,0,1-.08.45,5.77,5.77,0,0,0-.09.6.94.94,0,0,0,0,.37.78.78,0,0,0,.37.48.87.87,0,0,0,.63.09.85.85,0,0,0,.49-.38,1.24,1.24,0,0,0,.14-.38l.06-.28a2.67,2.67,0,0,1,.08-.48l.15-.83.36-2c.27-1.53.54-3.06.8-4.58a.9.9,0,0,0-.09-.66.83.83,0,0,0-.5-.38.87.87,0,0,0-.65.08Zm-27,14.8a2.25,2.25,0,0,0-.91.9,5,5,0,0,0-.49,1.23,6.66,6.66,0,0,0-.2,1.39,2.61,2.61,0,0,0,.26,1.33,1.33,1.33,0,0,0,.36.49,1.44,1.44,0,0,0,.63.31,2.93,2.93,0,0,0,1.41,0,4.75,4.75,0,0,0,.73-.23H31a1.34,1.34,0,0,0,.31-.17.58.58,0,0,0,.17-.35,1.17,1.17,0,0,0-.33-.71,2,2,0,0,0-.42-.4l.31-.08,1-.25a.3.3,0,0,0,.21-.37h0A.31.31,0,0,0,32,54a.36.36,0,0,0-.23,0l-.49.08-.48.11-.4.1-.26.07h-.12l-.34.11a.35.35,0,0,0-.15.58l.16.11.22.08a2.42,2.42,0,0,1,.47.26l.29.29.07.11a4.6,4.6,0,0,1-.92.24,3,3,0,0,1-.6,0L28.91,56l-.15-.09-.14-.14a2,2,0,0,1-.14-.25,3.47,3.47,0,0,1-.16-.55,4.77,4.77,0,0,1,0-1.07,5.6,5.6,0,0,1,.33-1.28,3.48,3.48,0,0,1,.38-.68,1.77,1.77,0,0,1,.3-.31l.21-.12a.76.76,0,0,1,.2-.06H30a.53.53,0,0,1,.15.08l.16.16.1.18a.83.83,0,0,1,0,.15v.19a.24.24,0,0,0,.24.24h0a.25.25,0,0,0,.24-.24L31,52a1,1,0,0,0-.08-.3,1.33,1.33,0,0,0-.41-.53A1.09,1.09,0,0,0,30,51h-.14a1.24,1.24,0,0,0-.53.12Z"
    transform="translate(0 -0.02)"
    fill="#333"
  />
  <path
    d="M29.49,56.88a2.63,2.63,0,0,1-.58-.07,1.58,1.58,0,0,1-.66-.33,1.45,1.45,0,0,1-.38-.52,2.77,2.77,0,0,1-.22-.67,2.74,2.74,0,0,1,0-.69,6.3,6.3,0,0,1,.21-1.4,4.73,4.73,0,0,1,.5-1.26A2.23,2.23,0,0,1,29.3,51a1.25,1.25,0,0,1,.7-.12,1.1,1.1,0,0,1,.57.24,1.26,1.26,0,0,1,.43.56,1.31,1.31,0,0,1,.1.32v.27a.26.26,0,0,1-.08.21.3.3,0,0,1-.23.1.33.33,0,0,1-.32-.31V52l-.09-.16-.14-.14L30,51.59h-.43l-.19.11a1.94,1.94,0,0,0-.28.29,3.41,3.41,0,0,0-.37.67,5.65,5.65,0,0,0-.3,1.34,4.79,4.79,0,0,0,0,1,3.33,3.33,0,0,0,.15.53,1.93,1.93,0,0,0,.13.24l.13.13L29,56a1.53,1.53,0,0,0,.34.09,3,3,0,0,0,.59,0,6,6,0,0,0,.81-.21,1.85,1.85,0,0,0-.28-.28,2.28,2.28,0,0,0-.45-.25h-.22a.55.55,0,0,1-.18-.13.42.42,0,0,1,.18-.7l.35-.11h.11l.32-.09.35-.09.48-.1.4-.07h.09a.41.41,0,0,1,.45.55.41.41,0,0,1-.22.17l-.32.08-.63.17H31a1.65,1.65,0,0,1,.32.33,1.19,1.19,0,0,1,.34.75.58.58,0,0,1-.19.4.75.75,0,0,1-.28.17h0a4.56,4.56,0,0,1-.66.21A4.14,4.14,0,0,1,29.49,56.88ZM29.81,51a1.25,1.25,0,0,0-.5.11,2.13,2.13,0,0,0-.87.87A4.69,4.69,0,0,0,28,53.23a6.75,6.75,0,0,0-.2,1.38,3.66,3.66,0,0,0,0,.65,2.54,2.54,0,0,0,.22.64,1.25,1.25,0,0,0,.34.46,1.32,1.32,0,0,0,.59.3,2.88,2.88,0,0,0,1.39,0A5.46,5.46,0,0,0,31,56.4a.56.56,0,0,0,.2-.12.43.43,0,0,0,.15-.3,1.07,1.07,0,0,0-.31-.66,1.86,1.86,0,0,0-.4-.39l-.13-.09h.15L31,54.7l.63-.16.32-.09a.19.19,0,0,0,.13-.1.25.25,0,0,0,0-.17.28.28,0,0,0-.11-.13.21.21,0,0,0-.18,0H31.7l-.39.07-.48.1-.34.09-.32.08H30a1.73,1.73,0,0,0-.33.1.35.35,0,0,0-.13.08.41.41,0,0,0-.07.11.28.28,0,0,0,.07.26.41.41,0,0,0,.14.1h.21a2.39,2.39,0,0,1,.49.27,1.52,1.52,0,0,1,.31.31.41.41,0,0,1,.07.11v.08h-.08a4.91,4.91,0,0,1-.93.25,3.38,3.38,0,0,1-.63,0L28.8,56l-.08,0-.16-.16-.15-.27a2.92,2.92,0,0,1-.16-.57,5.15,5.15,0,0,1,0-1.09,6,6,0,0,1,.34-1.3,3.72,3.72,0,0,1,.39-.7,3.14,3.14,0,0,1,.31-.32l.23-.13a.79.79,0,0,1,.22-.06h.16l.16,0,.17.09.17.17.11.19a.21.21,0,0,0,0,.17,1.55,1.55,0,0,1,0,.21.17.17,0,0,0,.17.16.18.18,0,0,0,.12,0,.15.15,0,0,0,0-.11v-.2a1.09,1.09,0,0,0-.08-.28,1.28,1.28,0,0,0-.39-.5,1.17,1.17,0,0,0-.5-.22Zm1.12,4.86-.09-.12.1.11Zm1.59-3.77v1.57a8.41,8.41,0,0,0,.18,1.58,4.52,4.52,0,0,0,.2.72.84.84,0,0,0,.12.32.57.57,0,0,0,.28.25.59.59,0,0,0,.37,0,.87.87,0,0,0,.3-.16,1.94,1.94,0,0,0,.45-.54A4.71,4.71,0,0,0,35,54.47a7.67,7.67,0,0,0,.15-.81,1.85,1.85,0,0,1,.06-.57,2.09,2.09,0,0,0,0-.25.87.87,0,0,0,0-.23,1.88,1.88,0,0,0,0-.33.3.3,0,0,0-.29-.22.31.31,0,0,0-.22.09.34.34,0,0,0-.09.22,5.57,5.57,0,0,1,0,1.08,3.81,3.81,0,0,1-.07.47,5.07,5.07,0,0,1-.13.56,4,4,0,0,1-.22.67,2.57,2.57,0,0,1-.31.56,1.54,1.54,0,0,1-.17.19,8.13,8.13,0,0,1-.32-1.38,16.41,16.41,0,0,1,0-2.43.35.35,0,0,0-.35-.35.36.36,0,0,0-.35.35Z"
    transform="translate(0 -0.02)"
    fill="#333"
  />
  <path
    d="M33.56,56.66a.83.83,0,0,1-.29-.06.65.65,0,0,1-.32-.29,2.77,2.77,0,0,1-.1-.26V56a5.2,5.2,0,0,1-.2-.74,8.43,8.43,0,0,1-.19-1.59V52.09a.42.42,0,0,1,.42-.42.48.48,0,0,1,.31.13.41.41,0,0,1,.11.29v.11a14.86,14.86,0,0,0,.06,2.31,7.89,7.89,0,0,0,.27,1.25l.09-.1a4.35,4.35,0,0,0,.3-.54,5,5,0,0,0,.21-.66,4.44,4.44,0,0,0,.12-.55v-.06l.06-.41a5.38,5.38,0,0,0,0-1.07.37.37,0,0,1,.11-.27.39.39,0,0,1,.64.17.67.67,0,0,0,0,.31,1.77,1.77,0,0,1,0,.24v.08a1.09,1.09,0,0,0,0,.18v.07a4.26,4.26,0,0,1-.06.5v.06a4,4,0,0,1-.13.76,5.27,5.27,0,0,1-.54,1.43,2,2,0,0,1-.47.56,1,1,0,0,1-.33.17Zm-1-4.57v1.57a9.09,9.09,0,0,0,.18,1.56,4.89,4.89,0,0,0,.2.72L33,56a1.86,1.86,0,0,0,.1.25.5.5,0,0,0,.24.21.47.47,0,0,0,.32,0,.67.67,0,0,0,.28-.14,1.9,1.9,0,0,0,.43-.52,4.91,4.91,0,0,0,.52-1.38c.06-.25.1-.51.14-.75v-.06a4.1,4.1,0,0,0,.06-.49V53a1,1,0,0,1,0-.17v-.09a1.34,1.34,0,0,0,0-.21.61.61,0,0,0,0-.3.24.24,0,0,0-.31-.14l-.07,0a.19.19,0,0,0-.07.16,5.69,5.69,0,0,1,0,1.1l-.06.42a2.62,2.62,0,0,1-.12.57,6.07,6.07,0,0,1-.23.68,3.51,3.51,0,0,1-.32.58,1.29,1.29,0,0,1-.16.17v0l-.7-.19.5.12a7.2,7.2,0,0,1-.29-1.31v-.08a15.54,15.54,0,0,1,0-2.26v-.1a.24.24,0,0,0-.07-.18.27.27,0,0,0-.47.18Zm3.87-1.35a.38.38,0,0,0-.23.25,1.5,1.5,0,0,0-.06.29,6.13,6.13,0,0,0,0,.74v4.51a.27.27,0,0,0,.27.27h0a.26.26,0,0,0,.26-.26h0V51.46a3.35,3.35,0,0,1,.21.36c.11.22.2.44.3.66.23.56.42,1.13.61,1.7.07.23.15.46.23.69a3.92,3.92,0,0,0,.29.71.28.28,0,0,0,.52-.22c-.12-.33-.23-.66-.35-1s-.18-.53-.28-.79-.13-.37-.2-.56c-.13-.36-.27-.72-.43-1.07a5.77,5.77,0,0,0-.27-.56l-.15-.25-.15-.2a.62.62,0,0,0-.21-.15.34.34,0,0,0-.17,0h-.19Zm.68,1.72v0Z"
    transform="translate(0 -0.02)"
    fill="#333"
  />
  <path
    d="M36.44,56.91a.34.34,0,0,1-.35-.33h0V52a6.06,6.06,0,0,1,0-.75.51.51,0,0,1,.07-.3.46.46,0,0,1,.29-.3h.13a.52.52,0,0,1,.2.06.66.66,0,0,1,.24.17,3.15,3.15,0,0,1,.19.27v.06l.11.19a6,6,0,0,1,.28.57c.19.43.32.76.43,1.07l.2.56c0,.12.09.24.13.37l.15.42c.06.15.11.31.16.46l.19.52a.33.33,0,0,1,0,.26.39.39,0,0,1-.23.19.37.37,0,0,1-.41-.17,4.7,4.7,0,0,1-.29-.72l-.06-.17c-.06-.17-.12-.34-.17-.52v-.06c-.18-.54-.37-1.1-.59-1.63v-.08c-.09-.19-.17-.39-.26-.57l-.09-.16v3.53a12.11,12.11,0,0,0,0,1.3.32.32,0,0,1-.09.23A.36.36,0,0,1,36.44,56.91Zm.12-6.11h-.1a.25.25,0,0,0-.17.19,1.26,1.26,0,0,0-.07.28,5.74,5.74,0,0,0,0,.73v4.55a.2.2,0,0,0,.34.13.21.21,0,0,0,0-.12,10.63,10.63,0,0,0,0-1.31,9.45,9.45,0,0,1,0-1.19v-2.8l.12.18a4.07,4.07,0,0,1,.21.37c.1.19.18.39.26.58.22.54.41,1.1.59,1.64v.07c.06.17.11.34.17.51l.06.17a4.09,4.09,0,0,0,.29.7.21.21,0,0,0,.23.1.22.22,0,0,0,.13-.12.17.17,0,0,0,0-.14l-.19-.52-.16-.46,0-.34a1.26,1.26,0,0,0-.13-.37l-.2-.55c-.11-.32-.24-.65-.43-1.07a5.56,5.56,0,0,0-.27-.55,1.18,1.18,0,0,0-.11-.19v-.06L36.89,51a.44.44,0,0,0-.18-.13Zm-.12.54.07-.13v0Z"
    transform="translate(0 -0.02)"
    fill="#333"
  />
  <path
    d="M38.35,53.25c-.69.1-1.36.25-2,.4a.31.31,0,0,0-.22.38h0a.32.32,0,0,0,.39.22c.67-.15,1.35-.31,2-.44a.3.3,0,0,0,.07-.54.28.28,0,0,0-.15,0Z"
    transform="translate(0 -0.02)"
    fill="#333"
  />
  <path
    d="M36.4,54.35a.4.4,0,0,1-.39-.29.42.42,0,0,1,0-.31.36.36,0,0,1,.23-.17h.19c.6-.14,1.23-.27,1.86-.37a.41.41,0,0,1,.27,0,.34.34,0,0,1,.17.22.39.39,0,0,1,0,.3.32.32,0,0,1-.22.16c-.5.1-1,.21-1.49.33l-.54.12Zm2-1c-.62.09-1.25.23-1.85.36h-.19a.23.23,0,0,0-.13.11.21.21,0,0,0,0,.19.24.24,0,0,0,.29.17h0l.53-.12,1.5-.33a.18.18,0,0,0,.12-.09.23.23,0,0,0,0-.18.26.26,0,0,0-.1-.13.27.27,0,0,0-.18,0Zm1.95-2.93a.8.8,0,0,0-.21.15,1,1,0,0,0-.15.25.35.35,0,0,0,0-.08.36.36,0,0,0-.5,0,.33.33,0,0,0-.1.25c.14,1.37.28,2.74.44,4.11l.06.55a2.25,2.25,0,0,0,.09.63.28.28,0,0,0,.08.15.34.34,0,0,0,.58-.22s0,0,0,0v-1a4,4,0,0,0-.07-.92V54l.06,0a7.68,7.68,0,0,1,.59.55l.39.38.78.77a.28.28,0,0,0,.4,0h0a.29.29,0,0,0,0-.4c-.28-.3-.57-.59-.86-.88l-.47-.45-.32-.3.32-.19a1.68,1.68,0,0,0,.43-.41,1.41,1.41,0,0,0,.25-.59,2.11,2.11,0,0,0-.28-1.27,2.15,2.15,0,0,0-.35-.5,1.28,1.28,0,0,0-.5-.36.73.73,0,0,0-.29-.07.53.53,0,0,0-.24.06Zm.24.37h.11l.18.11a1.75,1.75,0,0,1,.23.24,2.59,2.59,0,0,1,.26.46,2.64,2.64,0,0,1,.14.48v.31a1.87,1.87,0,0,1-.07.22l-.1.18a1.39,1.39,0,0,1-.21.21,3.46,3.46,0,0,1-.5.27l-.24.08v-.13c-.06-.33-.13-.67-.18-1a2.74,2.74,0,0,1,0-.64,1.8,1.8,0,0,1,.1-.4,2.21,2.21,0,0,1,.18-.34l.09,0h0Z"
    transform="translate(0 -0.02)"
    fill="#333"
  />
  <path
    d="M40.23,56.64a.41.41,0,0,1-.29-.13.42.42,0,0,1-.11-.18l-.09-.64-.06-.55c-.15-1.35-.29-2.72-.44-4.11a.42.42,0,0,1,.13-.31.43.43,0,0,1,.59,0,.59.59,0,0,1,.13-.19.69.69,0,0,1,.22-.16.7.7,0,0,1,.6,0,1.41,1.41,0,0,1,.53.38,2.53,2.53,0,0,1,.36.51,2.14,2.14,0,0,1,.28,1.33,1.49,1.49,0,0,1-.26.62,1.79,1.79,0,0,1-.45.42l-.23.14.27.26.48.45c.34.34.61.61.85.88a.36.36,0,1,1-.51.51l-.34-.34-.44-.44L41.33,55l-.27-.26-.1-.1-.41-.38v2a.4.4,0,0,1-.12.29A.43.43,0,0,1,40.23,56.64Zm-.56-5.9a.3.3,0,0,0-.2.08.29.29,0,0,0-.08.19c.14,1.4.29,2.76.44,4.11l.06.55a1.56,1.56,0,0,0,.09.63.23.23,0,0,0,.07.11.27.27,0,0,0,.37,0,.29.29,0,0,0,.08-.19V55a3.25,3.25,0,0,0,0-.7v-.4l.21.15c.17.14.33.3.49.45l.11.1.27.27.11.11.45.45.33.33a.22.22,0,0,0,.3,0,.2.2,0,0,0,0-.28l0,0c-.24-.26-.51-.54-.85-.87l-.47-.46-.4-.3-.1-.09.09-.06.31-.18a1.9,1.9,0,0,0,.41-.39,1.21,1.21,0,0,0,.23-.56,2,2,0,0,0-.27-1.23,2.18,2.18,0,0,0-.33-.48,1.32,1.32,0,0,0-.48-.34.52.52,0,0,0-.47,0,.59.59,0,0,0-.18.13.74.74,0,0,0-.13.21L40,51l-.07-.14a.12.12,0,0,0,0,0A.25.25,0,0,0,39.67,50.74Zm.74,2.72H40.3v-.19a2.56,2.56,0,0,0,0-.27,4.66,4.66,0,0,0-.13-.73,2.91,2.91,0,0,1,0-.66,1.54,1.54,0,0,1,.1-.41,1.79,1.79,0,0,1,.17-.34l.11-.07h.21l.2.11a2.44,2.44,0,0,1,.22.23,2.24,2.24,0,0,1,.28.48,2.79,2.79,0,0,1,.15.5,1.71,1.71,0,0,1,0,.32,1.37,1.37,0,0,1-.07.24.62.62,0,0,1-.11.2,1.25,1.25,0,0,1-.23.23,2.65,2.65,0,0,1-.51.28l-.25.08Zm.17-2.6h-.06a1.35,1.35,0,0,0-.17.32,1.41,1.41,0,0,0-.1.38,3.26,3.26,0,0,0,0,.62,3.64,3.64,0,0,0,.13.72v.28a.13.13,0,0,1,0,.06l.19-.07a3,3,0,0,0,.48-.26,1.26,1.26,0,0,0,.2-.2l.1-.16a1.6,1.6,0,0,0,0-.21,1.31,1.31,0,0,0,0-.28,2.6,2.6,0,0,0-.14-.46,2,2,0,0,0-.26-.45,2.4,2.4,0,0,0-.21-.23l-.17-.09ZM44,50.54a.34.34,0,0,0-.24.24,1.43,1.43,0,0,0-.08.22,1.2,1.2,0,0,0-.06.33v4.33a.35.35,0,1,0,.69,0V52c.13.39.23.79.33,1.19l.24,1a17.93,17.93,0,0,0,.55,1.9.32.32,0,0,0,.15.19.33.33,0,0,0,.24,0,.32.32,0,0,0,.22-.39c-.22-.68-.4-1.37-.57-2.06l-.27-1.06c-.07-.29-.14-.57-.22-.85l-.12-.36a1.07,1.07,0,0,0-.11-.33,1.66,1.66,0,0,0-.16-.33,1.48,1.48,0,0,0-.25-.25.37.37,0,0,0-.24-.1Z"
    transform="translate(0 -0.02)"
    fill="#333"
  />
  <path
    d="M45.78,56.35a.36.36,0,0,1-.2-.06.4.4,0,0,1-.18-.22,17.7,17.7,0,0,1-.54-1.85v-.06c-.08-.33-.16-.65-.25-1V53.1l-.18-.68v3.22a.39.39,0,0,1-.13.3.43.43,0,0,1-.3.13.44.44,0,0,1-.44-.43v-4.4a1.47,1.47,0,0,1,0-.29l.06-.14v-.08a.41.41,0,0,1,.29-.28.43.43,0,0,1,.4.1,1.55,1.55,0,0,1,.21.23,1.43,1.43,0,0,1,.17.35l.09.26v.06a1.92,1.92,0,0,0,.11.37c.09.29.16.59.23.85l.26,1.06c.17.66.35,1.37.57,2.06a.37.37,0,0,1,0,.29.35.35,0,0,1-.24.19Zm-1.49-4.82.13.42c.12.37.22.76.31,1.13v.06l.24,1v.06a16.63,16.63,0,0,0,.57,1.8.25.25,0,0,0,.3.18.29.29,0,0,0,.15-.12.26.26,0,0,0,0-.17c-.22-.7-.41-1.41-.57-2.07l-.27-1.07c-.06-.25-.14-.55-.22-.84l-.12-.36v-.07l-.09-.25a1.35,1.35,0,0,0-.15-.32,1.75,1.75,0,0,0-.19-.2h0a.31.31,0,0,0-.26-.07.29.29,0,0,0-.19.2v.07a.78.78,0,0,0,0,.14,1.11,1.11,0,0,0,0,.25v4.39a.29.29,0,0,0,.29.28.28.28,0,0,0,.2-.09.27.27,0,0,0,.08-.19v-3.2Z"
    transform="translate(0 -0.02)"
    fill="#333"
  />
  <path
    d="M45.93,52.74c-.33.1-.66.19-1,.27l-1.09.25a.31.31,0,0,0-.22.38h0a.32.32,0,0,0,.39.22c.36-.07.73-.15,1.09-.24s.67-.18,1-.29a.31.31,0,0,0-.08-.61h-.09Z"
    transform="translate(0 -0.02)"
    fill="#333"
  />
  <path
    d="M43.92,54a.41.41,0,0,1-.19,0,.36.36,0,0,1-.18-.24.38.38,0,0,1,0-.31.33.33,0,0,1,.23-.17c.4-.08.74-.15,1.08-.24l1-.27H46a.38.38,0,0,1,.1.75c-.33.11-.67.2-1,.29s-.72.17-1.09.25ZM46,52.8l-1,.28c-.35.09-.69.16-1.1.24a.19.19,0,0,0-.12.1.27.27,0,0,0,0,.19.28.28,0,0,0,.11.15.24.24,0,0,0,.19,0c.37-.08.73-.15,1.09-.25l1-.28a.24.24,0,0,0,.16-.29.23.23,0,0,0-.28-.16Zm2.7-2.45a.38.38,0,0,0-.14.19.78.78,0,0,0-.07.31,1.89,1.89,0,0,0,0,.41v.33a1,1,0,0,0,.08.46l.15,1.07a1.63,1.63,0,0,0,0,.49l-.22-.3c-.08-.1-.15-.22-.23-.33a2.26,2.26,0,0,1-.17-.26l-.28-.48c-.14-.24-.26-.48-.39-.72s-.11-.21-.16-.31L47,50.63a.32.32,0,0,0-.43-.11.38.38,0,0,0-.19.22.69.69,0,0,1,0,.13V51a1.49,1.49,0,0,0,0,.21,1.44,1.44,0,0,0,.07.54c.07.18.09.53.15.79s.15.61.23.91.09.35.14.52a5.22,5.22,0,0,0,.18.56,1.77,1.77,0,0,0,.33.6.32.32,0,0,0,.45-.46,2.34,2.34,0,0,1-.15-.27,10.22,10.22,0,0,1-.31-1.08,2.91,2.91,0,0,0-.16-.63v-.18l.18.31a3.54,3.54,0,0,0,.19.33l.32.48c.08.12.18.24.27.36s.17.24.26.35l.13.16.16.12a.46.46,0,0,0,.22.06.36.36,0,0,0,.29-.14.71.71,0,0,0,.13-.22,2,2,0,0,0,0-.24,1.47,1.47,0,0,0,0-.21,2.71,2.71,0,0,1,0-.29,9.83,9.83,0,0,0-.12-1.06c0-.36-.07-.46-.11-.69s-.1-.58-.14-.86a1.22,1.22,0,0,1,0-.27v-.06a.29.29,0,0,0,0-.16.31.31,0,0,0-.18-.14h-.24Z"
    transform="translate(0 -0.02)"
    fill="#333"
  />
  <path
    d="M47.78,55.27a.39.39,0,0,1-.27-.11,2,2,0,0,1-.34-.62A4.09,4.09,0,0,1,47,54a2,2,0,0,0-.14-.52c0-.17-.16-.6-.23-.91s-.12-.55-.16-.8,0-.36-.07-.54,0-.11,0-.16v-.24a.42.42,0,0,1,.22-.26.34.34,0,0,1,.3,0,.36.36,0,0,1,.24.18c.11.19.21.38.31.57l.09.18.18.33c.09.18.19.35.28.52l.28.48.15.22.09.13c0,.08.1.16.16.24l.09.11v-.26a6.59,6.59,0,0,0-.16-1.07v-.79a3,3,0,0,1,0-.43.93.93,0,0,1,.08-.33.39.39,0,0,1,.17-.22.37.37,0,0,1,.29,0,.4.4,0,0,1,.23.17.37.37,0,0,1,0,.2v.06a1,1,0,0,0,0,.25,3.05,3.05,0,0,0,.08.5l.06.35V52a6.17,6.17,0,0,0,.09.62v.23a7.71,7.71,0,0,1,.09.84.91.91,0,0,1,0,.17v.16a.54.54,0,0,1,0,.18,1.18,1.18,0,0,1,0,.25.77.77,0,0,1-.14.25.46.46,0,0,1-.33.17.52.52,0,0,1-.26-.08l-.18-.13-.13-.16c-.09-.12-.18-.23-.26-.35l-.09-.12c-.06-.08-.13-.16-.19-.25l-.09-.14c-.07-.11-.15-.22-.22-.34a1.08,1.08,0,0,1-.11-.18v.08l.1.38a7.11,7.11,0,0,0,.26.9c0,.09.09.18.14.26a.39.39,0,0,1-.28.67ZM46.5,50.88V51a.76.76,0,0,0,0,.15,1.44,1.44,0,0,0,.07.54,7,7,0,0,1,.15.79c.06.29.15.6.23.9s.1.35.14.52a4,4,0,0,0,.18.56,1.63,1.63,0,0,0,.31.56.21.21,0,0,0,.17.07.24.24,0,0,0,.18-.07.25.25,0,0,0,0-.34,1.87,1.87,0,0,1-.16-.28c-.11-.3-.19-.62-.27-.92l-.1-.38a2.41,2.41,0,0,0-.1-.43L47.15,52l.29.51.14.25.06.11c0,.08.09.15.13.22l.23.34.09.13a2.27,2.27,0,0,0,.18.25l.09.12c.08.12.17.23.26.35l.12.15.15.11a.48.48,0,0,0,.19,0,.32.32,0,0,0,.22-.12.62.62,0,0,0,.11-.19.91.91,0,0,0,0-.23.38.38,0,0,0,0-.15v-.33a7.52,7.52,0,0,0-.09-.83v-.23a1.51,1.51,0,0,0-.09-.62v-.07l-.06-.35a4.5,4.5,0,0,0-.08-.51,1.48,1.48,0,0,1,0-.21.76.76,0,0,0,0-.11.28.28,0,0,0-.13-.11.27.27,0,0,0-.18,0,.26.26,0,0,0-.11.14.75.75,0,0,0-.07.29,2.71,2.71,0,0,0,0,.4v.79c.06.36.11.71.16,1.07v.72l-.15-.14-.22-.29a2.2,2.2,0,0,1-.17-.25l.07-.21-.15-.23-.28-.48c-.09-.17-.19-.34-.28-.52l-.18-.34-.09-.17c-.1-.19-.2-.38-.31-.57a.28.28,0,0,0-.15-.11.25.25,0,0,0-.19,0,.3.3,0,0,0-.14.17s0,.09,0,.13Zm6.16-1.8-2.56.36a.26.26,0,0,0-.13.1.25.25,0,0,0,0,.17.26.26,0,0,0,.1.13.25.25,0,0,0,.17,0l1.32-.2,1.17-.19a.2.2,0,0,0,.15-.19.21.21,0,0,0-.18-.2Z"
    transform="translate(0 -0.02)"
    fill="#333"
  />
  <path
    d="M50.16,49.94a.29.29,0,0,1-.28-.21.31.31,0,0,1,0-.23.28.28,0,0,1,.18-.13L52.65,49a.24.24,0,0,1,.19.08.27.27,0,0,1,.08.19.26.26,0,0,1-.2.26l-1,.16H51.5l-1.32.2Zm2.5-.86v.08c-.85.11-1.72.23-2.56.36l-.07.06a.13.13,0,0,0,0,.18h0a.2.2,0,0,0,.12,0l1.32-.2h.22l1-.16s.08-.06.08-.11a.16.16,0,0,0,0-.09h-.07Z"
    transform="translate(0 -0.02)"
    fill="#333"
  />
  <path
    d="M50.88,49.61c.06.87.12,1.75.2,2.62a11.93,11.93,0,0,0,.1,1.19v.53a6.06,6.06,0,0,0,.09.73.41.41,0,0,0,.4.3.42.42,0,0,0,.21-.06.36.36,0,0,0,.18-.24,2,2,0,0,0,0-.43A.32.32,0,0,0,52,54v-.62c0-.4-.07-.79-.1-1.19-.08-.87-.14-1.75-.2-2.62a.45.45,0,0,0-.12-.3.42.42,0,0,0-.3-.12.43.43,0,0,0-.43.42Z"
    transform="translate(0 -0.02)"
    fill="#333"
  />
  <path
    d="M51.72,55a.47.47,0,0,1-.47-.36,7,7,0,0,1-.1-.73v-.53c0-.4-.07-.8-.1-1.2-.07-.86-.13-1.74-.19-2.62a.42.42,0,0,1,.13-.33.48.48,0,0,1,.37-.17.47.47,0,0,1,.35.15.51.51,0,0,1,.15.34c.06.94.12,1.8.19,2.62,0,.4.07.8.1,1.19V54a.39.39,0,0,1,.07.23,3.25,3.25,0,0,1,0,.44A.5.5,0,0,1,52,55,.48.48,0,0,1,51.72,55ZM51,49.6c.06.87.12,1.76.19,2.62,0,.4.07.8.1,1.19v.53a6.22,6.22,0,0,0,.1.72.32.32,0,0,0,.32.24.24.24,0,0,0,.32-.19,3,3,0,0,0,0-.42.34.34,0,0,0,0-.17V53.5c0-.4-.07-.8-.1-1.2-.07-.82-.13-1.67-.2-2.62a.32.32,0,0,0-.1-.25.35.35,0,0,0-.49,0h0a.26.26,0,0,0-.09.22Zm3-.6a.38.38,0,0,0-.11.26c-.11.94-.21,1.88-.28,2.82l-.06.81v.38a.75.75,0,0,0,0,.21,1.15,1.15,0,0,0,.06.17.76.76,0,0,0,.11.14.47.47,0,0,0,.19.12h.45l.39-.11.27-.09a3.28,3.28,0,0,0,.54-.24l.15-.08a.32.32,0,0,0,.15-.35.36.36,0,0,0-.15-.19.28.28,0,0,0-.24,0c-.2.08-.41.14-.61.21l-.27.08-.32.08a2.26,2.26,0,0,0,0-.26V51.52c.07-.73.15-1.46.23-2.19a.36.36,0,0,0-.36-.36A.35.35,0,0,0,54,49Z"
    transform="translate(0 -0.02)"
    fill="#333"
  />
  <path
    d="M54.08,54h-.19a.52.52,0,0,1-.33-.29.56.56,0,0,1-.07-.19.8.8,0,0,1,0-.23v-.12a2.09,2.09,0,0,1,0-.25V52c.07-.92.18-1.85.28-2.75v-.07a.43.43,0,0,1,.75-.3.44.44,0,0,1,.13.32c-.09.8-.17,1.59-.24,2.19v1.44a.37.37,0,0,0,0,.11V53h.22l.26-.08.62-.21a.35.35,0,0,1,.3,0A.38.38,0,0,1,56,53a.37.37,0,0,1-.18.43l-.16.09a5.46,5.46,0,0,1-.54.24H55l-.22.08h-.08a1.92,1.92,0,0,0-.32.09h-.26ZM54,49a.34.34,0,0,0-.09.21v.07c-.1.89-.21,1.82-.28,2.74v.82a1.93,1.93,0,0,0,0,.24v.13a1.11,1.11,0,0,0,0,.19,1.16,1.16,0,0,0,.06.16l.08.1a.34.34,0,0,0,.15.09h.41l.3-.08h.09l.21-.07H55a5,5,0,0,0,.53-.24l.15-.08a.22.22,0,0,0,.1-.26.23.23,0,0,0-.11-.15.25.25,0,0,0-.17,0l-.62.21-.27.08h-.07l-.25.06h-.09V53a.49.49,0,0,1,0-.12V51.43c.06-.6.14-1.39.23-2.19a.28.28,0,0,0-.09-.19A.3.3,0,0,0,54,49Z"
    transform="translate(0 -0.02)"
    fill="#333"
  />
  <path
    d="M55.67,51c-.55.06-1.1.1-1.66.12a.37.37,0,0,0-.36.37.36.36,0,0,0,.36.36h0a6.43,6.43,0,0,0,.87-.06,8.48,8.48,0,0,0,.88-.13.32.32,0,0,0,.25-.32.34.34,0,0,0-.32-.34Z"
    transform="translate(0 -0.02)"
    fill="#333"
  />
  <path
    d="M54,51.9a.42.42,0,0,1-.28-.12.46.46,0,0,1-.15-.32A.44.44,0,0,1,54,51h0a15.75,15.75,0,0,0,1.65-.12A.41.41,0,0,1,56,51a.4.4,0,0,1-.18.69,8.78,8.78,0,0,1-.89.12,7.91,7.91,0,0,1-.83.06H54Zm1.67-.9v.08c-.51,0-1,.09-1.66.12a.29.29,0,0,0-.29.29h0a.3.3,0,0,0,.09.21.25.25,0,0,0,.18.08H54a4.46,4.46,0,0,0,.81,0c.27,0,.62-.08.88-.13a.26.26,0,0,0,.11-.44.31.31,0,0,0-.17-.07Zm.44-1.88c-.76.15-1.52.27-2.28.39a.28.28,0,0,0-.16.12.37.37,0,0,0,0,.21.26.26,0,0,0,.13.16.3.3,0,0,0,.2,0c.75-.12,1.51-.25,2.26-.42a.25.25,0,0,0,.06-.46h-.21Z"
    transform="translate(0 -0.02)"
    fill="#333"
  />
  <path
    d="M53.9,50.11a.38.38,0,0,1-.17,0,.37.37,0,0,1-.16-.21.36.36,0,0,1,0-.27.32.32,0,0,1,.21-.16c.74-.12,1.5-.24,2.24-.38a.33.33,0,0,1,.24,0,.32.32,0,0,1,.15.19.34.34,0,0,1,0,.26.29.29,0,0,1-.19.15c-.76.16-1.51.29-2.27.41Zm2.22-.91c-.75.14-1.51.26-2.24.38a.17.17,0,0,0-.11.24.18.18,0,0,0,.09.12A.2.2,0,0,0,54,50c.76-.12,1.5-.24,2.25-.41a.16.16,0,0,0,.1-.08.17.17,0,0,0,0-.14.31.31,0,0,0-.09-.11A.21.21,0,0,0,56.12,49.2Zm.63-.43v3.81a1.82,1.82,0,0,0,0,.33.63.63,0,0,0,.07.26.2.2,0,0,0,0,.09.38.38,0,0,0,.14.14.45.45,0,0,0,.42,0l.33-.15.28-.14.61-.3a.34.34,0,0,0-.26-.62l-.83.31V48.77a.41.41,0,0,0-.41-.41.42.42,0,0,0-.41.41Z"
    transform="translate(0 -0.02)"
    fill="#333"
  />
  <path
    d="M57.22,53.56a.48.48,0,0,1-.29-.1.46.46,0,0,1-.17-.17.23.23,0,0,1,0-.1.69.69,0,0,1-.08-.28,1,1,0,0,1,0-.24V48.8a.5.5,0,0,1,.48-.49.48.48,0,0,1,.35.16.47.47,0,0,1,.14.33v3.67l.53-.19.21-.08a.37.37,0,0,1,.29,0,.4.4,0,0,1,0,.72l-.6.31H58l-.19.1a1.6,1.6,0,0,1-.3.13A.65.65,0,0,1,57.22,53.56Zm-.06-5.13a.34.34,0,0,0-.33.34v3.78a.34.34,0,0,1,0,.1,1.7,1.7,0,0,0,0,.22.61.61,0,0,0,.07.24.16.16,0,0,0,0,.07.3.3,0,0,0,.12.13.39.39,0,0,0,.35,0l.28-.12.2-.09h.09l.61-.3a.26.26,0,0,0,.11-.29.29.29,0,0,0-.14-.17.21.21,0,0,0-.17,0l-.21.08-.62.23h-.11V48.77a.32.32,0,0,0-.09-.23A.36.36,0,0,0,57.16,48.43Zm.31,4.5h0Z"
    transform="translate(0 -0.02)"
    fill="#333"
  />
  <path
    d="M58.69,50.46c-.53.2-1.08.38-1.62.57a.29.29,0,0,0-.2.16.33.33,0,0,0,0,.26.35.35,0,0,0,.42.24c.57-.2,1.14-.39,1.7-.63a.34.34,0,0,0,.12-.12.36.36,0,0,0,0-.25.31.31,0,0,0-.15-.2.34.34,0,0,0-.17,0H58.7Z"
    transform="translate(0 -0.02)"
    fill="#333"
  />
  <path
    d="M57.16,51.78a.39.39,0,0,1-.18,0,.45.45,0,0,1-.22-.27.39.39,0,0,1,0-.32A.41.41,0,0,1,57,51l.37-.13,1.25-.44a.41.41,0,0,1,.32,0,.4.4,0,0,1,.18.24.38.38,0,0,1,0,.31.5.5,0,0,1-.14.15c-.55.23-1.08.41-1.71.63A.25.25,0,0,1,57.16,51.78Zm1.56-1.25L57.47,51l-.37.13a.28.28,0,0,0-.17.12.26.26,0,0,0,0,.21.28.28,0,0,0,.15.17.23.23,0,0,0,.18,0c.63-.22,1.16-.4,1.69-.63a.24.24,0,0,0,0-.1.22.22,0,0,0,0-.19.28.28,0,0,0-.12-.16A.25.25,0,0,0,58.72,50.53ZM59,48.6l-1.79.52a.33.33,0,1,0,.1.65l.08,0,1.78-.52a.32.32,0,0,0,.23-.39h0a.33.33,0,0,0-.31-.25H59Z"
    transform="translate(0 -0.02)"
    fill="#333"
  />
  <path
    d="M57.33,49.84a.49.49,0,0,1-.2,0,.41.41,0,0,1-.19-.25.4.4,0,0,1,.28-.49L59,48.53a.4.4,0,0,1,.22.77l-1.46.43-.33.1Zm1.79-1.18h-.07l-1.79.52a.27.27,0,0,0-.18.31.29.29,0,0,0,.13.16.23.23,0,0,0,.18,0l.34-.1,1.45-.42a.25.25,0,0,0,.18-.3h0A.26.26,0,0,0,59.12,48.66Z"
    transform="translate(0 -0.02)"
    fill="#333"
  />
  <path
    d="M33,63.46a.9.9,0,0,0-.15.19,1.62,1.62,0,0,0-.11.28l-.09.22c-.06.13-.11.26-.16.38l-.33.79-.14.32h0l-.83.18a.42.42,0,0,0-.11-.29.39.39,0,0,0-.54,0,.46.46,0,0,0-.12.12.5.5,0,0,0-.07.27.55.55,0,0,0,.06.22.43.43,0,0,0,0,.25.34.34,0,0,0,.17.22.38.38,0,0,0,.28,0H31l.53.39-.11.27a.91.91,0,0,1-.14.34l-.15.42a4.07,4.07,0,0,0-.13.5.33.33,0,0,0,0,.24.37.37,0,0,0,.2.15.42.42,0,0,0,.16,0,.4.4,0,0,0,.24,0l.29-.25.26-.22.49-.41.07.07.28.29.18.2a3.08,3.08,0,0,1,.24.27,1.71,1.71,0,0,0,.18.2.42.42,0,0,0,.18.11.31.31,0,0,0,.19,0,.3.3,0,0,0,.2-.15.43.43,0,0,0,0-.16.48.48,0,0,0,0-.17,4.73,4.73,0,0,1-.21-.76,3.94,3.94,0,0,0-.13-.65v-.1l.53-.38.71-.54c.16-.13.32-.26.47-.4a3.47,3.47,0,0,0,.39-.47.36.36,0,0,0,0-.27.34.34,0,0,0-.25-.24,1,1,0,0,0-.34,0,1.53,1.53,0,0,0-.4.09l-.35.11-.67.18-.3.08V63.73a.35.35,0,0,0-.15-.26.29.29,0,0,0-.16,0,.3.3,0,0,0-.21.09ZM33,65v.42l-.22.06Zm1,.93.55-.16-.07.06-.74.55V66l.29-.08Zm-.89.23v.26a1,1,0,0,0,0,.39l-.42.32L32.53,67l-.3-.27c0-.14.11-.28.17-.42l.63-.15ZM32,67.59l.07-.17.17.15-.19.16-.16.13Zm1.31,0v.11l-.06-.07Zm6.42-3.06a.66.66,0,0,0-.15.22l-.09.14-.15.23-.29.46-.62,1H37.6l-.17-.14a.4.4,0,0,0-.4-.38.55.55,0,0,0-.39.14.49.49,0,0,0-.13.46.37.37,0,0,0,.07.14.23.23,0,0,0,0,.14.32.32,0,0,0,.18.14l.19.06.31.23.49.4c-.14.24-.27.49-.39.74l-.34.72a1.86,1.86,0,0,0-.14.37,1.18,1.18,0,0,0,0,.2,2.26,2.26,0,0,0,0,.26.33.33,0,0,0,.1.24.32.32,0,0,0,.23.09h.21l.2-.07.23-.13.31-.17.51-.28.42-.24.14-.08.44.64.27.41.13.23a.51.51,0,0,0,.21.2.4.4,0,0,0,.41,0,.38.38,0,0,0,.16-.42c-.11-.5-.22-1-.32-1.5l-.06-.3h.07l.6-.4.29-.21a2.34,2.34,0,0,0,.31-.24,1.93,1.93,0,0,0,.29-.35.28.28,0,0,0,0-.15.27.27,0,0,0-.09-.21.55.55,0,0,0-.17-.17.62.62,0,0,0-.23-.07h-.32l-.47-.05h-.63V66.4a6.51,6.51,0,0,1,0-1.08.72.72,0,0,1,0-.32.31.31,0,0,0-.14-.35h-.15a.31.31,0,0,0-.22.09Zm-.24,1.52a4.87,4.87,0,0,0,0,.54H39.1l.35-.57Zm-.69,1.17h.75a.83.83,0,0,0,0,.34,6.68,6.68,0,0,1,.11.77l-.21.12c-.06-.09-.13-.17-.2-.26a7.53,7.53,0,0,0-.65-.73l.15-.27Zm1.43.06h1c-.29.22-.6.41-.9.6a5.5,5.5,0,0,0-.11-.69Zm-2,.93a7.21,7.21,0,0,1,.58.66l-.41.23-.49.27-.27.14c.19-.45.4-.89.62-1.32Zm7.69-2.66a4,4,0,0,1-.16.49c-.06.17-.12.34-.19.51s-.13.34-.2.5L43.78,67a.48.48,0,0,0-.49.47h0a.5.5,0,0,0,.14.35.56.56,0,0,0,.2.11,1.1,1.1,0,0,0,0,.18.5.5,0,0,0,.18.27l.24.16.47.32-.28.66-.15.35a1.21,1.21,0,0,1-.16.42,1.07,1.07,0,0,0-.1.36,1.49,1.49,0,0,0,0,.21L44,71a.38.38,0,0,0,.23.18.45.45,0,0,0,.28,0l.17-.08.24-.16.21-.14.35-.24.63-.44c.24.19.47.39.7.59a.32.32,0,0,0,.32.08.35.35,0,0,0,.24-.23.41.41,0,0,0,0-.22,1.43,1.43,0,0,0-.08-.22,4.64,4.64,0,0,1-.16-.53l-.06-.21c.17-.13.32-.27.48-.41a4.21,4.21,0,0,0,.37-.36l.19-.24a1.79,1.79,0,0,0,.12-.24.43.43,0,0,0-.07-.53L48,67.48a.92.92,0,0,0-.31-.16,1.06,1.06,0,0,0-.31,0h-.81a1.08,1.08,0,0,0-.07-.47c-.07-.15,0-.36,0-.53v-.6a.33.33,0,0,0-.25-.32h-.08a.35.35,0,0,0-.34.34ZM44.45,68h.49l-.1.24Zm1.2.07h.49a1.62,1.62,0,0,0,0,.19,3.51,3.51,0,0,0,.1.53v.11h0l-.21.17-.24-.18-.41-.29c.09-.2.17-.4.25-.6Zm1.26.3a2,2,0,0,1,0-.24h.34c-.09.1-.19.18-.28.27ZM45,69.55l.12-.28.35.26-.43.32-.23.16.18-.46Zm5.6-6v.3a2.57,2.57,0,0,0,.06.4.55.55,0,0,0,.07.32l-1.55.3a.33.33,0,0,0-.23.41h0a.36.36,0,0,0,.15.21.39.39,0,0,0,.26,0l1.41-.28a7.66,7.66,0,0,1-.21,1v.13L50.13,66l-.19-.14-.09-.07a1.47,1.47,0,0,0-.28-.14.33.33,0,0,0-.29,0,.37.37,0,0,0-.18.32.35.35,0,0,0,0,.2.54.54,0,0,0,.19.18h.12l.31.22.26.2.29.22-.12.37c-.07.22-.13.45-.19.68s0,.22-.06.33a1.5,1.5,0,0,0,0,.37.33.33,0,0,0,.49.19l.1-.05a.61.61,0,0,0,.16-.16l.13-.2.19-.3.26-.39h.06a8.73,8.73,0,0,0,.81.67.34.34,0,0,0,.4-.06.24.24,0,0,0,.09-.15.34.34,0,0,0,0-.26l-.15-.28a2.06,2.06,0,0,1-.12-.26c-.07-.13-.12-.27-.18-.41L52,66.74v-.07c.15-.24.31-.48.47-.71l.43-.62.14-.21.22-.3a2.42,2.42,0,0,0,.21-.39.33.33,0,0,0,0-.32A.32.32,0,0,0,53.2,64l-.52.07-.37.09-.4.08-.5.11a5.32,5.32,0,0,0-.06-.56v-.21a.83.83,0,0,0,0-.15.34.34,0,0,0-.16-.21.54.54,0,0,0-.25-.06.31.31,0,0,0-.29.31ZM52,65l.45-.1h.1l-.17.24-.42.6c-.06.09-.13.18-.19.28l-.07-.23c-.07-.22-.12-.45-.19-.68Zm-.85,1.37v-.11a.36.36,0,0,0,.07.25c.07.09,0,.11,0,.17l-.13.2L51,66.76a1.43,1.43,0,0,1,.11-.39Zm5.27-5.18a.86.86,0,0,1,0,.16,7.19,7.19,0,0,1-.26,1L56,62.7l-1.47.38L54.29,63a.47.47,0,0,0-.47.81,2.16,2.16,0,0,0,.34.17l.26.12a8,8,0,0,1,.85.52l-.51,1.2v-.08c-.09.22-.19.44-.27.67l-.1.31a1.08,1.08,0,0,0-.07.31.76.76,0,0,0,0,.15.34.34,0,0,0,.1.16.45.45,0,0,0,.27.17.35.35,0,0,0,.36-.1.61.61,0,0,0,.15-.17c.41-.49.81-1,1.2-1.51l.24.24a4.86,4.86,0,0,0,.41.38l.21.16.13.06a.43.43,0,0,0,.16,0A.38.38,0,0,0,58,66.1c-.1-.27-.2-.54-.28-.82l-.12-.42a2.08,2.08,0,0,0-.11-.48c.22-.3.44-.6.64-.91.07-.1.14-.18.2-.28a.59.59,0,0,0,.08-.41.53.53,0,0,0-.22-.31.58.58,0,0,0-.45-.06l-.21,0h-.34V62a4.42,4.42,0,0,0-.06-.82.52.52,0,0,0,0-.17.33.33,0,0,0-.32-.24.34.34,0,0,0-.33.33Zm1,2h.07l-.21.31v-.26h.18Zm-.85.17a1.26,1.26,0,0,0,.09.57c.09.19,0,.21,0,.31l-.27.35c-.1-.11-.21-.21-.32-.32l.18-.43a3.8,3.8,0,0,0,.18-.47Zm-1.11.26.23-.06-.11.23-.23-.17Zm0,2.23.31-.72.15.15-.26.33-.2.25Z"
    transform="translate(0 -0.02)"
    fill="#f8e100"
  />
  <path
    d="M57.73,57.66h-.87l-2,.12c-.69,0-1.38.1-2.06.15L51.22,58c-.58,0-1.16.09-1.75.12l-2.36.12c-1.14,0-2.27.13-3.41.22-.66.06-1.32.1-2,.17l-2.11.21c-1.31.13-2.61.28-3.91.43-1.14.13-2.28.24-3.41.38l-1.5.18-1.29.18-2.48.4c-.66.09-1.32.19-2,.25a.7.7,0,0,0-.45.19.63.63,0,0,0,0,.89h0A.6.6,0,0,0,25,62c.58,0,1.15-.14,1.73-.21L28,61.6l2.63-.37c2.57-.3,5.15-.57,7.72-.86L40,60.21c.59-.06,1.17-.13,1.76-.18,1.3-.11,2.6-.23,3.9-.31l3.93-.22c.67,0,1.34-.09,2-.14l1.55-.12c.61,0,1.23-.11,1.84-.14l1.23-.1h.71l1.93-.06h3.27a4,4,0,0,0,.69-.09,3.1,3.1,0,0,0,.73-.17.48.48,0,0,0,.36-.46.49.49,0,0,0-.49-.49h0a6.55,6.55,0,0,1-1,0,7.45,7.45,0,0,0-.94-.08H57.73Z"
    transform="translate(0 -0.02)"
    fill="#333"
  />
  <path
    d="M25,62.42a1.07,1.07,0,0,1-.73-.31,1.09,1.09,0,0,1,0-1.52,1.16,1.16,0,0,1,.72-.31c.51,0,1-.12,1.52-.19l.66-.09,2.28-.34h.29l1-.14,1.46-.17,2-.22L35.63,59l.5-.06c1.12-.13,2.27-.26,3.41-.37l.63-.06,1.49-.15L43,58.22l.7-.06c1.07-.09,2.19-.16,3.41-.23l2.26-.11h.11l1.17-.08h.78l1.37-.1.65,0c.46,0,.94-.08,1.41-.1h.09l2-.11a5.72,5.72,0,0,1,.59,0h4a6.9,6.9,0,0,1,1,.08,5.75,5.75,0,0,0,.91,0,.82.82,0,0,1,.64.23,1,1,0,0,1,.31.69.92.92,0,0,1-.68.88h-.1l-.66.15a4.16,4.16,0,0,1-.75.09h-6l-1.19,0c-.44,0-.88.06-1.32.1h-.52l-1.55.12-.67,0-1.35.1c-1.29.06-2.62.13-3.93.22-1,.06-2.1.15-3.12.24l-.76.06-1.15.11L40,60.6h-.53l-1.11.11-3.67.41-4,.45c-.86.11-1.74.24-2.61.37l-1.27.18h-.44c-.42.06-.86.12-1.3.16Zm32.78-4.33h-.85l-2,.11h-.09l-1.39.1-.66.06-1.37.09h-.78l-1.18.08h-.11l-2.26.12c-1.22.06-2.32.13-3.39.22L43,59l-1.26.11-1.5.15-.62.06c-1.13.11-2.29.24-3.4.37l-.5.06-1.44.16-2,.22-1.45.18-1,.13-.29,0c-.76.1-1.53.22-2.27.34h-.21l-.46.06c-.51.07-1,.14-1.56.19a.33.33,0,0,0-.19.06.22.22,0,0,0,0,.3l.12.06,1.26-.15.44-.06c.42,0,.83-.11,1.25-.18l2.63-.37c1.36-.16,2.71-.31,4.07-.45l3.66-.41,1.12-.11.53-.06a2.18,2.18,0,0,0,.62-.06l1.16-.11.75-.06c1-.09,2.1-.18,3.15-.25L49.54,59c.45,0,.9-.06,1.33-.09h.67l1.55-.12h.52L55,58.69l1.24-.07h5.92a3.53,3.53,0,0,0,.61-.08l.6-.14h.1a.09.09,0,0,0,0-.06,7.2,7.2,0,0,1-1,0c-.3,0-.61-.06-.89-.07H57.81Zm1.13-26.77h-.79c-.58,0-1.16,0-1.75.1-1.1.09-2.21.2-3.32.33l-3.46.42c-1.16.14-2.39.28-3.58.4-2.24.23-4.47.42-6.7.72l-6.09.83-3.63.44-1.67.2a5.59,5.59,0,0,0-.82.12c-.27,0-.52.07-.77.12l-.75.16-.5.1-1.54.43a.5.5,0,0,0-.35.61.52.52,0,0,0,.62.35c.44-.14.9-.25,1.35-.37.29-.08.59-.14.89-.2s.55-.11.84-.15l1-.15,3.31-.38,2-.23L35,35l2.74-.37,1.84-.23c.56-.08,1.12-.14,1.68-.2,1.11-.12,2.23-.22,3.34-.32s2.32-.22,3.48-.35l3.3-.39c1.17-.15,2.35-.27,3.53-.39s2.24-.21,3.37-.26h.88l.08.06a.5.5,0,0,0,.38,0,.45.45,0,0,0,.29-.23A1.45,1.45,0,0,0,60,32.1a.65.65,0,0,0,0-.31,1.13,1.13,0,0,0-.16-.26.51.51,0,0,0-.3-.15h-.3Zm-25.7,2.82h0Z"
    transform="translate(0 -0.02)"
    fill="#333"
  />
  <path
    d="M23.67,37.13a1,1,0,0,1-.9-.69,1,1,0,0,1,.65-1.16l1.28-.35.27-.07.37-.08h.15l.75-.16.56-.09h.43l.63-.1.51-.06,1.17-.14c1.15-.14,2.39-.28,3.62-.44l2.28-.31L39.25,33c1.63-.22,3.28-.38,4.88-.54L46,32.15c1.21-.12,2.42-.26,3.58-.4l1.08-.13L53,31.33c1.16-.13,2.28-.24,3.34-.33.57,0,1.15-.09,1.73-.11h1.11a1.51,1.51,0,0,1,.39,0,.89.89,0,0,1,.55.31,1,1,0,0,1,.21.38,1.06,1.06,0,0,1,0,.53,1.79,1.79,0,0,1-.1.26.9.9,0,0,1-.59.47.88.88,0,0,1-.69-.08h-.74c-1,0-2.11.14-3.13.24h-.22c-1.29.13-2.44.25-3.52.38l-.64.08L48,33.78c-1.11.12-2.25.23-3.49.34h-.33c-1,.08-2,.18-3,.29h-.47l-1.2.14L37.84,35l-.56.08-2.24.3-.55.08-1.25.16-1.73.2h-.23L29.45,36l-1.45.2-1,.15-.74.14H26a2.75,2.75,0,0,0-.69.15H25.2L24,37A.75.75,0,0,1,23.67,37.13Zm9.48-2.54L29.64,35l-1.16.15-.51.06-.61.09h-.44l-.5.08-.75.16H25.5l-.31.07-.27.07L23.67,36s-.06,0,0,.07l1.24-.34H25c.25-.07.5-.12.74-.17H26c.26-.06.52-.11.79-.15l1-.15,1.49-.17L31.18,35h.23l1.73-.2,1.23-.16.56-.07,2.23-.3.56-.08,1.8-.23,1.21-.14.47-.06c1-.11,2-.2,3-.29h.33L48,33l2.64-.31.65-.08c1.08-.14,2.24-.26,3.53-.38H55c1-.1,2.12-.2,3.19-.24h1l.15.13V32a.34.34,0,0,0,0-.09l-.06-.08H58.13a9.31,9.31,0,0,0-1.67.1h0l-3.31.32-2.37.29-1.08.14-3.6.4-1.83.18c-1.6.16-3.24.32-4.85.53l-3.81.52-2.28.32h-.13Z"
    transform="translate(0 -0.02)"
    fill="#333"
  />
  <path
    d="M49.14,30.2a.44.44,0,0,0,.12-.15,1.45,1.45,0,0,0,.09-.22,1.22,1.22,0,0,1,.07-.17l.12-.3.27-.62.1-.24.65-.14a.32.32,0,0,0,.09.23.27.27,0,0,0,.21.09.3.3,0,0,0,.21-.09l.09-.09a.41.41,0,0,0,0-.21.58.58,0,0,0,0-.18.34.34,0,0,0,0-.2.27.27,0,0,0-.13-.17.28.28,0,0,0-.22,0h-.12l-.41-.3.09-.21.1-.27a2.19,2.19,0,0,0,.12-.33,2.36,2.36,0,0,0,.1-.38.21.21,0,0,0-.15-.31h-.13a.33.33,0,0,0-.19,0l-.22.19-.21.18-.38.32-.06-.06c-.07-.07-.15-.14-.22-.22L49,26.17c-.06-.07-.13-.13-.19-.21l-.13-.16a.36.36,0,0,0-.15-.08h-.15a.26.26,0,0,0-.15.12.23.23,0,0,0,0,.26,4.23,4.23,0,0,1,.17.58,3.18,3.18,0,0,0,.1.52v.08l-.41.3c-.19.13-.37.27-.56.42a3.38,3.38,0,0,0-.36.31,2.76,2.76,0,0,0-.31.37.31.31,0,0,0,.19.4h.27a1.55,1.55,0,0,0,.31-.07l.28-.08.52-.15.23-.06V30a.24.24,0,0,0,.12.21.2.2,0,0,0,.11,0,.21.21,0,0,0,.17-.07Zm0-1.22v-.33h.18l-.16.37Zm-.76-.73-.43.12H48l.58-.43a1.09,1.09,0,0,0,0,.18v.11l-.23.06Zm.7-.18v-.5l.33-.26.11.11.24.21-.14.32-.49.12ZM50,27l-.06.13-.1-.13.14-.12.13-.11A.26.26,0,0,1,50,27Zm-1,0v0Zm-5.08,2.36a1,1,0,0,0,.12-.17l.07-.11.11-.18c.08-.12.16-.24.23-.36l.49-.8h.61l.14.11a.32.32,0,0,0,.31.29.41.41,0,0,0,.3-.1.39.39,0,0,0,.11-.36.27.27,0,0,0-.06-.12.19.19,0,0,0,0-.1.22.22,0,0,0-.14-.11l-.15,0-.24-.18c-.13-.1-.26-.2-.38-.31l.3-.58c.09-.18.18-.37.26-.56l.12-.29V25a.33.33,0,0,0-.08-.19.24.24,0,0,0-.18-.07h-.17l-.15,0-.19.1-.24.13-.4.22-.32.19-.11.06c-.12-.16-.23-.33-.34-.49l-.21-.33a1.42,1.42,0,0,1-.11-.18.49.49,0,0,0-.16-.16.36.36,0,0,0-.32,0,.29.29,0,0,0-.13.33c.09.39.18.78.25,1.17a2,2,0,0,1,0,.24h-.06l-.46.31-.23.16-.25.19a2.09,2.09,0,0,0-.22.28.2.2,0,0,0,0,.11.22.22,0,0,0,.07.17.53.53,0,0,0,.13.13l.18.06h1.11v.33a6,6,0,0,1,0,.85v.25a.25.25,0,0,0,.11.27h.12a.23.23,0,0,0,.17-.07Zm.19-1.19v-.42h.28l-.27.44Zm.54-.91h-.59V27l-.09-.6.16-.1.17.21a5.37,5.37,0,0,0,.5.57l-.11.21Zm-1.12,0h-.8c.22-.17.46-.32.7-.47l.09.54Zm1.53-.72c-.16-.17-.31-.34-.45-.52l.32-.18.38-.21.21-.11c-.16.35-.32.69-.5,1Zm-6,2.08a1.29,1.29,0,0,1,.12-.38l.15-.41.15-.39,1.22.08a.38.38,0,0,0,.38-.38h0a.39.39,0,0,0-.11-.27.27.27,0,0,0-.15-.09.59.59,0,0,0,0-.14.39.39,0,0,0-.14-.21l-.19-.12L40.13,26c.08-.17.15-.34.22-.51l.12-.27a3.24,3.24,0,0,1,.13-.33,1,1,0,0,0,.07-.29.45.45,0,0,0,0-.16.19.19,0,0,0-.06-.14.34.34,0,0,0-.18-.13.31.31,0,0,0-.23,0l-.12.06-.19.12-.17.12-.27.18L38.9,25l-.54-.45a.24.24,0,0,0-.25-.07.27.27,0,0,0-.19.18.49.49,0,0,0,0,.17A.87.87,0,0,0,38,25a1.66,1.66,0,0,0,.12.42c0,.14,0,.11,0,.16l-.38.32-.29.29a1.24,1.24,0,0,0-.14.18l-.1.19a.36.36,0,0,0,0,.42l.1.09a.65.65,0,0,0,.23.13h.8l.06.36V28a3.69,3.69,0,0,1,0,.47.28.28,0,0,0,.19.25h.07a.27.27,0,0,0,.27-.26Zm1.11-1.91h-.38l.08-.18.3.2Zm-.93,0h-.38v-.15s0-.28-.08-.42,0,0,0-.08l.17-.13.18.14.32.23c-.06.16-.13.31-.19.47Zm-1-.23a1.16,1.16,0,0,1,0,.18H38l.22-.21Zm1.47-1-.09.23-.28-.2.34-.25.17-.12a3.65,3.65,0,0,1-.14.35Zm-4.34,4.7a1.93,1.93,0,0,1,0-.24.7.7,0,0,0,0-.31c0-.11,0-.16,0-.24l1.21-.24a.27.27,0,0,0,.18-.33.26.26,0,0,0-.12-.15.28.28,0,0,0-.2,0l-1.1.22a6.69,6.69,0,0,1,.16-.75V28l.28.22.15.12.07,0a.91.91,0,0,0,.22.11.26.26,0,0,0,.37-.25.29.29,0,0,0,0-.16.4.4,0,0,0-.15-.14h-.09L36,27.71l-.21-.16-.22-.18a.38.38,0,0,1,.08-.28,2,2,0,0,0,.16-.53,2.51,2.51,0,0,0,0-.27.9.9,0,0,0,0-.28.26.26,0,0,0-.12-.15.27.27,0,0,0-.26,0h-.08a.53.53,0,0,0-.13.13l-.1.15-.15.23-.2.31a8.06,8.06,0,0,0-.64-.52.26.26,0,0,0-.32,0,.36.36,0,0,0-.06.32l.12.22.09.2c0,.11.1.22.14.33l.1.26v.06c-.12.18-.24.37-.37.55l-.33.49-.12.16-.17.24a2.85,2.85,0,0,0-.16.3.27.27,0,0,0,0,.26.24.24,0,0,0,.22.12,2.57,2.57,0,0,0,.4,0l.3-.07.31-.06.39-.09V30a.53.53,0,0,0,0,.12.31.31,0,0,0,.13.17.41.41,0,0,0,.19,0,.24.24,0,0,0,.23-.24ZM34.28,29l-.35.07h-.08L34,28.9l.32-.46.15-.22.06.17a2,2,0,0,0,.14.53l-.38.09Zm.66-1.08V28l-.06-.19a.57.57,0,0,0,0-.14l.1-.15.11.09-.09.3ZM30.83,32v-.13A4.67,4.67,0,0,1,31,31a.74.74,0,0,1,.1-.27l1.15-.29.22.11a.37.37,0,0,0,.37-.64l-.27-.13-.2-.1a5.64,5.64,0,0,1-.67-.4l.4-.94v.07c.07-.18.15-.35.21-.53s0-.16.08-.24a1.83,1.83,0,0,0,.06-.25.43.43,0,0,0,0-.11.19.19,0,0,0-.07-.12.36.36,0,0,0-.21-.13A.2.2,0,0,0,32,27a.33.33,0,0,0-.13.07l-.12.13c-.32.39-.63.79-.94,1.19l-.18-.19-.33-.3-.15-.12H30a.24.24,0,0,0-.12,0,.26.26,0,0,0-.21.08.29.29,0,0,0-.08.29c.08.22.15.43.22.65l.09.33.09.37c-.17.24-.35.47-.51.71l-.15.22a.45.45,0,0,0-.06.32.37.37,0,0,0,.17.24.43.43,0,0,0,.35,0L30,31h.26v1a.53.53,0,0,0,0,.13.26.26,0,0,0,.25.19.25.25,0,0,0,.26-.24h0ZM30,30.43l.16-.24v.2H30Zm.66-.13-.06-.45a2,2,0,0,1,0-.24l.2-.28.25.25a1,1,0,0,1-.14.34l-.14.36H30.7Zm.87-.21-.18,0,.08-.19.18.14h-.08Zm0-1.75-.23.56-.13-.11.21-.26.15-.2Z"
    transform="translate(0 -0.02)"
    fill="#f8e100"
  />
  <path
    d="M37.21,13.37a1,1,0,0,0-.42.27,1.81,1.81,0,0,0-.35.62v.09a15,15,0,0,1-1.74,2.9,9.2,9.2,0,0,1-1.37,1.42,7.78,7.78,0,0,1-1.4.8,8.53,8.53,0,0,1-1.84.51,12.09,12.09,0,0,1-2.82-.07,10.71,10.71,0,0,1-2.3-.55,6.37,6.37,0,0,1-1-.6c-.23-.19-.45-.39-.67-.61a6.25,6.25,0,0,0-.57-.58.82.82,0,0,0-1.4.58,2.25,2.25,0,0,0,.14.73l.15.54a6.31,6.31,0,0,1,.2.86,10.79,10.79,0,0,1,0,2A7.69,7.69,0,0,1,21.25,24a6,6,0,0,1-.66,1.12,8.39,8.39,0,0,1-1.11,1.12A8,8,0,0,1,18,27.1a8,8,0,0,1-1.68.45,8.14,8.14,0,0,1-1.78,0,13,13,0,0,1-2.93-.87l.19.08c-.22-.1-.45-.18-.67-.27h-.31a.89.89,0,0,0-.58.24.84.84,0,0,0-.3.66,1.36,1.36,0,0,0,.08.39l.18.43L10.11,28l.36.82c.33.79.65,1.59,1,2.38s.74,1.72,1.12,2.58l.36.86a12.09,12.09,0,0,1,.76,2.83,10.23,10.23,0,0,1,0,2.28,9.32,9.32,0,0,1-.57,2.13,7.88,7.88,0,0,1-.8,1.38,29.93,29.93,0,0,1-2.15,2.21,2.91,2.91,0,0,0-.33.37,1.88,1.88,0,0,0-.39.67,1.34,1.34,0,0,0,0,.84A1.51,1.51,0,0,0,10,48l1,.74a13.9,13.9,0,0,1,2.32,2.15,8.24,8.24,0,0,1,.9,1.55,11.59,11.59,0,0,1,.65,2.46,9.65,9.65,0,0,1,0,2.15,11.09,11.09,0,0,1-.69,2.41c-.37.84-.77,1.67-1.17,2.49l-.6,1.25a10.1,10.1,0,0,0-.51,1.17,1.4,1.4,0,0,0,.6,1.77,4,4,0,0,0,.83.24l.7.13,1.3.22a20.92,20.92,0,0,1,3.67.73c.19.06.38.14.57.21A12.47,12.47,0,0,1,21.93,69a5.62,5.62,0,0,1,.7.68,5.11,5.11,0,0,1,.34.6,4.87,4.87,0,0,1,.23.83,3.66,3.66,0,0,1,0,.74A12.74,12.74,0,0,1,22.6,74l-.19.54a4.35,4.35,0,0,0-.18.57,4.94,4.94,0,0,0-.15.84,1.69,1.69,0,0,0,.07.67,2.63,2.63,0,0,0,.15.35,1.42,1.42,0,0,0,.43.45l.36.15.41.06a4.23,4.23,0,0,0,.62-.11c.59-.18,1.17-.35,1.76-.49s1.14-.24,1.72-.33l.58-.06a9.27,9.27,0,0,1,2,0,9.57,9.57,0,0,1,2,.54,8.23,8.23,0,0,1,1.52.88l.5.37c.51.44,1,.87,1.49,1.34l.71.71.6.7.15.21.28.38a2,2,0,0,0,.42.4,1.42,1.42,0,0,0,1.19.17,1.91,1.91,0,0,0,1-.86l.68-.95a8.76,8.76,0,0,1,.71-.78c.15-.14.3-.29.46-.42l.33-.26a8.78,8.78,0,0,1,1.42-.83A6.65,6.65,0,0,1,45,77.86a8.8,8.8,0,0,1,1.92,0,7,7,0,0,1,1.26.36A35.4,35.4,0,0,0,51.81,80a1.75,1.75,0,0,0,1.74-.33,2.52,2.52,0,0,0,.62-1.06c.14-.34.26-.69.39-1A9,9,0,0,1,55.45,76a6.43,6.43,0,0,1,.83-.82,7.4,7.4,0,0,1,1.34-.77,6.44,6.44,0,0,1,3.52-.47,9.47,9.47,0,0,1,1.4.32c.22.06.43.14.65.22l.58.2.36.13A3.53,3.53,0,0,0,65,75h.37a1.13,1.13,0,0,0,.53-.28,1.55,1.55,0,0,0,.26-.37,1.66,1.66,0,0,0,.15-.61V68.95a19.55,19.55,0,0,1,.21-2.35c.09-.61.2-1.2.34-1.79a12.14,12.14,0,0,1,.6-1.79,8.61,8.61,0,0,1,.85-1.55,5.9,5.9,0,0,1,.76-.74,10.83,10.83,0,0,1,2-1.16l.79-.28c.25-.07.51-.13.76-.21a1.63,1.63,0,0,0,.8-.5c0-.06.09-.13.14-.18a2.08,2.08,0,0,0,.12-.32,1.18,1.18,0,0,0,0-.59,3.08,3.08,0,0,0-.46-1L73,55.81c-.21-.36-.42-.72-.61-1.09s-.41-.85-.61-1.28A7.54,7.54,0,0,1,71.29,52a8.82,8.82,0,0,1,.08-1.85,4,4,0,0,1,.1-.67A7.83,7.83,0,0,1,72,47.67a20.29,20.29,0,0,1,1.25-2.22,16,16,0,0,0,1.22-2.22A2.68,2.68,0,0,0,74.7,42a1.6,1.6,0,0,0-.7-1.19,7.34,7.34,0,0,0-1-.53,15.22,15.22,0,0,1-2-1.15,10.47,10.47,0,0,1-1.63-1.63,6.25,6.25,0,0,1-.62-1.06,5.4,5.4,0,0,1-.27-1,8.33,8.33,0,0,1,0-1.8,10.75,10.75,0,0,1,.61-2.22c.14-.33.29-.65.44-1L69.8,30a1.12,1.12,0,0,0,0-.7,1,1,0,0,0-.66-.63,1.78,1.78,0,0,0-.39-.07,11,11,0,0,1-1.88-.6,8.65,8.65,0,0,1-1.6-.9,5.89,5.89,0,0,1-.87-.86,4.72,4.72,0,0,1-.41-.68,5,5,0,0,1-.2-.76,22.48,22.48,0,0,1,.06-3.07v-.88a3.74,3.74,0,0,0-.07-.75,1.58,1.58,0,0,0-.29-.71,1.31,1.31,0,0,0-.69-.51,3.4,3.4,0,0,0-.46-.08,2.42,2.42,0,0,0-.47.06,2.58,2.58,0,0,0-.6.13c-.79.2-1.58.46-2.38.66L57.67,20c-.58.15-1.16.3-1.74.39a.75.75,0,0,0-.45-.42H55.4l-.25-.14a2.91,2.91,0,0,1-.3-.31,3.42,3.42,0,0,1-.35-.62,14.15,14.15,0,0,1-.88-3.32,1.55,1.55,0,0,0-.08-.6,1.17,1.17,0,0,0-.44-1,.75.75,0,0,0-.74,0,2.65,2.65,0,0,0-.42.33l-.38.35c-.55.49-1.11,1-1.69,1.44l-.28.22-.71.54a9.64,9.64,0,0,1-1.71,1,8.42,8.42,0,0,1-1.84.53,10.44,10.44,0,0,1-2.09,0,5.24,5.24,0,0,1-1.18-.3,4.72,4.72,0,0,1-.87-.51,7.37,7.37,0,0,1-1-1c-.44-.6-.82-1.26-1.21-1.9a3.21,3.21,0,0,0-.87-1.13,1,1,0,0,0-.56-.18h-.29Zm-6.64,8.22a8.11,8.11,0,0,0,1.59-.42,9.61,9.61,0,0,0,1.61-.79A8.8,8.8,0,0,0,36,18.2a14,14,0,0,0,.87-1.26c.21-.35.42-.7.6-1.06l.1-.19.15.27a16,16,0,0,0,.91,1.49,7,7,0,0,0,1.17,1.31,5.93,5.93,0,0,0,1.64,1,7,7,0,0,0,2.43.48,9.87,9.87,0,0,0,1.09,0,7.65,7.65,0,0,0,2.11-.45,9.28,9.28,0,0,0,2.55-1.43,21.84,21.84,0,0,0,2.07-1.78c.23-.22.45-.46.67-.7a16.2,16.2,0,0,0,.54,2.58,7.2,7.2,0,0,0,.55,1.42A1.85,1.85,0,0,0,54.18,21a3.38,3.38,0,0,0,2.34.29c.75-.1,1.49-.25,2.24-.37,1.13-.18,2.26-.42,3.4-.6h.06v.07a19.07,19.07,0,0,1-.06,2.62v1.41A5.32,5.32,0,0,0,62.47,26a5.22,5.22,0,0,0,.84,1.42,6.37,6.37,0,0,0,1.11,1,7.66,7.66,0,0,0,1.06.64,8.6,8.6,0,0,0,1.08.47,9.16,9.16,0,0,0,1,.33L68,30l-.17.33a11.83,11.83,0,0,0-.75,2,9.06,9.06,0,0,0-.3,2.93A7.2,7.2,0,0,0,67,36.63,5.29,5.29,0,0,0,67.58,38a7.7,7.7,0,0,0,.93,1.2,10.76,10.76,0,0,0,1,1,9.87,9.87,0,0,0,1.7,1.17c.27.15.55.28.82.42s.62.29.92.47a1.18,1.18,0,0,1-.07.2,14.66,14.66,0,0,1-1,1.75c-.24.38-.49.75-.72,1.13l-.51.82A9.77,9.77,0,0,0,69.74,48a12.57,12.57,0,0,0-.39,2.12c0,.34-.07.67-.09,1a6,6,0,0,0,.32,2.15,10.15,10.15,0,0,0,.53,1.28c.11.22.21.44.33.65.22.41.45.82.7,1.21s.43.65.65,1h-.15c-.31.07-.62.16-.92.26a11.36,11.36,0,0,0-2,.91,7.65,7.65,0,0,0-1.55,1.16A6.4,6.4,0,0,0,66,61.39a13.55,13.55,0,0,0-.75,1.75,13.4,13.4,0,0,0-.54,2.07c-.14.79-.22,1.59-.3,2.38,0,.42-.06.84-.07,1.26s0,1.06,0,1.6c0,.83.07,1.66.13,2.49l-.73-.26a11.34,11.34,0,0,0-1.63-.49,8.8,8.8,0,0,0-3-.15,9.8,9.8,0,0,0-1.41.29,9,9,0,0,0-1.48.6,6,6,0,0,0-1.1.7,6.49,6.49,0,0,0-1.17,1.11,7.76,7.76,0,0,0-1,1.44c-.28.59-.5,1.19-.74,1.79h-.1a11.39,11.39,0,0,1-1.23-.69,13.82,13.82,0,0,0-1.84-1,8,8,0,0,0-1.57-.51,9.23,9.23,0,0,0-1.66-.15,10.34,10.34,0,0,0-1.75.15,7.34,7.34,0,0,0-1.7.55,10.47,10.47,0,0,0-2.93,2,9.42,9.42,0,0,0-.93,1,1.7,1.7,0,0,0-.22-.24c-.32-.33-.64-.66-1-1s-.74-.68-1.13-1a16.3,16.3,0,0,0-1.35-1,7.64,7.64,0,0,0-1.53-.85,10.4,10.4,0,0,0-2-.64,11,11,0,0,0-2.15-.21,10.85,10.85,0,0,0-1.4.09,20.6,20.6,0,0,0-2.94.55l-.57.16c.11-.41.23-.83.34-1.25a11.85,11.85,0,0,0,.39-2A4.71,4.71,0,0,0,24.73,70a4.94,4.94,0,0,0-1.06-1.79,5.74,5.74,0,0,0-.74-.65c-.24-.19-.48-.36-.74-.53a13.13,13.13,0,0,0-1.81-1,11.26,11.26,0,0,0-1.77-.62c-.37-.1-.75-.16-1.12-.23L16.21,65c-.83-.13-1.65-.27-2.47-.45v-.1c.37-.85.77-1.68,1.15-2.52.22-.48.43-1,.63-1.43s.32-.75.45-1.13a9.54,9.54,0,0,0,.5-2.11,10.69,10.69,0,0,0-.31-4.06,9.64,9.64,0,0,0-1.74-3.6A16.64,16.64,0,0,0,12,47.23l-.6-.47c.26-.28.54-.55.82-.83s.76-.75,1.12-1.16a8.52,8.52,0,0,0,1-1.38A9,9,0,0,0,15,41.77a10.51,10.51,0,0,0,.52-3.52,12,12,0,0,0-.64-3.51c-.18-.55-.41-1.09-.63-1.63-.32-.78-.68-1.55-1-2.32-.23-.56-.46-1.12-.7-1.67l-.24-.58.28.09a9.38,9.38,0,0,0,3.56.44A8.86,8.86,0,0,0,19.66,28a7.48,7.48,0,0,0,1.4-1,8.21,8.21,0,0,0,1.17-1.39,7.58,7.58,0,0,0,1.13-3.47c0-.3,0-.6.07-.9a3.74,3.74,0,0,0,0-.58,1.41,1.41,0,0,0,0-.2c.12.08.25.15.38.22a9.51,9.51,0,0,0,3.18.9c.57.08,1.13.14,1.7.17h.38a11.1,11.1,0,0,0,1.51-.12ZM27,19.88h0ZM72.95,42.17v0ZM24.11,76v0Z"
    transform="translate(0 -0.02)"
    fill="#333"
  />
  <path
    d="M47.8,2a10.12,10.12,0,0,0-.29,1.35c-.08.4-.12.81-.18,1.22-.15,1-.27,2.11-.41,3.16a.67.67,0,0,0,.2.48.69.69,0,0,0,1,0l0,0a.77.77,0,0,0,.2-.48c.16-1.33.32-2.67.49-4A12.64,12.64,0,0,1,49,2.36a.65.65,0,0,0-.44-.79h-.17A.66.66,0,0,0,47.8,2ZM65.06,5.24a16.88,16.88,0,0,0-1.46,2A21.08,21.08,0,0,0,62.54,9.1a12.86,12.86,0,0,0-.62,1.36,5.39,5.39,0,0,0-.29,1.48.84.84,0,0,0,.84.84h0a.83.83,0,0,0,.6-.24.89.89,0,0,0,.24-.6.37.37,0,0,0,0-.11,5,5,0,0,1,.11-.53,3.33,3.33,0,0,1,.21-.63q.73-1.54,1.62-3c.3-.51.6-1,.93-1.51a.7.7,0,0,0-.11-.87A.74.74,0,0,0,65.55,5a.67.67,0,0,0-.49.21ZM63.7,10.51v0Zm14.47,8.83c-.87.43-1.71.92-2.56,1.39l-1,.62-1.8,1.07a.56.56,0,0,0,.56,1l1.75-1,1.1-.65c.84-.48,1.68-1,2.54-1.41a.54.54,0,0,0,.19-.74h0a.5.5,0,0,0-.46-.26.52.52,0,0,0-.27.07Zm-.76,17.21a1,1,0,0,0,.69,1.21c1,.3,1.94.59,2.92.83l1.49.33c.56.11,1.14.18,1.7.25a.86.86,0,0,0,.48-.13.9.9,0,0,0,.44-.57.94.94,0,0,0-.09-.73.89.89,0,0,0-.57-.44,40.61,40.61,0,0,1-5.85-1.44,1.09,1.09,0,0,0-.26,0,1,1,0,0,0-1,.73Zm.47,16.9a.88.88,0,0,0-.09.67.91.91,0,0,0,.4.52c1.39,1,2.79,1.9,4.21,2.82a.83.83,0,0,0,1.21-.94.88.88,0,0,0-.38-.49l-4.16-2.89a.71.71,0,0,0-.42-.12.92.92,0,0,0-.77.43Zm-4.7,13.7a.93.93,0,0,0-.42.55.91.91,0,0,0,.09.72C74.22,70.22,75.57,72,77,73.8a.86.86,0,0,0,.39.23.88.88,0,0,0,.69-.09.9.9,0,0,0,.41-.53.84.84,0,0,0-.09-.69q-2-2.62-3.94-5.24a.74.74,0,0,0-.8-.43.9.9,0,0,0-.47.13ZM70.5,85.45a.77.77,0,0,0-.33.44.69.69,0,0,0,.07.56c1.35,1.81,2.71,3.61,4,5.43a.79.79,0,0,0,.45.35.76.76,0,0,0,.57-.08.73.73,0,0,0,.35-.44.69.69,0,0,0-.08-.58c-1.35-1.81-2.71-3.61-4.06-5.41a.8.8,0,0,0-.43-.34h-.2a.82.82,0,0,0-.37.1Zm-15,10.25a.46.46,0,0,0-.28.21.53.53,0,0,0,0,.35c.18,1,.42,1.9.65,2.84l.18.75c.06.26.14.52.22.78s.21.66.33,1a19.79,19.79,0,0,0,.79,1.83l.4.78a5.55,5.55,0,0,0,.53.8,1.52,1.52,0,0,0,.32.3,2.23,2.23,0,0,0,.33.2.39.39,0,0,0,.54-.13h0a.4.4,0,0,0-.14-.54l-.32-.19a1.12,1.12,0,0,1-.18-.2,6,6,0,0,1-.59-1c-.2-.4-.39-.79-.56-1.19v.1c-.2-.49-.39-1-.55-1.48-.08-.26-.15-.52-.22-.77s-.1-.33-.13-.49l-.3-1.32c-.17-.75-.34-1.51-.46-2.27a.44.44,0,0,0-.21-.27.46.46,0,0,0-.23-.06ZM27,94.17c-.2.76-.37,1.53-.55,2.29s-.35,1.58-.52,2.37-.28,1.31-.41,2L25,103.64c-.13.68-.25,1.36-.37,2.05a.71.71,0,0,0,.49.88h0a.73.73,0,0,0,.56-.07A.76.76,0,0,0,26,106c.21-1.16.42-2.33.64-3.49.14-.73.26-1.46.41-2.19.34-1.6.68-3.21,1-4.8.07-.34.15-.68.23-1a.69.69,0,0,0-.47-.83h-.18a.69.69,0,0,0-.66.49Zm-7.86-9.74a.44.44,0,0,0-.25.19c-1.13,1.49-2.24,3-3.31,4.52a.4.4,0,0,0,.12.55l0,0a.39.39,0,0,0,.32,0,.47.47,0,0,0,.25-.19c1.07-1.53,2.18-3,3.31-4.52a.36.36,0,0,0,0-.32.47.47,0,0,0-.19-.25.5.5,0,0,0-.21,0Zm-5.37-9c-1,.68-2,1.33-3.06,2-.44.29-.9.57-1.35.85s-.84.53-1.27.76l-1.1.6-1,.54a.55.55,0,0,0-.2.75.54.54,0,0,0,.74.2h0l1-.49,1.06-.58c.16-.09.32-.17.47-.27l.78-.49c.45-.29.91-.57,1.36-.87l1.53-1c.53-.36,1.07-.73,1.59-1.11a.58.58,0,0,0,.22-.29.53.53,0,0,0-.05-.37.51.51,0,0,0-.43-.24.46.46,0,0,0-.23.06ZM8.2,63.62C6.12,63.78,4,64,2,64.32H1.8a.74.74,0,0,0-.27.16.63.63,0,0,0-.18.45.62.62,0,0,0,.18.44.63.63,0,0,0,.27.16.65.65,0,0,0,.34,0l.8-.11H2.77c1.81-.24,3.62-.48,5.43-.68a.63.63,0,0,0,.41-.17.58.58,0,0,0-.37-1ZM.08,48.76a.65.65,0,0,0,.23.87c.51.29,1,.55,1.54.8a16.61,16.61,0,0,0,1.77.69,7.67,7.67,0,0,0,.78.23,9.18,9.18,0,0,0,.91.19c.33.06.66.1,1,.14a.69.69,0,0,0,.32-.08.61.61,0,0,0,.28-.37.62.62,0,0,0-.06-.48.6.6,0,0,0-.37-.29c-.47-.06-.93-.14-1.39-.24A11,11,0,0,1,4,49.9c-.36-.12-.72-.25-1.07-.39a17.63,17.63,0,0,1-1.93-1,.61.61,0,0,0-.32-.08.65.65,0,0,0-.56.31Zm1-19.19a.51.51,0,0,0,.35.62c.79.25,1.58.51,2.37.74s1.5.42,2.26.6a.47.47,0,0,0,.25-.91c-1.55-.43-3.07-.92-4.61-1.41H1.56a.52.52,0,0,0-.49.38ZM7.75,7.86a.53.53,0,0,0-.25.32.51.51,0,0,0,0,.42l4.78,6.23,1.11,1.47a.59.59,0,0,0,.31.23.46.46,0,0,0,.38,0,.51.51,0,0,0,.18-.69C12.89,13.85,11.44,12,10,10.08c-.52-.67-1-1.35-1.55-2a.63.63,0,0,0-.33-.25L8,7.78a.53.53,0,0,0-.27.08ZM30.54.19a.58.58,0,0,0-.19.45c.19,1.48.41,3,.68,4.43s.51,2.65.74,4c.13.79.27,1.58.41,2.37a.53.53,0,0,0,.52.4.54.54,0,0,0,.39-.15.59.59,0,0,0,.16-.39c-.17-1.38-.37-2.76-.59-4.14-.2-1.22-.43-2.43-.62-3.66-.11-.72-.23-1.45-.33-2.18a5,5,0,0,0-.08-.66,1,1,0,0,1,0-.17.62.62,0,0,0-.17-.28.63.63,0,0,0-.89,0h0Zm1.16,1v0Z"
    transform="translate(0 -0.02)"
    fill="#f8e100"
  />
</svg>
