<svg viewBox="0 0 85.2 106.6">
  <title>60 days money back guarantee badge</title>
  <style>
    .st16 {
      fill: #333;
    }

    .st18 {
      fill: #f8e100;
    }

    .st19 {
      fill: #2c2c2c;
      stroke: #2c2c2c;
      stroke-width: 0.55;
      stroke-miterlimit: 10;
    }
  </style>
  <path
    class="st19"
    d="M34.8 76.2c-.1 0-.2.1-.2.1-.4.3-.3.8-.2 1.2v.7c0 .5.1.9.1 1.4 0 .9.1 1.8.1 2.7.1 1 .1 2 .2 3s.3 2 .4 3c.1.9.3 1.9.4 2.8.2.9.4 1.8.5 2.7.1.5.2 1 .2 1.5.1.5.1 1 .2 1.4 0 .3.1.6.2.9.1.4.3.8.7.9h.4c.1 0 .2-.1.3-.2.1-.1.2-.2.3-.4.1-.1.1-.2.2-.3.2-.4.4-.8.7-1.2.4-.7.7-1.3 1.1-1.9.2-.4.4-.7.6-1l.6-.9c.1-.1.2-.2.3-.4l.3-.3c.1-.2.3-.3.4-.5.1.1.3.2.4.3.2.1.3.2.5.3.3.2.7.5 1 .7.3.2.7.5 1 .7.3.2.7.5 1 .7.3.3.7.6 1 .9l.5.5.3.3.2.2c.2.1.3.3.5.3.2.1.5 0 .7-.2.1-.1.1-.2.2-.3v-1.4c0-.5 0-1-.1-1.4 0-.9-.1-1.9-.2-2.8-.1-1-.1-2-.2-2.9-.1-1.9-.2-3.9-.3-5.8 0-.6 0-1.1-.1-1.7v-1.1c.1 0 .2-.1.1-.2-.1-.2-.1-.3-.1-.5v-.2c0-.1-.1-.2-.2-.2s-.3 0-.3.1-.1.1-.1.2 0 .1-.1.2c0 .2 0 .3-.1.5v5.5c0 1.9 0 3.8.1 5.6 0 .9.1 1.9.1 2.8 0 .7.1 1.3.1 2l-.3-.3-.5-.5c-.2-.2-.4-.4-.7-.5l-2.4-1.8c-.4-.3-.7-.5-1.1-.8-.1-.1-.2-.1-.3-.2l-.6-.3h-.3c-.2 0-.2 0-.4.1s-.3.2-.4.3l-.3.3c-.1.1-.2.3-.4.4-.2.2-.4.5-.5.7-.1.1-.1.2-.2.2-.1.1-.2.3-.3.4-.1.2-.3.4-.4.6-.1.2-.2.4-.4.6-.4.6-.7 1.2-1 1.8-.2.3-.3.6-.5.9 0 .1-.1.2-.1.3 0-.2-.1-.4-.1-.6 0-.2-.1-.5-.1-.7-.1-.5-.1-1-.2-1.5l-.3-1.5c-.1-.4-.2-.9-.2-1.3-.1-.4-.2-.9-.2-1.3-.1-.5-.2-1-.2-1.5-.1-.9-.2-1.8-.4-2.7v.2c-.1-.5-.1-.9-.2-1.4 0-.5-.1-.9-.1-1.4 0-.9-.1-1.9-.1-2.8 0-.5-.1-1.1-.1-1.6 0-.3 0-.5-.1-.8v-.9c.1-.2 0-.4-.1-.6-.1-.1-.2-.2-.4-.2.3.1.2.1.2.1zm7.8 15.2z"
  />
  <path
    class="st19"
    d="M57.4 73.9c-.1 0-.2.1-.3.2s-.1.1-.1.2v2c0 .6.1 1.2.2 1.9.1 1.3.2 2.7.3 4 .1 1.4.2 2.7.2 4.1 0 .6.1 1.3.1 1.9.1.6.1 1.3.2 1.9 0 .4.1.7.1 1.1-.4-.3-.8-.7-1.2-1-.2-.2-.5-.4-.7-.6l-.4-.4-.3-.3c-.3-.3-.5-.6-.8-.8-.2-.2-.4-.5-.7-.8-.2-.3-.5-.6-.7-.9-.1-.2-.3-.3-.5-.4-.2-.1-.5 0-.6.2-.1.1-.2.2-.2.3-.1.1-.1.2-.2.2-.4.7-.8 1.4-1.3 2.1-.2.3-.4.7-.6 1-.3.5-.6 1.1-.9 1.6-.1.3-.1.6.2.7.3.1.6.1.7-.2.5-.9 1-1.9 1.6-2.8.2-.4.5-.8.7-1.2.1-.2.3-.4.4-.7.2.2.3.4.5.7.2.3.4.5.6.8.3.3.5.6.8.8.2.3.5.5.7.7.2.2.4.4.7.6.3.2.5.5.8.7.2.2.5.4.7.6.1.1.1.1.2.1.1.1.3.3.5.3.1 0 .3.1.4 0 .1 0 .2-.1.3-.2l.2-.2c0-.1.1-.2.1-.2v-.3c.1-.6 0-1.2 0-1.8 0-.3-.1-.7-.1-1-.1-.6-.1-1.2-.1-1.8-.1-1.3-.1-2.7-.2-4-.1-1.4-.2-2.7-.3-4.1 0-.6-.1-1.3-.2-1.9-.1-.6-.1-1.2-.2-1.9v-.9c0-.3-.1-.6-.4-.7-.1-.1-.2-.1-.3-.1.2.5.2.5.1.5zm.7 18.1z"
  />
  <path
    class="st18"
    d="M70.7 49.4c.1-.6.2-1.1.5-1.7.3-.7.7-1.3 1.1-2l.2-.4c.4-.6.8-1.3 1.1-1.9.2-.5.3-.9.2-1.3 0-.5-.3-1-.8-1.3-.2-.2-.5-.3-.7-.4-.1 0-.2-.1-.3-.1-.7-.4-1.3-.7-1.8-1.1-.6-.4-1.1-1-1.5-1.5-.2-.3-.4-.6-.6-1-.1-.3-.2-.6-.2-.9-.1-.6-.1-1.1 0-1.7.1-.7.3-1.4.6-2.1.1-.3.3-.6.4-.9.1-.1.1-.3.2-.4.1-.3.1-.7 0-.8-.1-.4-.4-.7-.8-.8-.2-.1-.3-.1-.5-.1-.5-.1-1.1-.3-1.8-.5-.6-.3-1.1-.5-1.5-.8-.3-.3-.6-.5-.8-.8-.1-.2-.3-.4-.4-.6-.1-.2-.1-.4-.2-.7-.1-.7 0-1.4 0-2v-1.8c0-.3 0-.5-.1-.8-.1-.3-.2-.6-.3-.8-.2-.3-.5-.5-.8-.6-.2 0-.4-.1-.5-.1h-.5c-.2 0-.4.1-.6.1l-1.2.3c-.4.1-.8.2-1.1.3-.2.1-.5.1-.7.2-.2 0-.3.1-.5.1h-.1c-.4.1-.9.2-1.4.3-.1-.2-.3-.3-.5-.4h-.1c-.1 0-.1-.1-.2-.1l-.2-.2c-.1-.2-.2-.3-.3-.5-.4-1-.7-2-.8-3.1l-.1-.6c0-.3-.1-.9-.6-1.1-.3-.2-.7-.2-1 0-.2.1-.3.2-.4.4l-.1.1c-.1.1-.2.1-.2.2-.6.5-1.1 1-1.6 1.4l-.2.5c-.2.1-.3.2-.5.4-.6.4-1.1.7-1.6 1-.6.2-1.2.4-1.7.5-.7.1-1.3 0-2 0-.4-.1-.8-.2-1.1-.3-.3-.1-.5-.3-.8-.5-.4-.3-.7-.6-1-1l-.9-1.5c-.1-.1-.1-.2-.2-.4 0-.1-.1-.1-.1-.2-.2-.4-.4-.8-.8-1-.2-.1-.5-.2-.7-.2h-.3c-.2 0-.4.2-.5.3-.2.2-.3.4-.4.6l-.1.1c-.4.9-1 1.8-1.6 2.7-.4.5-.8 1-1.3 1.3-.4.3-.8.5-1.3.7-.6.2-1.1.4-1.7.5-.8.1-1.6.1-2.7-.1-.9-.1-1.6-.3-2.1-.5-.4-.2-.7-.3-.9-.5l-.6-.6c-.1.3-.1.2-.2.1s-.2-.3-.4-.4c-.1-.1-.3-.2-.5-.3-.2-.1-.4-.1-.6 0-.4.1-.8.5-.8 1 0 .2.1.5.1.7v.1c0 .2.1.3.1.5.1.2.1.5.2.8v1.9c-.1.6-.2 1.1-.4 1.6-.2.4-.4.7-.6 1-.3.4-.7.7-1 1-.4.3-.8.5-1.3.8-.5.2-1 .3-1.6.4-.5.1-1.1.1-1.7 0-1-.2-2-.5-2.8-.8-.1 0-.1-.1-.2-.1s-.2-.1-.3-.1h-.4c-.3 0-.6.2-.7.3-.2.2-.4.5-.4.9v.1c0 .1 0 .2.1.4l.1.1c0 .1.1.2.1.3.1.1.1.2.2.4l.1.2c.2.4.4.9.5 1.3.1.3.3.6.4 1 .3.8.7 1.6 1.1 2.4.1.3.2.6.3.8.3.8.6 1.7.7 2.7.1.7.1 1.4 0 2.1-.1.7-.3 1.4-.5 2-.2.5-.5.9-.7 1.3-.4.5-1 1.1-1.5 1.5l-.6.6c-.1.1-.2.2-.3.4-.2.2-.3.5-.4.7-.1.4-.1.7 0 1 .1.3.3.6.6.8.2.2.4.3.6.5l.3.2c.8.6 1.6 1.2 2.2 2 .3.4.6.9.8 1.4.3.7.5 1.5.6 2.3.1.7.1 1.4 0 2-.1.7-.3 1.5-.6 2.3-.3.7-.7 1.5-1.1 2.4l-.3.6-.3.6c-.2.4-.4.8-.5 1.2-.2.7-.1 1.7.7 2 .3.1.6.2.9.2.2 0 .3.1.5.1h.2c.4.1.9.2 1.3.2l.4.1c1 .1 2.1.3 3.1.6.2.1.3.1.5.2.8.4 1.6.8 2.2 1.3l.6.6c.1.2.2.3.3.5.1.2.2.5.2.7v.6c-.1.6-.3 1.3-.6 2l-.2.5c-.1.2-.1.4-.2.6-.1.3-.1.6-.2.9 0 .2 0 .5.1.8 0 .1.1.2.1.3.1.2.4.5.5.6.1.1.2.1.4.2h.1c.1 0 .3 0 .4.1.2 0 .4-.1.6-.1.5-.2 1.1-.3 1.7-.5.5-.1 1.1-.2 1.6-.3.2 0 .4 0 .6-.1.6-.1 1.2-.1 1.9 0s1.3.3 1.9.5c.6.2 1 .5 1.4.8l.5.4.1.1c.5.4.9.8 1.4 1.2l.2.2.5.5c.2.2.4.4.6.7l.1.2c.1.1.2.2.3.4.1.2.2.3.5.4.3.2.5.3.9.3.2 0 .3 0 .5-.1.5-.1.9-.6 1.1-.9.1-.1.2-.2.3-.4.1-.2.3-.4.4-.5l.1-.1c.2-.2.4-.5.6-.6l.1-.1.3-.3c.1-.1.2-.2.3-.2.5-.3.9-.6 1.3-.8.4-.2.8-.3 1.3-.3.6-.1 1.2-.1 1.8 0l1.2.3c.5.2.9.5 1.4.7.6.4 1.3.8 2.1 1 .7.2 1.4.1 1.9-.4.3-.3.5-.7.6-1.1v-.1c.1-.2.1-.3.2-.5s.1-.3.2-.5c.3-.6.5-1.1.8-1.5.2-.3.5-.5.8-.7.4-.3.8-.5 1.2-.7.5-.2 1.1-.4 1.6-.4.6-.1 1.1-.1 1.7 0 .4.1.9.2 1.3.3.1 0 .3.1.4.1.1 0 .2.1.2.1.1 0 .2.1.4.1l.3.1c.1 0 .2.1.3.1.3.1.6.2.9.2h.5c.2-.1.4-.1.6-.3.1-.1.2-.2.3-.4.1-.3.2-.5.2-.7v-4.5c0-.8.1-1.6.2-2.2.1-.6.2-1.2.3-1.7.1-.5.3-1.1.6-1.7.3-.6.5-1 .8-1.4.2-.2.4-.5.7-.7.6-.4 1.2-.8 1.9-1.1.2-.1.5-.2.7-.3.1 0 .2-.1.3-.1.1 0 .3-.1.4-.1.4-.1.7-.3.9-.6l.1-.2c.1-.1.1-.2.1-.3.1-.3 0-.6 0-.7-.1-.4-.2-.6-.4-.9l.1-.4c-.1-.2-.3-.4-.4-.6v-.1c-.2-.3-.4-.6-.5-1l-.6-1.2c-.2-.5-.3-.9-.4-1.3 0-.6 0-1.2.1-1.7v-.7zm-3.6 1.9c-.1 1.1-.3 2.2-.5 3.3-.2 1.2-.5 2.3-.9 3.5-.4 1.1-.9 2.2-1.4 3.3-.2.5-.5 1-.8 1.4-.3.5-.6 1-1 1.5-.3.4-.7.8-1.1 1.2-.5.5-1 .9-1.5 1.2-.9.7-1.8 1.2-2.8 1.7-1.1.5-2.2 1-3.4 1.4-1.1.3-2.2.7-3.3 1-.5.2-1.1.3-1.6.4-.6.1-1.2.3-1.8.4-.3.1-.6.1-.9.2-.4.1-.7.1-1.1.1-.5.1-1.1.1-1.6 0-2.3 0-4.6-.2-6.9-.6-.6-.1-1.3-.3-1.9-.4-.2-.1-.5-.1-.7-.2-.3-.1-.6-.1-.9-.2-.5-.2-1-.3-1.5-.5-.7-.3-1.3-.5-1.9-.8-.5-.2-1.1-.5-1.6-.8-.6-.3-1.2-.7-1.8-1.1-.6-.5-1.2-.9-1.7-1.4-.6-.6-1.2-1.2-1.7-1.9s-1-1.3-1.4-2.1c-.3-.6-.6-1.3-.9-1.9l-.6-1.5c-.2-.5-.4-1.1-.6-1.6-.3-.9-.6-1.8-.7-2.8-.1-.6-.2-1.3-.3-1.9 0-.4-.1-.8-.1-1.1v-3.2c0-.6.1-1.1.1-1.7.1-.7.2-1.4.3-2.2.4-2.4 1.3-4.6 2.2-6.8.2-.6.5-1.1.8-1.7.3-.5.5-1 .8-1.6.1-.2.2-.4.4-.6.2-.3.3-.5.5-.8.3-.5.6-.9.9-1.4.2-.3.4-.6.7-.9.2-.2.4-.5.6-.7.4-.4.7-.9 1.1-1.3.6-.6 1.2-1.3 1.9-1.8 1.3-1.1 2.6-2 4.1-2.6.8-.4 1.7-.7 2.5-1 .7-.2 1.5-.4 2.2-.5.8-.1 1.6-.2 2.3-.2.6 0 1.2 0 1.8.1 1.2.1 2.4.3 3.6.5.7.1 1.3.2 2 .4.2 0 .4.1.7.1l1.2.3c1.3.3 2.5.7 3.6 1.2 0 0 .1 0 .1.1.1 0 .1-.1.2-.1.2-.1.3-.1.5-.1h.5c.2.1.5.2.7.3.2.1.5.2.7.4.5.3 1 .6 1.4 1 .8.6 1.5 1.3 2.2 2.1.7.7 1.4 1.5 2 2.2.7.8 1.4 1.6 2.1 2.5V33v.1l.9 1.2c.3.4.5.8.7 1.3.2.5.5.9.7 1.4.2.5.4 1 .5 1.5.2.5.3 1 .4 1.5.1.5.2.9.3 1.4.2 1 .4 2.1.5 3.1.1 1.1.2 2.3.2 3.4.2 1.1.1 2.3 0 3.4z"
  />
  <path
    class="st16"
    d="M29.4 38.5c-.2.1-.3.2-.3.4-.1.4-.3.9-.4 1.3-.1.5-.3.9-.4 1.4-.1.5-.2 1-.2 1.4-.1.5-.1 1.1-.2 1.6V46c0 .5.1.9.3 1.3.1.4.4.8.7 1.1.3.3.7.5 1.2.6h.3c.1 0 .2 0 .3-.1.1 0 .2-.1.3-.2.1-.1.2-.1.3-.2.3-.3.6-.6.8-.9.1-.2.2-.4.2-.6.1-.2.1-.4.1-.7v-.6c0-.3 0-.5-.1-.8-.1-.4-.4-.8-.8-1.1-.1-.1-.3-.3-.5-.4-.1-.1-.2-.1-.3-.2-.1-.1-.2-.1-.3-.1-.1 0-.2-.1-.4-.1h-.3c-.1 0-.2 0-.3.1.1-.7.2-1.3.4-2 .1-.4.2-.7.3-1.1.1-.3.2-.6.3-1 .1-.4-.1-.8-.5-.9h-.2c0 .3-.2.4-.3.4zm.1 4.8zm0 1.2h.7c.1.1.2.1.4.2s.3.3.5.5c.1.1.2.3.2.4 0 .1 0 .2.1.2v.9c0 .1-.1.3-.1.4 0 .1-.1.2-.1.3-.2.2-.3.4-.5.5-.1 0-.1.1-.2.1h-.1c-.1 0-.2-.1-.3-.2-.1-.1-.2-.1-.2-.2-.1-.1-.1-.2-.2-.3-.1-.3-.2-.5-.2-.8-.2-.7-.2-1.3 0-2-.1 0-.1 0 0 0-.1 0-.1 0 0 0zm.8 3.5zm4.6-10.4c-.2 0-.4.2-.6.3-.2.1-.4.3-.5.5-.3.4-.6.9-.7 1.3-.3.7-.3 1.5-.3 2.2 0 .8.2 1.5.4 2.2.2.6.4 1.2.7 1.7 0 .1 0 .2.1.3.1.2.2.4.4.5.1.1.1.2.2.3l.6.6c.4.3.9.4 1.4.4.6 0 1.1-.3 1.5-.6.4-.3.7-.7.9-1.2.1-.2.1-.4.2-.7 0-.2.1-.4.1-.6v-1.1c0-.8-.1-1.6-.3-2.3-.1-.5-.3-.9-.5-1.4-.2-.5-.5-.9-.8-1.3-.3-.3-.7-.6-1-.8-.2-.1-.4-.2-.7-.2h-.4c-.4-.2-.6-.2-.7-.1zm.5 1.1c.1 0 .2 0 .3.1.1.1.3.1.4.2.2.2.4.4.5.6.2.3.4.6.6 1 .2.6.4 1.2.5 1.8.1.8.1 1.7 0 2.5 0 .2-.1.5-.2.7-.1.1-.1.2-.2.3l-.3.3c-.1.1-.2.1-.3.2-.1 0-.2.1-.3.1h-.2s-.1 0-.1-.1c-.2-.1-.4-.2-.6-.4l-.3-.3c-.1-.1-.1-.2-.2-.2v-.1c0-.1-.1-.1-.1-.1-.2-.2-.3-.5-.4-.7-.3-.7-.4-1.4-.5-2.1-.1-.6-.1-1.2 0-1.7.1-.3.1-.6.3-.9.1-.2.2-.4.4-.6l.3-.3c.1 0 .1-.1.2-.1h.2c-.1-.2 0-.2 0-.2zm2.3 3.6zm4.2-4.1v4c0 1.1 0 2.2.1 3.3v.3c0 .2 0 .4.1.5 0 .1.1.1.2.2s.3.1.4.1c.2 0 .4-.3.4-.5v-7.9c0-.3-.2-.5-.5-.5-.5-.1-.7.2-.7.5z"
  />
  <path
    class="st16"
    d="M42.1 38.4c-.2.1-.5.3-.5.6s.1.6.2.8c.1.1.3.2.4.1.1 0 .1-.1.1-.2v-.2s0-.1-.1-.1c0-.1-.1-.2-.1-.3V39l.1-.1c.1 0 .1-.1.2-.1s.2-.1.3-.1h.4c.2 0 .3.1.5.1.2.1.3.2.5.3.2.2.5.4.7.7.3.4.5.7.7 1.2.1.3.2.7.3 1.1v.8c-.1.3-.1.6-.3 1-.2.3-.3.7-.6 1-.1.2-.3.3-.5.5-.1.1-.2.2-.4.2-.1.1-.2.1-.3.1-.2.1-.4.1-.6.2h-.2c-.3 0-.5.2-.6.5-.1.3.1.7.4.8.2 0 .3.1.5.1s.4-.1.5-.1c.3-.1.6-.3.8-.4.6-.4 1-.9 1.3-1.5.2-.3.3-.6.4-.9.1-.3.2-.7.2-1.1.1-.7 0-1.3-.3-2-.1-.3-.3-.6-.4-.9-.2-.3-.4-.6-.6-.8l-.6-.6c-.1-.1-.3-.2-.4-.3-.1-.1-.3-.2-.4-.2-.3-.1-.6-.1-.9-.2-.1-.2-.5-.1-.7.1zm0 .7s0 .1 0 0c0 .1 0 0 0 0zm2.6.8zm3.1-2.7c0 .1-.1.1-.1.2-.1.1-.1.2-.1.4v.3c0 .2-.1.4-.1.6 0 .3-.1.6-.1.9-.1.7-.2 1.3-.2 2-.1.5-.1 1.1-.1 1.6-.1.9-.1 1.8-.2 2.6 0 .4.3.7.7.7.2 0 .3-.1.5-.2.1-.1.2-.3.2-.5 0-.7.1-1.5.1-2.2 0-.6.1-1.2.1-1.8 0-.2 0-.3.1-.5 0-.4.1-.7.1-1.1v-.3c.1.3.2.6.2.9.1.5.3 1 .4 1.4.2.5.4 1.1.5 1.6l.3.9c.1.3.2.6.4.9.2.2.4.4.7.3.1 0 .2-.1.3-.2.1-.1.2-.3.2-.4 0-.2-.1-.4-.1-.6 0-.1-.1-.2-.1-.4l-.3-.9c-.2-.6-.4-1.1-.6-1.7-.2-.5-.3-1-.5-1.5-.1-.3-.2-.7-.3-1-.1-.4-.2-.8-.3-1.1-.1-.2-.1-.4-.2-.6-.1-.1-.1-.2-.2-.3l-.2-.2c-.1-.1-.3-.2-.5-.2-.2.1-.5.2-.6.4z"
  />
  <path
    class="st16"
    d="M48.4 42c-.2 0-.4.2-.4.4s.2.5.4.4c1.1 0 2.1-.1 3.2-.2.1 0 .2 0 .3-.1.1-.1.1-.2.1-.3 0-.2-.2-.4-.4-.4h-.4c-.9.1-1.9.2-2.8.2zm3.1-4.8c-.3.3-.3.9 0 1.2.6.6 1.3 1.1 1.9 1.7.3.2.5.4.8.6.2.1.3.2.5.4.1.1.3.2.4.3.1.1.1.1.2.1.1.1.3.1.4.2h.4c.2-.1.3-.2.4-.3.2-.3.1-.8-.3-1 0 0-.1 0-.1-.1-1.2-1-2.3-2.1-3.5-3.1-.2-.2-.4-.2-.6-.2-.1-.1-.4 0-.5.2zm4.6 3z"
  />
  <path
    class="st16"
    d="M56.3 36.3c-.2.1-.4.3-.4.5-.3 1.5-.5 3-.8 4.5-.1.7-.2 1.3-.4 2-.1.3-.1.6-.2.9 0 .2-.1.3-.1.5s-.1.4-.1.6v.4c.1.2.2.4.4.5.2.1.4.1.6.1.2-.1.4-.2.5-.4.1-.1.1-.2.1-.4 0-.1 0-.2.1-.3 0-.2.1-.3.1-.5 0-.3.1-.6.1-.8.1-.7.2-1.4.4-2 .3-1.5.5-3.1.8-4.6 0-.2 0-.4-.1-.7-.1-.2-.3-.3-.5-.4h-.2c-.1 0-.2 0-.3.1zm-27 14.8c-.4.2-.7.5-.9.9-.2.4-.4.8-.5 1.2-.1.5-.2.9-.2 1.4v.7c0 .2.1.4.2.7.1.2.2.4.4.5.2.2.4.3.6.3.5.1 1 .1 1.4 0 .2-.1.5-.1.7-.2h-.1c.1 0 .2-.1.3-.2.1-.1.2-.2.2-.3 0-.3-.2-.5-.3-.7-.1-.2-.3-.3-.4-.4.1 0 .2-.1.3-.1.3-.1.6-.2.9-.2.2 0 .3-.2.2-.4 0-.1-.1-.1-.1-.2h-.2c-.2 0-.3.1-.5.1s-.3.1-.5.1c-.1 0-.3.1-.4.1-.1 0-.2 0-.3.1H30c-.1 0-.2.1-.3.1-.1 0-.1 0-.2.1 0 0-.1.1-.1.2s0 .2.1.3c0 0 .1.1.2.1s.1.1.2.1c.2.1.3.2.5.3l.3.3s0 .1.1.1c-.3.1-.6.2-.9.2h-.6c-.1 0-.2 0-.4-.1-.1 0-.1-.1-.1-.1-.1 0-.1-.1-.1-.1-.1-.1-.1-.2-.1-.3-.1-.2-.1-.4-.2-.6V54c.1-.4.2-.9.3-1.3.1-.2.2-.5.4-.7l.3-.3c.1 0 .1-.1.2-.1s.1 0 .2-.1h.2c.1 0 .1.1.2.1s.1.1.2.2c0 .1.1.1.1.2v.4c0 .1.1.2.2.2s.2-.1.2-.2v-.3c0-.1 0-.2-.1-.3-.1-.2-.2-.4-.4-.5-.2-.1-.3-.2-.5-.2h-.1c-.2-.1-.4-.1-.5 0zm1.6 4.7z"
  />
  <path
    class="st16"
    d="M29.5 56.9c-.2 0-.4 0-.6-.1-.3-.1-.5-.2-.7-.3-.2-.1-.3-.3-.4-.5s-.2-.4-.2-.7c0-.2-.1-.5 0-.7 0-.5.1-1 .2-1.4.1-.5.3-.9.5-1.3.3-.4.6-.8.9-.9.2-.1.5-.2.7-.1.2 0 .4.1.6.2.2.1.3.3.4.6.1.1.1.2.1.3v.3c0 .1 0 .2-.1.2-.1.1-.1.1-.2.1-.2 0-.3-.1-.3-.3V52c0-.1-.1-.1-.1-.2s-.1-.1-.1-.1l-.1-.1h-.4c-.1 0-.1.1-.2.1l-.3.3c-.1.2-.2.4-.4.7-.1.4-.3.8-.3 1.3-.1.4-.1.8 0 1 0 .2.1.3.2.5 0 .1.1.2.1.2l.1.1.1.1c.1 0 .2.1.3.1h.6c.3 0 .5-.1.8-.2l-.3-.3c-.1-.1-.3-.2-.5-.2h-.2c-.1 0-.1-.1-.2-.1-.1-.1-.1-.3-.1-.4 0-.1.1-.1.1-.2.1-.1.1-.1.2-.1s.2-.1.3-.1h.1l.3-.1c.1 0 .2-.1.3-.1.2 0 .3-.1.5-.1.1 0 .3 0 .4-.1h.4c.1 0 .1.1.2.2v.3c0 .1-.1.1-.2.2l-.3.1c-.2.1-.4.1-.6.2h-.2l.3.3c.2.2.3.5.3.8 0 .1-.1.3-.2.4-.1.1-.2.1-.3.2-.2.1-.4.2-.7.2-.3-.1-.6 0-.8 0zm.3-5.9c-.2 0-.3 0-.5.1-.3.2-.6.5-.9.9-.2.3-.4.7-.5 1.2-.1.4-.2.9-.2 1.4v.7c0 .2.1.4.2.6.1.2.2.3.3.5l.6.3c.4.1.8.1 1.4 0 .2-.1.5-.1.7-.2.1 0 .2-.1.2-.1.1-.1.1-.2.1-.3 0-.3-.2-.5-.3-.7-.1-.1-.2-.3-.4-.4l-.1-.1h.1c.1 0 .2-.1.3-.1.2-.1.4-.1.6-.2l.3-.1c.1 0 .1-.1.1-.1v-.2c0-.1-.1-.1-.1-.1h-.3c-.1 0-.3 0-.4.1-.2 0-.3.1-.5.1-.1 0-.2.1-.3.1l-.3.1h-.1c-.1 0-.2.1-.3.1-.1 0-.1 0-.1.1l-.1.1c0 .1 0 .2.1.3l.1.1h.2c.2.1.3.2.5.3l.3.3.1.1v.1h-.1c-.3.1-.6.2-.9.2H29c-.1 0-.3-.1-.4-.1-.1 0-.1-.1-.2-.1l-.2-.2c-.1-.1-.1-.2-.2-.3-.1-.2-.1-.4-.2-.6v-1.1c.1-.5.2-.9.3-1.3.1-.3.2-.5.4-.7l.3-.3c.1-.1.1-.1.2-.1s.1 0 .2-.1h.4c.1 0 .1.1.2.1l.2.2c0 .1.1.1.1.2s0 .1.1.2v.2c0 .1.1.2.2.2 0 0 .1 0 .1-.1v-.4c0-.1 0-.2-.1-.3-.1-.2-.2-.4-.4-.5-.2-.1-.3-.2-.5-.2.4.1.4.1.3.1zm1.1 4.9l-.1-.1.1.1zm1.6-3.8v1.6c0 .5.1 1.1.2 1.6.1.2.1.5.2.7 0 .1.1.2.1.3l.3.3c.1.1.2.1.4 0 .1 0 .2-.1.3-.2.2-.1.3-.3.5-.5.3-.4.4-.9.5-1.4.1-.3.1-.5.1-.8 0-.2 0-.4.1-.6v-.5c0-.1 0-.2-.1-.3 0-.1-.2-.2-.3-.2-.1 0-.2 0-.2.1-.1.1-.1.1-.1.2v1.1c0 .2 0 .3-.1.5 0 .2-.1.4-.1.6-.1.2-.1.4-.2.7l-.3.6-.2.2c-.1-.4-.2-.9-.3-1.4-.1-.8-.1-1.6-.1-2.4 0-.2-.2-.3-.3-.3-.2-.3-.4-.1-.4.1zm.8 2.3c0 .1 0 .1 0 0 0 .1 0 .1 0 0zm.3 1.5zm0 .1zm0 0z"
  />
  <path
    class="st16"
    d="M33.6 56.7c-.1 0-.2 0-.3-.1-.1-.1-.3-.2-.3-.3 0-.1-.1-.2-.1-.3v-.1c-.1-.2-.1-.5-.2-.7-.1-.5-.2-1.1-.2-1.6V52c0-.2.2-.4.4-.4.1 0 .2 0 .3.1.1.1.1.2.1.3v.1c0 .8 0 1.5.1 2.3.1.4.2.9.3 1.2l.1-.1c.1-.2.2-.3.3-.5.1-.2.2-.4.2-.7 0-.2.1-.4.1-.6v-.1c0-.1 0-.3.1-.4 0-.3.1-.7 0-1.1 0-.1 0-.2.1-.3.1-.1.2-.1.3-.1.2 0 .3.1.4.3v.9c0 .2 0 .3-.1.5v.1c0 .2-.1.5-.1.8-.1.6-.3 1-.5 1.4-.1.2-.3.4-.5.6-.1.1-.2.1-.3.2l-.2.2zm-1-4.6v1.6c0 .5.1 1.1.2 1.6.1.3.1.5.2.7v.1c0 .1.1.2.1.2 0 .1.1.2.2.2.1.1.2.1.3 0 .1 0 .2-.1.3-.1.2-.1.3-.3.4-.5.2-.4.4-.8.5-1.4.1-.2.1-.5.1-.7v-.1c0-.2 0-.3.1-.5v-.9c0-.1-.1-.2-.2-.2s-.1 0-.2.1c0 0-.1.1-.1.2v1.1c0 .1 0 .3-.1.4v.1c0 .2-.1.4-.1.6-.1.2-.1.4-.2.7l-.3.6-.2.2-.6-.4.5.1c-.1-.4-.2-.8-.3-1.3v-.1c-.1-.8-.1-1.5 0-2.3V52c0-.1 0-.1-.1-.2s-.1-.1-.2-.1c-.2.1-.3.2-.3.4zm3.8-1.4c-.1 0-.2.1-.2.2s-.1.2-.1.3v5.3c0 .1.1.3.3.3.1 0 .3-.1.3-.3v-5.1c.1.1.1.2.2.4s.2.4.3.7c.2.6.4 1.1.6 1.7.1.2.2.5.2.7.1.2.2.5.3.7.1.1.2.2.3.1.1 0 .3-.2.2-.3-.1-.3-.2-.7-.4-1-.1-.3-.2-.5-.3-.8-.1-.2-.1-.4-.2-.6-.1-.4-.3-.7-.4-1.1l-.3-.6c0-.1-.1-.2-.2-.2-.1-.1-.1-.2-.2-.3l-.2-.2h-.2c.1.1.1.1 0 .1zm.1.6zm.6 1.2c.1 0 .1 0 0 0 .1 0 .1 0 0 0z"
  />
  <path
    class="st16"
    d="M36.4 56.9c-.2 0-.3-.1-.3-.3v-5.1c0-.1 0-.2.1-.3 0-.1.2-.3.3-.3h.1c.1 0 .1 0 .2.1.1 0 .2.1.2.2.1.1.1.2.2.3v.1c0 .1.1.1.1.2l.3.6c.2.4.3.8.4 1.1l.2.6c0 .1.1.2.1.4 0 .1.1.3.1.4.1.2.1.3.2.5s.1.4.2.5v.3c0 .1-.1.2-.2.2-.2 0-.3 0-.4-.2-.1-.2-.2-.5-.3-.7l-.1-.2c-.1-.2-.1-.3-.2-.5v-.1c-.2-.5-.4-1.1-.6-1.6V53l-.3-.6c0-.1-.1-.1-.1-.2v4.7c0 .1 0 .2-.1.2.1-.2 0-.2-.1-.2zm.2-6.1h-.1c-.1 0-.2.1-.2.2s-.1.2-.1.3v5.1c0 .1.1.2.2.2 0 0 .1 0 .1-.1l.1-.1v-5.2l.1.2c.1.1.1.2.2.4l.3.6c.2.5.4 1.1.6 1.6v.1c.1.2.1.3.2.5l.1.2c.1.3.2.5.3.7 0 .1.1.1.2.1s.1-.1.1-.1v-.1c-.1-.2-.1-.4-.2-.5-.1-.2-.1-.3-.2-.5-.1-.1-.1-.3-.2-.4 0-.1-.1-.2-.1-.4l-.2-.6c-.1-.3-.2-.6-.4-1.1l-.3-.6c0-.1-.1-.1-.1-.2V51c0 .1 0 .1-.1 0 0-.1-.1-.1-.2-.1 0-.1-.1-.1-.1-.1zm-.2.5v-.1.1l.1-.1-.1.1z"
  />
  <path
    class="st16"
    d="M38.3 53.2c-.7.1-1.4.3-2 .4-.2 0-.3.2-.2.4 0 .2.2.3.4.2.7-.2 1.3-.3 2-.4.2 0 .2-.2.2-.4 0-.1-.1-.1-.1-.2h-.3c.1 0 .1 0 0 0z"
  />
  <path
    class="st16"
    d="M36.4 54.3c-.2 0-.3-.1-.4-.3v-.3l.2-.2h.2c.6-.1 1.2-.3 1.9-.4h.3c.1 0 .1.1.2.2v.3l-.2.2-1.5.3-.7.2c.1 0 0 0 0 0zm2-1c-.6.1-1.2.2-1.9.4h-.2c-.1 0-.1 0-.1.1v.2c0 .1.2.2.3.2l.5-.1 1.5-.3s.1 0 .1-.1v-.2c0-.1-.1-.1-.1-.1 0-.1-.1-.1-.1-.1zm1.9-2.9c-.1 0-.1.1-.2.1-.1.1-.1.2-.2.2 0 0 0-.1-.1-.1-.1-.1-.2-.1-.2-.1s-.2 0-.2.1c-.1.1-.1.2-.1.2.1 1.4.3 2.7.4 4.1 0 .2 0 .4.1.5 0 .2.1.4.1.6 0 .1 0 .1.1.2s.2.1.2.1c.2 0 .3-.2.3-.3v-1c0-.3 0-.6-.1-.9v-.2l.1.1c.2.2.4.4.6.5l.4.4.8.8c.1.1.3.1.4 0 .1-.1.1-.3 0-.4l-.9-.9-.5-.5-.3-.3c.1-.1.2-.1.3-.2.2-.1.3-.2.4-.4.1-.2.2-.4.2-.6.1-.4-.1-.9-.3-1.3-.1-.2-.2-.3-.3-.5-.1-.2-.3-.3-.5-.4-.1 0-.2-.1-.3-.1 0 .3-.1.3-.2.3zm.3.4h.1c.1 0 .1.1.2.1l.2.2c.1.1.2.3.3.5.1.2.1.3.1.5v.3c0 .1 0 .1-.1.2 0 .1-.1.1-.1.2l-.2.2c-.2.1-.3.2-.5.3-.1 0-.2.1-.2.1v-.1c-.1-.3-.1-.7-.2-1v-.6c0-.1 0-.3.1-.4.1-.1.1-.2.2-.3 0-.2 0-.2.1-.2-.1 0 0 0 0 0zm0 0c-.1 0-.1 0 0 0-.1 0-.1 0 0 0zm-.2.1zm.7.2z"
  />
  <path
    class="st16"
    d="M40.2 56.6c-.1 0-.2 0-.3-.1-.1-.1-.1-.1-.1-.2 0-.2-.1-.4-.1-.6l-.1-.5c-.2-1.4-.3-2.7-.4-4.1 0-.1.1-.2.1-.3.2-.2.4-.2.6 0 0-.1.1-.1.1-.2l.2-.2c.2-.1.4-.1.6 0 .2.1.4.2.5.4.2.2.3.3.4.5.3.5.4.9.3 1.3 0 .2-.1.4-.3.6-.1.2-.3.3-.5.4-.1 0-.1.1-.2.1l.3.3.5.5.9.9c.1.1.1.4 0 .5-.1.1-.4.1-.5 0l-.3-.3-.4-.4-.2-.2-.3-.3v-.1l-.4-.4c0 .2 0 .5.1.7v1.3c0 .1 0 .2-.1.3-.1.1-.3.1-.4.1zm-.5-5.9c-.1 0-.1 0-.2.1 0 0-.1.1-.1.2.1 1.4.3 2.8.4 4.1l.1.5c0 .2.1.4.1.6 0 0 0 .1.1.1.1.1.3.1.4 0 0-.1.1-.1.1-.2v-2.4l.2.1c.2.1.3.3.5.5l.1.1.3.3.1.1.4.4.3.3c.1.1.2.1.3 0 .1-.1.1-.2 0-.3-.2-.3-.5-.5-.9-.9l-.5-.5-.3-.3-.1-.1.1-.1c.1-.1.2-.1.3-.2.2-.1.3-.2.4-.4.1-.2.2-.3.2-.6.1-.4 0-.8-.3-1.2-.1-.2-.2-.3-.3-.5-.1-.2-.3-.3-.5-.3-.2-.1-.3-.1-.5 0-.1 0-.1.1-.2.1-.1.1-.1.1-.1.2l-.1.6-.1-.1v-.1c-.1 0-.2-.1-.2-.1zm.7 2.8h-.1v-.2c0-.1 0-.2-.1-.3 0-.2-.1-.5-.1-.7v-.7c0-.2.1-.3.1-.4.1-.1.1-.2.2-.3 0 0 .1 0 .1-.1h.1c.1 0 .1.1.2.1l.2.2c.1.1.2.3.3.5.1.2.1.3.1.5v.3c0 .1 0 .2-.1.2 0 .1-.1.1-.1.2-.1.1-.1.2-.2.2-.1.1-.3.2-.5.3.1.1 0 .1-.1.2zm.2-2.6c-.1 0-.1 0 0 0-.1.1-.2.2-.3.4 0 .1-.1.2-.1.4v.6c0 .2.1.5.1.7 0 .1 0 .2.1.3v.1c.1 0 .1 0 .2-.1.2-.1.4-.2.5-.3l.2-.2s.1-.1.1-.2 0-.1.1-.2v-.3c0-.1-.1-.3-.1-.5-.1-.2-.2-.3-.3-.4-.1-.1-.2-.2-.3-.2 0 0-.1-.1-.2-.1zm3.4-.4c-.1 0-.2.1-.2.2s-.1.1-.1.2 0 .2-.1.3v4.3c0 .2.2.4.4.4s.4-.2.4-.4v-3.7l.3 1.2c.1.3.2.7.2 1 .2.6.3 1.3.5 1.9 0 .1.1.1.1.2.1 0 .2.1.2 0 .2 0 .3-.2.2-.4l-.6-2.1c-.1-.4-.2-.7-.3-1.1-.1-.3-.1-.6-.2-.8 0-.1-.1-.2-.1-.4 0-.1-.1-.2-.1-.3 0-.1-.1-.2-.2-.3-.1-.1-.2-.2-.2-.3.1.2 0 .1-.2.1.1 0 .1 0 0 0z"
  />
  <path
    class="st16"
    d="M45.8 56.3c-.1 0-.1 0-.2-.1s-.1-.2-.2-.2c-.2-.6-.4-1.2-.5-1.8v-.1c-.1-.3-.2-.7-.2-1V53c-.1-.2-.1-.5-.2-.7v3.3c0 .1 0 .2-.1.3s-.2.1-.3.1c-.2 0-.4-.2-.4-.4v-4.7s0-.1.1-.1v-.1c.1-.2.2-.2.3-.3.1 0 .3 0 .4.1.1.1.2.1.2.2.1.1.1.2.2.3 0 .1.1.2.1.3v.1c0 .1.1.2.1.4.1.3.2.6.2.8l.3 1.1.6 2.1v.3c-.1.1-.1.2-.2.2h-.2zm-1.5-4.8l.1.4c.1.4.2.8.3 1.1v.1c.1.3.2.7.2 1v.1c.2.6.3 1.2.5 1.8 0 .1.1.1.1.1h.2c.1 0 .1-.1.1-.1v-.2l-.6-2.1-.3-1.1c-.1-.3-.1-.6-.2-.8 0-.1-.1-.2-.1-.4v-.1c0-.1-.1-.2-.1-.3 0-.1-.1-.2-.2-.3 0-.1-.1-.1-.2-.2-.1 0-.2-.1-.3-.1-.1 0-.1.1-.2.2v.1s0 .1-.1.1v4.7c0 .2.1.3.3.3.1 0 .1 0 .2-.1s.1-.1.1-.2v-3.2l.2-.8z"
  />
  <path
    class="st16"
    d="M45.9 52.7c-.3.1-.7.2-1 .3-.4.1-.7.2-1.1.2-.2 0-.3.2-.2.4 0 .1.1.1.1.2h.2c.4-.1.7-.2 1.1-.2.3-.1.7-.2 1-.3.2-.1.3-.2.2-.4.1-.1 0-.2-.3-.2.1 0 .1 0 0 0z"
  />
  <path
    class="st16"
    d="M43.9 53.9c-.1 0-.1 0-.2-.1s-.2-.1-.2-.2v-.3l.2-.2c.4-.1.7-.2 1.1-.2.3-.1.7-.2 1-.3h.1c.2 0 .3.1.4.3.1.2-.1.4-.3.5-.3.1-.7.2-1 .3-.4.1-.7.2-1.1.2.1 0 .1 0 0 0zm2.1-1.1c-.4.1-.8.2-1.1.3-.3.1-.7.2-1.1.2-.1 0-.1 0-.1.1v.2c0 .1.1.1.1.1h.2c.4-.1.7-.2 1.1-.2.3-.1.7-.2 1-.3.1 0 .2-.2.2-.3-.1 0-.2-.1-.3-.1zm2.7-2.4c-.1 0-.1.1-.1.2s-.1.2-.1.3v.4c0 .1 0 .2.1.3 0 .2.1.3.1.5.1.4.1.7.2 1.1v.5c-.1-.1-.1-.2-.2-.3-.1-.1-.2-.2-.2-.3-.1-.1-.1-.2-.2-.3-.1-.2-.2-.3-.3-.5-.1-.2-.3-.5-.4-.7-.1-.1-.1-.2-.2-.3l-.3-.6c-.1-.1-.3-.2-.4-.1-.1 0-.2.1-.2.2v.4c0 .2 0 .4.1.5 0 .3.1.5.2.8.1.3.2.6.2.9 0 .2.1.3.1.5.1.2.1.4.2.6l.3.6c.1.1.3.1.5 0 .1-.1.1-.3 0-.5-.1-.1-.1-.2-.1-.3-.1-.3-.2-.7-.3-1.1-.1-.2-.1-.4-.2-.6v-.2c.1.1.1.2.2.3.1.1.1.2.2.3.1.2.2.3.3.5.1.1.2.2.3.4l.3.3c0 .1.1.1.1.2 0 0 .1.1.2.1s.1.1.2.1.2-.1.3-.1c.1-.1.1-.1.1-.2v-.7c0-.4-.1-.7-.1-1.1 0-.2-.1-.5-.1-.7 0-.3-.1-.6-.1-.9v-.6c0-.1-.1-.1-.2-.1h-.1c-.3.1-.4.1-.4.2zm.4.3z"
  />
  <path
    class="st16"
    d="M47.8 55.3c-.1 0-.2 0-.3-.1-.2-.2-.3-.4-.3-.6-.1-.3-.2-.5-.2-.6 0-.2-.1-.3-.1-.5-.1-.3-.2-.6-.2-.9-.1-.3-.1-.6-.2-.8 0-.2 0-.4-.1-.5v-.4c0-.1.1-.2.2-.3.1-.1.2-.1.3 0 .1 0 .2.1.2.2l.3.6c0 .1.1.1.1.2l.2.3c.1.2.2.3.3.5l.3.5c0 .1.1.1.1.2l.1.1c.1.1.1.2.2.2l.1.1v-.3c0-.4-.1-.7-.2-1.1v-1.2c0-.1 0-.2.1-.3 0-.1.1-.2.2-.2.1-.1.2-.1.3 0 .1 0 .2.1.2.2s.1.1.1.2v.3c0 .2.1.3.1.5 0 .1 0 .2.1.3v.1c0 .2.1.4.1.6v.2c0 .3.1.6.1.8v.8c0 .1-.1.2-.1.2-.1.1-.2.2-.3.2-.1 0-.2 0-.3-.1-.1 0-.1-.1-.2-.1 0-.1-.1-.1-.1-.2l-.3-.3-.1-.1c-.1-.1-.1-.2-.2-.3l-.1-.1c-.1-.1-.2-.2-.2-.3 0-.1-.1-.1-.1-.2v.1l.1.4.3.9c0 .1.1.2.1.3.2.2.1.4 0 .6-.4-.2-.5-.1-.6-.1zm-1.3-4.4v.3c0 .2 0 .4.1.5 0 .2.1.5.2.8.1.3.1.6.2.9 0 .2.1.3.1.5s.1.4.2.6l.3.6s.1.1.2.1.1 0 .2-.1.1-.2 0-.3c-.1-.1-.1-.2-.2-.3l-.3-.9-.1-.4c0-.1-.1-.3-.1-.4l-.2-.8.3.5c0 .1.1.2.1.3 0 0 0 .1.1.1 0 .1.1.1.1.2.1.1.1.2.2.3l.1.1c.1.1.1.2.2.2l.1.1.3.3c0 .1.1.1.1.2l.1.1c.1 0 .1 0 .2.1.1 0 .2-.1.2-.1 0-.1.1-.1.1-.2v-.8c0-.3-.1-.6-.1-.8v-.2c0-.2-.1-.4-.1-.6v-.1c0-.1 0-.2-.1-.3 0-.2-.1-.3-.1-.5v-.4c0-.1-.1-.1-.1-.1h-.2c-.1 0-.1.1-.1.1 0 .1-.1.2-.1.3V52c.1.4.1.7.2 1.1v.7l-.1-.1-.2-.3c-.1-.1-.1-.2-.2-.2l.2-.2c-.1-.1-.1-.2-.1-.2l-.3-.5c-.1-.2-.2-.3-.3-.5l-.2-.3c0-.1-.1-.1-.1-.2l-.3-.6c0-.1-.1-.1-.1-.1h-.2c-.1 0-.1.1-.1.2-.1 0-.1 0-.1.1zm2.6-.2zm0 0zm3.6-1.6c-.9.1-1.7.2-2.6.4-.1 0-.1.1-.1.1v.2c0 .1.1.1.1.1h.2c.4-.1.9-.1 1.3-.2s.8-.1 1.2-.2c.1 0 .1-.1.1-.2s0-.1-.1-.1c0-.1-.1-.1-.1-.1z"
  />
  <path
    class="st16"
    d="M50.2 49.9h-.1c-.1 0-.1-.1-.1-.2v-.2c0-.1.1-.1.2-.1.8-.1 1.7-.2 2.6-.4.1 0 .2 0 .2.1.1 0 .1.1.1.2s-.1.2-.2.3c-.3.1-.6.1-1 .2h-.2c-.6 0-1 .1-1.5.1zm2.5-.8c-.8.2-1.7.3-2.5.4 0 0-.1 0-.1.1v.1s0 .1.1.1h.1c.4-.1.9-.1 1.3-.2h.2c.3 0 .6-.1 1-.2l.1-.1v-.1c-.2 0-.2 0-.2-.1z"
  />
  <path
    class="st16"
    d="M50.9 49.6c.1.9.1 1.7.2 2.6 0 .4.1.8.1 1.2v.5c0 .2 0 .5.1.7 0 .2.2.3.4.3.1 0 .1 0 .2-.1.1 0 .2-.1.2-.2v-.4c0-.1 0-.1-.1-.2 0-.2 0-.4-.1-.6 0-.4-.1-.8-.1-1.2-.1-.9-.1-1.7-.2-2.6 0-.1 0-.2-.1-.3-.1-.1-.2-.1-.3-.1-.1 0-.3.2-.3.4z"
  />
  <path
    class="st16"
    d="M51.7 55.1c-.2 0-.4-.2-.5-.4-.1-.3-.1-.5-.1-.7v-.5c0-.4-.1-.8-.1-1.2-.1-.9-.1-1.7-.2-2.6 0-.1 0-.2.1-.3.1-.1.2-.2.4-.2.1 0 .3.1.4.1.1.1.1.2.1.3.1.9.1 1.8.2 2.6 0 .4.1.8.1 1.2v.6c0 .1.1.2.1.2v.4c0 .1-.1.2-.2.3-.1.1-.2.2-.3.2zm-.7-5.5c.1.9.1 1.8.2 2.6 0 .4.1.8.1 1.2v.5c0 .2 0 .5.1.7 0 .1.2.2.3.2h.2c.1 0 .1-.1.2-.2v-.4c0-.1 0-.1-.1-.2 0-.2 0-.4-.1-.6 0-.4-.1-.8-.1-1.2-.1-.8-.1-1.7-.2-2.6 0-.1 0-.2-.1-.3-.1-.1-.4-.1-.5 0v.3zm3-.6c-.1.1-.1.2-.1.3-.1.9-.2 1.9-.3 2.8 0 .3 0 .5-.1.8v.6c0 .1 0 .1.1.2 0 .1.1.1.1.1s.1.1.2.1h.4c.1 0 .3-.1.4-.1.1 0 .2-.1.3-.1.2-.1.4-.2.5-.2.1 0 .1-.1.2-.1.1-.1.2-.2.1-.4 0-.1-.1-.1-.1-.2-.1 0-.2-.1-.2 0-.2.1-.4.1-.6.2-.1 0-.2.1-.3.1-.1 0-.2.1-.3.1v-1.7c.1-.7.1-1.5.2-2.2 0-.1 0-.2-.1-.3-.1-.1-.2-.1-.3-.1 0 0-.1 0-.1.1z"
  />
  <path
    class="st16"
    d="M54.1 54h-.2c-.1 0-.2-.1-.2-.1l-.1-.1c0-.1-.1-.1-.1-.2v-1.4c.1-.9.2-1.9.3-2.8v-.1c0-.1 0-.2.1-.3.2-.2.5-.2.6 0 .1.1.1.2.1.3-.1.8-.2 1.6-.2 2.2v1.6h.3c.1 0 .2 0 .3-.1.2-.1.4-.1.6-.2h.3c.1 0 .2.1.2.2 0 .2 0 .4-.2.4 0 0-.1.1-.2.1-.2.1-.4.2-.5.2h-.1c-.1 0-.1.1-.2.1h-.1c-.1 0-.2.1-.3.1h-.1c-.2.1-.3.1-.3.1zm-.1-5c-.1.1-.1.1-.1.2v.1l-.3 2.7v1.3s0 .1.1.2c0 0 0 .1.1.1 0 0 .1.1.2.1h.4c.1 0 .2 0 .3-.1h.1c.1 0 .1 0 .2-.1h.1c.2-.1.4-.2.5-.2.1 0 .1-.1.1-.1.1 0 .1-.2.1-.3 0-.1-.1-.1-.1-.1h-.2c-.2.1-.4.2-.6.2-.1 0-.2.1-.3.1h-.1c-.1 0-.2 0-.3.1h-.1v-1.7c.1-.6.1-1.4.2-2.2 0-.1 0-.1-.1-.2.1-.2-.1-.2-.2-.1z"
  />
  <path
    class="st16"
    d="M55.7 51c-.6.1-1.1.1-1.7.1-.2 0-.4.2-.4.4s.2.4.4.4c.3 0 .6 0 .9-.1.3 0 .6-.1.9-.1.1 0 .2-.2.2-.3 0-.1 0-.2-.1-.2 0-.2-.1-.2-.2-.2z"
  />
  <path
    class="st16"
    d="M54 51.9c-.1 0-.2 0-.3-.1-.1-.1-.1-.2-.1-.3 0-.2.2-.4.4-.4.6 0 1.1-.1 1.7-.1v-.1c.1 0 .2.1.3.1.1.1.1.2.1.3 0 .2-.1.4-.3.4-.3 0-.5.1-.9.1-.3.1-.6.1-.9.1zm1.7-.9c-.5.1-1 .2-1.7.2-.2 0-.3.1-.3.3 0 .1 0 .2.1.2s.1.1.2.1c.3 0 .5 0 .8-.1.3 0 .6-.1.9-.1.1 0 .2-.1.2-.2s0-.1-.1-.2c0-.1-.1-.2-.1-.2zm.4-1.9c-.8.1-1.5.3-2.3.4-.1 0-.1.1-.2.1v.2c0 .1.1.1.1.2h.2c.8-.1 1.5-.3 2.3-.4.1 0 .2-.2.2-.3 0-.1-.1-.1-.1-.2h-.2c.1 0 0 0 0 0z"
  />
  <path
    class="st16"
    d="M53.9 50.1h-.2c-.1 0-.1-.1-.2-.2v-.3c0-.1.1-.1.2-.2.7-.1 1.5-.2 2.2-.4h.2c.1 0 .1.1.1.2v.3c0 .1-.1.1-.2.1-.5.3-1.2.4-2.1.5.1 0 0 0 0 0zm2.2-.9c-.7.1-1.5.3-2.2.4 0 0-.1 0-.1.1v.2s0 .1.1.1h.2c.8-.1 1.5-.2 2.3-.4 0 0 .1 0 .1-.1v-.1s0-.1-.1-.1c-.2-.1-.2-.1-.3-.1zm.7-.4v4.1c0 .1 0 .2.1.3v.1c0 .1.1.1.1.1.1.1.3.1.4.1.1 0 .2-.1.3-.2.1 0 .2-.1.3-.1l.6-.3c.1-.1.2-.2.2-.4s-.2-.3-.4-.2c-.3.1-.6.2-.8.3v-3.7c0-.2-.2-.4-.4-.4-.3-.1-.4 0-.4.3zm.7 4.1z"
  />
  <path
    class="st16"
    d="M57.2 53.6c-.1 0-.2 0-.3-.1-.1 0-.1-.1-.2-.2 0 0 0-.1-.1-.1 0-.1-.1-.2-.1-.3v-4.1c0-.3.2-.5.5-.5.1 0 .3.1.4.2.1.1.1.2.1.3v3.6c.2-.1.4-.1.5-.2l.2-.1h.3c.1.1.2.2.2.3 0 .2 0 .4-.2.5l-.6.3h-.1c-.1 0-.1.1-.2.1s-.2.1-.3.1c0 .1 0 .2-.1.2zm0-5.2c-.2 0-.3.1-.3.3v4.1c0 .1 0 .2.1.2v.1c0 .1.1.1.1.1.1.1.2.1.4 0 .1 0 .2-.1.3-.1.1 0 .1-.1.2-.1h.1l.6-.3c.1-.1.1-.2.1-.3 0-.1-.1-.1-.1-.2h-.2l-.2.1c-.2.1-.4.1-.6.2h-.1v-3.8c0-.1 0-.2-.1-.2-.2 0-.2-.1-.3-.1zm.3 4.5l.1-.1-.1.1z"
  />
  <path
    class="st16"
    d="M58.7 50.5c-.5.2-1.1.4-1.6.6-.1 0-.2.1-.2.2s-.1.2 0 .3c0 .2.2.3.4.2.6-.2 1.1-.4 1.7-.6.1 0 .1-.1.1-.1 0-.1.1-.2 0-.3 0-.1-.1-.2-.2-.2 0-.1-.1-.2-.2-.1 0-.1 0-.1 0 0z"
  />
  <path
    class="st16"
    d="M57.2 51.8H57c-.1-.1-.2-.2-.2-.3v-.3l.2-.2.4-.1c.4-.1.8-.3 1.2-.4h.3c.1.1.2.1.2.2v.3c0 .1-.1.1-.1.1-.5.2-1.1.4-1.7.6l-.1.1zm1.5-1.3c-.4.2-.8.3-1.3.4l-.4.1c-.1 0-.1.1-.2.1v.2c0 .1.1.1.1.2h.2c.6-.2 1.2-.4 1.7-.6 0 0 .1 0 .1-.1v-.2c0-.1-.1-.1-.1-.2.1.1 0 .1-.1.1zm.3-1.9c-.6.2-1.2.3-1.8.5-.2.1-.3.2-.2.4 0 .2.2.3.4.2.6-.2 1.2-.3 1.8-.5.2-.1.3-.2.2-.4 0-.1-.1-.2-.4-.2.1 0 .1 0 0 0z"
  />
  <path
    class="st16"
    d="M57.3 49.8c-.1 0-.1 0-.2-.1s-.2-.1-.2-.2c-.1-.2.1-.4.3-.5.6-.2 1.2-.3 1.8-.5.2-.1.4.1.5.3.1.2-.1.4-.3.5-.5.1-1 .3-1.5.4l-.3.1h-.1zm1.8-1.1c-.7.2-1.3.4-1.9.5-.1 0-.2.2-.2.3 0 .1.1.1.1.2h.2l.3-.1c.5-.1 1-.3 1.5-.4.1 0 .2-.2.2-.3 0-.2-.1-.2-.2-.2z"
  />
  <path
    class="st18"
    d="M33 63.5l-.2.2c0 .1-.1.2-.1.3 0 .1-.1.1-.1.2-.1.1-.1.3-.2.4-.1.3-.2.5-.3.8 0 .1-.1.2-.1.3h-.1c-.3.1-.6.1-.8.2 0-.1 0-.2-.1-.3-.1-.1-.2-.1-.3-.1-.1 0-.2 0-.3.1l-.1.1c-.1.1-.1.2-.1.3 0 .1 0 .2.1.2v.3c0 .1.1.2.2.2.1.1.2.1.3 0h.2c.2.1.4.3.5.4 0 .1-.1.2-.1.3 0 .1-.1.2-.1.3-.1.1-.1.3-.2.4-.1.2-.1.3-.1.5v.2c0 .1.1.1.2.1h.2c.1 0 .2 0 .2-.1.1-.1.2-.2.3-.2.1-.1.2-.2.3-.2.2-.1.3-.3.5-.4l.1.1.3.3.2.2c.1.1.2.2.2.3l.2.2c.1 0 .1.1.2.1h.2c.1 0 .2-.1.2-.2v-.4c-.1-.2-.1-.5-.2-.8-.1-.2-.1-.4-.1-.7V67c.2-.1.3-.3.5-.4.2-.2.5-.4.7-.5.2-.1.3-.3.5-.4.2-.1.3-.3.4-.5.1-.1.1-.2 0-.3 0-.1-.1-.2-.2-.2h-.3c-.1 0-.3 0-.4.1-.1 0-.2.1-.4.1-.2.1-.4.1-.7.2-.1 0-.2.1-.3.1v-1.6c0-.1-.1-.2-.1-.3h-.2c-.4.1-.4.1-.5.2zm0 1.5v.4c-.1 0-.1 0-.2.1 0-.2.1-.3.2-.5zm-2 .7c0 .1 0 0 0 0zm2.9.2c.2-.1.4-.1.5-.2l-.1.1c-.2.2-.5.4-.7.5V66c.1 0 .2 0 .3-.1zm-.9.3v.7c-.1.1-.3.2-.4.3l-.1-.1-.3-.3c.1-.1.1-.3.2-.4.2-.1.4-.2.6-.2zm.8 1.1zm-1.9.3c0-.1 0-.1.1-.2l.2.2-.2.2c-.1 0-.1.1-.2.1 0-.1 0-.2.1-.3zm1.3 0zm-.7-3c0-.1 0-.1 0 0 0-.1 0 0 0 0zm7.2-.1c-.1.1-.1.1-.1.2l-.1.1c0 .1-.1.2-.1.2-.1.2-.2.3-.3.5-.2.3-.4.7-.6 1h-.8c-.1 0-.1-.1-.2-.1 0-.2-.2-.4-.4-.4-.1 0-.3 0-.4.1-.1.1-.2.3-.1.5 0 .1 0 .1.1.1v.1c0 .1.1.1.2.1s.1 0 .2.1.2.2.3.2c.2.1.3.3.5.4-.1.2-.3.5-.4.7-.1.2-.2.5-.3.7-.1.1-.1.2-.1.4v.5c0 .1 0 .2.1.2.1.1.2.1.2.1h.2c.1 0 .1 0 .2-.1.1 0 .2-.1.2-.1.1-.1.2-.1.3-.2.2-.1.3-.2.5-.3.1-.1.3-.2.4-.2l.1-.1c.1.2.3.4.4.6.1.1.2.3.3.4 0 .1.1.2.1.2 0 .1.1.2.2.2.1.1.3.1.4 0 .1-.1.2-.3.2-.4l-.3-1.5c0-.1 0-.2-.1-.3h.1c.2-.1.4-.3.6-.4.1-.1.2-.1.3-.2.1-.1.2-.2.3-.2l.3-.3v-.2c0-.1 0-.1-.1-.2l-.2-.2c-.1 0-.2-.1-.2-.1h-1.4v-1.5c0-.1 0-.2.1-.3 0-.1 0-.3-.1-.4H40c-.2 0-.3.1-.3.1zm.4.7zm-.7.9v.6H39c.2-.3.3-.5.4-.6zm-.6 1.1h.8v.3c0 .3.1.5.1.8-.1 0-.1.1-.2.1-.1-.1-.1-.2-.2-.3-.2-.3-.4-.5-.7-.7.1 0 .1-.1.2-.2zm1.4.1h1l-.9.6c0-.2-.1-.4-.1-.6zm-2 .9c.2.2.4.4.6.7-.1.1-.3.2-.4.2-.2.1-.3.2-.5.3-.1 0-.2.1-.3.1.2-.4.4-.9.6-1.3zm7.7-2.7c0 .1 0 .1 0 0 0 .2-.1.3-.2.5s-.1.3-.2.5-.1.3-.2.5c-.5 0-1-.1-1.6-.1-.3 0-.5.2-.5.5 0 .1.1.3.1.3.1.1.1.1.2.1v.2c0 .1.1.2.2.3.1.1.2.1.2.2.2.1.3.2.5.3-.1.2-.2.4-.3.7 0 .1-.1.2-.1.4-.1.1-.1.3-.2.4 0 .1-.1.2-.1.4v.2c0 .1.1.1.1.2s.1.1.2.2h.3c.1 0 .1-.1.2-.1s.2-.1.2-.2c.1 0 .1-.1.2-.1.1-.1.2-.2.3-.2.2-.1.4-.3.6-.4h.1c.2.2.5.4.7.6.1.1.2.1.3.1.1 0 .2-.1.2-.2v-.2c0-.1 0-.1-.1-.2-.1-.2-.1-.4-.2-.5 0-.1 0-.1-.1-.2.2-.1.3-.3.5-.4.1-.1.3-.2.4-.4.1-.1.1-.2.2-.2 0-.1.1-.2.1-.2.1-.2.1-.4-.1-.5l-.1-.1c-.1-.1-.2-.1-.3-.2h-1.2c0-.2-.1-.3-.1-.5s0-.4-.1-.5v-.6c0-.1-.1-.3-.2-.3h-.1c.3-.6.2-.4.2-.3zM44.5 68h.5c0 .1-.1.2-.1.2-.2 0-.3-.1-.4-.2zm1.1.1h.5v.2c0 .2.1.4.1.5v.1h-.1l-.2.2c-.1-.1-.2-.1-.2-.2-.1-.1-.3-.2-.4-.3.2-.2.3-.4.3-.5zm1.3.2v-.2h.3c-.1.1-.2.2-.3.2 0 .1 0 .1 0 0zM45 69.6c0-.1.1-.2.1-.3.1.1.2.2.4.3-.1.1-.3.2-.4.3-.1 0-.2.1-.2.1 0-.1.1-.3.1-.4zm-.7 0c0-.1 0-.1 0 0 0-.1 0-.1 0 0zm6.3-6.1v.3c0 .1 0 .3.1.4 0 .1 0 .2.1.3l-1.5.3c-.2 0-.3.2-.2.4 0 .1.1.2.2.2s.2.1.3 0c.5-.1.9-.2 1.4-.3-.1.3-.1.6-.2 1v.1c-.1-.1-.2-.2-.4-.3-.1 0-.1-.1-.2-.1 0 0-.1 0-.1-.1-.1-.1-.2-.1-.3-.1h-.3c-.1.1-.2.2-.2.3 0 .1 0 .1.1.2 0 .1.1.1.2.2h.1c.1.1.2.1.3.2.1.1.2.1.3.2.1.1.2.1.3.2 0 .1-.1.2-.1.4-.1.2-.1.5-.2.7 0 .1 0 .2-.1.3v.4c0 .1.1.2.2.2.1.1.2.1.3 0 0 0 .1 0 .1-.1.1 0 .1-.1.2-.2 0-.1.1-.1.1-.2.1-.1.1-.2.2-.3.1-.1.2-.3.3-.4h.1c.3.2.5.5.8.7.1.1.3 0 .4-.1l.1-.1v-.3c0-.1-.1-.2-.2-.3 0-.1-.1-.2-.1-.3-.1-.1-.1-.3-.2-.4 0-.1-.1-.2-.1-.3v-.1c.2-.2.3-.5.5-.7.1-.2.3-.4.4-.6 0-.1.1-.1.1-.2.1-.1.1-.2.2-.3.1-.1.1-.3.2-.4.1-.1.1-.2 0-.3-.1-.1-.2-.2-.3-.2-.2 0-.3 0-.5.1-.1 0-.3.1-.4.1-.1 0-.3.1-.4.1-.2 0-.3.1-.5.1 0-.2 0-.4-.1-.6v-.4c0-.1-.1-.2-.2-.2s-.2-.1-.2-.1c-.5.3-.6.5-.6.6zM52 65c.1 0 .3-.1.4-.1h.1c-.1.1-.1.2-.2.2-.1.2-.3.4-.4.6-.1.1-.1.2-.2.3 0-.1 0-.2-.1-.2-.1-.2-.1-.5-.2-.7.3 0 .5-.1.6-.1zm-.8 1.4v-.1c0 .1 0 .2.1.2 0 .1 0 .1.1.2 0 .1-.1.1-.1.2l-.1-.1c-.1-.2-.1-.3 0-.4zm1 .7s0 .1 0 0c0 .1 0 0 0 0zm-2.1 1.3z"
  />
  <path
    class="st18"
    d="M56.4 61.2v.2c-.1.4-.1.7-.3 1 0 .1-.1.2-.1.4-.5.1-1 .2-1.5.4-.1 0-.2-.1-.3-.1-.2-.1-.5-.1-.6.2-.1.2 0 .5.2.6.1.1.2.1.3.2.1 0 .2.1.3.1.3.2.6.3.8.5-.2.4-.3.8-.5 1.2v-.1c-.1.2-.2.4-.3.7 0 .1-.1.2-.1.3 0 .1-.1.2-.1.3v.1c0 .1 0 .1.1.2s.2.1.3.2h.2c.1 0 .1 0 .2-.1.1 0 .1-.1.1-.2l1.2-1.5.2.2.4.4.2.2s.1 0 .1.1h.2c.1 0 .2 0 .3-.1.1-.1.1-.2.1-.4-.1-.3-.2-.5-.3-.8 0-.1-.1-.3-.1-.4 0-.2-.1-.3-.1-.5l.6-.9c.1-.1.1-.2.2-.3.1-.1.1-.3.1-.4 0-.1-.1-.2-.2-.3-.1-.1-.3-.1-.5-.1h-.6v-.4c0-.3 0-.5-.1-.8v-.2c0-.1-.2-.2-.3-.2.1 0-.1.1-.1.3zm1.1 2c0 .1-.1.2-.1.3v-.3h.1zm-.9.1c0 .2.1.4.1.6 0 .1 0 .2.1.3-.1.1-.2.2-.3.4l-.3-.3c.1-.1.1-.3.2-.4 0-.2.1-.4.2-.6zm-1.1.3c.1 0 .2 0 .2-.1 0 .1-.1.2-.1.2-.1-.1-.2-.1-.2-.2 0 .1.1.1.1.1zm1 1zm-1 1.2c.1-.2.2-.5.3-.7.1 0 .1.1.2.1l-.3.3c-.1.1-.1.2-.2.3z"
  />
  <path
    class="st16"
    d="M57.7 57.7h-.9c-.7 0-1.4.1-2 .1-.7 0-1.4.1-2.1.2-.5 0-1.1.1-1.6.1-.6 0-1.2.1-1.7.1-.8 0-1.6.1-2.4.1-1.1.1-2.3.1-3.4.2-.7.1-1.3.1-2 .2s-1.4.1-2.1.2c-1.3.1-2.6.3-3.9.4-1.1.1-2.3.2-3.4.4-.5.1-1 .1-1.5.2-.4.1-.9.1-1.3.2-.8.1-1.7.2-2.5.4-.7.1-1.3.2-2 .2-.2 0-.3.1-.5.2-.1.1-.2.3-.2.5s.1.3.2.5c.1.1.3.2.5.2.6-.1 1.2-.1 1.7-.2.4-.1.8-.1 1.3-.2.9-.1 1.7-.3 2.6-.4 2.6-.3 5.1-.6 7.7-.9.5-.1 1.1-.1 1.6-.2.6-.1 1.2-.1 1.8-.2l3.9-.3c1.3-.1 2.6-.2 3.9-.2.7 0 1.3-.1 2-.1.5 0 1-.1 1.6-.1.6 0 1.2-.1 1.8-.1.4 0 .8-.1 1.2-.1h.7c.6 0 1.3-.1 1.9-.1h3.3c.2 0 .5 0 .7-.1.2 0 .5-.1.7-.2.2-.1.4-.3.4-.5s-.2-.5-.5-.5h-1c-.3-.1-.6-.1-.9-.1h-2.9c-.1 0-.4.1-.7.1z"
  />
  <path
    class="st16"
    d="M25 62.4c-.3 0-.6-.2-.7-.3-.2-.2-.3-.5-.3-.8 0-.3.1-.6.3-.8.2-.2.5-.3.7-.3.5 0 1-.1 1.5-.2l.7-.1c.7-.1 1.5-.2 2.3-.3h.3c.3 0 .7-.1 1-.1.5-.1 1-.1 1.5-.2.7-.1 1.3-.2 2-.2.5-.1 1-.1 1.4-.2l.5-.1c1.1-.1 2.3-.3 3.4-.4l.6-.1c.5 0 1-.1 1.5-.1.4 0 .9-.1 1.3-.1.2 0 .5 0 .7-.1 1.1-.1 2.2-.2 3.4-.2.8 0 1.5-.1 2.3-.1h.1c.4 0 .8 0 1.2-.1h.8c.5 0 .9-.1 1.4-.1.2 0 .4 0 .7-.1.5 0 .9-.1 1.4-.1h.1c.7 0 1.3-.1 2-.1h4.7c.3 0 .6 0 1 .1h.9c.2 0 .5.1.6.2.2.2.3.4.3.7 0 .4-.3.8-.7.9h-.1c-.2.1-.4.1-.7.2-.2 0-.5.1-.7.1h-5.9l-1.5.1c-.4 0-.9.1-1.3.1h-.5c-.5 0-1 .1-1.6.1-.2 0-.4 0-.7.1-.4 0-.9.1-1.4.1-1.3.1-2.6.1-3.9.2-1 .1-2.1.2-3.1.2l-.8.1c-.4 0-.8.1-1.1.1-.2 0-.4 0-.6.1-.2 0-.4 0-.5.1-.4 0-.7.1-1.1.1-1.2.1-2.4.3-3.7.4-1.4.1-2.7.3-4.1.5-.9.1-1.7.2-2.6.4-.4.1-.8.1-1.3.2-.1 0-.3 0-.4.1-.4-.1-.8 0-1.3 0zm32.7-4.3h-.9c-.7 0-1.3.1-2 .1h-.1c-.5 0-.9.1-1.4.1-.2 0-.4 0-.7.1-.5 0-.9.1-1.4.1h-.8c-.4 0-.8.1-1.2.1h-.1c-.8 0-1.5.1-2.3.1-1.2.1-2.3.1-3.4.2-.2 0-.5 0-.7.1-.4 0-.8.1-1.3.1s-1 .1-1.5.1l-.6.1c-1.1.1-2.3.2-3.4.4l-.5.1c-.5.1-1 .1-1.4.2-.7.1-1.3.1-2 .2-.5.1-1 .1-1.5.2-.3 0-.7.1-1 .1h-.3c-.8.1-1.5.2-2.3.3h-.2l-.5.1c-.5.1-1 .1-1.6.2-.1 0-.2 0-.2.1l-.1.1c0 .1 0 .1.1.1l.1.1c.4 0 .8-.1 1.3-.2.1 0 .3 0 .4-.1.4-.1.8-.1 1.2-.2.9-.1 1.8-.3 2.6-.4 1.4-.2 2.7-.3 4.1-.5 1.2-.1 2.4-.3 3.7-.4.4 0 .7-.1 1.1-.1.2 0 .4 0 .5-.1.2 0 .4 0 .6-.1.4 0 .8-.1 1.2-.1l.8-.1c1-.1 2.1-.2 3.1-.2 1.3-.1 2.6-.2 3.9-.2.4 0 .9-.1 1.3-.1.2 0 .4 0 .7-.1.5 0 1-.1 1.5-.1h.5c.4 0 .9-.1 1.3-.1l1.2-.1h5.8c.2 0 .4 0 .6-.1.2 0 .4-.1.6-.1h.1V58c-.3 0-.7.1-1.1 0-.3 0-.6-.1-.9-.1h-3.5c.8.2.7.2.6.2zm1.2-26.8h-.8c-.6 0-1.2.1-1.7.1l-3.3.3c-1.2.1-2.3.3-3.5.4-1.2.1-2.4.3-3.6.4-2.2.2-4.5.4-6.7.7-2 .3-4.1.6-6.1.8-1.2.2-2.4.3-3.6.4-.6.1-1.1.1-1.7.2-.3 0-.5.1-.8.1-.3 0-.5.1-.8.1-.2.1-.5.1-.7.2-.2 0-.3.1-.5.1-.5.1-1 .3-1.5.4-.3.1-.4.3-.3.6.1.3.4.4.6.3.4-.1.9-.3 1.4-.4.3-.1.6-.1.9-.2.3-.1.6-.1.8-.2.3 0 .7-.1 1-.2 1.1-.1 2.2-.2 3.3-.4.7-.1 1.3-.2 2-.2.6-.1 1.2-.2 1.8-.2.9-.1 1.8-.2 2.7-.4.6-.1 1.2-.2 1.8-.2.6-.1 1.1-.1 1.7-.2l3.3-.3c1.2-.1 2.3-.2 3.5-.3 1.1-.1 2.2-.3 3.3-.4 1.2-.1 2.3-.3 3.5-.4 1.1-.1 2.2-.2 3.4-.3h.9s.1 0 .1.1c.1.1.3.1.4 0 .1 0 .2-.1.3-.2 0-.1.1-.1.1-.2v-.3c0-.1-.1-.2-.2-.3-.1-.1-.2-.1-.3-.1h-.3c-.2.2-.3.2-.4.2zm-25.7 2.8h-.1c0 .1.1 0 .1 0z"
  />
  <path
    class="st16"
    d="M23.7 37.1c-.2 0-.3 0-.5-.1s-.4-.3-.5-.6c-.1-.5.2-1 .6-1.2.4-.1.9-.2 1.3-.4l.3-.1c.1 0 .3-.1.4-.1h.2l.7-.2c.2 0 .4-.1.6-.1h.4c.2 0 .4-.1.6-.1l.5-.1c.4 0 .8-.1 1.2-.1 1.2-.1 2.4-.3 3.6-.4.8-.1 1.5-.2 2.3-.3 1.3-.2 2.5-.4 3.8-.5 1.6-.2 3.3-.4 4.9-.5.6-.1 1.2-.1 1.8-.2 1.2-.1 2.4-.3 3.6-.4.4 0 .7-.1 1.1-.1l2.4-.3c1.2-.1 2.3-.2 3.3-.3.6 0 1.1-.1 1.7-.1h1.5c.1 0 .4.1.6.3.1.1.2.2.2.4.1.2.1.4 0 .5 0 .1-.1.2-.1.3-.1.3-.4.4-.6.5-.2.1-.5 0-.7-.1h-.8c-1 0-2.1.1-3.1.2h-.2c-1.3.1-2.4.2-3.5.4l-.6.1-2.7.3c-1.1.1-2.3.2-3.5.3h-.3l-3 .3-.5.1c-.4 0-.8.1-1.2.1-.6.1-1.2.2-1.8.2l-.6.1c-.7.1-1.5.2-2.2.3-.2 0-.4 0-.6.1-.4.1-.8.1-1.2.2-.6.1-1.2.1-1.7.2h-.2c-.6.1-1.2.1-1.8.2-.5.1-1 .1-1.5.2l-1 .1c-.2 0-.5.1-.7.1H26c-.2 0-.5.1-.7.2h-.1l-1.2.3c-.2.3-.2.3-.3.3zm9.5-2.5c-1.2.1-2.4.3-3.5.4-.4 0-.8.1-1.2.1l-.5.1c-.2 0-.4.1-.6.1H27c-.2 0-.3 0-.5.1l-.7.2h-.2c-.1 0-.2 0-.3.1l-.3.1c-.4.1-.8.2-1.3.3 0 0-.1 0 0 .1l1.2-.3h.1c.3-.1.5-.1.7-.2h.2c.3-.1.5-.1.8-.1l1-.2c.5-.1 1-.1 1.5-.2.6-.1 1.2-.1 1.8-.2h.2c.6-.1 1.2-.1 1.7-.2.4 0 .8-.1 1.2-.2.2 0 .4-.1.6-.1.7-.1 1.5-.2 2.2-.3l.6-.1c.6-.1 1.2-.2 1.8-.2.4-.1.8-.1 1.2-.1l.5-.1 3-.3h.3c1.2-.1 2.4-.2 3.5-.3.9-.1 1.8-.2 2.6-.3l.6-.1c1.1-.1 2.2-.3 3.5-.4h.2c1-.1 2.1-.2 3.2-.2H59l.1.1V32l-.1-.1h-1.5c-.6 0-1.1.1-1.7.1-1 .1-2.2.2-3.3.3l-2.4.3c-.4 0-.7.1-1.1.1-1.2.1-2.4.3-3.6.4-.6.1-1.2.1-1.8.2-1.6.2-3.2.3-4.8.5-1.3.2-2.5.3-3.8.5-.8.1-1.5.2-2.3.3h.5zm26.3-2.5zm0-.3z"
  />
  <path
    class="st18"
    d="M49.1 30.2s.1-.1.1-.2.1-.1.1-.2 0-.1.1-.2c0-.1.1-.2.1-.3l.3-.6c0-.1.1-.2.1-.2.2 0 .4-.1.6-.1 0 .1 0 .2.1.2.1.1.1.1.2.1s.1 0 .2-.1l.1-.1c0-.1.1-.1.1-.2v-.4c0-.1-.1-.1-.1-.2h-.3c-.1-.1-.3-.2-.4-.3 0-.1.1-.1.1-.2s.1-.2.1-.3c0-.1.1-.2.1-.3 0-.1.1-.3.1-.4V26c0-.1-.1-.1-.2-.1h-.3c-.1.1-.2.1-.2.2l-.2.2c-.1.1-.3.2-.4.3l-.1-.1-.2-.2s-.1-.1-.1-.2c-.1 0-.2-.1-.3-.1 0-.1-.1-.1-.1-.2l-.1-.1h-.2c-.1 0-.1.1-.2.1v.2c.1.2.1.4.2.6 0 .2.1.3.1.5v.1c-.1.1-.3.2-.4.3-.2.1-.4.3-.6.4-.1.1-.2.2-.4.3-.1.1-.2.2-.3.4v.2c0 .1.1.2.2.2h.3c.1 0 .2 0 .3-.1.1 0 .2-.1.3-.1.2 0 .3-.1.5-.1.1 0 .2 0 .2-.1v1.3c0 .1 0 .2.1.2h.1c.2.2.3.1.3.1zm.1-1.2v-.3h.2c-.1 0-.2.2-.2.3zm1.6-.6c-.1 0-.1 0 0 0-.1 0-.1 0 0 0zm-2.4-.1c-.1 0-.3.1-.4.1h.1c.2-.1.4-.3.6-.4v.3c-.1-.1-.2-.1-.3 0zm.7-.2v-.5l.3-.3.1.1c.1.1.2.1.2.2s-.1.2-.1.3c-.1.1-.3.1-.5.2zm-.6-.9zM50 27s0 .1-.1.1l-.1-.1.1-.1.1-.1c.1 0 .1.1 0 .2zm-1 0c0-.1 0-.1 0 0 0-.1 0-.1 0 0zm.6 2.3s-.1 0 0 0c-.1.1-.1.1 0 0-.1.1 0 0 0 0zm-5.7.1c.1 0 .1-.1.1-.2 0 0 0-.1.1-.1 0-.1.1-.1.1-.2.1-.1.2-.2.2-.4.2-.3.3-.5.5-.8h.6l.1.1c0 .2.2.3.3.3.1 0 .2 0 .3-.1.1-.1.1-.2.1-.4 0 0 0-.1-.1-.1v-.1c0-.1-.1-.1-.1-.1H46c-.1-.1-.2-.1-.2-.2-.1-.1-.3-.2-.4-.3l.3-.6.3-.6c0-.1.1-.2.1-.3v-.4c0-.1 0-.1-.1-.2 0 0-.1-.1-.2-.1h-.2c-.1 0-.1 0-.2.1-.1 0-.1.1-.2.1s-.2.1-.2.1c-.1.1-.3.1-.4.2-.1.1-.2.1-.3.2 0 0-.1 0-.1.1-.1-.2-.2-.3-.3-.5-.1-.1-.1-.2-.2-.3 0-.1-.1-.1-.1-.2s-.1-.1-.2-.2-.2 0-.3 0c-.1.1-.2.2-.1.3l.3 1.2v.2h-.1c-.2.1-.3.2-.5.3-.1.1-.2.1-.2.2-.1.1-.2.1-.2.2-.1.1-.2.2-.2.3v.1c0 .1 0 .1.1.2l.1.1c.1 0 .1 0 .2.1h1v1.3c0 .1 0 .2.1.3h.1c.1.4.2.4.2.4zm-.3-.5c0-.1 0-.1 0 0 0-.1 0-.1 0 0zm.5-.7v-.5h.3c-.1.2-.2.3-.3.5zm.5-.9H44V27c0-.2-.1-.4-.1-.6.1 0 .1-.1.2-.1l.2.2c.2.2.3.4.5.6-.1 0-.1.1-.2.2zm-1.1-.1h-.8c.2-.2.5-.3.7-.5.1.2.1.3.1.5zm1.6-.7l-.5-.5c.1-.1.2-.1.3-.2.1-.1.3-.1.4-.2.1 0 .1-.1.2-.1-.1.3-.3.6-.4 1zm-6 2.1c0-.1.1-.3.1-.4 0-.1.1-.3.2-.4 0-.1.1-.3.2-.4.4 0 .8.1 1.2.1.2 0 .4-.2.4-.4 0-.1 0-.2-.1-.3 0 0-.1-.1-.2-.1v-.1c0-.1-.1-.2-.1-.2-.1 0-.1-.1-.2-.1-.1-.1-.2-.2-.4-.3.1-.2.1-.3.2-.5 0-.1.1-.2.1-.3 0-.1.1-.2.1-.3 0-.1.1-.2.1-.3v-.2s0-.1-.1-.1c0-.1-.1-.1-.2-.1h-.2s-.1 0-.1.1c-.1 0-.1.1-.2.1s-.1.1-.2.1c-.1.1-.2.1-.3.2-.2.1-.3.2-.5.3-.2-.1-.4-.3-.5-.5-.1-.1-.2-.1-.3-.1-.1 0-.2.1-.2.2v.2c0 .1 0 .1.1.2s.1.3.1.4v.2c-.1.1-.3.2-.4.3l-.3.3c-.1.1-.1.1-.1.2s-.1.1-.1.2c-.1.1-.1.3.1.4l.1.1c.1.1.1.1.2.1h.8c0 .1 0 .2.1.4v.9c0 .1.1.2.2.3h.1c.2 0 .3-.1.3-.2zm1.1-1.9h-.4c0-.1.1-.1.1-.2.1 0 .2.1.3.2zm-.9-.1h-.4v-.1c0-.1-.1-.3-.1-.4V26c.1 0 .1-.1.2-.1s.1.1.2.1c.1.1.2.2.3.2-.1.1-.2.3-.2.4zm-1-.2v.2H38c.1-.1.2-.2.3-.2zm1.4-1c0 .1-.1.1-.1.2-.1-.1-.2-.1-.3-.2.1-.1.2-.2.3-.2.1 0 .1-.1.2-.1 0 .1 0 .2-.1.3zm.6 0zm-4.9 4.7v-.5c0-.1 0-.2-.1-.2.4-.1.8-.2 1.2-.2.1 0 .2-.2.2-.3 0-.1-.1-.1-.1-.2h-.2c-.4.1-.7.1-1.1.2 0-.3.1-.5.2-.7v-.1c.1.1.2.1.3.2l.1.1.1.1c.1 0 .1.1.2.1h.2c.1-.1.1-.1.1-.3v-.2c0-.1-.1-.1-.2-.1h-.1c-.1-.1-.2-.1-.2-.2l-.2-.2-.2-.2c0-.1.1-.2.1-.3.1-.2.1-.4.2-.5V26c0-.1-.1-.1-.1-.2h-.4c-.1 0-.1.1-.1.1s-.1.1-.1.2c-.1.1-.1.2-.2.2-.1.1-.1.2-.2.3-.2-.2-.4-.4-.6-.5-.1-.1-.2 0-.3 0l-.1.1v.2c0 .1.1.1.1.2s.1.1.1.2c.1.1.1.2.1.3 0 .1.1.2.1.3v.1c-.1.2-.2.4-.4.6-.1.2-.2.3-.3.5 0 .1-.1.1-.1.2-.1.1-.1.2-.2.2-.1.1-.1.2-.2.3v.3c0 .1.1.1.2.1s.3 0 .4-.1c.1 0 .2 0 .3-.1.1 0 .2 0 .3-.1.1 0 .3-.1.4-.1v.7c0 .1.1.1.1.2h.2c.4.2.5.1.5-.1zM34.3 29c-.1 0-.2.1-.4.1h-.1c0-.1.1-.1.1-.2.1-.2.2-.3.3-.5l.2-.2c0 .1 0 .1.1.2.1.2.1.4.1.5-.1.1-.2.1-.3.1zm.6-1.1c0 .1 0 .1 0 0 0 0-.1 0-.1-.1v-.1c0-.1.1-.1.1-.2l.1.1c0 .1 0 .2-.1.3zm-.7-.6zm1.5-1zM30.8 32v-.1c0-.3.1-.5.2-.8 0-.1.1-.2.1-.3l1.2-.3c.1 0 .1.1.2.1.2.1.4 0 .5-.1.1-.2 0-.4-.1-.5-.1-.1-.2-.1-.3-.1-.1 0-.1-.1-.2-.1-.2-.1-.5-.3-.7-.4.1-.3.3-.6.4-.9v.1c.1-.2.2-.4.2-.5 0-.1.1-.2.1-.2 0-.1 0-.2.1-.2v-.1s0-.1-.1-.1c-.1-.1-.1-.1-.2-.1H32s-.1 0-.1.1l-.1.1-.9 1.2-.2-.2-.3-.3c-.1 0-.1-.1-.2-.1H30c-.1 0-.2 0-.2.1-.1.1-.1.2-.1.3.1.2.2.4.2.6 0 .1.1.2.1.3 0 .1.1.2.1.4-.2.2-.3.5-.5.7 0 .1-.1.1-.2.2s-.1.2-.1.3c0 .1.1.2.2.2.1.1.2.1.4 0h.4v1c0 .1.1.2.2.2.2-.3.3-.4.3-.5zm-.8-1.6c0-.1.1-.1.1-.2v.2H30zm.7-.1c0-.2 0-.3-.1-.5v-.2c.1-.1.1-.2.2-.3.1.1.2.2.3.2 0 .1-.1.2-.1.3-.2.2-.2.4-.3.5zm.9-.2h-.2c0-.1.1-.1.1-.2 0 .1.1.1.1.2zm-.8-.8zm.7-.9c-.1.2-.2.4-.2.6l-.1-.1c.1-.1.1-.2.2-.3 0-.1.1-.2.1-.2z"
  />
  <path
    class="st16"
    d="M37.2 13.4c-.2 0-.3.2-.4.3-.2.2-.3.4-.4.6v.1c-.5 1-1.1 2-1.7 2.9-.4.5-.9 1-1.4 1.4-.4.3-.9.6-1.4.8-.6.2-1.2.4-1.8.5-.9.1-1.9 0-2.8-.1-.8-.1-1.6-.3-2.3-.6-.4-.2-.7-.4-1-.6-.2-.2-.5-.4-.7-.6l-.6-.6c-.1-.1-.2-.2-.4-.2h-.4c-.4.1-.6.4-.6.8 0 .2.1.5.1.7 0 .2.1.4.2.5.1.3.1.6.2.9.1.7 0 1.4 0 2-.1.6-.2 1.2-.5 1.7-.2.4-.4.8-.7 1.1-.3.4-.7.8-1.1 1.1-.5.3-.9.6-1.4.8-.5.2-1.1.4-1.7.4-.6.1-1.2.1-1.8 0-1-.2-2-.5-2.9-.9.1 0 .1.1.2.1-.2-.1-.4-.2-.7-.3h-.3c-.2 0-.4.1-.6.2-.2.1-.3.4-.3.7 0 .1 0 .3.1.4.1.1.1.3.2.4 0-.1-.1-.1-.1-.2.1.3.2.5.4.8.3.8.7 1.6 1 2.4.4.9.7 1.7 1.1 2.6.1.3.2.6.4.9.4.9.6 1.9.8 2.8.1.8.1 1.5 0 2.3-.1.7-.3 1.4-.6 2.1-.2.5-.5 1-.8 1.4-.6.8-1.4 1.5-2.1 2.2-.1.1-.2.2-.3.4-.2.2-.3.4-.4.7-.1.3-.1.6 0 .8.1.3.3.5.5.7.3.3.6.5 1 .7.8.7 1.7 1.3 2.3 2.1.4.5.7 1 .9 1.5.3.8.5 1.6.7 2.5.1.7.1 1.4 0 2.2-.1.8-.4 1.6-.7 2.4-.4.8-.8 1.7-1.2 2.5l-.6 1.2c-.2.4-.4.8-.5 1.2-.2.6-.1 1.5.6 1.8.3.1.5.2.8.2.2 0 .5.1.7.1.4.1.9.2 1.3.2 1.2.2 2.5.3 3.7.7.2.1.4.1.6.2.8.4 1.6.8 2.4 1.4.3.2.5.4.7.7l.3.6c.1.3.2.5.2.8v.7c-.1.7-.4 1.4-.6 2.1-.1.2-.1.4-.2.5-.1.2-.1.4-.2.6-.1.3-.1.6-.2.8 0 .2 0 .5.1.7 0 .1.1.2.1.3.1.1.3.4.4.4.1.1.2.1.4.2.1 0 .3 0 .4.1.2 0 .4-.1.6-.1.6-.2 1.2-.3 1.8-.5.6-.1 1.1-.2 1.7-.3.2 0 .4 0 .6-.1.7-.1 1.4-.1 2 0 .7.1 1.4.3 2 .5.5.2 1.1.5 1.5.9.2.1.3.3.5.4.5.4 1 .9 1.5 1.3l.7.7c.2.2.4.5.6.7l.2.2c.1.1.2.2.3.4.1.2.2.3.4.4.4.3.8.3 1.2.2.5-.1.8-.5 1-.9.2-.3.5-.6.7-.9.2-.3.4-.5.7-.8.2-.1.3-.3.5-.4l.3-.3c.5-.3.9-.6 1.4-.8.5-.2.9-.3 1.4-.4.6-.1 1.3-.1 1.9 0 .4.1.9.2 1.3.4 1.2.5 2.2 1.4 3.5 1.8.6.2 1.3.1 1.7-.3.3-.3.5-.7.6-1.1.1-.3.3-.7.4-1 .2-.6.5-1.1.9-1.6.3-.3.5-.6.8-.8.4-.3.9-.6 1.3-.8.6-.2 1.1-.4 1.7-.5.6-.1 1.2-.1 1.8 0 .5.1.9.2 1.4.3.2.1.4.1.6.2.2.1.4.1.6.2.1 0 .2.1.4.1.3.1.6.2.9.2h.4c.2-.1.4-.1.5-.3.1-.1.2-.2.3-.4.1-.2.1-.4.2-.6v-4.8c0-.8.1-1.6.2-2.4l.3-1.8.6-1.8c.2-.5.5-1.1.9-1.5.2-.3.5-.5.8-.7.6-.5 1.3-.8 2-1.2.3-.1.5-.2.8-.3.3-.1.5-.1.8-.2.3-.1.6-.3.8-.5 0-.1.1-.1.1-.2s.1-.2.1-.3c.1-.2 0-.4 0-.6-.1-.4-.3-.7-.5-1-.1-.2-.3-.4-.4-.7-.2-.4-.4-.7-.6-1.1-.2-.4-.4-.8-.6-1.3-.2-.5-.4-1-.4-1.5-.1-.6 0-1.2.1-1.8 0-.2.1-.4.1-.7.1-.6.3-1.2.5-1.8.3-.8.8-1.5 1.2-2.2.4-.7.9-1.4 1.2-2.2.2-.4.3-.8.2-1.2 0-.5-.3-.9-.7-1.2-.3-.2-.7-.4-1-.5-.7-.3-1.3-.7-1.9-1.1-.6-.5-1.1-1-1.6-1.6-.2-.3-.5-.7-.6-1.1-.1-.3-.2-.7-.3-1.1-.1-.6-.1-1.2 0-1.8.1-.8.3-1.5.6-2.2.1-.3.3-.6.4-1 .1-.2.1-.3.2-.5s.1-.5 0-.7c-.1-.3-.4-.5-.7-.6-.1 0-.3-.1-.4-.1-.7-.1-1.3-.3-1.9-.5-.6-.2-1.1-.5-1.6-.9-.3-.3-.6-.5-.9-.9-.2-.2-.3-.4-.4-.7-.1-.2-.2-.5-.2-.8-.1-1 0-2.1.1-3.1v-.9c0-.2 0-.5-.1-.8 0-.3-.1-.5-.3-.7-.2-.2-.4-.4-.7-.5-.2 0-.3-.1-.5-.1s-.3 0-.5.1c-.2 0-.4.1-.6.1-.8.2-1.6.5-2.4.7l-1.2.3c-.6.1-1.2.3-1.7.4-.1-.2-.2-.4-.4-.4h-.1c-.1 0-.2-.1-.3-.1l-.3-.3c-.1-.2-.2-.4-.4-.6-.4-1.1-.7-2.2-.9-3.3 0-.2-.1-.4-.1-.6 0-.3-.1-.8-.4-1-.2-.1-.5-.1-.7 0-.2.1-.3.2-.4.3-.1.1-.3.2-.4.3-.6.5-1.1 1-1.7 1.4-.1.1-.2.1-.3.2-.2.2-.5.4-.7.5-.5.4-1.1.8-1.7 1-.6.2-1.2.4-1.8.5-.7.1-1.4 0-2.1 0l-1.2-.3c-.3-.1-.6-.3-.9-.5-.4-.3-.7-.7-1-1-.4-.6-.8-1.3-1.2-1.9-.2-.4-.5-.9-.9-1.1-.2-.1-.4-.2-.6-.2.2.8.1.9 0 .9zm-6.6 8.2c.5-.1 1.1-.2 1.6-.4.6-.2 1.1-.5 1.6-.8.9-.6 1.6-1.3 2.3-2.2.3-.4.6-.8.9-1.3.2-.4.4-.7.6-1.1 0-.1.1-.1.1-.2.1.1.1.2.2.3l.9 1.5c.3.5.7.9 1.2 1.3s1 .8 1.6 1c.8.3 1.6.4 2.4.5h1.1c.7 0 1.4-.2 2.1-.5.9-.3 1.8-.8 2.6-1.4.7-.6 1.4-1.1 2.1-1.8l.7-.7c.1.9.3 1.7.5 2.6.2.5.3 1 .5 1.4.1.5.3.9.7 1.2.7.4 1.6.4 2.3.3.7-.1 1.5-.3 2.2-.4 1.1-.2 2.3-.4 3.4-.6h.1v.1c.1.9 0 1.8-.1 2.6v1.4c0 .5.1 1 .3 1.5.2.5.5 1 .8 1.4.3.4.7.7 1.1 1 .3.2.7.5 1.1.6.4.2.7.3 1.1.5.3.1.7.2 1 .3.1 0 .3.1.4.1-.1.1-.1.2-.2.3-.3.7-.6 1.3-.8 2-.3.9-.4 1.9-.3 2.9 0 .5.1.9.2 1.4.1.5.4.9.6 1.3l.9 1.2c.3.3.6.6 1 .9.5.5 1.1.8 1.7 1.2.3.2.5.3.8.4.3.2.6.3.9.5 0 .1 0 .1-.1.2-.3.6-.7 1.2-1 1.7-.2.4-.5.7-.7 1.1-.2.3-.3.5-.5.8-.3.6-.6 1.3-.8 1.9-.2.7-.3 1.4-.4 2.1 0 .3-.1.7-.1 1 0 .7.1 1.5.3 2.2.1.4.3.9.5 1.3.1.2.2.4.3.7.2.4.5.8.7 1.2.2.3.4.6.7 1h-.2l-.9.3c-.7.2-1.4.6-2 .9-.6.3-1.1.7-1.6 1.2s-.8 1-1.2 1.6c-.3.6-.5 1.2-.8 1.7-.2.7-.4 1.4-.5 2.1l-.3 2.4c0 .4-.1.8-.1 1.3v1.6c0 .8.1 1.7.1 2.5-.2-.1-.5-.2-.7-.3-.5-.2-1.1-.4-1.6-.5-1-.2-2-.3-3-.1-.5.1-.9.2-1.4.3-.5.1-1 .4-1.5.6-.4.2-.8.4-1.1.7-.4.3-.8.7-1.2 1.1-.4.4-.7.9-.9 1.4-.3.6-.5 1.2-.7 1.8H52c-.4-.2-.8-.4-1.2-.7-.6-.4-1.2-.8-1.8-1-.5-.2-1-.4-1.6-.5-.5-.1-1.1-.2-1.7-.2-.6 0-1.2.1-1.8.2-.6.1-1.2.3-1.7.5-1.1.5-2.1 1.2-2.9 2-.3.3-.6.7-.9 1-.1-.1-.1-.2-.2-.2-.3-.3-.6-.7-1-1-.4-.3-.7-.7-1.1-1-.4-.4-.9-.7-1.3-1-.5-.3-1-.6-1.5-.8-.7-.3-1.3-.5-2-.6-.7-.1-1.4-.2-2.2-.2-.5 0-.9 0-1.4.1-1 .1-2 .3-2.9.6-.2.1-.4.1-.6.2.1-.4.2-.8.3-1.3.2-.7.3-1.4.4-2 .1-.6-.1-1.3-.2-1.9-.2-.7-.6-1.3-1.1-1.8l-.7-.7c-.2-.2-.5-.4-.7-.5-.6-.4-1.2-.7-1.8-1-.6-.3-1.2-.5-1.8-.6-.4-.1-.7-.2-1.1-.2-.4-.1-.9-.1-1.3-.2-.8-.1-1.6-.3-2.5-.4v-.1c.4-.8.8-1.7 1.2-2.5.2-.5.4-1 .6-1.4.2-.4.3-.7.4-1.1.2-.7.4-1.4.5-2.1.2-1.4 0-2.7-.3-4.1-.3-1.3-.9-2.5-1.7-3.6-.7-.9-1.6-1.6-2.5-2.4-.2-.2-.4-.3-.6-.5.3-.3.5-.6.8-.8.4-.4.8-.8 1.1-1.2.4-.4.7-.9 1-1.4.3-.5.5-1.1.7-1.6.4-1.1.5-2.3.5-3.5 0-1.2-.3-2.4-.6-3.5-.2-.6-.4-1.1-.6-1.6-.3-.8-.7-1.5-1-2.3-.2-.6-.5-1.1-.7-1.7-.1-.2-.2-.4-.2-.6.1 0 .2.1.3.1 1.1.4 2.4.5 3.6.4 1.2-.1 2.4-.5 3.5-1.1.5-.3 1-.6 1.4-1 .4-.4.8-.9 1.2-1.4.7-1 1-2.3 1.1-3.5 0-.3 0-.6.1-.9v-.8c.1.1.2.1.4.2 1 .5 2.1.8 3.2.9.6.1 1.1.1 1.7.2h.4c.4.1.9.1 1.4 0zM27 19.9zm35.1.3c.1 0 .1 0 0 0 .1 0 .1 0 0 0zM72.9 42zm0 .1zm0 .1zm0 0s.1.1 0 0c.1.1 0 0 0 0zm-.5 15c0 .1 0 .1 0 0 0 .1 0 .1 0 0zm-7.2 15.9c-.1 0-.1 0 0 0-.1 0-.1 0 0 0zM24.1 76zm28.1 2.1s-.1 0 0 0c-.1 0 0 0 0 0zm-.1.1z"
  />
  <path
    class="st18"
    d="M47.8 2c-.1.4-.2.9-.3 1.3-.1.4-.1.8-.2 1.2-.1 1.1-.3 2.1-.4 3.2 0 .2.1.4.2.5.1.1.3.2.5.2s.3-.1.5-.2c.1-.1.2-.3.2-.5.2-1.3.3-2.7.5-4 .1-.5.1-.9.3-1.4.1-.3-.1-.7-.4-.8h-.2c-.4.1-.6.2-.7.5zm17.3 3.2c-.5.6-1 1.3-1.5 2-.4.6-.7 1.2-1.1 1.8-.2.4-.4.9-.6 1.4-.2.5-.3 1-.3 1.5s.4.8.8.8c.2 0 .4-.1.6-.2.2-.2.2-.4.2-.6v-.1c0-.2.1-.4.1-.5.1-.2.1-.4.2-.6.5-1.1 1.1-2 1.6-3l.9-1.5c.2-.3.1-.7-.1-.9 0-.2-.2-.3-.3-.3-.2 0-.4.1-.5.2zm-1.4 5.3s0 .1 0 0c0 .1 0 0 0 0zm14.5 8.8c-.9.4-1.7.9-2.6 1.4-.4.2-.7.4-1.1.6-.6.4-1.2.7-1.8 1.1-.3.2-.4.5-.2.8.2.3.5.4.8.2.6-.3 1.2-.7 1.7-1 .4-.2.7-.4 1.1-.7.8-.5 1.7-1 2.5-1.4.3-.1.3-.5.2-.7-.1-.2-.3-.3-.5-.3h-.1zm-.8 17.3c-.1.5.2 1 .7 1.2 1 .3 1.9.6 2.9.8l1.5.3c.6.1 1.1.2 1.7.3.2 0 .3 0 .5-.1s.4-.3.4-.6c.1-.2 0-.5-.1-.7-.1-.2-.3-.4-.6-.4-2-.3-3.9-.8-5.8-1.4h-.3c-.4-.2-.8.1-.9.6zm.5 16.9c-.1.2-.1.4-.1.7.1.2.2.4.4.5 1.4 1 2.8 1.9 4.2 2.8.4.2.9.1 1.1-.3.1-.2.1-.4.1-.6-.1-.2-.2-.4-.4-.5-1.4-1-2.8-1.9-4.2-2.9-.1-.1-.3-.1-.4-.1-.3-.1-.6.1-.7.4zm-4.7 13.6c-.2.1-.4.3-.4.6-.1.2 0 .5.1.7 1.4 1.8 2.7 3.6 4.1 5.4.1.1.2.2.4.2.2.1.5 0 .7-.1.2-.1.3-.3.4-.5.1-.2 0-.5-.1-.7-1.3-1.8-2.6-3.5-3.9-5.2-.2-.2-.3-.4-.6-.4h-.2c-.2-.1-.4 0-.5 0zm-2.7 18.4c-.2.1-.3.3-.3.4 0 .2 0 .4.1.6 1.3 1.8 2.7 3.6 4 5.4.1.2.2.3.4.3.2.1.4 0 .6-.1.2-.1.3-.3.3-.4 0-.2 0-.4-.1-.6-1.4-1.8-2.7-3.6-4.1-5.4-.1-.2-.2-.3-.4-.3h-.2c-.1 0-.2 0-.3.1zm-15 10.2c-.1 0-.2.1-.3.2-.1.1-.1.2 0 .4.2 1 .4 1.9.6 2.8.1.3.1.5.2.7.1.3.1.5.2.8.1.3.2.7.3 1 .2.6.5 1.2.8 1.8.1.3.3.5.4.8.2.3.3.5.5.8l.3.3c.1.1.2.1.3.2.2.1.4 0 .5-.1.1-.2 0-.4-.1-.5-.1-.1-.2-.1-.3-.2l-.2-.2c-.2-.3-.4-.7-.6-1l-.6-1.2v.1l-.6-1.5c-.1-.3-.2-.5-.2-.8 0-.2-.1-.3-.1-.5-.1-.4-.2-.9-.3-1.3-.2-.8-.3-1.5-.5-2.3 0-.1-.1-.2-.2-.3-.1 0-.2-.1-.2-.1.2.1.2.1.1.1zM27 94.2c-.2.8-.4 1.5-.5 2.3-.2.8-.4 1.6-.5 2.4-.1.7-.3 1.3-.4 2-.2.9-.4 1.9-.5 2.8-.1.7-.2 1.4-.4 2 0 .2 0 .4.1.6.1.2.3.3.4.3.2.1.4 0 .6-.1.1-.1.3-.3.3-.4.2-1.2.4-2.3.6-3.5.1-.7.3-1.5.4-2.2.3-1.6.7-3.2 1-4.8.1-.3.2-.7.2-1 .1-.4-.1-.7-.5-.8h-.2c-.3-.1-.6.1-.6.4zm-7.9-9.8c-.1 0-.2.1-.3.2l-3.3 4.5c-.1.2 0 .5.2.6.1.1.2.1.3 0 .1 0 .2-.1.2-.2l3.3-4.5c.1-.1.1-.2 0-.3 0-.1-.1-.2-.2-.3-.1 0-.1-.1-.2-.1.1.1.1.1 0 .1zm-5.3-9c-1 .7-2 1.3-3.1 2-.4.3-.9.6-1.4.8-.4.3-.8.5-1.3.8-.4.2-.7.4-1.1.6-.3.2-.7.4-1 .5-.3.1-.3.5-.2.8.1.1.3.2.4.3.1 0 .3 0 .4-.1.3-.2.6-.3.9-.5.4-.2.7-.4 1.1-.6.2 0 .3-.1.5-.2.3-.2.5-.3.8-.5.5-.3.9-.6 1.4-.9.5-.3 1-.7 1.5-1 .5-.4 1.1-.7 1.6-1.1.1-.1.2-.2.2-.3v-.4c-.1-.1-.3-.2-.4-.2h-.3zM8.2 63.6c-2.1.2-4.2.4-6.2.7h-.2c-.1 0-.2.1-.3.2-.1.1-.2.3-.2.4 0 .2.1.3.2.4.1.1.2.1.3.2h.3c.3 0 .5-.1.8-.1h-.2c1.8-.2 3.6-.5 5.4-.7.2 0 .3-.1.4-.2.1-.1.2-.3.2-.4.1-.2-.2-.5-.5-.5zM.1 48.8c-.2.3-.1.7.2.9.5.3 1 .6 1.5.8.6.3 1.2.5 1.8.7.3.1.5.2.8.2.3.1.6.1.9.2.3.1.7.1 1 .1.1 0 .2 0 .3-.1.1-.1.2-.2.3-.4 0-.2 0-.3-.1-.5-.1-.1-.2-.3-.4-.3-.5-.1-.9-.1-1.4-.2-.3-.1-.7-.2-1-.3-.4-.1-.7-.3-1.1-.4-.7-.3-1.3-.6-1.9-1-.1-.1-.2-.1-.3-.1-.3 0-.5.2-.6.4zm1-19.2c-.1.3.1.5.4.6.8.3 1.6.5 2.4.7.8.2 1.5.4 2.3.6.3.1.5-.1.6-.3.1-.2-.1-.5-.3-.6-1.6-.4-3.1-.9-4.6-1.4h-.1c-.5 0-.7.2-.7.4zM7.7 7.9c-.1 0-.2.1-.2.3 0 .1 0 .3.1.4 1.6 2.1 3.2 4.2 4.8 6.2.4.5.7 1 1.1 1.5.1.1.2.2.3.2.1 0 .3 0 .4-.1.2-.1.3-.5.2-.7-1.4-1.9-2.8-3.8-4.3-5.7-.5-.7-1-1.4-1.6-2-.1-.1-.2-.2-.3-.2h-.1c-.2 0-.3 0-.4.1zM30.5.2c-.1.1-.2.3-.2.5.2 1.5.4 3 .7 4.4.2 1.3.5 2.7.7 4 .1.8.3 1.6.4 2.4 0 .2.3.4.5.4.1 0 .3-.1.4-.2.1-.1.2-.3.2-.4-.2-1.4-.4-2.8-.6-4.1-.2-1.2-.4-2.4-.6-3.7-.1-.7-.2-1.5-.3-2.2 0-.2-.1-.4-.1-.7V.4c0-.1-.1-.2-.2-.3-.1 0-.2-.1-.4-.1s-.3.1-.5.2zm1.2 1s0 .1 0 0c0 .1 0 0 0 0z"
  />
</svg>
