<svg class="jsPackageSvg" viewBox="0 0 142.84 114.3">
  <defs>
    <style>
      .theme-color {
        fill: var(--theme-color);
      }

      .cls-2 {
        fill: #333;
      }

      .strokes {
        fill: #2c2c2c;
      }

      .cls-4 {
        fill: none;
      }
    </style>
  </defs>
  <g class="stars">
    <g class="star">
      <path class="theme-color" d="M20.6,36.8l-1.9.3c-.6.1-1.1.1-1.7.2a12.1,12.1,0,0,1-1.9.1H13.5a4.1,4.1,0,0,0-1.1.1h-.3a1.7,1.7,0,0,0-.7.1.22.22,0,0,0-.2.2c0,.1.1.2.2.3h.1c.1,0,.1.1.2.1a.1.1,0,0,0,.1.1h0a.35.35,0,0,1,.1.2c.1.2.5,0,.3-.2h.3a4.1,4.1,0,0,1,1.1.1c.8,0,1.7.1,2.5.1h2.1a19.27,19.27,0,0,0,2.4-.1,1.42,1.42,0,0,0,.6-.2.85.85,0,0,0,.2-.6,1.42,1.42,0,0,0-.2-.6c-.1-.1-.2-.2-.3-.2h-.3Zm-8.7,1.5Z" transform="translate(0 0)" />
      <path class="theme-color" d="M13.9,32.3a1,1,0,0,0-.5.4.66.66,0,0,0-.1.6l1.2,3c.2.4.4.9.6,1.4l.3.6.6,1.2a2.51,2.51,0,0,0,.4.7c.4.7.9,1.5,1.4,2.2a.69.69,0,0,0,.9.3.81.81,0,0,0,.3-.9,21.16,21.16,0,0,1-1.1-2.1L17,37.9l-.6-1.5c-.3-.6-.5-1.3-.8-1.9L15,33a1,1,0,0,0-.4-.5.6.6,0,0,0-.4-.1.77.77,0,0,0-.3-.1Z" transform="translate(0 0)" />
      <path class="theme-color" d="M20.6,31.7a1.27,1.27,0,0,0-.6.4c-.8,1.2-1.7,2.3-2.5,3.5-.5.8-1.1,1.5-1.6,2.3s-1.3,1.7-1.9,2.5-1.3,1.7-1.9,2.5c-.1.2-.3.4-.4.6a.93.93,0,0,0,.3,1.2.82.82,0,0,0,.7.1,1,1,0,0,0,.5-.4c.7-.9,1.4-1.7,2.1-2.6s1.3-1.7,2-2.6l1.5-2.1,2.1-3c.3-.4.5-.7.8-1.1a1,1,0,0,0-.3-1.3.9.9,0,0,0-.5-.1.77.77,0,0,1-.3.1ZM13.2,44.4Z" transform="translate(0 0)" />
    </g>
    <g class="star">
      <path class="theme-color" d="M.9,85.2a1.56,1.56,0,0,0-.8.6,2.48,2.48,0,0,0-.1.9,1.56,1.56,0,0,0,.6.8c1.5.7,3.1,1.5,4.7,2.2s2.9,1.3,4.4,2a1.13,1.13,0,0,0,.8.1,1.79,1.79,0,0,0,.7-.5.8.8,0,0,0,.1-.8,1.79,1.79,0,0,0-.5-.7c-.3-.2-.7-.5-1-.7a10.91,10.91,0,0,0-1.1-.6,20,20,0,0,0-2.1-1C5,86.8,3.5,86,1.9,85.3a1.85,1.85,0,0,0-.7-.2.37.37,0,0,0-.3.1Z" transform="translate(0 0)" />
      <path class="theme-color" d="M9,82.9C7.7,84,6.4,85.2,5.1,86.4c-1.5,1.4-3,2.8-4.4,4.3a1.15,1.15,0,0,0,0,1.7,1.15,1.15,0,0,0,1.7,0c1.4-1.4,2.9-2.8,4.3-4.2C8,87,9.2,85.7,10.4,84.4a1,1,0,0,0,0-1.4,1.08,1.08,0,0,0-.7-.3,1.45,1.45,0,0,0-.7.2Z" transform="translate(0 0)" />
      <path class="theme-color" d="M3.6,82.5c.1,1.3.2,2.5.4,3.8L4.3,89c.1,1,.3,2,.5,3,.1.5.2,1,.3,1.4a8.8,8.8,0,0,0,.5,1.5c.1.3.2.5.5.6a1.06,1.06,0,0,0,.8.1,1,1,0,0,0,.7-1.3c-.2-.6-.3-1.2-.5-1.8s-.2-1.1-.3-1.6-.1-.9-.2-1.4-.1-1-.2-1.6c-.2-1.8-.4-3.6-.6-5.5a1.14,1.14,0,0,0-.3-.8,1.14,1.14,0,0,0-.8-.3h0a1.28,1.28,0,0,0-1.1,1.2Z" transform="translate(0 0)" />
    </g>
    <g class="star">
      <path class="theme-color" d="M54,6.8a1,1,0,0,0-.4.5.88.88,0,0,0,.1.7,1,1,0,0,0,.5.4c2,.8,3.9,1.5,5.9,2.2a20,20,0,0,1,2.6,1c.9.3,1.8.7,2.7,1h.4c.2,0,.3-.2.4-.3a.78.78,0,0,0-.2-1A23.94,23.94,0,0,0,63.2,10c-.9-.4-1.8-.7-2.6-1-1.9-.7-3.9-1.5-5.8-2.2a.1.1,0,0,1-.1-.1h-.3a.76.76,0,0,0-.4.1Z" transform="translate(0 0)" />
      <path class="theme-color" d="M57.3,1.5c.1,2.3.1,4.6.2,6.9,0,1,.1,1.9.1,2.9a16.35,16.35,0,0,0,.2,2.2,19.67,19.67,0,0,0,.3,2.4.75.75,0,0,0,.7.5.77.77,0,0,0,.8-.7c0-1.8-.1-3.6-.2-5.4-.1-2-.1-3.9-.2-5.9,0-.9-.1-1.9-.1-2.8a.9.9,0,0,0-.9-.9h0a.77.77,0,0,0-.9.8Z" transform="translate(0 0)" />
      <path class="theme-color" d="M63.5,3.5c-1.1.8-2.1,1.7-3.2,2.6a60.58,60.58,0,0,0-6,6.4,1.91,1.91,0,0,0-.3.8,1.61,1.61,0,0,0,.3.9,1.27,1.27,0,0,0,.9.4,1.4,1.4,0,0,0,.9-.3c1-1.2,2-2.4,3-3.5s1.9-2,2.8-2.9,1.9-1.7,2.8-2.6A1.23,1.23,0,0,0,64.9,4a1.47,1.47,0,0,0-.6-.5h-.4a.3.3,0,0,0-.4,0Z" transform="translate(0 0)" />
    </g>
    <g class="star">
      <path class="theme-color" d="M128.8,2.4a1,1,0,0,0-.1.9,1.79,1.79,0,0,0,.5.7c.9.6,1.7,1.2,2.6,1.8s1.8,1.1,2.7,1.7c1.7,1,3.5,1.9,5.2,2.9a1,1,0,0,0,1.4-.4,1.06,1.06,0,0,0,.1-.8,1,1,0,0,0-.5-.6,40.66,40.66,0,0,0-4.9-3.1c-.9-.5-1.8-1.1-2.7-1.6l-2.7-1.8a1.42,1.42,0,0,0-.6-.2,1.39,1.39,0,0,0-1,.5Z" transform="translate(0 0)" />
      <path class="theme-color" d="M139.7,1.3c-.9.5-1.9.9-2.8,1.4-.3.2-.7.4-1,.6s-.8.5-1.2.8c-.8.6-1.6,1.1-2.3,1.7-1,.8-2,1.6-3,2.5a1.06,1.06,0,0,0,1.5,1.5A37.62,37.62,0,0,1,134,7.3c1-.7,2.1-1.5,3.2-2.2a15.06,15.06,0,0,1,1.7-1c.6-.4,1.3-.7,2-1.1a1.11,1.11,0,0,0,.4-1.4,1,1,0,0,0-.9-.5,2.54,2.54,0,0,1-.7.2Z" transform="translate(0 0)" />
      <path class="theme-color" d="M133.2,1.2V3.6a19.27,19.27,0,0,0,.1,2.4V7.2c.1.7.1,1.3.2,2q.3,3.6.9,7.2a1.05,1.05,0,0,0,1,.8,1.14,1.14,0,0,0,.8-.3.83.83,0,0,0,.3-.8c-.3-2.3-.5-4.6-.7-6.9-.1-.7-.1-1.3-.2-2V6a19.27,19.27,0,0,0-.1-2.4V1.2A1.22,1.22,0,0,0,134.3,0h-.1a1.13,1.13,0,0,0-1,1.2Z" transform="translate(0 0)" />
    </g>
    <g class="star">
      <path class="theme-color" d="M130.3,79.1a1.56,1.56,0,0,0-.8.6,1.18,1.18,0,0,0-.1,1c.1.3.3.7.6.8,1.1.5,2.3,1,3.4,1.5.8.3,1.6.7,2.4,1s1.7.7,2.6,1a26,26,0,0,1,2.5,1c.1,0,.1.1.2.1a1.41,1.41,0,0,0,.9.1,1.79,1.79,0,0,0,.7-.5,1.23,1.23,0,0,0-.4-1.6c-.4-.3-.9-.5-1.4-.8s-1.2-.5-1.8-.8c-.9-.4-1.7-.7-2.6-1.1-1.7-.8-3.4-1.5-5.1-2.3a2.35,2.35,0,0,0-.8-.2c-.1.2-.2.2-.3.2Z" transform="translate(0 0)" />
      <path class="theme-color" d="M138.6,77.4a8.77,8.77,0,0,0-3,2c-.6.5-1.1,1-1.7,1.6s-1.5,1.4-2.2,2.2l-.8.8a6.47,6.47,0,0,0-.8.9,24.34,24.34,0,0,0-2,2.5,1.23,1.23,0,0,0,.2,1.5,1.15,1.15,0,0,0,1.7,0c1.2-1.2,2.4-2.5,3.6-3.7.6-.6,1.2-1.1,1.8-1.7,1-.9,1.9-1.9,3-2.8a10.54,10.54,0,0,1,1.1-.7,1.56,1.56,0,0,0,.8-.6,1.43,1.43,0,0,0-1.3-2.1.76.76,0,0,1-.4.1Z" transform="translate(0 0)" />
      <path class="theme-color" d="M133.4,75.7c0,1.5.1,3,.1,4.5a27.15,27.15,0,0,0,.1,2.9c.1,1.1.1,2.2.3,3.3a22.26,22.26,0,0,0,.5,3.6,1,1,0,0,0,.9.7.9.9,0,0,0,.9-.9c-.2-2.2-.2-4.4-.4-6.6,0-.9-.1-1.9-.1-2.8-.1-1.5-.1-3.1-.1-4.6a1.11,1.11,0,0,0-1.1-1.1h-.1a1,1,0,0,0-1,1Z" transform="translate(0 0)" />
    </g>
  </g>
  <g id="people">
    <g id="stairs">
      <path class="theme-color" d="M112.7,77.4l-5.2.3c-1.7.1-3.4.2-5.1.2H99.8a24.37,24.37,0,0,0-2.7.1c-.5,0-1,.1-1.5.1a8,8,0,0,0-1.5.3,2,2,0,0,0-1.3,1.4,5.65,5.65,0,0,0,0,1.3,7.57,7.57,0,0,0,.1,1.5q.15,3,0,6a23.58,23.58,0,0,0-3.7.2l-2.6.3c-.8,0-1.7.1-2.5.1H81.6c-.8,0-1.7-.1-2.5-.1H76.6a4.87,4.87,0,0,1-1.2-.1h-.6a1.89,1.89,0,0,0-1.9,1,3.4,3.4,0,0,0-.2,1.4,25,25,0,0,1-.5,2.9,12.23,12.23,0,0,0-.3,1.7c-.1.5-.1,1.1-.2,1.6-.6.1-1.2.3-1.7.4-1.5.3-3.1.5-4.7.7a29.68,29.68,0,0,1-5.2.3,30.27,30.27,0,0,0-6,.4l-1.1.3a2.59,2.59,0,0,0-1.1.7c-.5.6-.3,1.3-.4,2V105c0,1.8,0,3.6-.1,5.4h-.3c-.4,0-.8-.1-1.1-.1a14.92,14.92,0,0,0-2.1-.2,20.83,20.83,0,0,0-2.5,0H43.1a19.27,19.27,0,0,0-2.4.1,14.92,14.92,0,0,0-2.1.2c-.8.1-1.5.3-2.3.4a45.33,45.33,0,0,1-5.2.3,1.53,1.53,0,0,0-1.5,1.7,1.59,1.59,0,0,0,1.7,1.5c1.5,0,3.1-.1,4.6-.2l2.1-.3,2.3-.3h4.1c1.3,0,2.7,0,4,.1a9.7,9.7,0,0,0,1.7.1,13.55,13.55,0,0,0,2-.2c.2,0,.5-.1.7-.1a1.83,1.83,0,0,0,1.3-1.7,21.75,21.75,0,0,0,.1-2.6v-5.2a4.87,4.87,0,0,0-.1-1.2h.2a6.69,6.69,0,0,1,2,0h1.2c.9,0,1.8.1,2.8.1a41.7,41.7,0,0,0,5,0l5.3-.6a27.41,27.41,0,0,0,2.8-.5c.1,0,.3-.1.4-.1a2.58,2.58,0,0,0,1.3-.8,5.29,5.29,0,0,0,.9-3c0-.5.1-1,.1-1.4.1-1,.2-2,.3-2.9v-.2c1.1.1,2.2,0,3.3,0h2.5c.9,0,1.8-.1,2.7-.1s1.7-.1,2.5-.2a23.35,23.35,0,0,0,2.6-.4l2.3-.3h1.1a3.66,3.66,0,0,0,1.8-.4c1-.6,1-1.9,1.1-3,0-.5.1-1,.1-1.5V84.9a17.7,17.7,0,0,0-.1-2.3c0-.3-.1-.7-.1-1,.6,0,1.1-.1,1.7-.1.9,0,1.7-.1,2.6-.1H103a24.37,24.37,0,0,0,2.7-.1c3.4-.1,6.8-.4,10.2-.5a5.85,5.85,0,0,0,1.9-.2,1.89,1.89,0,0,0,1.1-1.2,1.68,1.68,0,0,0-.8-1.8,5.3,5.3,0,0,0-2.8-.3H115a17,17,0,0,0-2.3.1ZM95.1,81.5ZM70.5,97.9a.37.37,0,0,0-.3.1c.1,0,.2-.1.3-.1Z" transform="translate(0 0)" />
      <path class="theme-color" d="M116.2,60.1a1.61,1.61,0,0,0-.5,1.1V73c.1,1.9.1,3.9.2,5.8a1.77,1.77,0,0,0,1.8,1.7,1.69,1.69,0,0,0,1.7-1.7c-.1-1.9-.2-3.8-.2-5.7-.1-1.4,0-2.7,0-4.1V63a8.13,8.13,0,0,0-.1-2.2,1.63,1.63,0,0,0-1.7-1.2h0a1.66,1.66,0,0,0-1.2.5Z" transform="translate(0 0)" />
      <path class="theme-color" d="M131.6,56.4a7,7,0,0,0-1.4.3,14.62,14.62,0,0,1-2,.5c-1.4.3-2.7.6-4.1.8-1.6.3-3.1.5-4.7.8a13.32,13.32,0,0,0-1.9.5,2.38,2.38,0,0,0-1.3.9,1.59,1.59,0,0,0,0,1.5c.4.7,1.4.7,2.1.7h1.1a1.06,1.06,0,0,0,1-.9c.7-.1,1.4-.1,2.1-.2,1.2-.1,2.5-.3,3.7-.4s2.1-.3,3.2-.4c.5-.1,1.1-.1,1.6-.2s.8-.1,1.2-.2a3.1,3.1,0,0,0,1.3-.6,1.72,1.72,0,0,0,.8-1.4,1.88,1.88,0,0,0-.2-.8,2,2,0,0,0-1-.8c-.3,0-.7-.1-1-.1h-.5Z" transform="translate(0 0)" />
    </g>
  </g>
  <g id="people-2" data-name="people">
    <path class="cls-2" d="M120.3,19.9c-.3-.1-.5-.2-.8-.3-.5-.1-1-.3-1.5-.4-.9-.4-1.7-.8-2.6-1.2s-1.7-.9-2.6-1.4-1.8-1-2.6-1.5a15.05,15.05,0,0,0-1.7-1,1,1,0,0,0-.8-.5h-.3a.91.91,0,0,0-.7.3h-.1c-.1,0-.2.1-.3.2a1.27,1.27,0,0,0-.4.6,2.15,2.15,0,0,0,0,.8,4.1,4.1,0,0,0-.1,1.1,16.2,16.2,0,0,0-.1,2.2c0,1.6-.1,3.2-.1,4.8s.3,3.1.4,4.7c.1.7.1,1.4.2,2.1s.2,1.5.3,2.3a1.55,1.55,0,0,0,3.1-.1c-.1-1.5,0-2.9,0-4.4V26.4c.2-.1.4-.1.6-.2.6-.2,1.1-.4,1.7-.6a13.64,13.64,0,0,1,1.7-.4c.6-.1,1.3-.3,1.9-.4s1.2-.3,1.7-.4c.8-.2,1.5-.4,2.2-.6.2-.1.5-.2.7-.3a2.65,2.65,0,0,0,.6-.5l.1-.1a1.61,1.61,0,0,0,.4-.7,1.27,1.27,0,0,0,.1-.6A1.77,1.77,0,0,0,120.3,19.9Zm-4.8,1.6c-.9.3-1.8.5-2.8.8a13.82,13.82,0,0,0-2.7.8l-.6.3c0-.8-.1-1.6-.1-2.4a19.27,19.27,0,0,0-.1-2.4c0-.6-.1-1.2-.1-1.8.1.1.3.2.4.3a9.13,9.13,0,0,0,1.3.8c.8.5,1.7,1,2.5,1.4,1,.6,1.9,1.1,2.9,1.7.2.1.3.2.5.3A5,5,0,0,0,115.5,21.5Z" transform="translate(0 0)" />
    <path class="strokes" d="M46.6,40a13,13,0,0,0-3.3.7,9.49,9.49,0,0,0-2.1.9,19.23,19.23,0,0,0-3.1,1.8A14.08,14.08,0,0,0,35,46.3l-1.2,1.8c-.3.5-.5,1-.8,1.5a11.11,11.11,0,0,0-.7,1.6,15.46,15.46,0,0,0-.7,2.3,10.45,10.45,0,0,0,0,2.5,15.67,15.67,0,0,0,.5,3,14.46,14.46,0,0,0,.9,2.2,11.94,11.94,0,0,0,.8,1.6,13.3,13.3,0,0,0,1.4,1.9,12.17,12.17,0,0,0,1.7,1.5,5.38,5.38,0,0,0,2,1,1.16,1.16,0,0,0,1.4-.9,1.24,1.24,0,0,0-.9-1.4.37.37,0,0,1-.3-.1,1.79,1.79,0,0,1-.7-.5A8.64,8.64,0,0,1,37,63a17.39,17.39,0,0,1-1.1-1.8,13.76,13.76,0,0,1-1.2-3.4,6.6,6.6,0,0,1-.1-1.4,10.82,10.82,0,0,1,0-1.8A7.49,7.49,0,0,1,35,53c.3-.7.6-1.5.9-2.1A11.78,11.78,0,0,1,37,49c.2-.2.3-.4.5-.6a12.09,12.09,0,0,1,1.6-1.6c.3-.3.7-.5,1-.8a16.44,16.44,0,0,1,2.2-1.4,26,26,0,0,1,3.6-1.3,26.35,26.35,0,0,1,2.8-.2c.5.1.9.2,1.3.3a14.14,14.14,0,0,1,2.4,1.3c.6.3,1.1.7,1.7,1a12.86,12.86,0,0,1,2.1,1.9,10.23,10.23,0,0,1,1.4,2.2c.2.5.4,1,.6,1.6s.3,1.2.5,1.9a10.82,10.82,0,0,1,0,1.8,12.21,12.21,0,0,1-.6,2.6,9.41,9.41,0,0,1-1.2,2.2,12.88,12.88,0,0,1-1.6,1.7l-.9.6c-.4.2-.7.5-1.1.7a1,1,0,0,0-.7,1.2.91.91,0,0,0,.4.8,1.4,1.4,0,0,0,.9.3,3.73,3.73,0,0,0,2.3-1,7.52,7.52,0,0,0,1.6-1.5,12.88,12.88,0,0,0,2.7-4.5,13.07,13.07,0,0,0,.7-4.4,6.93,6.93,0,0,0-.3-2,16.55,16.55,0,0,0-.6-2.1,9.49,9.49,0,0,0-.9-2.1,11,11,0,0,0-3.1-3.7,24,24,0,0,0-2.6-1.8,4.05,4.05,0,0,0-.9-.5,12.81,12.81,0,0,0-2.4-1.1,8.87,8.87,0,0,0-1.4-.3,5.7,5.7,0,0,0-1.3-.1h-.6c0-.1-.3-.1-.5-.1ZM36,61.1c0,.1.1.1.1.2a.35.35,0,0,0-.1-.2Zm3,3.4h0Z" transform="translate(0 0)" />
    <path class="strokes" d="M38.8,65.8c-.5.5-1.1,1-1.6,1.5s-1.1,1.3-1.6,1.9a13,13,0,0,0-1,1.5c-.6,1-1.2,1.9-1.8,2.9a8,8,0,0,0-.8,1.6,11.11,11.11,0,0,0-.7,1.6,31.8,31.8,0,0,0-1,3.3c-.1.5-.2,1.1-.3,1.6s-.1,1.2-.2,1.8c-.1,1.1-.1,2.1-.1,3.2a8.53,8.53,0,0,0,.8,3.5,4.57,4.57,0,0,0,1.4,1.7,2.86,2.86,0,0,0,2.4.1A5.5,5.5,0,0,0,36,90.7a12.23,12.23,0,0,0,1.2-1.9l.6-1.5c.2-.6.4-1.1.6-1.7.3-1.1.7-2.1,1.1-3.2a13.36,13.36,0,0,1,.7-1.8c.1-.4.3-.7.4-1.1a2.92,2.92,0,0,0,.2-.9.83.83,0,0,0-.3-.8.91.91,0,0,0-1.1-.1,1.83,1.83,0,0,0-.8,1.3c-.1.3-.2.7-.3,1-.3.7-.5,1.5-.8,2.2-.5,1.5-.9,3-1.4,4.4A13.44,13.44,0,0,1,34.9,89a6.47,6.47,0,0,1-.8.9c-.1.1-.2.1-.3.2s-.1,0-.2.1h-.4l-.3-.3c-.1-.2-.2-.3-.3-.5a9.83,9.83,0,0,1-.5-1.6,30.1,30.1,0,0,1,0-5.2v0c.1-.5.1-1.1.2-1.6a8.33,8.33,0,0,1,.4-1.5c.2-.9.6-1.9.9-2.8.2-.5.5-1.1.7-1.6a10,10,0,0,1,.8-1.4c.3-.6.7-1.1,1-1.7.3-.4.6-.9.9-1.3.5-.6.9-1.2,1.5-1.8s1.1-1.1,1.7-1.7a1,1,0,0,0-.1-1.4.62.62,0,0,0-.7-.2c-.2-.1-.4,0-.6.2ZM33.1,89.9Zm-.9-7.4Z" transform="translate(0 0)" />
    <path class="strokes" d="M70,66.5a4.35,4.35,0,0,0-.7.6c-.2.2-.3.4-.5.6a10,10,0,0,1-1,1.1c-.6.4-1.1.8-1.7,1.2a16.18,16.18,0,0,1-1.8,1,21.76,21.76,0,0,1-2.7,1.1,26.81,26.81,0,0,1-2.7.7c-.6.1-1.2.1-1.8.2a6.08,6.08,0,0,1-1.9.1c-.6,0-1.3-.1-1.9-.1h-1a.94.94,0,0,0-.9.5c-.1.2-.1.4-.2.5a2.77,2.77,0,0,0-.1.9v.9a11,11,0,0,0,.2,1.8,18.35,18.35,0,0,0,.6,4.7,2.55,2.55,0,0,0,1.2,1.5,1.42,1.42,0,0,0,.6.2H54a1.27,1.27,0,0,1,.6.1,5.44,5.44,0,0,0,1.8,0c.6,0,1.2-.1,1.8-.1h1.6a2.92,2.92,0,0,1,.9.2c.1.1.2.1.4.2s.1.1.2.2.1.1.1.2a3.59,3.59,0,0,1,.2,1.1,4.33,4.33,0,0,0,.1.5,38.89,38.89,0,0,1,.4,4.7,20.9,20.9,0,0,1-.1,2.5,16.2,16.2,0,0,1-.1,2.2c-.1.6-.2,1.1-.3,1.7-.1.1-.1.3-.2.4s-.2.3-.4.4-.3.2-.5.3-.1,0-.2.1h-.2c-.1,0-.3-.1-.4-.1s-.1-.1-.2-.1l-.2-.2-.6-.9a12.09,12.09,0,0,1-.5-1.8l-.3-1.2-.3-2.1c0-.4-.1-.8-.1-1.2a4.49,4.49,0,0,0-1-2.7,2.18,2.18,0,0,0-.8-.5H54.6c-.3,0-.7.1-1,.1a4.1,4.1,0,0,0-1.1.1,6.75,6.75,0,0,0-1.4.2h.1c-.6.1-1.2.3-1.8.4a4.75,4.75,0,0,0-1.9.9,3.07,3.07,0,0,0-1.1,1.8,12.23,12.23,0,0,0-.3,1.7c0,.6-.1,1.2-.1,1.8,0,1.3.1,2.6.2,3.9s.1,2.5.2,3.8a48.64,48.64,0,0,1,0,5.4,15.72,15.72,0,0,1-.4,2.3,2.51,2.51,0,0,1-.4.7c-.1.1-.2.2-.2.3s-.1.1-.2.1a.35.35,0,0,0-.2.1h-.3c-.2,0-.3-.1-.5-.1s-.2-.1-.3-.2l-.3-.3c-.2-.2-.3-.5-.5-.7a7.84,7.84,0,0,1-.5-1.4l-.3-1.5v0a58.23,58.23,0,0,1-.7-7.3c-.1-2.5-.3-5.1-.4-7.6-.1-2.2-.2-4.4-.2-6.5-.1-2.4-.1-4.8-.1-7.3a1,1,0,0,0-.9-.9.9.9,0,0,0-.9.9v8.2c0,2.6,0,5.1.1,7.7s.1,5.1.2,7.7c.1,1.3.1,2.5.3,3.8l.3,2.1a10.46,10.46,0,0,0,.4,1.7c.1.3.3.7.4,1a1.79,1.79,0,0,0,.5.7,4.26,4.26,0,0,0,2,1.5,3,3,0,0,0,1.6.2,3.18,3.18,0,0,0,.9-.3,3.45,3.45,0,0,0,.9-.8,6.85,6.85,0,0,0,1.1-3c.2-1.2.2-2.5.3-3.7v-4c0-1.5-.1-3.1-.1-4.6a19.22,19.22,0,0,1,0-2.4,14.77,14.77,0,0,1,.1-2.1,2.92,2.92,0,0,1,.2-.9c0-.1.1-.2.2-.4s.1-.1.2-.2.3-.2.4-.3A6.69,6.69,0,0,1,51,90a9.7,9.7,0,0,1,1.7-.1c.2,0,.5.1.7.1a1.88,1.88,0,0,1,.8.2c.1,0,.1,0,.2.1h-.1a.1.1,0,0,1,.1.1,4.33,4.33,0,0,1,.1.5c.2,1.3.2,2.6.4,3.8a11.8,11.8,0,0,0,.4,2,7.94,7.94,0,0,0,1,2.7c.2.3.4.5.6.8a6.47,6.47,0,0,0,.8.9,6.11,6.11,0,0,0,1.4.7,5.16,5.16,0,0,0,1.1.2,4.1,4.1,0,0,0,1.1-.1,3.7,3.7,0,0,0,1.1-.5c.3-.2.5-.4.8-.6a3.92,3.92,0,0,0,.8-1c.2-.4.4-.8.6-1.3s.2-.8.3-1.3a14.92,14.92,0,0,0,.2-2.1V91.4a23.48,23.48,0,0,0-.5-3.7c-.1-.6-.3-1.2-.4-1.8-.1-.2-.1-.5-.2-.7a5.56,5.56,0,0,0-.9-1.7,4.67,4.67,0,0,0-3.6-1.2,13.4,13.4,0,0,0-2,.1,18.19,18.19,0,0,1-3.3,0h0a.1.1,0,0,0-.1-.1c-.1-.3-.2-.6-.3-1-.2-1.2-.2-2.3-.3-3.5a26,26,0,0,1-.3-2.6h.3a2.77,2.77,0,0,1,.9.1,12,12,0,0,0,1.9,0,27.33,27.33,0,0,0,4-.5c.6-.1,1.2-.3,1.9-.4a10.93,10.93,0,0,0,1.7-.5,22.77,22.77,0,0,0,3.6-1.5c.4-.2.8-.5,1.2-.7.2-.1.4-.3.6-.4a5.55,5.55,0,0,0,.8-.6,7.64,7.64,0,0,0,.9-.9,4,4,0,0,0,.9-1.5,1,1,0,0,0-.4-1.1,1.14,1.14,0,0,0-.8-.3c-.4-.6-.6-.5-.7-.4ZM53.8,82h0Zm.3.1ZM48.3,92v0Zm13,6.1c0,.1-.1.1,0,0-.1.1,0,.1,0,0ZM43.1,109.8h0c.1.1,0,.1,0,0Zm2.9.4ZM42.4,107Z" transform="translate(0 0)" />
    <path class="strokes" d="M68.5,59.5a2.34,2.34,0,0,0-.7.7l-.4.4a20.17,20.17,0,0,1-4.1,2.2c-1,.4-2,.9-3,1.2a10.93,10.93,0,0,1-1.7.5l-1.4.3a24.77,24.77,0,0,1-2.7.3c.1-.1.2-.1.2-.2a.79.79,0,1,0-.9-1.3c-.3.2-.5.4-.7.5-.5.4-1.1,1-.8,1.8s1,1,1.7,1.2a4.87,4.87,0,0,0,1.2.1,20.45,20.45,0,0,0,3.5,0l2-.3c.6-.2,1.2-.3,1.8-.5A36.83,36.83,0,0,0,66,64.9a17.1,17.1,0,0,0,2.3-1.3,11.32,11.32,0,0,0,1.3-1,2.6,2.6,0,0,0,.9-1.6v-.7a2.19,2.19,0,0,0-.3-.5,1.4,1.4,0,0,0-.9-.3.75.75,0,0,0-.8,0Zm-5.2,3.3c-.1,0-.1.1-.2.1a.35.35,0,0,1,.2-.1ZM54,65.5Z" transform="translate(0 0)" />
    <path class="cls-4" d="M45.8,67.7l-.1.1a1.47,1.47,0,0,0-.6.5,3,3,0,0,0-.2,1v.4c-.2.5-.4,1.1-.6,1.6,0-.1.1-.2.1-.3-.4,1-.8,2.1-1.2,3.1l-.6,1.5a10.38,10.38,0,0,0-.4,1c0,.1-.1.3-.1.4v.8c0,.1.1.2.1.4a16.58,16.58,0,0,0,1.5,3.3c.3.5.5,1,.7,1.4a1.76,1.76,0,0,0,1,.9,1.47,1.47,0,0,0,1.4-.5,7.46,7.46,0,0,0,.7-1.2,7.46,7.46,0,0,1,.7-1.2c.1-.2.2-.3.3-.5a1.53,1.53,0,0,0,.2-1.3c-.1-.5-.2-1-.3-1.6a5.16,5.16,0,0,1-.2-1.1h0c-.2-1-.4-2-.5-3-.1-.8-.3-1.7-.4-2.5,0-.4-.1-.8-.1-1.2V69a.44.44,0,0,0,.1-.5v-.3a.91.91,0,0,0-.3-.7.73.73,0,0,0-.6-.2,2.09,2.09,0,0,1-.6.4Zm1.9,5.6v0Zm-2.4,2.3c.1-.5.3-1,.4-1.5,0,.3.1.6.1.9.2,1.4.4,2.8.7,4.1v.3l-.6.9c-.2-.4-.4-.7-.6-1.1a8.51,8.51,0,0,1-.6-1.7c.2-.6.4-1.3.6-1.9Zm-.7,2.1a.35.35,0,0,1-.1.2.31.31,0,0,0,.1-.2Z" transform="translate(0 0)" />
    <path class="strokes" d="M45.6,53.3a1.3,1.3,0,1,0,1.2-1.4,1.32,1.32,0,0,0-1.2,1.4Z" transform="translate(0 0)" />
    <path class="strokes" d="M51.8,52.9a1.15,1.15,0,0,0,2.3-.1c-.1-.6-.6-1.2-1.2-1.1a1.13,1.13,0,0,0-1.1,1.2Z" transform="translate(0 0)" />
    <path class="strokes" d="M45.9,57a.9.9,0,0,0,.1,1.4,7.84,7.84,0,0,0,1.5,1,4.92,4.92,0,0,0,1.7.6l2,.3a3.79,3.79,0,0,0,2.3-.6,3.25,3.25,0,0,0,1.3-1.3,1.24,1.24,0,0,0-.3-1.5,1.2,1.2,0,0,0-1.5-.1l-.9.6c-.3.2-.5.3-.8.5a.6.6,0,0,1-.4.1,5.65,5.65,0,0,1-1.3,0,3.55,3.55,0,0,1-1-.2,4.05,4.05,0,0,1-.9-.5.78.78,0,0,1-.4-.4,1.08,1.08,0,0,0-.7-.3,2.51,2.51,0,0,0-.7.4Zm3.9,1.1Z" transform="translate(0 0)" />
    <path class="strokes" d="M85,20.7a10.24,10.24,0,0,0-3,.8,18.89,18.89,0,0,0-2.5,1.1,13.66,13.66,0,0,0-2.8,2.1,12.06,12.06,0,0,0-2.1,2.4,8.26,8.26,0,0,0-.7,1.3,9,9,0,0,0-.8,2.3c-.1.7-.1,1.3-.2,1.9v.9a21,21,0,0,0,.5,4.3,9.21,9.21,0,0,0,1.7,3.6,14.7,14.7,0,0,0,3.1,3,1.11,1.11,0,0,0,1.4-.4,1.06,1.06,0,0,0,.1-.8c-.1-.3-.3-.4-.5-.6h0a10,10,0,0,1-1.5-1.4c-.3-.3-.5-.7-.8-1a10.91,10.91,0,0,1-.6-1.1c-.1-.3-.3-.7-.4-1s-.2-.7-.3-1.1a21.05,21.05,0,0,1-.2-2.5,12.19,12.19,0,0,1,0-2.7,9.36,9.36,0,0,1,.4-1.6A15.05,15.05,0,0,1,76.9,28a15.25,15.25,0,0,1,2.2-2.2,13.73,13.73,0,0,1,2-1.3,12.66,12.66,0,0,1,6.2-1.3,21,21,0,0,1,2.4.6l2.1.9A25.29,25.29,0,0,1,94,26a11.41,11.41,0,0,1,1.1,1.1,17,17,0,0,1,1.5,2.2,9.83,9.83,0,0,1,.5,1.6,7.57,7.57,0,0,1,.1,1.5v1.7a8.33,8.33,0,0,1-.4,1.5,8,8,0,0,1-.8,1.6c-.3.5-.6,1-.9,1.4a8.74,8.74,0,0,1-.8,1l-.9.9c-.4.3-.7.6-1.1.9s-.8.5-1.2.8c-.1,0-.3.1-.4.1a1.5,1.5,0,0,0-1,1.4A1.34,1.34,0,0,0,91.1,45a5,5,0,0,0,1.2-.2l.6-.3a3,3,0,0,0,.7-.5,11.51,11.51,0,0,0,1.7-1.4,15.29,15.29,0,0,0,2.6-3.1,12.9,12.9,0,0,0,.9-1.6,3.55,3.55,0,0,0,.4-.9,6.89,6.89,0,0,1,.4-1,5.66,5.66,0,0,0,.3-1.8,20.85,20.85,0,0,0,0-2.5,11.27,11.27,0,0,0-.3-1.8,10.64,10.64,0,0,0-.9-2.5,24.26,24.26,0,0,0-1.4-2,9,9,0,0,0-.9-1,5.8,5.8,0,0,0-1.2-1,9.5,9.5,0,0,0-1.7-1l-1.8-.9a19.45,19.45,0,0,0-2.2-.8,10.32,10.32,0,0,0-3-.4,4.19,4.19,0,0,1-1.5.4Zm8.8,5.2c.1.1.2.1.3.2h0c-.1-.1-.2-.2-.3-.2Zm1.3,1.2.2.2c-.1,0-.1-.1-.2-.2ZM93.6,40.4l-.1.1.1-.1Zm-15.9.8.1.1-.1-.1Z" transform="translate(0 0)" />
    <path class="strokes" d="M78,42.6a1.34,1.34,0,0,0-.7.6,1.17,1.17,0,0,0,.5,1.6L80.2,46a6.12,6.12,0,0,0,1.2.5.9.9,0,0,0,.5.1,2.46,2.46,0,0,0,1.2-.1,1.27,1.27,0,0,0,.8-.8,1.2,1.2,0,0,0-.6-1.3,6.94,6.94,0,0,0-1.3-.5l-1.1-.3c-.7-.3-1.4-.6-2-.9a1.27,1.27,0,0,0-.6-.1c-.1-.1-.2,0-.3,0Z" transform="translate(0 0)" />
    <path class="strokes" d="M78.5,43.3a1.42,1.42,0,0,0-.6.2l-.6.3a6.47,6.47,0,0,0-.9.8,4.35,4.35,0,0,0-.6.7l-1.2,1.5A36.17,36.17,0,0,0,72.4,50a30.71,30.71,0,0,0-1.7,3.1,21.69,21.69,0,0,0-1.5,3.5l-.6,1.8a7.49,7.49,0,0,0-.5,1.6,16.7,16.7,0,0,0-.6,3.8,9.15,9.15,0,0,0,.1,1.7,4.28,4.28,0,0,0,.5,1.6,2.36,2.36,0,0,0,.9.8,3.08,3.08,0,0,0,1,.1,2.78,2.78,0,0,0,2.1-.8,8,8,0,0,0,1.3-1.3,14.31,14.31,0,0,0,1.1-1.5c.8-1.3,1.5-2.8,2.3-4.2.4-.7.7-1.4,1.1-2.1s.7-1.2,1-1.7c0,.8.1,1.6.1,2.4,0,1.2.1,2.3.1,3.5.1,2.4.2,4.8.4,7.3s.4,4.8.5,7.2c.1,1.1.1,2.2.2,3.3s.1,2.3.2,3.5c.1.6.2,1.1.3,1.7s.3.9.4,1.4a5.74,5.74,0,0,0,1.6,2.7,4.23,4.23,0,0,0,.7.5l.6.3a2.44,2.44,0,0,0,1.2,0,2.12,2.12,0,0,0,.7-.3,2.7,2.7,0,0,0,.8-.7,4,4,0,0,0,1-1.8,12.76,12.76,0,0,0,.6-3.4v.1c.2-2.4.2-4.7.2-7.1,0-1.2-.1-2.3-.1-3.5a9.7,9.7,0,0,0-.1-1.7c0-.6-.1-1.2-.1-1.8V67.2a4.25,4.25,0,0,0-.2-1.1,1.08,1.08,0,0,0-1.1-.8.76.76,0,0,0-.5.2,1.16,1.16,0,0,0-.5.7h0c0-.1,0-.1.1-.2a1.42,1.42,0,0,0-.2.6c0,.2-.1.4-.1.6v2.5c0,.6.1,1.2.1,1.8s.1,1.1.1,1.6c.1,1.2.2,2.3.3,3.5s.1,2.5.2,3.7,0,2.4-.1,3.5a19.09,19.09,0,0,1-.6,3.3l-.3.6c-.1.1-.2.3-.4.4s-.1.1-.2.1-.1,0-.2.1h0L84,88c-.2-.1-.3-.3-.5-.4a4.23,4.23,0,0,1-.5-.7,10.93,10.93,0,0,1-.5-1.7,50.35,50.35,0,0,1-.5-6.7c0-1.1-.1-2.2-.2-3.3s-.1-2.4-.2-3.6-.3-2.3-.4-3.5-.1-2.4-.2-3.6L80.7,57a19.27,19.27,0,0,0-.1-2.4,2,2,0,0,0-.3-1.1,1.1,1.1,0,0,0-1-.6,2.09,2.09,0,0,0-1.3.7,16.1,16.1,0,0,0-2.1,3,10.09,10.09,0,0,0-.7,1.5c-.3.6-.5,1.1-.8,1.7A31.82,31.82,0,0,1,72.8,63a14,14,0,0,1-1,1.6,8.12,8.12,0,0,1-.9,1c-.2.1-.4.3-.6.4H70V63.6a23.69,23.69,0,0,1,.9-3.6c.4-1.1.8-2.2,1.2-3.2,0,.1-.1.2-.1.3.3-.9.7-1.7,1.1-2.6s.7-1.6,1.2-2.4c.9-1.6,1.9-3.2,2.9-4.7a6.89,6.89,0,0,1,1.1-1.3,1.38,1.38,0,0,1,.4-.3h.1c.1,0,.2.1.3.1a1,1,0,0,0,.9-.2,1.16,1.16,0,0,0,.5-.7,1,1,0,0,0-.2-.9,1.16,1.16,0,0,0-.7-.5,2.92,2.92,0,0,0-.9-.2.31.31,0,0,0-.2-.1Zm.6,2.2c-.1,0-.1.1,0,0-.1.1-.1,0,0,0ZM70,65.7Zm.1.2Zm0,0Zm0,0ZM84.9,88Zm-.5.1Zm0,0h0Zm.3,0Zm0,0Z" transform="translate(0 0)" />
    <path class="strokes" d="M108.9,31.8a5.39,5.39,0,0,0-1.3.7c-.3.2-.6.5-.9.7a15.58,15.58,0,0,0-1.6,2,18.39,18.39,0,0,0-1.9,4c-.3.7-.5,1.3-.8,2a12.45,12.45,0,0,1-1,2c-.1.2-.3.3-.4.5s-.3.2-.5.3c-.5.2-1.1.3-1.7.5a9.85,9.85,0,0,1-1.7.2c-.6,0-1.2.1-1.8.1H92.1a.37.37,0,0,1-.3-.1,1.16,1.16,0,0,0-.7-.5,1,1,0,0,0-1.2.6,1.29,1.29,0,0,0-.1,1.2,1.76,1.76,0,0,0,.9,1,5,5,0,0,0,1.3.5l2,.3h1.8a11,11,0,0,0,1.8-.2,15.52,15.52,0,0,0,2.1-.4,8.75,8.75,0,0,0,2.6-1.2c1.5-1.1,2-2.9,2.5-4.5a20.94,20.94,0,0,0,.8-2.3,14.17,14.17,0,0,1,.8-1.8,15.05,15.05,0,0,1,1-1.7c.2-.3.4-.5.6-.8a2.65,2.65,0,0,1,.6-.5,3,3,0,0,1,.7-.5,1.85,1.85,0,0,1,.7-.2h.3c.1,0,.1.1.2.1l.1.1a.31.31,0,0,1,.1.2,1.85,1.85,0,0,1,.2.7V36a9,9,0,0,1-.3,1.6c-.2.6-.4,1.1-.6,1.7-.3.8-.7,1.5-1,2.3l-.6,1.2c-.2.4-.5.8-.7,1.2a24.51,24.51,0,0,1-2.9,3.5,2.38,2.38,0,0,1-1.1.6c-.7.3-1.5.5-2.3.8-.5.1-.9.3-1.4.4a3.55,3.55,0,0,1-1,.2c-1.3.2-2.7.4-4,.7-.6.1-1.3.3-1.9.4-.3.1-.6.1-.9.2a2.14,2.14,0,0,0-1.5.9,5,5,0,0,0-.5,1.3,13.4,13.4,0,0,0-.1,2,13.4,13.4,0,0,0,.1,2,6.28,6.28,0,0,0,.3,1.9c.1.2.2.5.3.7a1.76,1.76,0,0,0,.4.5,1.52,1.52,0,0,0,.8.4.37.37,0,0,1,.3.1,6.6,6.6,0,0,0,1.4.1,8.08,8.08,0,0,0,1.6.1H97a9.63,9.63,0,0,1,1.7,0,7.57,7.57,0,0,1,1.5.1,9.36,9.36,0,0,1,1.6.4c.1,0,.1.1.2.1s.1.1.1.2,0,.1.1.2a4.1,4.1,0,0,0,.1,1.1c0,.5.1,1,.1,1.5a28.1,28.1,0,0,1,.1,2.9c0,1.9,0,3.8-.1,5.7a25.69,25.69,0,0,1-.7,4,3.13,3.13,0,0,1-.5,1c-.1.2-.3.3-.4.5h0c-.2,0-.4-.1-.6-.1a.35.35,0,0,1-.2-.1l-.3-.3-.1-.1c-.1-.2-.1-.5-.2-.8a63.63,63.63,0,0,1-.8-7.5c0-.7-.1-1.4-.1-2.1,0-.3-.1-.6-.1-.9a4.25,4.25,0,0,0-.2-1.1,2.62,2.62,0,0,0-.6-1.3,2.28,2.28,0,0,0-1.6-.4h-.9c-.6,0-1.3.1-1.9.1l-2.8.3c-1.1.1-2.2.2-3.3.4A1.37,1.37,0,0,0,85.7,66a1.34,1.34,0,0,0,1.4,1.3l4.9-.6c1.2-.1,2.3-.3,3.5-.3.2,1.3.2,2.5.3,3.8s.2,2.6.4,3.8a28.32,28.32,0,0,0,.8,4,4,4,0,0,0,3.1,2.6,2,2,0,0,1,.7.1c.2,0,.5-.1.7-.1a2,2,0,0,0,.9-.6,3.59,3.59,0,0,0,.7-1l.6-1.2a20.54,20.54,0,0,0,.9-4.3c.1-1.3.2-2.7.2-4a62.71,62.71,0,0,0-.3-7.5,1.7,1.7,0,0,0-.1-.7c0-.2-.1-.4-.1-.6s-.2-.5-.3-.7a3.57,3.57,0,0,0-1.1-1,2.51,2.51,0,0,0-.7-.4,4.19,4.19,0,0,0-1.6-.4A7.77,7.77,0,0,0,99,58a12.1,12.1,0,0,0-1.9-.1c-.5,0-1.1-.1-1.6-.1s-.9-.1-1.4-.1h-.7a19.42,19.42,0,0,1-.2-2.4,20,20,0,0,0-.4-2.4.37.37,0,0,0,.1.3v-.4l1.1-.3,1.4-.3c.8-.2,1.6-.3,2.4-.5a14.16,14.16,0,0,0,2-.4c.6-.1,1.3-.3,1.9-.4a10.93,10.93,0,0,1,1.7-.5,13.36,13.36,0,0,0,1.8-.7,12.64,12.64,0,0,0,3.8-3.1l1.2-1.5a17.39,17.39,0,0,0,1.1-1.8,30.44,30.44,0,0,0,1.7-3.7l.6-1.8a2.49,2.49,0,0,0,.1-.8c0-.4.1-.8.1-1.2a5.83,5.83,0,0,0-.6-2.6,2.58,2.58,0,0,0-2-1.5h-.5a3.24,3.24,0,0,0-1.8.1Zm1.2,1.9Zm-2.3,10.2c0,.1-.1.1,0,0-.1.1,0,.1,0,0ZM93.3,60.7h0Zm8.4.5Zm-6.5,5.2Z" transform="translate(0 0)" />
    <path class="strokes" d="M78.2,34.3a1,1,0,0,0,1.1,1c.6-.1,1.1-.5,1-1.1a1,1,0,0,0-1.1-1c-.6.1-1.1.5-1,1.1Z" transform="translate(0 0)" />
    <path class="strokes" d="M82.8,33.8a1.35,1.35,0,1,0,1.3-1.4,1.24,1.24,0,0,0-1.3,1.4Z" transform="translate(0 0)" />
    <path class="strokes" d="M84.3,37.9h0a6.73,6.73,0,0,1-1.1.7,6.89,6.89,0,0,0-.8.3,3.33,3.33,0,0,1-1,0c-.5-.1-.9-.2-1.3-.3H80a1.27,1.27,0,0,0-.6-.1,1,1,0,0,0-.5.4c-.2.4-.1,1,.3,1.1s.7.3,1.1.4a5.85,5.85,0,0,0,1.3.2,7.52,7.52,0,0,0,1.5,0,5.07,5.07,0,0,0,1.3-.2A2.33,2.33,0,0,0,86,39.1a1.21,1.21,0,0,0-.2-1.4,1.14,1.14,0,0,0-.8-.3c-.2.2-.5.3-.7.5Zm-.1.2Z" transform="translate(0 0)" />
    <path class="cls-4" d="M85.3,47v.3c-.1.1-.1.3-.2.4s-.1.3-.1.4l-.3.9c-.1.5-.3,1-.4,1.5-.3,1-.6,2.1-.9,3.1-.2.5-.3.9-.5,1.4-.1.2-.1.4-.2.6s-.1.4,0,.5a1.52,1.52,0,0,0,.6,1.1l1.1,1.1a5.24,5.24,0,0,0,1.1,1,.76.76,0,0,0,.5.2,1.21,1.21,0,0,0,1.3-.8,3.58,3.58,0,0,0,.4-1.1c.1-.4.3-.7.4-1.1a2.77,2.77,0,0,0,.1-.9v-.9c-.1-.5-.2-.9-.3-1.4s-.1-.7-.2-1.1v-.1h0c-.1-.8-.3-1.5-.4-2.3s-.3-1.5-.4-2.2h0c-.1-.5-.1-1-.5-1.2a.37.37,0,0,0-.3-.1c-.4.2-.7.4-.8.7Zm-.2,7.4.3-2.1a11.8,11.8,0,0,1,.4-2,4.1,4.1,0,0,1,.1,1.1c.1,1,.3,2.1.5,3.1h0c0,.2.1.4.1.7v1a.6.6,0,0,1-.1.4,2.19,2.19,0,0,1-.3.5l-.1.1a1.76,1.76,0,0,0-.4-.5c-.3-.3-.5-.6-.8-.9a7,7,0,0,0,.3-1.4Zm-.5,1,.1.1a.1.1,0,0,1-.1-.1Zm.3.8Zm1.7-.1v0Zm1-3.8Z" transform="translate(0 0)" />
    <path class="strokes" d="M78,34.2a1.25,1.25,0,1,0,1.2-1.3A1.31,1.31,0,0,0,78,34.2Z" transform="translate(0 0)" />
    <path class="strokes" d="M51.8,52.7a1.05,1.05,0,1,0,1-1.1,1.1,1.1,0,0,0-1,1.1Z" transform="translate(0 0)" />
    <path class="strokes" d="M45.6,56.8a1.28,1.28,0,0,0-.4,1.7,8,8,0,0,0,2.3,2.2,5.83,5.83,0,0,0,2.6.6,5.94,5.94,0,0,0,2.6-.7,3.86,3.86,0,0,0,1.8-2.2c.3-.9-.9-1.6-1.6-1.1a2.51,2.51,0,0,1-.7.4l-.6.3a2.35,2.35,0,0,1-.8.2,9.15,9.15,0,0,1-1.7.1,1.85,1.85,0,0,1-.7-.2.1.1,0,0,1-.1-.1l-.9-.9-.1-.1a.89.89,0,0,0-.8-.5h-.3c-.2.1-.4.1-.6.3Zm1.6.2.1.1-.1-.1Z" transform="translate(0 0)" />
    <path class="strokes" d="M78.7,38.2a1.79,1.79,0,0,0-.5.7,1.41,1.41,0,0,0,.1.9A6.48,6.48,0,0,0,80,41.4a1.93,1.93,0,0,0,1,.3,3.81,3.81,0,0,0,1.5-.1,6.39,6.39,0,0,0,1.9-.8,2.7,2.7,0,0,0,.8-.7,2.59,2.59,0,0,0,.7-1.1.87.87,0,0,0-1.3-.9,5,5,0,0,0-.8.7c-.2.1-.3.2-.5.3s-.6.2-1,.3a2.72,2.72,0,0,1-.9,0c-.2,0-.4-.1-.6-.1s-.2-.1-.3-.2-.3-.3-.5-.4l-.1-.1a1.79,1.79,0,0,0-.7-.5h-.3c.2,0,0,0-.2.1Zm1.7.6Z" transform="translate(0 0)" />
    <path class="strokes" d="M52.9,63.4c-.2.1-.3.2-.5.3a.52.52,0,0,1-.4.2c-.1.1-.3.1-.4.2a1.05,1.05,0,0,0-.5.9.75.75,0,0,0,.4.7,2.36,2.36,0,0,0,.9.6l1.5.6a.88.88,0,0,0,1-.5.84.84,0,0,0-.4-1.2c-.2-.1-.5-.3-.7-.4h.3a.85.85,0,1,0-.1-1.7,2.61,2.61,0,0,0-1.1.3Zm-.2.8c.1,0,.1.1.2.1h0c-.1,0-.2,0-.2-.1Z" transform="translate(0 0)" />
    <path class="strokes" d="M90.9,42.9l-1.2.3c-.3.1-.5.2-.8.3a1.25,1.25,0,0,0-.6,1.1,1.61,1.61,0,0,0,.3.9,1.78,1.78,0,0,0,.7.8,2.38,2.38,0,0,0,1.1.6c.3.1.6.1.9.2h.5a1.33,1.33,0,0,0,.6-.5,1,1,0,0,0-.4-1.3c-.2-.1-.5-.2-.7-.3s-.3-.1-.4-.2c.2-.1.4-.1.6-.2a.9.9,0,0,0,.6-1.2.83.83,0,0,0-1-.6c0,.1-.1.1-.2.1Zm-.8,2.3Zm-.1,0h0c-.1,0-.1.1-.2.1a.31.31,0,0,1,.2-.1Z" transform="translate(0 0)" />
    <path class="strokes" d="M35.8,50a.55.55,0,1,0,.6-.5c-.3,0-.6.1-.6.5Z" transform="translate(0 0)" />
    <path class="strokes" d="M51.6,65.3a13,13,0,0,0-1.7.8c-.5.2-1,.4-1.4.6a8.33,8.33,0,0,1-1.5.4,14.15,14.15,0,0,1-2.9-.2,12.86,12.86,0,0,1-1.9-.4l-2.3-.6a1.3,1.3,0,0,0-.7,2.5l3.2.9c1,.2,2.1.4,3.1.5a5.7,5.7,0,0,0,1.3.1,6.28,6.28,0,0,0,1.9-.3c.4-.1.9-.3,1.3-.4s.9-.3,1.3-.4.7-.3,1-.4a7,7,0,0,0,.9-.6,1.61,1.61,0,0,0,.4-.7,1.67,1.67,0,0,0-.1-1.2,1.6,1.6,0,0,0-.9-.7c-.2,0-.3-.1-.5-.1a4.7,4.7,0,0,0-.5.2Zm-2.9,1.3Z" transform="translate(0 0)" />
    <path class="strokes" d="M90.4,43.1a8,8,0,0,1-1.6.8,10.46,10.46,0,0,1-1.7.4,1.7,1.7,0,0,0-.7.1,13.4,13.4,0,0,1-2-.1,20.48,20.48,0,0,1-2.4-.5,1.43,1.43,0,0,0-1.8,1,1.47,1.47,0,0,0,1,1.8c1,.2,1.9.5,2.9.6a14.47,14.47,0,0,0,3.6.1,6,6,0,0,0,4.4-1.8,1.61,1.61,0,0,0,.4-.7,1.67,1.67,0,0,0-.1-1.2,1.72,1.72,0,0,0-1.4-.8,3.33,3.33,0,0,1-.6.3Z" transform="translate(0 0)" />
    <path class="strokes" d="M71.3,53a1.3,1.3,0,0,0,0,1.9c.6.6,1.3,1.3,2,1.9a13.71,13.71,0,0,0,2.3,1.7,1.25,1.25,0,0,0,1.7-.4,1.15,1.15,0,0,0,.1-1,1.56,1.56,0,0,0-.6-.8,2.65,2.65,0,0,1-.6-.5,26.82,26.82,0,0,1-3-2.8,1.43,1.43,0,0,0-1-.4,1.8,1.8,0,0,0-.9.4Z" transform="translate(0 0)" />
    <path class="strokes" d="M97.3,45c-.7,2-1.4,4-2.1,6.1a1.2,1.2,0,0,0,2.3.7c.7-2,1.5-4,2.2-6.1a1.24,1.24,0,0,0-.8-1.5c-.1,0-.3-.1-.4,0a1.21,1.21,0,0,0-1.2.8Z" transform="translate(0 0)" />
    <path class="strokes" d="M91.2,58.3a9.88,9.88,0,0,0-3,.7c-.7.2-1.4.4-2.2.7-1.7.6-3.5,1.2-5.2,1.8a1.46,1.46,0,0,0-.9.6,1.39,1.39,0,0,0-.2,1.1,1.41,1.41,0,0,0,1.7,1.1l5.1-1.8a18.66,18.66,0,0,1,2.2-.7c.9-.3,1.7-.7,2.6-1-.1,0-.2.1-.3.1.1,0,.2-.1.3-.1a1.29,1.29,0,0,0,.9-1.2,1,1,0,0,0-1-1.3Z" transform="translate(0 0)" />
    <path class="strokes" d="M85.1,77.6h-.8c-.3,0-.6.1-.9.1l-1.7.3a1.56,1.56,0,0,0-.8.6,1.18,1.18,0,0,0-.1,1,1.56,1.56,0,0,0,.6.8,1.64,1.64,0,0,0,1,.2c.6-.1,1.2-.2,1.7-.3.2,0,.5-.1.7-.1a4.33,4.33,0,0,0,.5-.1,3.88,3.88,0,0,0,1.1-.6,1.21,1.21,0,0,0,.2-1.4.75.75,0,0,0-.7-.5h-.3c-.1-.1-.3,0-.5,0Z" transform="translate(0 0)" />
    <path class="strokes" d="M101.2,72.3a15.83,15.83,0,0,0-3.1.9,1.3,1.3,0,0,0,.7,2.5c1-.3,2.1-.6,3.1-1a1.28,1.28,0,0,0,.7-.5,1,1,0,0,0,.1-.9,1.22,1.22,0,0,0-1.3-.9c-.1-.2-.2-.2-.2-.1Z" transform="translate(0 0)" />
    <path class="strokes" d="M56.3,67c-.1,1.1-.1,2.2-.2,3.2v2.6a1.33,1.33,0,0,0,.3.8A1.16,1.16,0,0,0,58,74c.1-.1.3-.2.4-.3a1.21,1.21,0,0,0,.2-1.4.1.1,0,0,0-.1-.1,4.87,4.87,0,0,1,.1-1.2v-.9c.1-1,.1-2.1.2-3.1a1.16,1.16,0,0,0-1.2-1.2h-.1A1.22,1.22,0,0,0,56.3,67Z" transform="translate(0 0)" />
    <path class="strokes" d="M33.2,75.5a1,1,0,0,0-.4,1.3,54.49,54.49,0,0,0,2.9,5.3.86.86,0,0,0,1.2.3.84.84,0,0,0,.3-1.2c-1-1.8-1.9-3.6-2.8-5.4a1.05,1.05,0,0,0-.9-.5c-.1.1-.2.1-.3.2Z" transform="translate(0 0)" />
    <path class="strokes" d="M52.6,82.8a25.5,25.5,0,0,1-2.9,1.3c-.4.1-.8.3-1.1.4s-.7.2-1,.3a18.24,18.24,0,0,1-2.5.7c-1.7.4-3.3.8-5,1.3a1.24,1.24,0,0,0,.6,2.4c2.2-.6,4.5-1.1,6.7-1.7a2.35,2.35,0,0,1,.8-.2l.9-.3c.2-.1.5-.2.7-.3a4.18,4.18,0,0,0,1-.4c.5-.2,1-.4,1.6-.7A9.06,9.06,0,0,0,54,84.5a1.06,1.06,0,0,0,.2-1.3.88.88,0,0,0-1-.5c-.3,0-.5,0-.6.1Z" transform="translate(0 0)" />
    <path class="strokes" d="M48.1,98.4A28.37,28.37,0,0,1,45,99c-1.1.2-2.2.3-3.3.5a.82.82,0,0,0-.6.4,1.06,1.06,0,0,0-.1.8.92.92,0,0,0,.4.6.75.75,0,0,0,.8.1c1.1-.2,2.2-.3,3.3-.5a16.66,16.66,0,0,0,3-.8,1,1,0,0,0,.5-.4.88.88,0,0,0,.1-.7,1,1,0,0,0-.9-.7c0,.1,0,.1-.1.1Z" transform="translate(0 0)" />
    <path class="strokes" d="M62.5,91.1c-1.5.6-3,1.1-4.4,1.7a1,1,0,0,0-.5.4,1.27,1.27,0,0,0-.1.6,1,1,0,0,0,.4.5.85.85,0,0,0,.8,0c1.5-.6,2.9-1.2,4.4-1.8l.3-.3a1.27,1.27,0,0,0,.1-.6.85.85,0,0,0-.3-.5.6.6,0,0,0-.4-.1.77.77,0,0,1-.3.1Z" transform="translate(0 0)" />
    <path class="strokes" d="M44.6,106a4,4,0,0,0-2.2,1.4,7.91,7.91,0,0,0-1.4,4.4,1.47,1.47,0,0,0,1.5,1.5,1.5,1.5,0,0,0,1.1-.4,1.91,1.91,0,0,0,.5-1,1.27,1.27,0,0,1,.1-.6,5.73,5.73,0,0,1,.4-1.4l.3-.6.2-.2h.1l.4.4c.2.4.5.8.7,1.2v.7a1.64,1.64,0,0,0,2,1.2c.1,0,.3-.1.4-.1a1.69,1.69,0,0,0,.9-2.6,5.3,5.3,0,0,0-.6-1c-.1-.2-.3-.4-.4-.6a3,3,0,0,1-.5-.7,4.3,4.3,0,0,0-1-.9,3.08,3.08,0,0,0-1.9-.6c-.3-.2-.5-.2-.6-.1Zm.6,3c-.1,0-.1,0-.2.1h0a.31.31,0,0,1,.2-.1Zm-.5,0h0Zm.4.1a.1.1,0,0,1,.1.1.1.1,0,0,0-.1-.1Zm-.6.4a.1.1,0,0,1-.1.1c.1,0,.1,0,.1-.1Zm4.7.1Z" transform="translate(0 0)" />
    <path class="strokes" d="M60.9,95.2a7.08,7.08,0,0,0-3.1,1.6,3.46,3.46,0,0,0-1,2.1A7.49,7.49,0,0,0,57,101a1.46,1.46,0,1,0,2.8-.8c0-.2-.1-.5-.1-.7V99c0-.1,0-.1.1-.2a.1.1,0,0,1,.1-.1l.3-.3.6-.3a8.33,8.33,0,0,1,1.5-.4h.5c.1,0,.1.1.2.1.5.5.9,1.2,1.5,1.5a1.31,1.31,0,0,0,1.8-1.8,3,3,0,0,0-.4-.8,5.71,5.71,0,0,0-1.3-1.4,4.3,4.3,0,0,0-2.5-.7c-.3.4-.7.4-1.2.6Z" transform="translate(0 0)" />
    <path class="strokes" d="M61.8,97a1.92,1.92,0,0,0-1.2.4l-.3.3c-.1.1-.2.2-.2.3-.2,0-.4.1-.7.1a1.1,1.1,0,0,0-.8,1.4,1.23,1.23,0,0,0,1.4.8c.3-.1.7-.1,1-.2h.6a7.57,7.57,0,0,0,1.5.1,3.55,3.55,0,0,0,1-.2,1.59,1.59,0,0,0,.8-1,2,2,0,0,0-.1-1.3,2,2,0,0,0-1-.8,5.46,5.46,0,0,0-1.8-.1c0,.2-.1.2-.2.2Z" transform="translate(0 0)" />
    <path class="strokes" d="M45.4,107.5c-.2.1-.4.1-.6.2a1.6,1.6,0,0,0-.7.9v.1l-.5.5a1,1,0,0,0-.6.5,1.8,1.8,0,0,0-.2,1,1.35,1.35,0,0,0,1.6,1c.1,0,.1,0,.2-.1H45a3.4,3.4,0,0,0,1-.1,8.33,8.33,0,0,0,1.5-.4,1.49,1.49,0,0,0,.7-1.5v-.1a.85.85,0,0,0,0-.7,1.28,1.28,0,0,0-1-1,1.27,1.27,0,0,0-.6-.1,1.69,1.69,0,0,0-1-.3c0,.1-.1.1-.2.1Z" transform="translate(0 0)" />
    <path class="strokes" d="M82.6,84.8a3.91,3.91,0,0,0-1.7,1.4,5.85,5.85,0,0,0-1.2,2.2c-.3.6-.5,1.3-.8,2a1.66,1.66,0,0,0,1.2,2.1,2,2,0,0,0,1.3-.1,1.59,1.59,0,0,0,.8-1c.2-.6.5-1.2.7-1.9,0-.1.1-.2.1-.3a1.61,1.61,0,0,0,.4.7,1.66,1.66,0,0,0,1.2.5,20.61,20.61,0,0,1,2.6.3c.3,0,.5.1.8.1a1.74,1.74,0,0,0,1.7-2.2,8.27,8.27,0,0,0-.9-1.6c-.2-.3-.5-.6-.7-.9a3.92,3.92,0,0,0-1-.8,5,5,0,0,0-2.3-.9h-.7a6.58,6.58,0,0,0-1.5.4Zm5.1,2.5h0Zm.3,0h.2c-.1.1-.2.1-.2,0Z" transform="translate(0 0)" />
    <path class="strokes" d="M103.4,74.3a21.72,21.72,0,0,0-2.4.7,4.07,4.07,0,0,0-2,1.4A15.26,15.26,0,0,0,97.9,78a2,2,0,0,0-.2,1.3,2.1,2.1,0,0,0,.8,1.1,2,2,0,0,0,1.3.2,1.78,1.78,0,0,0,1.1-.8,4.13,4.13,0,0,1,.7-1.1l.3-.3c.1-.1.2-.1.3-.2s.2-.1.3-.1a1.52,1.52,0,0,0,1.3,1,3.81,3.81,0,0,0,1.5-.1.76.76,0,0,0,.4-.1h2.1a2.92,2.92,0,0,0,.9-.2,1.44,1.44,0,0,0,.6-1.8c-.1-.2-.1-.4-.2-.6a3.51,3.51,0,0,0-.5-.8c-.2-.2-.5-.4-.7-.6a6.89,6.89,0,0,0-1.5-.7,3.89,3.89,0,0,0-1.5-.2q-.9.15-1.5.3Zm-1.4,4a.1.1,0,0,0-.1.1.1.1,0,0,1,.1-.1Z" transform="translate(0 0)" />
    <path class="strokes" d="M43.2,36.7A11.16,11.16,0,0,0,39,38.5a18.18,18.18,0,0,0-3.5,2.7,17,17,0,0,0-2.6,3.4,12.6,12.6,0,0,0-2,6,13.35,13.35,0,0,0,0,2,2.2,2.2,0,0,0,.1.8,2.35,2.35,0,0,0-.2.8,1.92,1.92,0,0,0,1.4,1.9,2.44,2.44,0,0,0,1.2,0,3.55,3.55,0,0,0,.9-.4,4.88,4.88,0,0,1,.7-.3,9.14,9.14,0,0,0,1.4-.7c1.1-.5,2.2-1.1,3.4-1.6a10.27,10.27,0,0,1,2.5-.7l1.5-.3c.8-.2,1.6-.3,2.3-.5l5.4-1.5,2.5-.6a11.44,11.44,0,0,0,3.9-1.4,2.51,2.51,0,0,0,1.3-2,3,3,0,0,0-.5-1.6c-.2-.3-.4-.7-.6-1a16.67,16.67,0,0,0-1.2-1.6,6.28,6.28,0,0,0-1.2-1.1,16.6,16.6,0,0,0-2.1-1.6,29,29,0,0,0-3.3-2,9.76,9.76,0,0,0-3.3-.7H45.4a15,15,0,0,0-2.2.2Zm4.3,2.9a5,5,0,0,1,1.3.4,16.1,16.1,0,0,1,3,2.1A15.25,15.25,0,0,1,54,44.3a3.51,3.51,0,0,1,.5.8c-.7.2-1.4.3-2.1.5a26.81,26.81,0,0,0-2.7.7c-1.7.5-3.4,1-5.2,1.4-.8.2-1.5.3-2.3.5l-1.5.3a28.44,28.44,0,0,0-3.8,1.3,24,24,0,0,0-2.3,1.1c-.5.3-1.1.5-1.6.8a9.7,9.7,0,0,1,.1-1.7,16.55,16.55,0,0,1,.6-2.1,12.75,12.75,0,0,1,1.5-2.5,5.55,5.55,0,0,1,.6-.8,15.39,15.39,0,0,1,2.6-2.5,17.52,17.52,0,0,1,3.5-2,10.55,10.55,0,0,1,1.9-.5,15.26,15.26,0,0,1,3.7,0ZM33.9,47.9V48c-.1-.1-.1-.1,0-.1Z" transform="translate(0 0)" />
    <path class="strokes" d="M66.1,39.3a11,11,0,0,0-1.8.2c-.7.1-1.5.3-2.2.4l-2.5.3a6.75,6.75,0,0,1-1.4.2l-1.2.3c-.8.2-1.5.4-2.2.6a1.55,1.55,0,0,0-1.1,1.9,1.52,1.52,0,0,0,1.9,1.1c1-.3,2-.6,3-.8l1.8-.3c-.4.2-.9.3-1.3.5-.7.2-1.4.5-2.2.7a1.51,1.51,0,0,0-1.2,1.5,1.58,1.58,0,0,0,1.6,1.6,4.25,4.25,0,0,0,1.1-.2c.2-.1.4-.1.6-.2.4-.1.7-.3,1.1-.4l2.4-.9,2.4-.9a20.36,20.36,0,0,0,2.2-.9,2.65,2.65,0,0,0,.6-.5,3.51,3.51,0,0,0,.5-.8,3.4,3.4,0,0,0,.1-1,2.7,2.7,0,0,0-.3-1.5,3.74,3.74,0,0,0-.6-.7,10.5,10.5,0,0,0-1.3-.2Z" transform="translate(0 0)" />
    <path class="strokes" d="M85.3,16.2a10.55,10.55,0,0,0-2.4.6c-1.1.4-2.3.8-3.4,1.3a16.09,16.09,0,0,0-2.8,1.7,5.24,5.24,0,0,0-1,1.1c-.4.5-.8,1-1.2,1.6a16.88,16.88,0,0,0-1.9,4.1,23.38,23.38,0,0,0-.7,4.5A1,1,0,0,0,73,32.2a1.1,1.1,0,0,0,1-.6,2,2,0,0,0,1.1,1.1,5.74,5.74,0,0,0,2.9-.2c.8-.2,1.5-.3,2.3-.5a34.47,34.47,0,0,0,4.6-1.2c1.6-.5,3.2-.9,4.9-1.4l4.9-1.2,1.2-.3.9-.3c.1,0,.1-.1.2-.1a4.35,4.35,0,0,0,.7-.6,2.11,2.11,0,0,0,.3-1.7,2.62,2.62,0,0,0-.5-.9c-.1-.1-.2-.3-.3-.4-.5-.6-1-1.1-1.5-1.7a25.06,25.06,0,0,0-4-3.3c-.3-.2-.6-.5-.9-.7a17.61,17.61,0,0,0-2.3-1.4,5.76,5.76,0,0,0-2.9-.5c-.2-.1-.2-.1-.3-.1Zm.8,3.2,1,.3a8.64,8.64,0,0,1,1.6,1c.9.7,1.8,1.5,2.8,2.2a13.65,13.65,0,0,1,1.7,1.7l.2.2a5,5,0,0,1-1.2.2c-.7.2-1.5.3-2.2.5-1.7.4-3.3.9-5,1.3s-3.1.9-4.7,1.2-3,.6-4.5,1a1.85,1.85,0,0,0-1.2.7l-.1.1c0-.2.1-.4.1-.6a16.81,16.81,0,0,1,.9-3.2,17.48,17.48,0,0,1,1.8-2.9,10.63,10.63,0,0,1,1.5-1.5,10.08,10.08,0,0,1,2.3-1.2,18.66,18.66,0,0,1,2.2-.7,11.63,11.63,0,0,1,1.8-.4,2.79,2.79,0,0,0,1,.1Zm2.3,1.2.1.1c0-.1,0-.1-.1-.1Z" transform="translate(0 0)" />
    <path class="strokes" d="M94.1,25.8l-1,.3c-.7.2-1.4.4-2,.6-1.5.4-3,.9-4.4,1.3-.7.2-1.3.3-2,.5l-2.3.6c-1.4.4-2.8.8-4.3,1.1-1,.2-2,.5-3,.7v-.2a1.57,1.57,0,0,0-1.8-1.1c-1.2.4-2.4.8-3.5,1.2a12.2,12.2,0,0,0-1.7.7l-.6.3a2.18,2.18,0,0,0-.8.5,1.38,1.38,0,0,0-.3.4,1.2,1.2,0,0,0-.2.8,1.45,1.45,0,0,0,.2.7,2.7,2.7,0,0,0,.8.7,3.93,3.93,0,0,0,2.4,0c.4-.1.8-.1,1.2-.2.7-.1,1.5-.3,2.2-.4a14.62,14.62,0,0,0,2-.5,17.42,17.42,0,0,1,2.2-.5l4.2-.9c1.5-.4,3-.8,4.5-1.1l2.6-.6a21.72,21.72,0,0,0,2.4-.7,25,25,0,0,1,2.6-.7,8.25,8.25,0,0,0,2.6-1,1.16,1.16,0,0,0,.6-1.4,1.29,1.29,0,0,0-1.2-1h-.2a1.31,1.31,0,0,0-1.2-.1Z" transform="translate(0 0)" />
    <path class="strokes" d="M80.2,18.5a2,2,0,0,0-.9.5,3.51,3.51,0,0,0-.5.8,1.73,1.73,0,0,0-.1,1c0,.1.1.2.1.3s-.2.1-.2.2a.6.6,0,0,0-.4-.1.67.67,0,0,0-.7.5c-.1.2-.2.5-.3.7s-.1.5-.2.7v.2c-.1.2-.3.4-.4.6a9.38,9.38,0,0,0-.6,1.5c0,.1,0,.1-.1.2l-1.5,1.5a5.58,5.58,0,0,1-.8.5,1.21,1.21,0,0,0-.5.5,1.39,1.39,0,0,0-.2,1.1,1.2,1.2,0,0,0,1.3,1c.3,0,.5-.1.8-.1v.1a.66.66,0,0,0,.4.5.76.76,0,0,0,.9-.2c.1-.2.3-.4.4-.6a.1.1,0,0,1,.1-.1c.1,0,.3-.1.4-.1a5,5,0,0,1,1.2-.2h.1a.76.76,0,0,0,.5.2,1.4,1.4,0,0,0,.9-.3l.1-.1c.6,0,1.2-.1,1.8-.1a24.77,24.77,0,0,0,2.7-.3,18.92,18.92,0,0,0,2.3-.5,1.48,1.48,0,0,0,.7.1,4.1,4.1,0,0,0,1.1-.1c.3-.1.6-.1.9-.2a5.83,5.83,0,0,0,1.8-.8c.1-.1.2-.3.3-.4h.5a4.88,4.88,0,0,0,.7-.3c.2,0,.4.1.6.1a2.49,2.49,0,0,0,.8-.1,1.27,1.27,0,0,0,.3-2.3,8.34,8.34,0,0,1-1.2-.8c-.4-.3-.7-.6-1.1-.9-.1-.1-.1-.2-.2-.2l-.1-.1H92a1.7,1.7,0,0,0,.6-.6,1.61,1.61,0,0,0-1.8-2.4l-1.2.3-.1-.1a1.05,1.05,0,0,0-1.2,0,1.76,1.76,0,0,0-.5.4h-.2a10.87,10.87,0,0,1-1.8.1,1.38,1.38,0,0,0-.3-.4,1.09,1.09,0,0,0-.9-.4,1.85,1.85,0,0,0-.7.2,1.21,1.21,0,0,0-.5.5h0c-.1,0-.3-.1-.4-.1h-.1c-.2,0-.4-.1-.6-.1-.1-.2-.2-.3-.3-.5a5.58,5.58,0,0,0-.8-.5c-.1,0-.4-.1-.6-.1-.3-.3-.4-.2-.4-.2Zm7.5,1.2Z" transform="translate(0 0)" />
    <path class="strokes" d="M47.7,36.7a1.62,1.62,0,0,0-1.2,1.6v.6c0-.1,0-.1-.1-.2a1.87,1.87,0,0,0-1.1-1.2,1.39,1.39,0,0,0-.9,0,1.83,1.83,0,0,0-1,.7c-.1.2-.2.3-.2.5v.1a1.27,1.27,0,0,0-.6-.1,1.88,1.88,0,0,0-.8.2c-.1.1-.2.1-.3.2-.1-.1-.1-.2-.2-.3a1.61,1.61,0,0,0-1.1-.5,1.5,1.5,0,0,0-1.5,1.1,2.92,2.92,0,0,0-.2.9c0,.3-.1.7-.1,1v.5a.6.6,0,0,0-.4-.1,1.5,1.5,0,0,0-1.4,1v.2h-.1a1.14,1.14,0,0,0-.8.3,2,2,0,0,0-.4.8,14.92,14.92,0,0,0-.2,2.1c-.1,1.1-.3,2.3-.3,3.4a1,1,0,0,0,.7,1c.2,0,.3.1.5,0a1.05,1.05,0,0,0,1.3,0c.2-.2.5-.3.7-.5h0a1.43,1.43,0,0,0,1.1.5,1.69,1.69,0,0,0,1-.3.78.78,0,0,0,.4-.4.1.1,0,0,0,.1.1,1.62,1.62,0,0,0,2.5-.3l.3-.6a.9.9,0,0,0,.5.1,1.88,1.88,0,0,0,.8-.2,1.65,1.65,0,0,0,.8-1c0-.1.1-.1.1-.2h0a2.09,2.09,0,0,0,.6.4,1.91,1.91,0,0,0,1.3.2,1.83,1.83,0,0,0,1-.7c.1-.3.3-.6.4-.9s.1-.4.2-.6a.35.35,0,0,1,.2.1,1.34,1.34,0,0,0,.6.7l.6.3a2.2,2.2,0,0,0,.8.1h1.1c.4,0,.8-.1,1.3-.1a5,5,0,0,0,1.3-.4,1.21,1.21,0,0,0,.5-.5,27.59,27.59,0,0,0,2.7-.8,1.49,1.49,0,1,0-.7-2.9c-.6.1-1.2.3-1.8.4a2,2,0,0,0-.4-1.5,2.07,2.07,0,0,0-1-.6,1.27,1.27,0,0,0-.6-.1,5.58,5.58,0,0,1-.8-.5,3,3,0,0,1-.8-.8,1,1,0,0,0-.7-.4,2,2,0,0,0-1.1,0,.37.37,0,0,0-.1-.3,4.71,4.71,0,0,0-.6-1.5,1.56,1.56,0,0,0-1.5-.8c-.2.2-.3.2-.4.2Z" transform="translate(0 0)" />
    <path class="theme-color" d="M115.5,21.5c-.9.3-1.8.5-2.8.8a13.82,13.82,0,0,0-2.7.8l-.6.3c0-.8-.1-1.6-.1-2.4a19.27,19.27,0,0,0-.1-2.4c0-.6-.1-1.2-.1-1.8.1.1.3.2.4.3a9.13,9.13,0,0,0,1.3.8c.8.5,1.7,1,2.5,1.4,1,.6,1.9,1.1,2.9,1.7.2.1.3.2.5.3A5,5,0,0,0,115.5,21.5Z" transform="translate(0 0)" />
  </g>
</svg>
