<svg class="jsPackageSvg" viewBox="0 0 119.36 98.6">
  <title>Starter Pack</title>
  <description>Man making a brick wall, firming up the fundamentals</description>
  <defs>
    <style>
      .strokes {
        fill: #2c2c2c;
      }

      .theme-color {
        fill: var(--theme-color);
      }
    </style>
  </defs>
  <g id="wall">
    <path class="strokes" d="M92.9,64.6H90.8c-1.5,0-2.9.1-4.4.2s-3,.2-4.5.2-3.1,0-4.7-.1c-3,0-6,0-9.1.1s-6.3.5-9.4.7h.2l-4.4.3c-1.6.1-3.2.1-4.9.1H45c-1.5,0-3,.1-4.5.1-2.1.1-4.3.3-6.4.4l-7,.3a1.61,1.61,0,0,0-.9.3,1.23,1.23,0,0,0-.4.8,1.3,1.3,0,0,0,1.1,1.3c1.6-.1,3.2-.1,4.8-.2s3-.1,4.6-.1c3.1-.1,6.1-.2,9.2-.2,1.6,0,3.1.1,4.7.1h4.6c3-.1,6-.4,8.9-.6s5.9-.3,8.9-.4h9.3c2.2,0,4.4-.2,6.6-.4,1.1-.1,2.1-.1,3.2-.1.5,0,1-.1,1.5-.1a11,11,0,0,0,1.8-.2,1.22,1.22,0,0,0,.9-.8.64.64,0,0,0,0-.6,1.79,1.79,0,0,0-.5-.7,3.14,3.14,0,0,0-2.1-.5.76.76,0,0,1-.4.1ZM58.7,65.8Zm-.1,0Z" transform="translate(0 0)" />
    <path class="strokes" d="M25.8,67.8l-.2.2c0,.1-.1.2-.1.3a4.33,4.33,0,0,0-.1.5c0,.2,0,.3.2.4s.3,0,.3-.1a1.27,1.27,0,0,0,.1.6h0v.1h0A29.44,29.44,0,0,1,26,74c-.1,1.3-.2,2.6-.3,4-.1,1.2-.2,2.3-.3,3.5s-.2,2.3-.2,3.5c-.1,1.6-.2,3.2-.2,4.7v2.2a12.31,12.31,0,0,1-.2,2c0,.2-.1.4-.1.6a3.55,3.55,0,0,0,.2,1,2.34,2.34,0,0,0,.7.7,3.81,3.81,0,0,0,1.5.5c.2,0,.4.1.6.1.6.1,1.2.1,1.8.2l3.6.3c1.2.1,2.4.2,3.5.2s2.3.1,3.5.2,2.4.1,3.6.1,2.6,0,4-.1l7-.3,7.6-.3c2.4-.1,4.9-.1,7.3-.1h3.1c1,0,2.1,0,3.1-.1l4-.3,2.9-.3c1-.1,2-.1,3-.2l2.8-.3c.5,0,1-.1,1.6-.1.4,0,.8-.1,1.2-.1a2.35,2.35,0,0,0,.8-.2,3,3,0,0,0,.8-.4,1.79,1.79,0,0,0,.5-.7,1.57,1.57,0,0,0-.7-1.9,1.49,1.49,0,0,0-.7-.3c0-.1-.2-.1-.5-.2H89.2c-1.1,0-2.2.1-3.2.2l-4.4.3c-1.3.1-2.6.2-3.9.4-.6,0-1.1.1-1.7.1a12.1,12.1,0,0,0-1.9.1H70.5c-2.4,0-4.9,0-7.3.1-1.2,0-2.4.1-3.6.2s-2.5.1-3.7.2c-2.3.1-4.6.3-7,.4-1.2.1-2.5.1-3.7.2H41.1c-2.4,0-4.8-.2-7.2-.3l-3.2-.3c-.6,0-1.2-.1-1.8-.1-.4,0-.8-.1-1.3-.1v-.9c-.1-.7-.1-1.4-.2-2.1-.2-1.2-.3-2.3-.4-3.5v.3c-.1-1.2-.2-2.3-.2-3.5V80c0-1.4.1-2.7.1-4.1V72.7c0-.6-.1-1.1-.1-1.7,0-.4-.1-.9-.1-1.3a4.4,4.4,0,0,0-.2-1,4.88,4.88,0,0,0-.3-.7c-.1-.1-.2-.2-.3-.2ZM88.7,95.7h0ZM26,69.8Z" transform="translate(0 0)" />
    <path class="strokes" d="M92.3,64.9c-.2,3.4-.4,6.8-.5,10.2-.1,1.6-.2,3.2-.2,4.8V93.2a3.89,3.89,0,0,0,.2,1.5,1.3,1.3,0,0,0,.9,1,1.28,1.28,0,0,0,1.5-.5,4.68,4.68,0,0,0,.5-2.6V90.4c0-1.4,0-2.9-.1-4.3-.1-1.6-.2-3.2-.3-4.7a32,32,0,0,1,.1-4.4c.1-4,.3-8,.5-11.9a1.24,1.24,0,0,0-1.2-1.3h-.1a1.22,1.22,0,0,0-1.3,1.1Z" transform="translate(0 0)" />
    <path class="strokes" d="M93.1,55.9a2.77,2.77,0,0,0-.9.1l-2.7.3c-.6,0-1.1.1-1.7.1a14.72,14.72,0,0,0-2.1,0c-1.5.1-2.9.3-4.4.4-2.1.1-4.2.1-6.3.3-1.1.1-2.2.3-3.3.4l-1.8.3a4.18,4.18,0,0,0-1,.4,2.34,2.34,0,0,0-.7.7,2.19,2.19,0,0,0-.1,1.6v3.4a7.29,7.29,0,0,0,.5,3c.1.3.5.5.8.6a1.18,1.18,0,0,0,1-.1,1.24,1.24,0,0,0,.6-.8,1.21,1.21,0,0,0-.1-1,3.55,3.55,0,0,1-.2-1V62a8.08,8.08,0,0,0-.1-1.6.9.9,0,0,0,.5-.1c2.4-.2,4.8-.4,7.2-.4H80a19.42,19.42,0,0,0,2.4-.2c1.1-.1,2.2-.3,3.3-.4h1.9a16.35,16.35,0,0,0,2.2-.2c.6-.1,1.2-.1,1.8-.2h.3a10.87,10.87,0,0,1-.1,1.8c0,.7-.1,1.3-.1,2s-.1,1.2-.1,1.8a9.66,9.66,0,0,0,.1,2.4A1.4,1.4,0,0,0,93,68a1.34,1.34,0,0,0,1.4-1.3c0-.6.1-1.1.1-1.7a10.87,10.87,0,0,1,.1-1.8c0-1,.1-2.1.2-3.1v-2a5,5,0,0,0-.2-1.2,1.64,1.64,0,0,0-1.5-1ZM70.7,59.5v0Z" transform="translate(0 0)" />
    <path class="strokes" d="M79.8,59.4c-.2,1.5-.3,3-.4,4.5,0,.6-.1,1.3-.1,1.9a6.61,6.61,0,0,0,.3,2.4,1.72,1.72,0,0,0,3.1-.2,12.51,12.51,0,0,0,.3-1.9c0-.6.1-1.3.1-1.9.1-1.5.3-3,.4-4.5a2,2,0,0,0-1.8-2h-.1a1.71,1.71,0,0,0-1.8,1.7Z" transform="translate(0 0)" />
    <path class="strokes" d="M85.6,74c-1.3,0-2.7.1-4,.2s-2.8.2-4.3.2c-2.7,0-5.4-.1-8.2,0s-5.7.3-8.5.2c-1.4,0-2.9-.1-4.3-.1H54.2a22.6,22.6,0,0,0-2.6.1c-1.2,0-2.5.1-3.7.2-1.5.1-3,.1-4.5.2-2.8,0-5.7-.1-8.5-.1-1.4,0-2.7,0-4.1.1s-2.9.1-4.4.1h-.8a1.45,1.45,0,0,0-.7.2.91.91,0,0,0-.3.7,1,1,0,0,0,.9,1,36.85,36.85,0,0,1,4.7,0h4c1.5,0,3.1.1,4.6.2,1.2.1,2.5.1,3.7.1h2.2a22.6,22.6,0,0,0,2.6-.1c1.3,0,2.5-.1,3.8-.1s2.9,0,4.3.1c1.6.1,3.1.1,4.6.2h1.7a13.33,13.33,0,0,0,2,0c1.5,0,3-.1,4.5-.1,1.3,0,2.6-.1,4,0s2.8.1,4.2.1h2.1a16.2,16.2,0,0,0,2.2-.1c1.4-.1,2.7-.1,4.1-.1s2.6-.1,4-.1,2.7,0,4.1-.1H94a1.64,1.64,0,0,0,1.2-1.5,1.56,1.56,0,0,0-1.5-1.6,24.37,24.37,0,0,0-2.7-.1c-1.6,0-3.5.2-5.4.2Z" transform="translate(0 0)" />
    <path class="strokes" d="M25.8,83a1.49,1.49,0,0,0-.2.9,1.16,1.16,0,0,0,.5.7,5.42,5.42,0,0,0,2.4.9c.4.1.9.1,1.3.2a14.77,14.77,0,0,0,2.1.1c1.6.1,3.2.2,4.8.2H54c3,0,6,0,9,.1s6.2.3,9.3.5c1.5.1,2.9.1,4.4.1s2.9.1,4.4.2c2.2.1,4.3,0,6.5-.1h5.5a1.7,1.7,0,0,0,.7-.1,2.12,2.12,0,0,0,.7-.3,1.48,1.48,0,0,0,.8-1.2,1.41,1.41,0,0,0-1-1.4,5.07,5.07,0,0,0-1.3-.2H89.9c-1.5,0-2.9,0-4.4.1s-2.7.1-4.1.1-2.9-.1-4.4-.1-2.9,0-4.4-.1-3.2-.1-4.9-.2c-2.8-.1-5.6-.3-8.4-.2-3,0-6,.1-9,.2s-6,0-9,.1c-1.1,0-2.2,0-3.3.1s-2.1,0-3.2-.1-2.1-.1-3.2-.2-2.1-.1-3.1-.3c-.3-.1-.5-.1-.8-.2-.1-.1-.2-.2-.3-.2a1.42,1.42,0,0,0-.6-.2,1.7,1.7,0,0,0-1,.6Z" transform="translate(0 0)" />
    <path class="strokes" d="M81.8,86.1c-.1,1.5-.2,3-.2,4.5a14.77,14.77,0,0,1-.1,2.1v1a6.15,6.15,0,0,0,.1,1.4,1.35,1.35,0,0,0,1.6,1c.3-.1.7-.3.8-.6a1.45,1.45,0,0,0,.2-.7h0a13.4,13.4,0,0,0,.1-2,14.77,14.77,0,0,1,.1-2.1c0-1.5.1-3,.2-4.5a1.45,1.45,0,0,0-1.4-1.5h-.1a1.71,1.71,0,0,0-1.3,1.4Z" transform="translate(0 0)" />
    <path class="strokes" d="M71.9,84.9c-.2.1-.4.1-.6.3a1.38,1.38,0,0,0-.3.4,1.61,1.61,0,0,0-.3.9c-.1.3-.1.7-.2,1a41,41,0,0,0-.6,4.9c0,.5-.1,1.1-.1,1.6s-.1,1.3-.1,1.9a1.23,1.23,0,0,0,.5,1,1.42,1.42,0,0,0,.6.2,1.14,1.14,0,0,0,.8-.3l.3-.3.3-.6a1.09,1.09,0,0,0-.2-1v-.6a8.6,8.6,0,0,1,.1-1.6c0-.5.1-1,.1-1.6.1-1,.1-2,.3-3a.37.37,0,0,1-.1.3c.1-.4.1-.8.2-1.2v-.1c.2-.1.5-.2.6-.4a1,1,0,0,0-.3-1.4,1.07,1.07,0,0,0-.6-.2H72c0-.2,0-.2-.1-.2ZM70,95.3Z" transform="translate(0 0)" />
    <path class="strokes" d="M56.5,84.6a1.88,1.88,0,0,0-.5,1.1c-.3,1.8-.5,3.6-.7,5.5L55,93.6a11.54,11.54,0,0,0-.1,2.6,1.51,1.51,0,0,0,2.7.5c.1-.1.1-.2.2-.3h0a19.67,19.67,0,0,0,.3-2.4c.1-.8.2-1.7.3-2.5.2-1.8.5-3.6.7-5.5a1.19,1.19,0,0,0-.4-1.1,1.61,1.61,0,0,0-1.1-.5h-.1a.8.8,0,0,0-1,.2Z" transform="translate(0 0)" />
    <path class="strokes" d="M45.1,85a1.61,1.61,0,0,0-.7.4,2.93,2.93,0,0,0-.7,1.6l-.3,2.1-.3,2.7c-.1.9-.2,1.7-.3,2.6,0,.4-.1.9-.1,1.3s-.1.6-.1.9v.7a1.45,1.45,0,0,0,.2.7,1.1,1.1,0,0,0,1,.6,1.27,1.27,0,0,0,.6-.1,1.34,1.34,0,0,0,.6-.7.9.9,0,0,0,.1-.5V95.9a4.1,4.1,0,0,1,.1-1.1,16.41,16.41,0,0,1,.2-2.3c.1-.7.1-1.3.2-2,0-.5.1-.9.1-1.4s.1-1.1.2-1.7c0-.1.1-.3.1-.4s.3-.2.4-.3a1.1,1.1,0,0,0-.3-1.5,1.2,1.2,0,0,0-.8-.2Z" transform="translate(0 0)" />
    <path class="strokes" d="M34.6,84.4a1.27,1.27,0,0,0-.6.4,2.47,2.47,0,0,0-.4.9,5,5,0,0,0-.2,1.2,17,17,0,0,0-.1,2.3,12.1,12.1,0,0,1-.1,1.9c0,.9-.1,1.7-.1,2.6a.37.37,0,0,1-.1.3v.5a1.45,1.45,0,0,0,.2.7.86.86,0,0,0,.6.3,1.06,1.06,0,0,0,1-.9c.1-1,.1-2,.1-3.1a13.4,13.4,0,0,1,.1-2,16.15,16.15,0,0,1,.2-3.1,1.42,1.42,0,0,1,.2-.6v-.1a.88.88,0,0,0,.1-.7c0-.2-.2-.4-.4-.6a.75.75,0,0,0-.5-.1c.1.1.1.1,0,.1Z" transform="translate(0 0)" />
    <path class="strokes" d="M37.5,75.9v4.9a10.87,10.87,0,0,0,.1,1.8c0,.4.1.8.1,1.2v.4a1.85,1.85,0,0,0,.2.7,1.17,1.17,0,0,0,.6.6,1.36,1.36,0,0,0,1.6-.1,1.38,1.38,0,0,0,.3-.4,1.2,1.2,0,0,0,0-1.4c0-.9-.1-1.8-.1-2.7V76.1A1.43,1.43,0,0,0,39,74.6h-.1a1.28,1.28,0,0,0-1.4,1.3Z" transform="translate(0 0)" />
    <path class="strokes" d="M51.6,75.9,51,78.3c-.1.6-.3,1.3-.4,1.9s-.2,1.3-.3,1.9a8.17,8.17,0,0,0-.1,2.7A1.59,1.59,0,0,0,51.7,86a1.65,1.65,0,0,0,1.7-1.5,18.1,18.1,0,0,1,.3-2.3l.3-1.8c.2-1.1.5-2.3.8-3.4a1.73,1.73,0,0,0-1.1-2.1.9.9,0,0,0-.5-.1,1.62,1.62,0,0,0-1.6,1.1Z" transform="translate(0 0)" />
    <path class="strokes" d="M65.2,75.2a1.22,1.22,0,0,0-.4.9c-.3,1.6-.5,3.2-.7,4.8-.1.8-.2,1.5-.3,2.3a14.15,14.15,0,0,0-.2,2.9,1.38,1.38,0,0,0,1.3,1.1,1.28,1.28,0,0,0,1-.4,1.6,1.6,0,0,0,.5-1,6.15,6.15,0,0,1,.1-1.4c0-.4.1-.7.1-1.1.1-.8.2-1.5.3-2.3.2-1.6.4-3.2.7-4.8a1.31,1.31,0,0,0-.3-1,1.09,1.09,0,0,0-.9-.4h-.1a1.93,1.93,0,0,0-1.1.4Z" transform="translate(0 0)" />
    <path class="strokes" d="M75.8,76.7c-.1,1.5-.2,3-.2,4.5a33.81,33.81,0,0,0,.1,4.5A1.38,1.38,0,0,0,77,86.8a1.16,1.16,0,0,0,1-.4,1.23,1.23,0,0,0,.5-1V81.3c0-1.5.1-3,.2-4.5a1.45,1.45,0,0,0-1.4-1.5h-.1a1.5,1.5,0,0,0-1.4,1.4Z" transform="translate(0 0)" />
    <path class="strokes" d="M85.6,66.8c-.3.2-.3.5-.4.8v0h0V68a.37.37,0,0,1-.1.3.76.76,0,0,1-.1.4h0V69c-.1.7-.3,1.5-.4,2.2a.37.37,0,0,1,.1-.3c-.2,1.1-.4,2.2-.6,3.4a1.16,1.16,0,0,0,.8,1.2,1,1,0,0,0,.9-.1,1.41,1.41,0,0,0,.6-.7c.4-1.8.7-3.7,1.1-5.5a.37.37,0,0,1-.1.3c.1-.5.2-1.1.3-1.6a1,1,0,0,0-.3-.9,1.23,1.23,0,0,0-.8-.4h-.1a1,1,0,0,0-.9.2Z" transform="translate(0 0)" />
    <path class="strokes" d="M71.3,67.4l-.3.3a.6.6,0,0,0-.1.4c-.1.4-.1.8-.2,1.2v0c-.2.9-.4,1.9-.6,2.8-.1.4-.2.9-.3,1.3s-.2,1.1-.3,1.7a.85.85,0,0,0,1.7.1c.1-.4.1-.9.2-1.3a6.75,6.75,0,0,0,.2-1.4c.2-1.3.5-2.5.7-3.8.1-.1.1-.2.1-.4v-.1a.67.67,0,0,0-.4-.7h0a.6.6,0,0,0-.4-.1h0a.19.19,0,0,0-.3,0Zm.4,5v0Zm-1.1-3.2Z" transform="translate(0 0)" />
    <path class="strokes" d="M58.4,68.7c-.1,1.3-.2,2.7-.4,4-.1.7-.1,1.3-.2,2a6.89,6.89,0,0,0-.1,2A1.82,1.82,0,0,0,58.8,78a1.76,1.76,0,0,0,2-.7,5.93,5.93,0,0,0,.5-2.3c.1-.6.1-1.3.2-2l.3-4.2A1.65,1.65,0,0,0,60.1,67H60a1.74,1.74,0,0,0-1.6,1.7Z" transform="translate(0 0)" />
    <path class="strokes" d="M47.6,67.9c-.2.1-.4.1-.6.3a2.43,2.43,0,0,0-1,1.4c-.2.4-.2.8-.4,1.2a9.36,9.36,0,0,0-.4,1.6c-.1.4-.2.9-.3,1.3-.1.6-.3,1.2-.4,1.8a1.28,1.28,0,0,0,.7,1.3,1.6,1.6,0,0,0,1.5.1c.1-.1.3-.2.4-.3a1,1,0,0,0,.4-.5,1.36,1.36,0,0,0,0-1.5.76.76,0,0,1,.1-.4c0-.3.1-.6.1-.9l.3-1.5a5.73,5.73,0,0,1,.4-1.4,1.55,1.55,0,0,0,.8-.8,1.27,1.27,0,0,0-.8-1.6c-.2,0-.3-.1-.5-.1Z" transform="translate(0 0)" />
    <path class="strokes" d="M31.4,67.2a1.22,1.22,0,0,0-.4.9c-.2,1.3-.3,2.5-.6,3.8a7.72,7.72,0,0,0-.2,1.5c0,.3-.1.6-.1.8a2.85,2.85,0,0,0,0,1.3,1.27,1.27,0,0,0,1.2,1,1.34,1.34,0,0,0,1.4-1.3,11,11,0,0,1,.2-1.8,7.72,7.72,0,0,0,.2-1.5c.2-1.3.4-2.5.5-3.8a1.34,1.34,0,0,0-1.3-1.4h-.1a3.51,3.51,0,0,0-.8.5Z" transform="translate(0 0)" />
    <path class="strokes" d="M17.5,91.8a.66.66,0,0,0-.4.5c-.1.2-.3.5-.4.7,0-.1,0-.1.1-.1a9.15,9.15,0,0,1-.9,1.7l-.1-.1c-.4-.3-.7-.7-1.1-1a1.91,1.91,0,0,0-1-.5,1.16,1.16,0,0,0-1,.4,1.39,1.39,0,0,0-.5,1,1.28,1.28,0,0,0,.4,1,9,9,0,0,0,1,.9,5.38,5.38,0,0,0,1.2.9,2.19,2.19,0,0,1,.5.3,2.35,2.35,0,0,0,.8.2,1.49,1.49,0,0,0,.9-.2c.2-.1.4-.3.6-.4l.4-.4a2.09,2.09,0,0,0,.4-.6c.1.1.2.3.4.4a2.25,2.25,0,0,0,2.1.3,4.88,4.88,0,0,1,.7-.3,3,3,0,0,0,2,1.2,2.54,2.54,0,0,0,1.2-.2c.3-.1.5-.3.8-.4s.5-.4.8-.6c.1.1.3.1.4.2a4.71,4.71,0,0,0,1.5.6,5.28,5.28,0,0,0,1.3.1,3.75,3.75,0,0,0,1.1-.1,1.75,1.75,0,0,0,1.2-.4,1.61,1.61,0,0,0,.5-1.1,1.73,1.73,0,0,0-1.5-1.7H29.1a11.22,11.22,0,0,1-1.3-.5c-.2-.1-.5-.1-.7-.2a2.46,2.46,0,0,0-2.2.3,8.65,8.65,0,0,1-1,.7l-.6-.6a2.67,2.67,0,0,0-1.4-.7,1.49,1.49,0,0,0-.9.2c-.1.1-.3.2-.4.3a.1.1,0,0,0-.1.1v-.1c0-.1,0-.1-.1-.2a6.89,6.89,0,0,0-.3-.8,2.18,2.18,0,0,0-.4-.5,1.59,1.59,0,0,0-1-.5,1,1,0,0,0-1.2.2Z" transform="translate(0 0)" />
    <path class="strokes" d="M96.6,91.5c-.3.1-.5.1-.7.3s-.4.3-.6.4-.3.2-.4.3a1.85,1.85,0,0,0-.8-.7,1.09,1.09,0,0,0-1.2.4,3.58,3.58,0,0,0-.4,1.1,1.49,1.49,0,0,0,.4,1.4,1.76,1.76,0,0,0,1.3.6,3.26,3.26,0,0,0,1.4-.4c.4-.2.8-.5,1.2-.7a2.34,2.34,0,0,0,.7.7,2.1,2.1,0,0,0,1.1.4,6.6,6.6,0,0,0,1.4-.1c.5-.1.9-.3,1.3-.4.2-.1.5-.2.7-.3a4.35,4.35,0,0,0,.7.6,3.18,3.18,0,0,0,.9.3,3.4,3.4,0,0,0,1-.1,4.18,4.18,0,0,0,1-.4c.2-.1.3-.2.5-.2s.3.1.4.2h.2c.2,0,.4.1.6.1h.8a1.47,1.47,0,0,0,2-.4,1.55,1.55,0,0,0-.4-2,.76.76,0,0,0-.4-.2,1.93,1.93,0,0,0-1-.3h-1c-.1,0-.3-.1-.4-.1a5.28,5.28,0,0,0-1.3-.1,2.54,2.54,0,0,0-.7.2c-.1.1-.3.1-.4.2s-.3.1-.4.2-.2,0-.2.1c-.1-.1-.2-.2-.3-.2s-.1-.1-.2-.1-.3-.2-.5-.2a2.77,2.77,0,0,0-.9-.1.9.9,0,0,0-.5.1c-.2.1-.3.1-.5.2-.4.1-.7.3-1.1.4s-.7.2-1,.3l-.3-.3a2.49,2.49,0,0,0-1.7-.8c-.1-.5-.2-.5-.3-.4Zm7.1.8h.1c0,.1,0,.1-.1,0Zm.3.1c.1,0,.1.1,0,0Zm-5.3.1Zm.3.1Zm2.9,1.8Zm.2,0h0Zm-.1,0Zm4.3.1h0Zm-.2,0Zm0,.1Z" transform="translate(0 0)" />
    <path class="strokes" d="M6.6,91.8a.66.66,0,0,0-.4.5,1.61,1.61,0,0,0-.4.7c0-.1,0-.1.1-.1-.3.5-.6,1.1-.9,1.6l-.1-.1c-.4-.3-.7-.7-1.1-1a1.91,1.91,0,0,0-1-.5,1.16,1.16,0,0,0-1,.4,1.39,1.39,0,0,0-.5,1,1.28,1.28,0,0,0,.4,1,9,9,0,0,0,1,.9,5.38,5.38,0,0,0,1.2.9,2.19,2.19,0,0,1,.5.3,2.35,2.35,0,0,0,.8.2,1.49,1.49,0,0,0,.9-.2c.2-.1.4-.3.6-.4l.4-.4a2.09,2.09,0,0,0,.4-.6c.1.1.2.3.4.4a2.25,2.25,0,0,0,2.1.3,4.88,4.88,0,0,1,.7-.3,3,3,0,0,0,2,1.2,2.54,2.54,0,0,0,1.2-.2c.3-.1.5-.3.8-.4s.5-.4.8-.6c.1.1.3.1.4.2a4.71,4.71,0,0,0,1.5.6,5.28,5.28,0,0,0,1.3.1,3.75,3.75,0,0,0,1.1-.1,1.75,1.75,0,0,0,1.2-.4,1.61,1.61,0,0,0,.5-1.1A1.73,1.73,0,0,0,20,94H18.2a11.22,11.22,0,0,1-1.3-.5c-.2-.1-.5-.1-.7-.2a2.46,2.46,0,0,0-2.2.3,8.65,8.65,0,0,1-1,.7l-.6-.6A2.67,2.67,0,0,0,11,93a1.49,1.49,0,0,0-.9.2c-.1.1-.3.2-.4.3a.1.1,0,0,0-.1.1v-.1c0-.1,0-.1-.1-.2a2,2,0,0,1-.5-.9,2.18,2.18,0,0,0-.4-.5,1.59,1.59,0,0,0-1-.5,1.16,1.16,0,0,0-1,.4Z" transform="translate(0 0)" />
  </g>
  <g id="human">
    <path class="strokes" d="M45.6,30.9a1,1,0,0,0,.9,1,1.06,1.06,0,0,0,1-.9,1,1,0,0,0-.9-1,.92.92,0,0,0-1,.9Z" transform="translate(0 0)" />
    <path class="strokes" d="M48.7,31.1A1.25,1.25,0,1,0,50,29.9a1.3,1.3,0,0,0-1.3,1.2Z" transform="translate(0 0)" />
    <path class="strokes" d="M45.7,31a.75.75,0,1,0,.8-.7.66.66,0,0,0-.8.7Z" transform="translate(0 0)" />
    <path class="strokes" d="M45.1,31.3a1.2,1.2,0,0,0,1.1,1.2,1.13,1.13,0,0,0,1.2-1.1,1.15,1.15,0,1,0-2.3-.1Z" transform="translate(0 0)" />
    <path class="strokes" d="M45,33.6a1.12,1.12,0,0,0,.3,1.5,7.14,7.14,0,0,0,1.5.8,3.53,3.53,0,0,0,1.4.3,3.41,3.41,0,0,0,2.4-.9,1.08,1.08,0,0,0,.2-1.3,1.14,1.14,0,0,0-1.2-.6,6.89,6.89,0,0,0-.8.3c-.1.1-.3.1-.4.2a.37.37,0,0,0-.3.1h-.2a6.37,6.37,0,0,1-.7-.2,1.79,1.79,0,0,1-.7-.5,1.42,1.42,0,0,0-.6-.2,1.35,1.35,0,0,0-.9.5Z" transform="translate(0 0)" />
    <path class="strokes" d="M45.7,12.5h-.2a.92.92,0,0,0-.6.4.75.75,0,0,0-.1.8v1.5a1.88,1.88,0,0,0-.8.2,11.78,11.78,0,0,0-1.9,1.1c-.2.2-.5.4-.7.6a4.35,4.35,0,0,0-.6.7,5.55,5.55,0,0,0-.6.8,18.28,18.28,0,0,0-1.4,2.8,19.84,19.84,0,0,0-.8,3.1,6.15,6.15,0,0,0-.1,1.4v.4l-1.2.1-1,.1a1.28,1.28,0,0,0-1,.4,1.6,1.6,0,0,0-.5,1,1.28,1.28,0,0,0,.4,1,1.62,1.62,0,0,0,.9.5h.6c.9-.1,1.6-.1,2.4-.2a10,10,0,0,0,.2,1.6V31a8.33,8.33,0,0,0,.4,1.5c.2.6.4,1.1.6,1.7A8.58,8.58,0,0,0,41,36.5a3.45,3.45,0,0,0,1.2.9c.2.2.5.3.7.5a8.94,8.94,0,0,0,1.6.9c.5.2,1,.4,1.6.7.3.1.6.2,1,.3a5.9,5.9,0,0,0,1.4.2,3.75,3.75,0,0,0,1-.1,12.34,12.34,0,0,0,3.9-1.4,6.73,6.73,0,0,0,1.1-.7A6.58,6.58,0,0,0,56,36.4c.2-.2.3-.5.5-.7l.2-.2a10.55,10.55,0,0,0,1.6-4.7c.1-.5.1-.9.2-1.4v-.2a5.7,5.7,0,0,0,1.3-.1,14.35,14.35,0,0,0,2.2-.4.55.55,0,0,0,.5-.3,2,2,0,0,0,.4-.8,1.08,1.08,0,0,0-.8-1.1,10.75,10.75,0,0,0-2.3-.4c0-.1,0-.1.1-.2a6.08,6.08,0,0,0-.1-1.9v-.2a11.43,11.43,0,0,0-.5-2.4,10.17,10.17,0,0,0-2.7-4.3,10.71,10.71,0,0,0-2.2-1.5,4.71,4.71,0,0,0-1.5-.6,3.08,3.08,0,0,0-1-.1h-.2a2.24,2.24,0,0,0-.3-1,1.87,1.87,0,0,0-.6-.7,3.18,3.18,0,0,0-.9-.3,2,2,0,0,1-.7-.1c-.4,0-.8-.1-1.3-.1H46c0-.1-.1-.2-.3-.2Zm-.1,11.8a1.45,1.45,0,0,0,.7-.2.78.78,0,0,0,.3-.7c-.1-1.2,0-2.5,0-3.7V17.2a1,1,0,0,0,0-1.4v-1h3.1a7.72,7.72,0,0,1,.2,1.5,14.08,14.08,0,0,1,.1,2,5.7,5.7,0,0,0,.1,1.3v.8a2.2,2.2,0,0,0,.1.8,3.75,3.75,0,0,0,.1,1,1.88,1.88,0,0,0,.2.8.84.84,0,0,0,.7.4.75.75,0,0,0,.7-.5,4.87,4.87,0,0,0,.1-1.2V20.1c0-.8-.1-1.6-.1-2.4v-.1h.2a9.44,9.44,0,0,0,.9.3l1.5.9a5.26,5.26,0,0,1,1.2,1.4,8,8,0,0,1,.8,1.6,12.53,12.53,0,0,1,.5,2.4v.4a5.9,5.9,0,0,0,.2,1.4h-.3l-2.7-.3h-.1a9.15,9.15,0,0,0-1.7-.1h-.2a8.6,8.6,0,0,0-1.6.1H49.2a5.7,5.7,0,0,0-1.3.1c-.5,0-1.1.1-1.6.1H42.8c-.7,0-1.5.1-2.3.1h-.4v-.6a6.8,6.8,0,0,1,.2-1.5c.1-.5.3-1.1.4-1.6l.6-1.5v-.1l.1-.2a7.69,7.69,0,0,1,1-1.5c.4-.4.9-.8,1.3-1.2a5.74,5.74,0,0,1,.7-.4h.1v5.7a1.85,1.85,0,0,0,.2.7,4.38,4.38,0,0,0,.9.5Zm-.2,4.5a14.77,14.77,0,0,0,2.1-.1c.5,0,1-.1,1.5-.1h3.1a4.1,4.1,0,0,1,1.1.1c.4,0,.7.1,1.1.1h.1c.3,0,.6.1.9.1h.1l.6.1a.75.75,0,0,1-.1.5v.2a5,5,0,0,1-.2,1.2v.2a11.39,11.39,0,0,1-.7,2.2,13,13,0,0,1-1,1.5l-.7.7A11,11,0,0,1,50.5,37a13.64,13.64,0,0,1-1.7.4h-.9a8.8,8.8,0,0,1-1.5-.5l-.3-.1c-.4-.2-.8-.3-1.3-.5a14.17,14.17,0,0,1-2.3-1.4c-.2-.1-.3-.3-.4-.4A11.51,11.51,0,0,1,40.9,32c-.1-.4-.2-.7-.3-1.1a11.63,11.63,0,0,1-.4-1.8v-.3h2.5a6.6,6.6,0,0,1,1.4.1h.5a2.2,2.2,0,0,1,.8-.1Z" transform="translate(0 0)" />
    <path class="strokes" d="M44.5,36.9a.86.86,0,0,0-.6.7,6.47,6.47,0,0,1-.4,1.3l-.1.1-.2.2c-.2.1-.3.2-.5.2l-1.8.6a13.36,13.36,0,0,0-1.8.7,2,2,0,0,0-.8.4,6.73,6.73,0,0,0-1.1.7A8,8,0,0,0,35,44.1a12.44,12.44,0,0,0-1,2,11.76,11.76,0,0,0-.7,2c-.2.8-.3,1.5-.5,2.3a12.25,12.25,0,0,0-.2,1.9,17.7,17.7,0,0,0-.1,2.3V55a1.27,1.27,0,0,0,.1.6,1.56,1.56,0,0,0,.6.8,2.5,2.5,0,0,0,1.4.4c.2,0,.4.1.6.1a19.42,19.42,0,0,0,2.4.2,8.16,8.16,0,0,0,2.7,0,1.3,1.3,0,0,0,.9-1,1.14,1.14,0,0,0-.3-.8,2,2,0,0,0-.8-.4c-.9-.1-1.7-.1-2.6-.2a23,23,0,0,1-2.6-.3v-.2c0-.4.1-.8.1-1.2.1-.8.2-1.7.3-2.5a8.47,8.47,0,0,1,.4-1.7,13.36,13.36,0,0,1,.7-1.8,7.61,7.61,0,0,1,1.2-1.9A6.89,6.89,0,0,1,38.9,44c1-.6,2-1,3-1.5.5-.2,1.1-.5,1.7-.7a6.57,6.57,0,0,0,1.7-1.2,6.5,6.5,0,0,0,.9-2.3,1.15,1.15,0,0,0-.1-1,1.34,1.34,0,0,0-.7-.6c-.1,0-.3-.1-.4-.1-.1.2-.3.2-.5.3ZM43,39.5c-.1,0-.1,0-.2.1a.31.31,0,0,1,.2-.1ZM35.2,54.8Z" transform="translate(0 0)" />
    <path class="strokes" d="M39.6,50.6a29.46,29.46,0,0,0-.1,4.2l.3,4.2c.1,1.3.1,2.5.1,3.8,0,.6.1,1.2.1,1.8a4.1,4.1,0,0,0,.1,1.1,2.2,2.2,0,0,0,.5,1.6,1.57,1.57,0,0,0,1.3.4,1.5,1.5,0,0,0,1-.9A2,2,0,0,0,43,66V63.9a24.52,24.52,0,0,0-.2-2.7c-.1-1.9-.4-3.7-.6-5.6,0-.8-.1-1.5-.1-2.3a24.37,24.37,0,0,1,.1-2.7,1.34,1.34,0,0,0-1.3-1.4h-.1a1.61,1.61,0,0,0-1.2,1.4Z" transform="translate(0 0)" />
    <path class="strokes" d="M52,36.8a1.15,1.15,0,0,0-.9,1.5,10.43,10.43,0,0,0,.8,2.5,5.38,5.38,0,0,0,.9,1.2,6,6,0,0,0,1.3.9,15.71,15.71,0,0,0,2.3.9,8.8,8.8,0,0,1,1.5.5A11.26,11.26,0,0,1,60,45.8a11,11,0,0,1,1,1.1,3.55,3.55,0,0,1,.4.9,10.08,10.08,0,0,1,.5,2.5l.3,2.7c0,.5.1,1.1.1,1.6-1.4.4-3,.4-4.4.7a1.17,1.17,0,0,0-.9,1,1.13,1.13,0,0,0,1.1,1.2,19.19,19.19,0,0,0,2.2-.3,23.36,23.36,0,0,0,2.6-.4,6.12,6.12,0,0,0,1.2-.5c.4-.2.5-.5.7-.9a1.7,1.7,0,0,0,.1-.7V52.3a22.86,22.86,0,0,0-.2-2.5c-.1-.7-.2-1.4-.3-2a7.45,7.45,0,0,0-1.6-3.2A9.34,9.34,0,0,0,61,43c-.2-.1-.4-.3-.6-.4L59.2,42a8.65,8.65,0,0,0-2.3-.6,18,18,0,0,1-2.2-.6c-.2-.1-.3-.2-.5-.3s-.2-.3-.4-.4-.2-.3-.2-.5c-.1-.5-.2-.9-.3-1.4a1.19,1.19,0,0,0-1.2-1c.1-.5,0-.4-.1-.4Z" transform="translate(0 0)" />
    <path class="strokes" d="M55.6,49.7a1.23,1.23,0,0,0-.5,1c.1,1.4.2,2.8.2,4.1V59c0,1.2-.1,2.4-.1,3.6a10.87,10.87,0,0,1-.1,1.8v.8a1.41,1.41,0,0,0-.1.9,17523282.7,17523282.7,0,0,1,.2.8,1.48,1.48,0,0,0,1.4,1.2A1.5,1.5,0,0,0,58.1,67a3.21,3.21,0,0,0,.1-1.4V62.7c0-1.2.1-2.4.1-3.6V55c0-1.4-.1-2.9-.2-4.3a1.28,1.28,0,0,0-.4-1,1.39,1.39,0,0,0-1-.5h-.1a9.29,9.29,0,0,0-1,.5Z" transform="translate(0 0)" />
    <path class="strokes" d="M44.1,41.9a.5.5,0,1,0,.5-.5.47.47,0,0,0-.5.5Z" transform="translate(0 0)" />
    <path class="strokes" d="M40.4,41a1.56,1.56,0,0,0-.8.6,1.8,1.8,0,0,0-.2,1c.2,1.5.3,3,.4,4.5.1,1.1.1,2.2.2,3.4a8.6,8.6,0,0,0,.1,1.6,2.77,2.77,0,0,0,.1.9,2.38,2.38,0,0,0,.3,1.4,1.76,1.76,0,0,0,.4.5,1.42,1.42,0,0,0,.6.2,1.11,1.11,0,0,0,1.2-.9,3.81,3.81,0,0,0,.1-1.5c0-.4-.1-.9-.1-1.3a24.37,24.37,0,0,1-.1-2.7q-.15-3.3-.6-6.6a1,1,0,0,0-.6-.8,1.85,1.85,0,0,0-.7-.2c-.2-.2-.2-.1-.3-.1Z" transform="translate(0 0)" />
    <path class="strokes" d="M45.6,43.8l-.1.1v.2c0,.1.1.3.1.4v-.1a1.45,1.45,0,0,1,.2.7c0,.1,0,.1.1.1h.2c.1,0,.1,0,.1-.1a.14.14,0,0,0,0-.2c-.1-.4-.3-.7-.4-1.1l-.1-.1h-.1v.1Z" transform="translate(0 0)" />
    <path class="strokes" d="M44.7,40.4a1.07,1.07,0,0,0-.8,1.3c.4,2.6.8,5.1,1.2,7.7.4,2.4.9,4.7,1.5,7a9.83,9.83,0,0,0,.5,1.6l.3.9c.2.6.4,1.4,1.1,1.6a1.09,1.09,0,0,0,1.2-.4h0a1.18,1.18,0,0,0,.1-1c-.3-1.1-.7-2.3-1-3.4l-.9-3.3c-.3-1.2-.5-2.4-.7-3.6-.2-1-.3-2-.5-3-.2-1.5-.5-2.9-.7-4.4a1.05,1.05,0,0,0-1-.8c-.2-.2-.2-.2-.3-.2Zm5,18.5Z" transform="translate(0 0)" />
    <path class="strokes" d="M52.5,41.4a27.73,27.73,0,0,1-1,2.6l-.6,2.1c-.1.3-.1.5-.2.8-.1.5-.2.9-.3,1.4-.2.7-.3,1.5-.5,2.2L49,54.7c-.2.7-.3,1.4-.5,2.1a15.72,15.72,0,0,0-.4,2.3,1.49,1.49,0,0,0,.2.9,1.17,1.17,0,0,0,1.6.5,1.94,1.94,0,0,0,.9-1.4l.3-.9c.2-.7.4-1.5.6-2.2.4-1.4.7-2.9,1-4.3.1-.7.3-1.5.4-2.2a17.42,17.42,0,0,1,.5-2.2l.6-2.1c.2-.7.5-1.4.7-2,.1-.2.2-.5.3-.7a1.57,1.57,0,0,0-.9-1.9.9.9,0,0,0-.5-.1c-.5-.1-1,.3-1.3.9Z" transform="translate(0 0)" />
    <path class="strokes" d="M54.9,43.6c.1,2,.1,4,.1,5.9v4.2c0,.6.1,1.1.1,1.7,0,.4.5.7.9.8a1.45,1.45,0,0,0,.7-.2.91.91,0,0,0,.3-.7c-.1-1.9,0-3.8,0-5.6,0-2,0-4-.1-5.9a1,1,0,0,0-1-1h0a.76.76,0,0,0-1,.8Z" transform="translate(0 0)" />
    <path class="strokes" d="M47.7,59.7c-.1,1.4-.2,2.8-.2,4.1a12.75,12.75,0,0,1-.1,1.9v.8a5.7,5.7,0,0,0,.1,1.3,1.17,1.17,0,0,0,1.1.9,1.61,1.61,0,0,0,1.1-.5,3.81,3.81,0,0,0,.3-1v-.8a12.1,12.1,0,0,1,.1-1.9c.1-1.5.2-3.1.3-4.6a1.4,1.4,0,0,0-1.2-1.4h-.1a1.33,1.33,0,0,0-1.4,1.2Z" transform="translate(0 0)" />
    <path class="strokes" d="M48.5,66.3a13.4,13.4,0,0,0-2,.1H44.9a19.27,19.27,0,0,1-2.4-.1,1.5,1.5,0,0,0-.2,3,17.7,17.7,0,0,1,2.3.1h1.6a13.4,13.4,0,0,0,2-.1h1.5a12.75,12.75,0,0,1,1.9.1,8.75,8.75,0,0,1,1.6.2,8.6,8.6,0,0,0,1.6.1,5.11,5.11,0,0,0,2.1-.3,1.49,1.49,0,0,0-.2-2.7,5,5,0,0,0-1.7-.2,8.55,8.55,0,0,1-1.6,0c-.5,0-1.1-.1-1.6-.1s-1.2-.1-1.9-.1Z" transform="translate(0 0)" />
    <path class="strokes" d="M34.2,55.1c-.1,1.3-.1,2.6-.2,3.9v3c0,1.1.1,2.3.1,3.4v1.9a2,2,0,0,0,.2,1.1,1.13,1.13,0,0,0,2,0,1.05,1.05,0,0,0,0-1.2c-.1-1.8-.2-3.6-.3-5.5a10.87,10.87,0,0,0-.1-1.8v-1c0-1.3,0-2.5.1-3.8A1.16,1.16,0,0,0,35,54h0a1.61,1.61,0,0,0-.8,1.1Z" transform="translate(0 0)" />
    <path class="strokes" d="M45,44.6c2.1,1.2,4.3,2.3,6.7,1.6,1-.3.6-1.9-.4-1.6-2,.6-3.8-.5-5.5-1.5-.9-.4-1.7,1-.8,1.5Z" transform="translate(0 0)" />
    <path class="theme-color" d="M50.4,48.3c-.2.7-.3,1.5-.5,2.2L49,54.7c-.1.4-.2.7-.3,1.1,0-.1,0-.1-.1-.2l-.9-3.3c-.3-1.2-.5-2.4-.7-3.6-.2-1-.3-2-.5-3v-.1a7.81,7.81,0,0,0,4.2.9c0,.2-.1.3-.1.5A6.88,6.88,0,0,1,50.4,48.3Z" transform="translate(0 0)" />
    <path class="strokes" d="M61.6,55.5a1.91,1.91,0,0,0-.5,1,45.34,45.34,0,0,0-.5,5.3c-.1.9-.1,1.8-.2,2.7s-.2,2-.2,3a1.5,1.5,0,0,0,3,.2,28.1,28.1,0,0,0,.1-2.9c0-.9.1-1.9.1-2.8a45.34,45.34,0,0,1,.5-5.3,1.16,1.16,0,0,0-.4-1,1.91,1.91,0,0,0-1-.5h-.1a.71.71,0,0,0-.8.3Z" transform="translate(0 0)" />
  </g>
  <g id="shovel">
    <g>
      <path class="theme-color" d="M20.5,80.6l-.3.6a5.24,5.24,0,0,1-1,1.1c-.8.7-1.6,1.4-2.3,2.1-.5.5-1,.9-1.5,1.4a16.6,16.6,0,0,1-1.3,1.4c-.7.9-1.5,1.7-2.2,2.6s-1.4,1.7-2.1,2.7c0-.1,0-.2-.1-.2v.2c-.1-.5-.2-1.1-.3-1.6a9.7,9.7,0,0,1-.1-1.7c-.1-1.2-.1-2.4-.2-3.5-.1-2.1-.4-4.2-.4-6.4a4.25,4.25,0,0,1,.2-1.1l.3-.9c.1-.2.1-.4.2-.6a11.51,11.51,0,0,0,2.5,1.2c.8.3,1.6.5,2.3.7l1.8.6,2.4.6c-.1,0-.2-.1-.4-.1a4.87,4.87,0,0,1,1.1.4,4.67,4.67,0,0,1,1,.5c.3-.1.4-.1.4,0Z" transform="translate(0 0)" />
      <path class="strokes" d="M29.7,59.1a4.55,4.55,0,0,0-.8-1.9,6.07,6.07,0,0,0-.7-1,1.91,1.91,0,0,0-1-.5h-.8a1.93,1.93,0,0,0-1,.3,10.91,10.91,0,0,0-1.1.6,5.71,5.71,0,0,0-1.4,1.3,14.43,14.43,0,0,0-2.3,3.2,13,13,0,0,0-.8,1.7l-.9,1.8c-.5,1-1.1,2-1.7,3.1-.4.7-.7,1.4-1.1,2.1-.1,0-.1.1-.2.1h0a1.06,1.06,0,0,0-.2,1.2,2.09,2.09,0,0,0,.4.6,2.19,2.19,0,0,0,.5.3c.1.1.3.1.4.2a3.55,3.55,0,0,1,.9.4,8.65,8.65,0,0,1,1.7.7l.6.3a2.23,2.23,0,0,0,1.4.3A2.63,2.63,0,0,0,23,73c.2-.2.3-.5.5-.7s.3-.5.5-.8c.4-.6.7-1.2,1.1-1.8a15.05,15.05,0,0,1,1-1.7c.7-1.1,1.3-2.2,1.9-3.3A16,16,0,0,0,29.2,62a5.76,5.76,0,0,0,.5-2.9Zm-2.1.7a4.25,4.25,0,0,1-.2,1.1,22.47,22.47,0,0,1-1.9,3.8c-.9,1.5-1.9,3-2.8,4.5.1-.1.1-.2.2-.3-.3.4-.5.9-.8,1.3a7,7,0,0,1-.8,1c-.3-.1-.5-.2-.8-.3s-.7-.3-1.1-.4c-.2-.1-.5-.2-.7-.3.7-1.4,1.5-2.8,2.2-4.2s1.3-2.8,2-4.2a14.63,14.63,0,0,1,.9-1.3,10.7,10.7,0,0,1,1.4-1.6,3.59,3.59,0,0,1,1-.7c.1-.1.3-.1.4-.2h.2a2.09,2.09,0,0,0,.4.6c.1.2.2.5.3.7a.75.75,0,0,1,.1.5Zm-.5-1.9ZM21.2,71.2Zm-.3.3Z" transform="translate(0 0)" />
      <path class="strokes" d="M18.4,70.4a1.93,1.93,0,0,0-1-.3,1.05,1.05,0,0,0-.9.5c-.7.6-1.3,1.3-2,1.9A21.21,21.21,0,0,0,13,74a1.35,1.35,0,0,0,0,1.7,1.05,1.05,0,0,0,.9.5,1.16,1.16,0,0,0,1-.2c.1-.1.2-.2.3-.2s.3-.2.3-.4c1-1,2-1.9,3-2.9.3-.2.3-.7.3-1v-.1a1.28,1.28,0,0,0-.4-1Z" transform="translate(0 0)" />
      <path class="strokes" d="M21.2,71.2a1.31,1.31,0,0,0-1.9.2c-.9,1-1.8,2.1-2.7,3a16.6,16.6,0,0,1-1.3,1.4l-.6.6a3.59,3.59,0,0,0-.7,1,1.48,1.48,0,0,0-.1.7,1.19,1.19,0,0,0,.5.9,1.69,1.69,0,0,0,1,.3c.4,0,.6-.2.9-.5,1.8-1.8,3.5-3.7,5.2-5.7a1.43,1.43,0,0,0,.3-1.1,5.55,5.55,0,0,0-.6-.8Z" transform="translate(0 0)" />
      <path class="strokes" d="M23,79a2.34,2.34,0,0,0-.7-.7,4.13,4.13,0,0,0-1.1-.7,3,3,0,0,1-.8-.4,1.42,1.42,0,0,0-.6-.2l-1.1-.3a7.37,7.37,0,0,1-1.4-.4c-1.1-.3-2.1-.7-3.2-1a14.58,14.58,0,0,1-1.9-.7,6.38,6.38,0,0,1-1.4-.8c-.1-.1-.1-.1-.2-.1a.35.35,0,0,1-.2-.1,1.27,1.27,0,0,0-1.2,0,2.19,2.19,0,0,0-.5.3,1.38,1.38,0,0,0-.4.3,4.51,4.51,0,0,0-1,1.4c-.2.5-.4,1.1-.6,1.7-.1.3-.1.5-.2.8a6.6,6.6,0,0,0-.1,1.4c0,.6.1,1.1.1,1.7.2,2.3.6,4.6,1,7a22.87,22.87,0,0,0,.7,3.6c.2.6.3,1.1.5,1.7a1.6,1.6,0,0,0,.3.8.91.91,0,0,0,.8.4c.4,0,.7-.4.9-.6a30.7,30.7,0,0,0,2.5-2.6l2.6-2.6L17,87.7c-.1.1-.2.1-.2.2a6,6,0,0,0,.8-.8l-.2.2c.8-.7,1.6-1.4,2.4-2a12.65,12.65,0,0,0,3-3.1,3,3,0,0,0,.4-.8c.1-.2.1-.5.2-.7a1.7,1.7,0,0,0,.1-.7h0a2.35,2.35,0,0,0-.5-1Zm-2.4,1.3Zm-.1.3-.3.6a5.24,5.24,0,0,1-1,1.1c-.8.7-1.6,1.4-2.3,2.1-.5.5-1,.9-1.5,1.4a16.6,16.6,0,0,1-1.3,1.4c-.7.9-1.5,1.7-2.2,2.6s-1.4,1.7-2.1,2.7c0-.1,0-.2-.1-.2v.2c-.1-.5-.2-1.1-.3-1.6a9.7,9.7,0,0,1-.1-1.7c-.1-1.2-.1-2.4-.2-3.5-.1-2.1-.4-4.2-.4-6.4a4.25,4.25,0,0,1,.2-1.1l.3-.9c.1-.2.1-.4.2-.6a11.51,11.51,0,0,0,2.5,1.2c.8.3,1.6.5,2.3.7l1.8.6,2.4.6c-.1,0-.2-.1-.4-.1a4.87,4.87,0,0,1,1.1.4,4.67,4.67,0,0,1,1,.5c.3-.1.4-.1.4,0Zm-6-5.2c-.1,0-.1,0-.2-.1a.31.31,0,0,0,.2.1Zm-.2,3.1c-.1,0-.1,0-.2-.1a.35.35,0,0,1,.2.1ZM10.1,93.1Z" transform="translate(0 0)" />
    </g>
  </g>
  <g class="stars">
    <g class="star">
      <path class="theme-color" d="M78.5,1.5a5.07,5.07,0,0,0-1.5.7c-.3.2-.7.4-1,.6L74.2,4c-.8.5-1.6,1.1-2.3,1.6s-1.4.9-2.1,1.4-1.6,1.1-2.5,1.6a.78.78,0,0,0-.4.4c-.1.2,0,.4,0,.6a.78.78,0,0,0,1,.3c1.6-1,3.1-2,4.7-3,1.4-1,2.7-1.9,4.2-2.8l.9-.6A5.39,5.39,0,0,1,79,2.8c.1-.1.2-.1.3-.2a1.09,1.09,0,0,0,.1-.5.86.86,0,0,0-.7-.6Z" transform="translate(0 0)" />
      <path class="theme-color" d="M69.2,2.3a1,1,0,0,0-.1,1.2c.2.3.4.5.6.8s.4.5.6.7c.5.5.9,1,1.5,1.5a21.1,21.1,0,0,0,2.3,1.9l2.3,1.7.4.4c.3.2.6.6.9.6h.4c.2,0,.3-.1.4-.3a.75.75,0,0,0,.1-.5.52.52,0,0,0-.2-.4V9.8c-.1-.2-.3-.3-.4-.5s-.3-.3-.4-.5-.4-.3-.5-.5a1.79,1.79,0,0,0-.7-.5c-1-.8-2.1-1.5-3-2.3L71.9,4a5,5,0,0,1-.7-.8c-.2-.3-.5-.6-.7-.9a1.6,1.6,0,0,0-.8-.3.55.55,0,0,0-.5.3Z" transform="translate(0 0)" />
      <path class="theme-color" d="M72.9.2a.86.86,0,0,0-.3.6c-.3,2.2-.5,4.2-.8,6.3a53.2,53.2,0,0,0-.6,5.6.82.82,0,0,0,.8.9,1.42,1.42,0,0,0,.6-.2c.2-.2.2-.4.3-.6.3-1.8.6-3.7.8-5.5.3-2.1.6-4.2.8-6.3.1-.5-.4-.9-.9-1h0a1.45,1.45,0,0,0-.7.2Z" transform="translate(0 0)" />
    </g>
    <g class="star">
      <path class="theme-color" d="M1,46.5a1.45,1.45,0,0,0-.7.2.91.91,0,0,0-.3.7,1.85,1.85,0,0,0,.2.7.71.71,0,0,0,.6.3h.5a5.64,5.64,0,0,1,1.2.4c.5.3,1,.6,1.6.9.3.2.7.3,1,.5s.5.3.8.4.7.3,1,.5c1.2.5,2.4,1,3.6,1.4a.94.94,0,0,0,.7-1.7,24.42,24.42,0,0,0-2.4-1c-.7-.3-1.5-.6-2.2-.9-.5-.3-1.1-.5-1.6-.8s-1-.6-1.6-.9a5,5,0,0,0-1.3-.5,5,5,0,0,0-1.2-.2Z" transform="translate(0 0)" />
      <path class="theme-color" d="M10.3,43.2c-.2,0-.3.2-.5.3-2.3,2.7-4.5,5.4-6.7,8.2-.4.6-.9,1.1-1.3,1.7a.78.78,0,0,0,.2,1,1.27,1.27,0,0,0,.6.1c.2,0,.3-.2.5-.3l2.1-2.7c.5-.6.9-1.2,1.4-1.7,1.1-1.3,2.2-2.6,3.3-4l1.2-1.5c.1-.1.1-.4.1-.6a.85.85,0,0,0-.3-.5.6.6,0,0,0-.4-.1c-.1.1-.1.1-.2.1Z" transform="translate(0 0)" />
      <path class="theme-color" d="M4.9,42.2a1.14,1.14,0,0,0-.3.6c.2,2.1.4,4.2.6,6.4.2,1.9.4,3.8.7,5.8,0,.1.1.3.1.4A.89.89,0,0,0,7,56a.66.66,0,0,0,.5-.4,1.27,1.27,0,0,0,.1-.6c-.2-1.9-.5-3.8-.7-5.8-.2-1.8-.4-3.6-.5-5.4,0-.3-.1-.7-.1-1a1.42,1.42,0,0,0-.2-.6,1.07,1.07,0,0,0-.6-.2h0a1.42,1.42,0,0,0-.6.2Z" transform="translate(0 0)" />
    </g>
    <g class="star">
      <path class="theme-color" d="M106.1,64.3a1.23,1.23,0,0,0-.4.8,1.14,1.14,0,0,0,.3.8,2,2,0,0,0,.8.4c3.2.5,6.4,1.1,9.6,1.6a7.49,7.49,0,0,1,1.6.4,1.1,1.1,0,0,0,1.3-.7,1,1,0,0,0-.7-1.3c-.5-.2-.9-.3-1.4-.5l-1.2-.3-3-.6c-2-.4-4.1-.7-6.1-1h-.1a1.61,1.61,0,0,0-.7.4Z" transform="translate(0 0)" />
      <path class="theme-color" d="M115,60.4c-.3.1-.6.2-.7.5-.7,1.4-1.4,2.7-2.1,4.1-.5.9-.9,1.9-1.4,2.8-1,2.1-2,4.2-2.9,6.3a.84.84,0,0,0,.4,1.1.89.89,0,0,0,1.3-.3c.6-1,1.1-2,1.7-3l1.5-3c1.1-2.2,2.2-4.4,3.3-6.7a2.39,2.39,0,0,0,.2-.9,1.16,1.16,0,0,0-.5-.7,1.42,1.42,0,0,0-.6-.2Z" transform="translate(0 0)" />
      <path class="theme-color" d="M109.2,60.2a1.47,1.47,0,0,0-.5.6.75.75,0,0,0,.1.8c.9,1.9,1.7,3.9,2.6,5.8.4.9.8,1.8,1.3,2.7s.9,1.6,1.4,2.4a1,1,0,0,0,.6.5.78.78,0,0,0,.8-.1.9.9,0,0,0,.4-1.3c-.4-.8-.9-1.6-1.3-2.5l-1.2-2.7c-.9-1.9-1.7-3.8-2.6-5.8a1.1,1.1,0,0,0-1-.6c-.3.1-.4.2-.6.2Z" transform="translate(0 0)" />
    </g>
  </g>
</svg>
