<svg viewBox="0 0 600 300" xmlns="http://www.w3.org/2000/svg">
  <title>
    alistapart
  </title>
  <g fill="#000" fill-rule="evenodd">
    <path d="M529.41 144.605c3.411 0 6.279.175 9.116-.046 3.168-.246 4.822-2.037 4.873-4.733.052-2.828-1.395-4.813-4.445-5.141-3.018-.326-6.098-.071-9.307-.071-.091.963-.219 1.735-.228 2.509-.027 2.386-.01 4.773-.01 7.482m.001 32.414h-16.143c-.791-2.42-1.13-46.148-.378-53.75.827-.08 1.705-.236 2.582-.238 8.757-.017 17.518-.154 26.27.068 3.168.08 6.474.596 9.437 1.684 5.644 2.071 8.922 6.338 9.477 12.49.578 6.4-1.276 11.645-7.092 15.004-.681.393-1.342.82-2.208 1.35l9.63 23.367h-18.422c-2.564-6.637-5.175-13.397-7.855-20.34h-5.2c-.212 3.353-.064 6.784-.091 10.203-.027 3.325-.007 6.649-.007 10.162M318.888 135.498l-13.09 4.024c-2.095-4.119-5.41-5.733-9.733-5.326-.787.075-1.58.27-2.329.53-1.298.449-2.206 1.357-2.221 2.785-.016 1.433.874 2.465 2.165 2.831 2.872.815 5.812 1.383 8.692 2.172 3.1.849 6.3 1.526 9.22 2.815 10.62 4.69 12.611 18.76 3.883 26.456-4.355 3.84-9.66 5.32-15.207 5.962-5.207.602-10.364.037-15.292-1.88-5.785-2.25-9.894-6.227-12.005-12.153-.224-.628-.281-1.314-.486-2.318l14.565-2.639c.315.205.604.284.675.455 2.2 5.294 6.885 6.58 12.746 5.638 2.245-.361 3.268-1.32 3.363-2.868.121-1.987-1.158-2.975-2.76-3.51-1.738-.58-3.573-.858-5.337-1.368-3.859-1.114-7.822-1.993-11.52-3.513-5.85-2.404-9.16-6.942-9.15-13.434.011-6.666 2.905-11.82 8.805-15.033 3.17-1.726 6.615-2.678 10.258-2.714 4.6-.044 9.216-.317 13.643 1.444 4.916 1.956 8.754 5.057 10.957 9.989.093.208.18.43.21.656.03.218-.018.447-.052.999M439.54 145.665c3.286.31 6.252.457 9.163-.38 2.446-.702 3.58-2.373 3.525-4.902-.052-2.47-1.324-4.242-3.81-4.653-2.909-.482-5.87-.549-8.879.045v9.89zm-16.747 31.302v-53.699c.894-.09 1.663-.236 2.433-.237 7.83-.015 15.663-.128 23.488.059 2.952.07 5.987.519 8.812 1.372 6.734 2.034 10.967 7.987 11.146 15.066.193 7.706-3.646 13.62-10.465 16.3-3.744 1.47-7.65 1.49-11.559 1.561-2.279.043-4.558.008-7.127.008v19.57h-16.728zM480.104 154.41h8.709l-4.003-14.335-.658-.045-4.048 14.38m-6.171 22.601h-13.468l16.725-53.845h17.714l16.893 53.83h-16.862l-3.312-10.595c-4.346 0-8.593.004-12.841-.003-1.267-.003-1.767.73-2.099 1.865-.842 2.877-1.791 5.723-2.75 8.748M175.179 154.548c-1.625-5.113-2.471-9.961-4.618-15.174l-4.132 15.174h8.75zm22.934 22.517H181.21l-3.202-10.454H163.58l-3.427 10.458h-13.417l16.746-53.908h17.701l16.93 53.904zM398.886 154.502l-4.02-14.416-.654-.055-4.062 14.471h8.736zm6.097-31.25l16.866 53.768h-16.892l-3.233-10.53c-4.41-.21-8.876-.156-13.329.033-.584.024-1.368 1.102-1.634 1.846-1.01 2.822-1.844 5.706-2.78 8.68h-13.383c5.36-18.09 11.12-35.797 16.595-53.797h17.79zM229.717 163.951h21.358v12.726c-2.451.667-33.3.836-37.697.18v-53.476c2.62-.744 5.373-.26 8.08-.344 2.632-.082 5.267-.018 8.259-.018v40.932zM599.8 123.239v12.665h-11.006V177h-15.728v-41.034H561.89c-.227-4.349-.12-8.426-.07-12.727H599.8zM331.891 135.798h-11.323v-12.543h37.77v12.564h-10.51c-.537 3.702-.198 7.139-.26 10.549-.062 3.35-.014 6.704-.014 10.056v20.582h-15.663v-41.208zM253.929 177.029h16.356v-53.762h-16.356z" />
    <g>
      <path d="M70.662 189.02l1.104 1.217c2.968-2.4 6.104-4.53 8.19-7.793.356-.556.426-1.297.628-1.952l.114-.1c1.941-1.139 2.967-3.108 4.057-4.903 1.314-2.164 2.279-4.557 3.244-6.913.903-2.204.122-3.414-2.22-3.477-5.143-.14-9.395-2.118-12.876-5.896-1.283-1.392-2.162-2.956-2.57-4.785-.552-2.474-1.064-4.958-1.62-7.566 1.389 0 2.685-.022 3.98.004 7.566.15 14.995 7.855 14.736 14.115-.034.792.064 1.604.213 2.386.125.652.414 1.273.602 1.826 1.538 0 1.935-.907 2.16-1.85 1.146-4.81 2.36-9.615 2.32-14.612-.02-2.351-.746-2.882-3.129-2.609-2.455.28-4.92.598-7.385.624-4.417.047-7.525-2.295-9.662-5.983-.537-.926-.625-2.112-.921-3.178l-1.664-5.992c4.01-.336 7.881-.976 11.532.87 1.188.601 2.41 1.256 3.376 2.149 2.605 2.407 4.78 5.138 5.697 8.697.204.792.731 1.501 1.197 2.42 1.455-1.273 1.546-2.75 1.571-4.123a48.993 48.993 0 0 0-.29-6.446c-.324-2.844-2.502-4.552-5.28-4.019-6.038 1.16-10.982-.98-15.323-4.904-2.609-2.36-2.909-5.694-3.447-8.847 6.504-3.602 13.6-1.523 16.635 2.981 1.744 2.59 3.384 5.2 4.131 8.285.404 1.664.504 1.718 2.859 3.185.158-.443.49-.883.42-1.247-.475-2.498-.825-5.053-1.656-7.434-.406-1.165-1.665-2.114-2.701-2.959a31.948 31.948 0 0 1-7.189-8.258c-2.53-4.155-2.847-8.572-2.057-13.156.347-2.012 1.108-3.954 1.788-6.297 2.13 1.774 4.033 3.395 5.973 4.968 2.959 2.4 4.395 5.645 4.866 9.284.41 3.16.55 6.365.623 9.554.032 1.406-.289 2.85-.652 4.223-.238.9-.313 1.685.07 2.529 1.124 2.481 1.886 5.062 1.956 8.138.771-.585 1.368-.945 1.849-1.42 1.211-1.198 1.232-1.593.347-3.12-.2-.344-.407-.684-.625-1.018-1.96-3.003-2.017-6.092-.544-9.32 2.399-5.256 6.42-8.408 12.063-9.53 3.965 4.31 4.178 11.496.493 16.543-1.851 2.538-4.118 4.404-7.318 4.983-.99.18-2.062.497-2.847 1.086-1.965 1.473-3.64 2.953-3.104 6.057.45 2.608-.158 5.397-.266 8.107-.044 1.101-.008 2.205-.008 3.434 1.105-.389 1.297-1.183 1.31-2.084.015-1.04.01-2.08.028-3.121.075-4.225 1.72-7.913 4.755-10.642 3.445-3.097 7.472-5.418 12.28-5.871.687-.065 1.372-.145 2.02-.215.885 8.9-3.395 15.056-10.35 19.623-1.422.934-3.476.987-5.268 1.242-1.455.208-2.78.425-3.869 1.58-.81.862-1.257 1.741-1.403 2.927-.42 3.4-.971 6.784-1.46 10.176-.043.304-.005.62-.005 1.163 1.29-.222 2.165-.643 2.473-1.884.365-1.473.703-2.953 1.107-4.415 1.46-5.27 5.219-8.377 10.683-8.57 2.757-.097 5.527.191 8.438.311-.289 6.368-3.447 10.75-8.353 13.89-1.858 1.188-4.236 1.321-6.506.987-.71-.105-1.412-.26-2.12-.378-1.137-.192-2.207-.913-3.44-.122-1.607 1.029-3.192 1.909-3.878 3.954-.876 2.614-2.082 5.117-3.173 7.736 1.497.938 2.443.308 3.24-.663.812-.986 1.534-2.046 2.296-3.072 1.382-1.86 3.118-3.163 5.464-3.538a5.445 5.445 0 0 0 1.367-.431c4.706-2.136 8.949-.302 12.218 4.08.524.701 1.116 1.352 1.792 2.166-3.272 3.657-7.243 5.444-12.243 4.763-1.724-.235-3.474-.427-5.21-.403-1.738.024-3.276-.36-4.78-1.213-2.122-1.203-3.751-.894-5.178 1.012-1.617 2.16-3.125 4.403-4.638 6.55.565.983 1.176 1.015 1.88.49.77-.571 1.525-1.161 2.295-1.73 3.29-2.427 6.904-2.735 10.686-1.506 2.033.662 4.118 1.296 5.45 3.22.967 1.394.998 1.541-.142 2.877-.312.365-.633.721-.963 1.07-2.736 2.894-5.935 3.865-9.76 2.426-2.4-.902-4.778-1.81-6.614-3.717a7.73 7.73 0 0 0-1.292-1.067c-1.667-1.104-2.134-.915-3.667.465-2.843 2.558-5.843 4.941-8.706 7.478-1.77 1.568-3.777 2.596-5.986 3.383-1.854.66-3.614 1.586-5.662 2.504l8.445 6.499-.97 2.614c-2.198-3.128-5.15-4.98-7.745-7.227-.94-.813-1.755-.89-2.73-.045-1.992 1.727-4.067 3.356-6.043 5.1-.61.538-1.011 1.317-1.668 2.202l-1.06-2.359c2.433-2.649 5.556-4.331 8.446-6.81-2.821-1.233-5.38-2.474-8.04-3.428-.682-.244-1.157-.463-1.707-.94-1.745-1.51-3.672-2.808-5.435-4.3-1.885-1.593-3.747-3.233-5.453-5.012-.902-.94-1.678-1.114-2.707-.477-.601.373-1.226.745-1.73 1.232-2.692 2.599-6.022 3.828-9.592 4.524-1.738.339-3.381-.146-4.735-1.202-1.555-1.212-2.948-2.632-4.37-3.924.872-2.158 2.147-3.481 4.04-4.194 2.007-.756 3.959-1.567 6.204-1.56 2.768.01 5.166.806 7.313 2.499.627.495 1.236 1.034 1.929 1.415.402.222.955.17 1.778.291-.297-.773-.384-1.225-.62-1.574-1.344-1.981-2.68-3.972-4.104-5.893-1.213-1.636-3.074-2.059-4.798-1.04-1.71 1.009-3.472 1.421-5.456 1.367-1.652-.045-3.322.196-4.97.419-4.844.655-8.702-1.175-12.018-4.63 1.707-2.667 3.588-5.087 6.537-6.42.651-.294 1.333-.797 1.984-.772 4.514.178 8.893.845 12.086 4.548.884 1.026 1.636 2.166 2.46 3.244.673.881 1.492 1.434 2.963 1.014-.092-.541-.091-1.147-.3-1.669a251.426 251.426 0 0 0-3.129-7.495c-.92-2.096-3.804-3.347-6.112-2.852-2.418.52-4.865 1.056-7.317.175-1.033-.37-2.169-.656-3.019-1.298-4.253-3.212-6.97-7.358-7.36-12.99 4.352-.639 8.662-1.28 12.888.49 3.2 1.341 5.417 3.583 6.174 7.087.302 1.402.665 2.791.941 4.198.276 1.408 1.1 2.207 2.576 2.681.101-.45.252-.742.212-1.005-.542-3.544-1.119-7.082-1.67-10.624-.39-2.517-1.794-3.917-4.337-4.276-1.413-.2-2.854-.286-4.23-.631-.97-.244-1.94-.715-2.76-1.298-2.892-2.057-5.281-4.64-7.244-7.586-.603-.905-1.093-1.978-1.297-3.038-.524-2.72-.858-5.475-1.302-8.444 4.314.413 8.132 1.292 11.547 3.78 2.077 1.511 4.157 2.887 5.5 5.18 1.693 2.89 2.773 5.9 2.521 9.303-.052.717-.095 1.458.032 2.155.098.538.47 1.025.72 1.534l.59-.121c0-.89.02-1.779-.004-2.667-.093-3.43-.286-6.859-.253-10.287.01-1.067-.191-1.773-.94-2.515-1.493-1.477-3.06-2.617-5.189-3.167-7.848-2.028-11.856-10.122-8.864-17.646.497-1.248 1.101-2.452 1.73-3.838 5.783 1.139 9.899 4.077 12.36 9.474 1.589 3.484 1.348 6.593-.63 9.77-1.622 2.605-1.393 3.154 1.87 5.114-.206-3.07.91-5.672 1.871-8.34.316-.877-.006-2.014-.15-3.016-.123-.862-.629-1.712-.583-2.547.217-3.903.245-7.86.967-11.68.6-3.176 2.008-6.184 4.862-8.245 1.964-1.417 3.755-3.074 5.724-4.708.64 2.132 1.26 3.925 1.714 5.76 1.484 5.996-.05 11.301-3.596 16.235-1.762 2.452-4.032 4.311-6.271 6.222-1.335 1.14-2.203 2.44-2.657 4.136-.6 2.233-1.145 4.442-.778 6.959 1.763-.564 2.659-1.645 3.07-3.2.784-2.975 2.249-5.6 4.023-8.091 3.033-4.258 7.243-5.514 12.173-4.809 1.53.22 3.008.817 4.653 1.283-.65 4.182-1.46 7.84-4.968 10.444-4.116 3.056-8.515 4.686-13.623 3.653-1.986-.401-3.356.623-4.839 1.527-.184.112-.375.356-.402.56-.53 4.08-1.615 8.188.548 12.175 1.201.013 1.381-1.067 1.543-1.792.826-3.705 3.077-6.5 5.744-8.934 3.086-2.817 6.823-3.898 11.016-3.316 1.234.171 2.498.13 3.92.193-.79 2.998-1.24 6.027-2.395 8.757-1.68 3.974-4.978 6.246-9.326 6.424-2.529.102-5.111-.187-7.612-.626-2.203-.387-3.585.257-3.485 3.08.171 4.815 1.201 9.488 2.4 14.123.198.765.849 1.412 1.25 2.048 1.37-.353 1.466-1.219 1.538-2.127.093-1.191.152-2.392.353-3.566 1.056-6.14 5.003-9.888 10.531-11.943 2.377-.885 5.088-.865 7.82-1.283 0 .633.05.938-.008 1.222-.512 2.5-.919 5.03-1.619 7.477-.36 1.26-1.089 2.503-1.933 3.519-3.325 3.995-7.58 6.246-12.835 6.428-.24.008-.48 0-.718.02-1.952.163-2.89 1.281-2.128 3.007 1.38 3.124 2.974 6.158 4.593 9.168.59 1.097 1.505 2.019 2.312 3.074 1.62-1.183 2.577-2.262 1.898-4.468-.663-2.16-1.07-4.462-.332-6.826 1.373-4.397 5.545-7.91 10.115-8.243.948-.07 1.903-.01 2.826-.01 3.03 7.165-1.672 14.303-7.552 15.801-3.536.901-4.327 1.635-6.391 4.71 2.011 3.843 5.564 6.174 8.82 8.883 1.146-.757 1.133-1.747.999-2.809-.22-1.73-.43-3.464-.586-5.201-.231-2.586.769-4.755 2.665-6.387 1.927-1.657 4.054-3.08 6.099-4.599.63-.467 1.276-.912 2.062-1.472 1.582 2.707 1.846 5.492 1.506 8.373-.554 4.7-3.27 7.573-7.612 9.2-1.627.609-3.708.886-4.027 3.403.094.119.238.433.483.588 3.783 2.38 7.742 4.412 11.959 5.902.48.17 1.122.141 1.611-.025 4.01-1.364 7.69-3.414 11.357-5.502 1.166-.663.897-1.519.705-2.458a4.99 4.99 0 0 1 .202-.176" />
      <path d="M80.584 180.492c-2.215-2.402-4.972-3.733-8.109-4.618-3.351-.945-7.593-6.777-6.609-11.667.205-1.015.354-2.042.567-3.294 2.652-.422 5.348-.249 7.679 1.243 3.956 2.534 7.159 6.622 5.528 12.343-.131.46-.135.96-.297 1.404-.528 1.444-.25 2.648.91 3.673.219.192.3.54.445.816l-.114.1zM69.675 194.977c1.34.142 2.665-.477 3.791-1.521 4.587-4.255 12.502-2.005 15.258 2.446.628 1.014 1.27 2.019 1.94 3.083-.677 2.086-2.069 3.284-4.23 3.666-1.094.193-2.168.502-3.247.775-3.946 1.002-6.978-.62-9.53-3.43-.794-.874-1.296-2.009-2.028-2.95-.598-.768-1.338-1.425-1.954-2.069M45.788 194.943c-1.654.454-2.237 1.821-2.92 3.004-1.233 2.134-2.804 3.83-5.074 4.88-1.641.76-3.275 1.172-5.076.723-1.466-.365-2.961-.614-4.416-1.013-.751-.206-1.53-.509-2.145-.97-1.828-1.375-1.839-2.177-.745-4.203 2.232-4.136 5.82-5.945 10.307-6.25 2.095-.143 3.817.884 5.482 2.035 1.353.936 2.55 2.312 4.587 1.794M70.46 189.195c-1.186-.62-2.328-1.35-3.565-1.84-7.068-2.799-10.01-10.203-6.698-17.02.094-.192.347-.305.579-.5 2.088 1.46 4.202 2.868 6.24 4.38 4.574 3.396 5.12 6.509 4.077 12.241-.155.852-.287 1.709-.43 2.563a5.4 5.4 0 0 0-.203.176" />
    </g>
  </g>
</svg>
