<svg viewBox="0 0 600 300" xmlns="http://www.w3.org/2000/svg">
  <title>
    codementor
  </title>
  <g fill="#000" fill-rule="evenodd">
    <path d="M96.05 177.129v-57.528H12.973v57.531H44.78c.124.29.207.444.256.608.516 1.689 1.44 2.402 3.179 2.404 4.214.008 8.429.01 12.643-.001 1.78-.004 2.718-.78 3.176-2.562.03-.119.115-.223.238-.452H96.05zm-92.206 9.469c-.137-.085-.264-.194-.411-.254-2.215-.892-3.396-2.582-3.425-4.952-.016-1.366-.003-2.732-.003-4.12 1.133-.26 2.163-.116 3.184-.14 1.026-.024 2.054-.005 3.209-.005.01-.568.025-1.072.025-1.575.001-18.406-.002-36.811.013-55.217.001-.89.045-1.821.293-2.668.791-2.712 2.906-4.35 5.885-4.583.214-.016.43-.002.645-.002 27.522 0 55.044.003 82.565-.007 2.307 0 4.174.83 5.567 2.674.86 1.14 1.165 2.47 1.253 3.86.024.387.006.775.006 1.162v56.354h6.339c.027.548.074.964.062 1.378-.03 1.243-.02 2.492-.145 3.725-.207 2.029-1.378 3.356-3.246 4.107-.144.057-.266.175-.397.263H3.843zM599.973 148.404a21.419 21.419 0 0 0-8.413 1.542c-1.621.65-3.028 1.608-4.176 2.935-.553.637-.824 1.321-.818 2.212.036 7.138.021 14.278.021 21.418v1.392c-.988.224-10.926.257-12.274.048v-40.106h11.38v7.555c.775-1.055 1.37-1.92 2.022-2.74 2.585-3.252 5.93-5.151 10.088-5.513.714-.06 1.447.101 2.17.16v11.097zM345.005 178.029h-12.29V137.86h10.957c.163 1.013.05 2.076.071 3.13.022 1.03.004 2.06.004 3.282.28-.334.463-.526.615-.74 2.224-3.116 5.29-4.987 8.942-5.903 2.771-.695 5.597-.85 8.425-.326 3.646.675 6.246 2.685 7.671 6.146.115.279.225.557.346.833.032.076.094.14.17.25.467-.63.886-1.276 1.385-1.856 2.566-2.985 5.82-4.743 9.695-5.377 2.091-.343 4.177-.37 6.276-.025 3.148.517 5.412 2.285 7.012 4.953 1.028 1.714 1.596 3.615 1.784 5.597.17 1.79.273 3.595.28 5.394.028 7.783.012 15.566.012 23.35v1.45h-12.213c-.287-.405-.133-.893-.134-1.345-.01-7.138-.01-14.276-.007-21.415.002-1.206-.084-2.393-.418-3.565-.915-3.204-3.856-4.623-6.993-3.329-2.194.905-3.771 2.496-4.949 4.519a6.74 6.74 0 0 0-.936 3.546c.051 6.792.024 13.588.024 20.382v1.2H358.5c-.215-.42-.101-.9-.102-1.35-.01-7.01.018-14.02-.028-21.028a17.116 17.116 0 0 0-.49-3.938c-.732-2.989-3.4-4.438-6.36-3.545-2.33.705-4.032 2.222-5.295 4.262-.827 1.333-1.274 2.723-1.254 4.362.083 6.623.034 13.245.034 19.867v1.388zM264.264 158.729c0-.816-.086-1.643.017-2.445.227-1.763-.515-3.175-1.478-4.522-.753-1.057-1.708-1.905-2.768-2.66-3.467-2.46-8.296-2.163-11.323 1.756-2.839 3.674-3.246 7.775-1.501 11.995 1.528 3.696 4.54 5.548 8.48 5.613 3.636.06 6.832-2.198 8.376-5.27.146-.29.182-.658.188-.99.022-1.159.009-2.318.009-3.477m-.073-14.645v-21.82c.968-.223 10.367-.288 12.394-.083v1.355l.001 40.383c0 .431-.012.862.022 1.29.097 1.233.71 1.954 1.91 2.287.33.092.66.181.988.277.035.01.058.058.13.134v10.065c-.794.53-1.779.488-2.68.566-1.528.134-3.07.405-4.612.076-.626-.135-1.272-.201-1.881-.389-2.593-.798-3.937-2.607-4.179-5.278a7.802 7.802 0 0 0-.103-.763c-.014-.072-.103-.128-.215-.26-.256.322-.516.63-.756.955-2.427 3.287-5.74 5.073-9.713 5.74-3.744.63-7.358.173-10.801-1.416-4.65-2.147-7.782-5.778-9.562-10.487-2.59-6.848-2.23-13.66 1.059-20.198 2.15-4.272 5.533-7.337 10.172-8.745 4.861-1.477 9.504-.932 13.761 1.987 1.286.883 2.367 1.986 3.274 3.256.222.31.453.612.79 1.068M415.007 154.046h16.913c.172-3.518-2.79-8.08-8.36-8.178-4.64-.084-8.657 3.76-8.553 8.178m29.686 7.781h-29.512c.006 1.991.64 3.671 1.886 5.091 1.532 1.746 3.484 2.704 5.811 2.979 2.59.305 4.924-.348 7.098-1.686 1.157-.712 1.968-1.766 2.578-3.052l10.462 2.927c-1.374 2.744-3.27 4.906-5.664 6.663-3.084 2.263-6.531 3.515-10.327 3.925-4.29.466-8.49.203-12.512-1.45-6.16-2.532-10.249-7.017-11.841-13.486-1.602-6.51-.63-12.712 3.249-18.29 2.428-3.49 5.746-5.895 9.784-7.207 5.028-1.633 10.147-1.77 15.19-.18 7.507 2.366 12.112 7.482 13.777 15.205.584 2.717.646 5.444.197 8.184-.013.078-.067.148-.176.377M314.126 154.046c-.22-2.641-1.229-4.707-3.15-6.284-2.049-1.684-4.422-2.056-7.004-1.718-3.814.5-7.437 4.707-6.814 8.002h16.968zm.48 11.107l10.412 2.914c-.384 1.157-1.062 2.084-1.768 2.964-3.152 3.937-7.208 6.407-12.179 7.335-4.59.857-9.154.803-13.573-.813-7.393-2.702-11.843-7.961-13.147-15.755-.772-4.603-.16-9.067 1.837-13.295 2.02-4.273 5.196-7.416 9.486-9.417 4.336-2.022 8.89-2.377 13.58-1.826 4.495.528 8.413 2.312 11.718 5.382 2.982 2.768 4.784 6.227 5.701 10.17.55 2.365.611 4.761.484 7.17-.028.552-.158 1.099-.262 1.788-1.23.044-2.463.015-3.695.02-1.246.005-2.492 0-3.738 0H297.237c.026 2.02.637 3.681 1.847 5.075 1.52 1.75 3.462 2.74 5.79 3.023 2.486.305 4.755-.266 6.885-1.504 1.258-.732 2.189-1.78 2.847-3.231zM555.66 158.002c.07-2.823-.477-4.556-1.44-6.172-1.69-2.842-4.175-4.357-7.54-4.276-3.362.08-5.78 1.707-7.34 4.619-1.667 3.112-1.82 6.43-.839 9.738 1.073 3.62 3.417 5.976 7.339 6.459 3.015.37 5.496-.658 7.409-2.953 1.806-2.165 2.523-4.734 2.411-7.415m-8.445 20.861c-4.74.05-8.853-.915-12.607-3.251-4.614-2.873-7.386-7.038-8.711-12.258a20.24 20.24 0 0 1-.642-5.342c.1-5.482 1.657-10.487 5.52-14.555 2.757-2.903 6.13-4.802 10.024-5.728 4.602-1.094 9.216-1.09 13.7.456 7.218 2.49 11.757 7.543 13.428 14.997 1.282 5.707.442 11.178-2.588 16.222-2.244 3.738-5.527 6.29-9.55 7.89-2.863 1.14-5.844 1.66-8.574 1.57M199.425 158.026c-.046 2.187.368 4.27 1.494 6.168 1.73 2.918 4.356 4.406 7.698 4.264 3.403-.145 5.896-1.92 7.358-5.029 1.025-2.177 1.392-4.457 1.13-6.877-.221-2.055-.807-3.913-2.004-5.613-3.223-4.577-10.373-4.521-13.59.065-1.479 2.107-2.15 4.454-2.086 7.022m9.093 20.824c-3.788.099-7.22-.571-10.44-2.13-5.5-2.665-9.05-6.97-10.562-12.907-1.469-5.769-.91-11.327 1.95-16.58 1.997-3.667 4.988-6.346 8.759-8.071 5.928-2.711 12.063-2.946 18.174-.794 6.355 2.237 10.559 6.68 12.551 13.174.806 2.623 1.123 5.292.917 8.009-.396 5.18-2.183 9.783-5.949 13.468-2.829 2.77-6.24 4.5-10.112 5.317-1.811.38-3.64.618-5.288.514M462.94 178.02h-12.289v-40.173h10.93c.213 1.056.07 2.123.096 3.179.027 1.029.007 2.06.007 3.287.432-.532.746-.913 1.054-1.299 1.91-2.395 4.42-3.915 7.271-4.895 2.968-1.019 6.049-1.282 9.152-1.021 3.932.331 6.861 2.255 8.652 5.826a13.742 13.742 0 0 1 1.44 5.17c.141 1.882.25 3.772.256 5.658.028 7.612.012 15.224.012 22.837v1.438h-12.339c-.005-.466-.016-.923-.016-1.379 0-7.14-.004-14.28.005-21.419 0-1.296-.107-2.572-.536-3.802-.937-2.7-3.343-4.04-6.116-3.368-3.624.878-5.929 3.285-7.418 6.572-.183.405-.153.922-.154 1.387-.009 6.881-.006 13.764-.006 20.646v1.357zM172.111 164.482l11.866 3.653c-.09.276-.128.519-.241.719-2.948 5.218-7.428 8.33-13.26 9.495-4.494.897-8.963.79-13.326-.75-4.888-1.726-8.685-4.793-11.194-9.367-1.186-2.16-1.905-4.483-2.268-6.925-.568-3.812-.253-7.542 1.11-11.142 2.4-6.345 6.97-10.45 13.447-12.26 5.063-1.414 10.203-1.318 15.2.454 4.505 1.597 7.89 4.594 10.244 8.753.102.18.161.385.269.644l-11.951 3.587c-.28-.368-.48-.642-.696-.906-1.399-1.717-3.184-2.707-5.414-2.84-1.335-.08-2.657-.066-3.929.452-2.929 1.189-4.718 3.388-5.48 6.39-.687 2.717-.612 5.445.395 8.097.911 2.395 2.49 4.174 4.856 5.234 3.595 1.608 7.993.256 9.956-2.74.114-.174.253-.333.416-.548M494.808 137.779h5.04v-12.644c1.15-.239 8.745-.311 12.261-.136.256 1.033.084 2.1.115 3.153.032 1.074.007 2.15.007 3.225v6.388h8.037c.234 1.015.294 7.077.106 9.274-1.342.169-2.707.048-4.066.07-1.322.021-2.644.005-4.077.005v1.105c0 5.118-.006 10.236.01 15.353 0 .552.067 1.115.198 1.65.327 1.331 1.257 2.133 2.604 2.298a7.981 7.981 0 0 0 3.555-.383c.845-.286 1.68-.601 2.614-.936l2.301 9.667c-.151.096-.285.209-.438.271-3.072 1.233-6.201 2.317-9.512 2.637-2.48.24-4.969.188-7.38-.665-3.507-1.24-5.434-3.77-6.055-7.345-.196-1.134-.236-2.308-.24-3.462-.024-6.194-.011-12.388-.011-18.58v-1.463c-.852-.282-1.71-.11-2.549-.14-.813-.03-1.629-.007-2.428-.007-.23-.969-.294-7.005-.092-9.335" />
    <path d="M68.783 170.823c-4.685 0-9.37.007-14.055-.003-2.19-.004-4.016-1.276-4.528-3.302a6.458 6.458 0 0 1-.094-2.673c.8-4.302 2.295-8.343 4.901-11.906 1.823-2.488 4.022-4.567 6.768-6.037.625-.334 1.156-.4 1.805-.049 1.619.876 3.423 1.206 5.213 1.21 1.744.005 3.528-.243 5.1-1.125.828-.464 1.498-.332 2.27.097 3.198 1.783 5.622 4.347 7.543 7.413 2.054 3.274 3.267 6.88 3.945 10.66.493 2.752-1.045 5.049-3.665 5.625-.412.091-.85.086-1.278.087-4.642.005-9.283.003-13.925.003M78.457 135.428c.114 4.95-3.943 9.64-9.658 9.599-5.154-.036-9.626-3.87-9.597-9.686.03-6.008 4.819-9.638 9.684-9.607 5.673.038 9.755 4.75 9.571 9.694M36.967 139.34c3.653 0 7.307.009 10.96-.007.948-.005 1.756.24 2.44.933.982.996 1.21 2.131.755 3.424-.446 1.265-1.407 1.898-2.685 2.096-.337.052-.686.037-1.03.036-7.133-.009-14.268-.039-21.401-.018-1.839.005-3.088-1.136-3.413-2.371-.535-2.037.791-4.004 2.9-4.081 1.459-.055 2.921-.013 4.383-.013h7.091M36.907 133.952c-3.653 0-7.306-.003-10.958.001-1.354.003-2.42-.505-3.086-1.716-1.139-2.072.195-4.548 2.551-4.75.256-.022.515-.019.773-.019 7.177 0 14.353.006 21.53-.007.979-.002 1.863.153 2.593.88.98.977 1.28 2.11.837 3.41-.447 1.31-1.425 1.993-2.77 2.167-.38.05-.77.033-1.157.033-3.438.002-6.876.001-10.313.001M33.766 151.21c2.62 0 5.24-.017 7.859.006 2.08.017 3.374 1.395 3.281 3.433a3.193 3.193 0 0 1-2.833 3.006c-.212.024-.43.007-.644.007-5.11 0-10.22.006-15.33-.01a4.893 4.893 0 0 1-1.509-.222c-1.47-.485-2.372-2.049-2.11-3.558.255-1.481 1.518-2.63 3.041-2.65 2.749-.034 5.497-.01 8.245-.01v-.002zM32.091 163.082c2.188 0 4.376.031 6.564-.01 2.193-.04 3.882 2.283 2.854 4.565-.54 1.201-1.533 1.818-2.833 1.887-.856.045-1.716.009-2.574.009-3.431 0-6.864.002-10.296 0-1.468-.001-2.563-.626-3.147-1.997-.946-2.224.717-4.496 2.869-4.461 2.187.033 4.375.007 6.563.007" />
  </g>
</svg>
