<svg viewBox="0 0 600 300" xmlns="http://www.w3.org/2000/svg">
    <title>
        codrops
    </title>
    <g fill="#000" fill-rule="nonzero">
        <path d="M198.646 179.165c-10.6-6.617-15.766-20.508-13.168-35.392 3.126-17.826 16.151-28.562 34.916-28.902-13.628-31.55-45.014-53.638-81.573-53.638C89.761 61.233 50 101 50 150.063c0 49.066 39.759 88.834 88.821 88.834 36.997 0 68.696-22.618 82.055-54.78a42.408 42.408 0 0 1-3.032.124c-7.141-.001-13.96-1.803-19.198-5.076zm-86.356-7.521c-5.488-2.7-9.27-8.336-9.27-14.863 0-9.148 16.564-35.105 16.564-35.105s1.216 1.902 2.977 4.843c7.254 13.622 11.763 25.063 11.763 29.868 0 9.32-6.898 16.91-15.377 16.91-2.298 0-4.53-.57-6.644-1.675l-.013.022zm26.576 20.158c-10.385 0-19.404-5.762-24.097-14.255a18.35 18.35 0 0 0 4.177.495c11.095 0 20.119-9.716 20.119-21.655 0-7.722-7.822-23.558-11.777-31.079 6.081-10.89 11.578-19.508 11.578-19.508s27.575 43.194 27.575 58.424c0 15.228-12.34 27.578-27.575 27.578zM539.447 129.255c-2.966-2.573-3.688-4.434-2.15-8.172l2.655-6.56-12.605-.013-1.34 4.791c-1.973 7.046-6.085 12.827-12.18 17.083-1.526 1.067-2.44 1.42-3.5-.7-3.615-7.248-9.967-10.601-17.678-11.921-8.094-1.38-27.035-.7-27.035-.7l-.613 3.21c-1.035 4.94-3.22 9.24-7.766 11.94-1.319.785-2.343 1.287-3.205.523-.379-.337-.731-.931-1.064-1.871-6.719-19.095-31.05-19.412-41.191-9.938-8.89 8.296-10.467 18.81-8.487 30.111 1.28 7.293 4.724 13.46 11.357 17.35 17.344 10.191 38.363-.625 40.254-20.675.147-1.57-.422-3.477 1.96-4.058 2.875-.7 5.288-2.452 8.067-3.95.929 1.735.579 3.151.585 4.51.037 16.69.03 40.516.047 57.205l12.884.025-.03-31.824s1.933.4 3.068.687c5.72 1.492 11.467 1.14 16.935-1.01 10.367-4.107 13.82-12.82 14.515-23.063.161-2.35.674-3.806 3.023-4.81 4.288-1.836 8.084-4.624 10.916-8.315 1.978-2.584 3.445-1.737 5.063-.082 4.521 4.645 5.27 10.334 4.082 16.393-1.573 8.024-7.998 12.478-15.926 11.274l-4.917-.74.017 10.426 2.706.689c9.918 2.675 22.32-2.01 27.454-10.765 7.158-12.21 4.879-27.741-5.9-37.05zm-98.853 27.253c-1.23 3.839-2.83 7.37-6.584 9.31-6.015 3.102-13.274.277-15.976-6.224-1.339-3.25-2.168-6.655-1.907-9.703-.044-5.091.855-9.419 3.522-13.24 2.7-3.876 6.572-4.96 11.046-4.441 4.153.475 6.72 3.051 8.518 6.622l1.174 2.776-2.66.017H434.3v10.512l3.216.02h4.218c-.035 1.03-1.141 4.351-1.141 4.351zm58.304-1.755c-1.092 7.73-9.325 14.936-18.146 9.903-1.655-.938-2.373-.764-2.356-2.7V133.83l3.128-.024c6.119.092 11.96.595 15.802 6.516-1.923 1.465-4.983 1.616-4.983 1.616l-.025 9.78 3.903-.154c1.172-.05 3.06-.149 3.06-.149l-.383 3.337zM373.198 131.995l-.013-9.14-12.515-.038-.021 32.18c-.058 5.079-4.27 9.366-8.87 9.397-4.356.014-6.062-2.54-6.12-9.018v-65.94l-18.91-.018-.018 10.63 4.599-.017c1.737.23 1.496 2.26 1.514 3.512.046 4.619-.156 9.252.076 13.866.147 2.906-1.002 3.553-3.625 3.51-4.363-.063-8.668.549-12.8 2.028-14.62 5.22-22.729 20.981-19.23 37.159 1.693 7.844 5.1 14.547 13.332 16.835 9.492 2.629 18.08.952 24.25-7.653 5.42 7.776 10.41 9.684 18.274 7.592 2.662-.699 7.656-3.048 7.656-3.048l-.013 3.503 13.466.007.043-25.027c0-6.164 2.624-11.959 8.208-15.731 1.336-.904 2.196-1.585 3.62-1.127 1.731.57 1.525 3.676 1.525 3.676l.007 4.331 10.98-.013v-18.337l.015-3.742-3.59.03c-8.753-.102-21.84 10.593-21.84 10.593zm-41.064 24.378c-1.773 5.583-6.984 9.259-12.722 8.81-5.145-.396-8.253-3.961-9.021-10.368-1.192-9.762 2.85-17.956 10.403-21.452 3.22-1.48 6.526-1.217 9.879-1.128 1.89.05 2.223 1.253 2.21 2.83-.044 2.939-.017 5.871-.017 9.618-.22 3.358.585 7.558-.732 11.69z"/>
        <path d="M277.332 123.86c-9.36-4.414-18.867-4.314-27.566 1.562-9.274 6.25-12.068 15.934-11.38 26.462.14 2.12.775 5.004.775 5.004s-3.239 3.244-4.572 4.546c-3.343 3.241-7.445 4.923-11.992 5.447-8.434.96-15.21-3.232-17.345-10.617-2.569-8.896 1.235-19.16 8.368-22.594 1.499-.714 3.059-1.127 4.722-1.303h-.1c.023 0 .084-.006.2-.02-.03.006-.073.013-.1.02.738-.006 4.7.162 4.7 4.346l.044 5.271 11.149.017v-19.88s-4.13-.52-8.54-.9c-16.98-1.45-30.79 5.705-33.926 23.654-2.145 12.26 1.912 23.832 10.353 29.102 11.055 6.913 29.437 4.96 38.673-4.232a87.58 87.58 0 0 1 2.175-2.05s1.091 1.096 1.873 1.973c8.087 8.96 22.072 11.077 32.694 5.258 9.877-5.42 15.08-18.023 12.923-31.32-1.394-8.571-4.92-15.871-13.128-19.746zm-2.501 36.622c-1.865 4.19-5.276 6.484-9.886 6.57-4.716.075-8.419-1.897-10.48-6.282-3.63-7.672-3.683-15.408.299-22.945 2.084-3.953 5.21-5.552 9.584-5.583 4.947-.3 8.407 2.075 10.409 6.33 3.418 7.227 3.315 14.627.074 21.91z"/>
    </g>
</svg>
