<svg viewBox="0 0 600 300" xmlns="http://www.w3.org/2000/svg">
    <title>
        creativebloq
    </title>
    <g fill="#000" fill-rule="evenodd">
        <path d="M53.115 140.428c0-3.802.06-7.181-.017-10.557-.07-3.008-.076-6.042-.492-9.01-.733-5.23-4.488-8.605-9.801-8.835a147.304 147.304 0 0 0-12.729 0c-5.41.234-9.07 3.7-9.881 9.102-.251 1.67-.411 3.37-.416 5.057a8563.94 8563.94 0 0 0-.001 40.177c.003 1.593.218 3.187.371 4.777.551 5.729 4.75 9.277 10.765 9.457 3.675.11 7.358.082 11.034.01 6.155-.119 9.886-3.262 11.04-9.24.177-.918.198-1.875.2-2.815.02-5.47.018-10.94.007-16.41-.002-.63-.11-1.259-.172-1.946h-13.22c-.06 1.118-.15 2.038-.154 2.959-.017 3.96-.001 7.922-.012 11.884-.002.752.043 1.533-.142 2.246-.122.473-.53 1.046-.96 1.237-2.873 1.279-5.1-.113-5.106-3.198-.02-12.732-.022-25.465.002-38.196.005-2.908.682-3.488 3.543-3.338 2.062.109 2.484.468 2.512 2.532.05 3.677.009 7.356.024 11.034.004.92.078 1.838.126 2.896.602.071 1.049.168 1.495.17 3.854.013 7.707.007 11.984.007m33.094 4.747c4.306-3.179 4.674-5.211 4.827-8.23.242-4.794.365-9.633-.011-14.409-.543-6.893-4.08-9.268-8.72-10.31-.907-.204-1.865-.25-2.801-.254-6.408-.027-12.816-.028-19.224-.018-.626 0-1.251.132-1.936.21v68.082c.322.16.483.31.645.31 7.349.016 14.705.224 22.044-.041 5.69-.206 9.75-4.136 10.03-9.587.308-6.01.15-12.043.186-18.066.022-3.65-1.551-6.29-5.04-7.687m32.02 54.245l-10.224 10.002c-1.435-1.436-3.295-3.13-4.947-5.005-1.297-1.474-2.73-1.952-4.681-1.949-26.31.063-52.62.048-78.93.028a41.764 41.764 0 0 1-5.346-.328C5.794 201.084 2.02 195.304.616 189.2c-.417-1.816-.587-3.728-.59-5.597-.037-25.084-.028-50.168-.015-75.252 0-1.316.028-2.647.217-3.946 1.54-10.588 9.891-14.105 17.267-14.294 8.481-.217 16.972-.051 25.46-.051 16.691 0 33.383-.031 50.073.037 2.236.009 4.547.24 6.688.845 6.546 1.85 9.708 6.763 11.032 13.067.384 1.827.495 3.74.498 5.612.03 26.593.045 53.186-.025 79.78-.005 2.16.538 3.754 2.165 5.176 1.755 1.533 3.31 3.293 4.843 4.842M574.298 146.107c0 6.686-.012 13.372.005 20.059.01 3.585.808 4.325 4.35 4.161 2.461-.113 3.364-.974 3.553-3.425.043-.562.014-1.13.014-1.695 0-12.62.004-25.239-.009-37.858 0-.935.01-1.905-.225-2.794-.179-.675-.598-1.52-1.159-1.814-1.648-.868-3.466-.776-5.164-.098-1.537.614-1.361 2.088-1.362 3.404-.003 6.687-.002 13.373-.003 20.06m25.591 33.03l-6.51 6.595c-.925-.92-1.972-1.846-2.876-2.895-1.01-1.17-2.19-1.6-3.727-1.563-3.58.083-7.166.027-10.749.027-1.037 0-2.074.009-3.111-.002-7.957-.083-11.876-4.03-11.931-12.088-.039-5.657-.007-11.315-.007-16.972 0-9.618.09-19.237-.027-28.853-.106-8.726 4.854-12.1 12.145-12.284 3.675-.093 7.357-.111 11.03.009 7.038.23 11.055 4.392 11.226 11.467.019.754.004 1.509.004 2.263 0 15.652.056 31.305-.058 46.956-.018 2.386.518 4.202 2.404 5.619.755.566 1.485 1.167 2.187 1.721M459.063 139.907c.958 0 1.612.01 2.265-.001 2.887-.046 3.285-.415 3.309-3.256.027-3.197.02-6.395.003-9.591-.017-3.012-.584-3.563-3.66-3.569-.625 0-1.25.139-1.917.218v16.2zm.03 29.208c.91 0 1.641.022 2.37-.004 2.707-.1 3.28-.648 3.322-3.382.047-3.102.014-6.205.013-9.308-.003-5.045-.36-5.34-5.706-4.562v17.256zm-13.567 11.546v-68.61c.318-.143.486-.286.653-.284 7.25.06 14.51-.087 21.745.271 6.257.31 9.815 3.992 10.183 10.305.285 4.882.188 9.799.011 14.691-.126 3.456-1.273 5.033-4.977 8.192 3.972 1.462 5.259 4.518 5.21 8.448-.068 5.275.078 10.555-.078 15.827-.206 6.996-3.904 10.886-10.862 11.108-7.227.23-14.467.052-21.885.052zM186.314 124.133v18.789c.716.046 1.265.115 1.814.113 3.241-.01 3.767-.516 3.789-3.757.025-3.583.008-7.167.005-10.75-.002-4.793-.315-5.068-5.226-4.62-.08.007-.153.087-.382.225zm-13.631-12.424c1.612 0 3.011-.017 4.41.003 6.214.091 12.44.01 18.642.346 5.587.302 9.349 4.025 9.621 9.574.295 6.011.18 12.046.126 18.07-.032 3.668-1.605 6.53-5.025 8.187.1.19.143.416.258.462 3.772 1.523 5.04 4.616 5.073 8.348.064 7.539.021 15.078.01 22.617 0 .359-.116.717-.207 1.24h-13.433c-.048-.89-.13-1.71-.13-2.53-.01-6.314-.004-12.629-.007-18.943 0-.753-.016-1.507-.05-2.26-.061-1.358-.873-2.07-2.14-2.187-1.104-.102-2.225-.022-3.629-.022v25.933h-13.52v-68.838zM539.999 146.343v-1.695c0-6.31.026-12.621-.014-18.931-.019-2.795-.748-3.446-3.57-3.481-.471-.007-.946-.031-1.413.017-1.798.183-2.68 1.048-2.882 2.872-.072.651-.028 1.317-.028 1.976-.001 12.715-.003 25.43.003 38.146 0 .845-.099 1.739.139 2.522.23.758.676 1.7 1.307 2.038 1.638.879 3.44.807 5.152.033 1.547-.7 1.296-2.141 1.299-3.435.015-6.687.007-13.375.007-20.062m-21.016-.577c0-7.543.157-15.09-.048-22.625-.173-6.395 2.928-11.417 10.675-11.92 4.87-.316 9.804-.166 14.674.22 4.682.369 7.68 3.413 8.588 8.032.289 1.469.417 2.992.42 4.49.03 14.991.023 29.981.007 44.971-.001 1.126-.099 2.26-.253 3.376-.69 4.977-3.88 8.43-8.87 8.732-5.537.335-11.117.236-16.666.015-3.108-.124-5.405-2.016-6.905-4.76-1.103-2.018-1.636-4.175-1.63-6.49.022-8.013.008-16.027.008-24.041M161.763 140.11h-13.217c-.083-.715-.23-1.422-.234-2.13-.022-3.958.018-7.918-.019-11.876-.028-2.9-2.824-4.365-5.305-2.758-.478.31-.836.998-.98 1.578-.178.714-.088 1.498-.089 2.251-.003 12.726-.002 25.45-.002 38.175 0 .377-.008.755.004 1.132.078 2.525.712 3.155 3.202 3.199 2.675.046 3.512-.732 3.544-3.542.049-4.241.013-8.483.013-12.725v-2.472c2.1-.613 9.575-.723 13.017-.223.08.22.25.472.251.724.014 6.127.042 12.253-.018 18.379-.012 1.3-.24 2.627-.572 3.888-1.165 4.436-4.241 6.996-8.652 7.319-4.96.364-9.982.342-14.948.033-5.343-.332-8.899-4.239-9.342-9.614-.124-1.5-.144-3.013-.145-4.52-.01-13.762-.037-27.524.025-41.286.01-2.332.165-4.72.695-6.98.96-4.094 3.895-6.454 7.913-7.086a52.88 52.88 0 0 1 16.337 0c4.883.757 8.235 4.554 8.462 9.896.26 6.108.06 12.235.06 18.639M268.003 130.355c-1.473 9.258-2.319 18.664-3.234 28.22 2.29.02 4.22.497 6.103-.305l-2.869-27.915m4.01 40.58h-8.562l-1.051 9.65h-12.273c1.417-11.503 2.949-22.906 4.468-34.314 1.525-11.444 2.962-22.9 4.45-34.436h18.702l8.942 68.367c-1.889.651-9.008.809-13.477.257-.16-1.456-.31-3.011-.504-4.56-.198-1.577-.439-3.149-.695-4.964M371.29 158.478l4.706-46.398c2.06-.736 4.145-.273 6.186-.353 2.06-.081 4.126-.018 6.525-.018l-9.193 68.999c-5.909.048-11.712.037-17.869-.006-1.421-7.596-2.11-15.25-3.225-22.832-1.123-7.635-2.025-15.3-3.033-22.953-1.003-7.62-2.017-15.24-3.053-23.057h13.826l4.708 46.708.423-.09zM422.998 168.496v12.097h-25.235c-.512-2.12-.716-63.01-.247-68.384 1.903-.612 20.866-.806 25.125-.234v11.977h-11.408v15.694h10.909v12.064c-3.535.263-7.091-.023-10.562.16-.647 2.051-.788 13.094-.21 16.626h11.628zM229.911 123.989v15.598h11.11c.096 4.143.045 8.039.042 12.221h-10.814c-.583 2.393-.661 13.618-.13 16.801h11.104c.611 2.136.695 8.845.158 11.959h-24.769c-.577-1.874-.82-63.492-.242-68.69h25.09v12.11H229.91zM298.395 124.047h-8.172c-.07-4.15-.035-8.052-.02-12.149h30.11c.026 1.925.064 3.86.077 5.796.014 1.967.003 3.934.003 6.255h-8.214v56.632h-13.784v-56.534zM502.37 168.563h9.658v12.09c-7.7.172-15.372.043-22.983.085-.572-2.18-.767-64.23-.276-68.568 1.907-.559 9.299-.705 13.52-.214.173 3 .056 6.08.076 9.152.022 3.207.005 6.415.005 9.622v37.832zM343.301 180.58h-13.28V111.8c2.218-.03 4.433-.073 6.648-.088 2.151-.015 4.303-.003 6.632-.003v68.87z"/>
        <path d="M72.184 151.854c5.215-.51 5.31-.43 5.313 4.451 0 3.097.028 6.196-.011 9.293-.036 2.748-.315 2.982-3.15 3.005-.653.005-1.307 0-1.925 0-.569-2.063-.706-12.542-.227-16.749M72.112 124.264c4.739-.782 5.27-.362 5.272 4.068.002 2.813.025 5.627-.008 8.44-.03 2.578-.42 2.967-2.907 3.012-.732.013-1.466-.075-2.357-.125v-15.395z"/>
    </g>
</svg>
