<svg viewBox="0 0 600 300" xmlns="http://www.w3.org/2000/svg">
    <title>
        csstricks
    </title>
    <g fill="#000" fill-rule="evenodd">
        <path d="M579.855 144.812c-11.826-2.804-14.63-4.907-14.63-9.638v-.176c0-4.03 3.679-7.272 9.987-7.272 4.818 0 9.374 1.577 14.104 4.644.876.526 1.752.788 2.804.788 2.803 0 5.08-2.19 5.08-4.994 0-2.103-1.138-3.592-2.365-4.293-5.52-3.681-11.738-5.696-19.448-5.696-12.176 0-20.937 7.272-20.937 17.787v.175c0 11.303 7.36 15.158 20.411 18.314 11.39 2.628 13.842 4.993 13.842 9.373v.178c0 4.556-4.205 7.71-10.864 7.71-6.657 0-12.088-2.278-17.169-6.309-.701-.526-1.664-.963-3.154-.963-2.803 0-5.081 2.19-5.081 4.994 0 1.752.876 3.24 2.104 4.117 6.831 5.083 14.716 7.712 23.038 7.712 12.878 0 21.902-6.835 21.902-18.313v-.175c0-10.164-6.66-14.809-19.624-17.963zm-56.41 1.226l19.097-18.4c1.226-1.139 1.927-2.366 1.927-4.031 0-2.628-2.014-4.994-4.993-4.994-1.928 0-3.241.701-4.469 2.016l-29.083 29.265v-25.935a5.31 5.31 0 0 0-5.343-5.346c-3.066 0-5.432 2.366-5.432 5.346v51.521c0 2.977 2.366 5.345 5.432 5.345a5.31 5.31 0 0 0 5.343-5.345v-12.705l9.987-9.638 19.71 25.146c1.14 1.49 2.454 2.542 4.556 2.542 3.066 0 5.431-2.278 5.431-5.258 0-1.665-.613-2.715-1.488-3.855l-20.675-25.674zm-44.679 18.315a4.905 4.905 0 0 0-3.24 1.225c-4.468 3.768-8.849 5.869-15.331 5.869-11.738 0-20.236-9.723-20.236-21.729v-.175c0-12.004 8.585-21.642 20.236-21.642 5.87 0 10.426 2.102 14.63 5.52.7.525 1.753 1.051 3.241 1.051 2.979 0 5.345-2.278 5.345-5.257a5.383 5.383 0 0 0-2.103-4.293c-5.343-4.118-11.563-6.922-21.025-6.922-18.572 0-31.625 14.283-31.625 31.718v.176c0 17.612 13.317 31.544 31.187 31.544 9.9 0 16.47-3.155 22.251-8.236.963-.876 1.752-2.19 1.752-3.856 0-2.715-2.366-4.993-5.082-4.993zm-68.24-45.74c-3.066 0-5.431 2.366-5.431 5.346v51.521c0 2.977 2.365 5.345 5.43 5.345a5.31 5.31 0 0 0 5.344-5.345V123.96a5.31 5.31 0 0 0-5.344-5.346zm-29.347 20.592c0 6.22-4.907 10.251-12.615 10.251h-15.77v-20.592h15.682c7.971 0 12.703 3.593 12.703 10.164v.177zm-11.827-20.153h-21.9c-3.066 0-5.432 2.365-5.432 5.432v50.996c0 2.977 2.366 5.345 5.431 5.345a5.31 5.31 0 0 0 5.344-5.345v-16.472h13.579l14.892 19.012c1.226 1.665 2.803 2.805 5.256 2.805 2.628 0 5.168-2.017 5.168-4.995 0-1.664-.7-2.803-1.752-4.118L378.2 156.903c8.235-2.54 13.929-8.499 13.929-18.312v-.176c0-5.344-1.84-9.9-5.081-13.23-3.942-3.855-9.985-6.133-17.695-6.133zm-42.313 0h-40.734c-2.803 0-4.994 2.278-4.994 4.994 0 2.716 2.19 4.995 4.994 4.995h14.892v46.44c0 2.976 2.453 5.344 5.43 5.344 2.98 0 5.433-2.368 5.433-5.345v-46.44h14.98c2.715 0 4.905-2.278 4.905-4.994 0-2.716-2.19-4.994-4.906-4.994zm-49.661 29.265h-16.47c-2.803 0-5.168 2.365-5.168 5.257 0 2.804 2.365 5.17 5.168 5.17h16.47c2.803 0 5.168-2.366 5.168-5.17 0-2.892-2.365-5.257-5.168-5.257zm-49.673-3.505c-11.826-2.804-14.63-4.907-14.63-9.638v-.176c0-4.03 3.68-7.272 9.988-7.272 4.817 0 9.374 1.577 14.104 4.644.875.526 1.752.788 2.803.788 2.803 0 5.08-2.19 5.08-4.994 0-2.103-1.138-3.592-2.364-4.293-5.52-3.681-11.74-5.696-19.449-5.696-12.176 0-20.937 7.272-20.937 17.787v.175c0 11.303 7.36 15.158 20.412 18.314 11.388 2.628 13.842 4.993 13.842 9.373v.178c0 4.556-4.206 7.71-10.863 7.71-6.658 0-12.09-2.278-17.17-6.309-.7-.526-1.665-.963-3.154-.963-2.803 0-5.081 2.19-5.081 4.994 0 1.752.876 3.24 2.103 4.117 6.833 5.083 14.716 7.712 23.04 7.712 12.877 0 21.899-6.835 21.899-18.313v-.175c0-10.164-6.657-14.809-19.623-17.963zm-54.313 0c-11.826-2.804-14.63-4.907-14.63-9.638v-.176c0-4.03 3.68-7.272 9.986-7.272 4.82 0 9.375 1.577 14.105 4.644.876.526 1.752.788 2.803.788 2.803 0 5.081-2.19 5.081-4.994 0-2.103-1.139-3.592-2.365-4.293-5.519-3.681-11.739-5.696-19.448-5.696-12.177 0-20.937 7.272-20.937 17.787v.175c0 11.303 7.359 15.158 20.412 18.314 11.388 2.628 13.84 4.993 13.84 9.373v.178c0 4.556-4.204 7.71-10.862 7.71s-12.09-2.278-17.17-6.309c-.7-.526-1.664-.963-3.154-.963-2.803 0-5.08 2.19-5.08 4.994 0 1.752.875 3.24 2.102 4.117 6.833 5.083 14.717 7.712 23.04 7.712 12.876 0 21.899-6.835 21.899-18.313v-.175c0-10.164-6.657-14.809-19.622-17.963zm-40.122 19.54a4.906 4.906 0 0 0-3.242 1.226c-4.468 3.768-8.847 5.869-15.33 5.869-11.738 0-20.236-9.723-20.236-21.729v-.175c0-12.004 8.585-21.642 20.236-21.642 5.87 0 10.425 2.102 14.629 5.52.701.525 1.753 1.051 3.242 1.051 2.978 0 5.343-2.278 5.343-5.257a5.383 5.383 0 0 0-2.103-4.293c-5.343-4.118-11.563-6.922-21.024-6.922-18.571 0-31.624 14.283-31.624 31.718v.176c0 17.612 13.315 31.544 31.187 31.544 9.898 0 16.469-3.155 22.25-8.236.963-.876 1.753-2.19 1.753-3.856 0-2.715-2.366-4.993-5.081-4.993zM25.567 157.025L11.15 167.597c-1.73 1.154-3.075 1.923-4.806 1.923-3.46 0-6.344-3.076-6.344-6.537 0-2.883 2.308-4.998 4.422-5.958l16.916-7.306-16.916-7.497C2.115 141.26 0 139.146 0 136.263c0-3.46 3.075-6.344 6.536-6.344 1.73 0 2.883.577 4.614 1.923l14.417 10.572-1.922-17.108c-.576-4.038 2.115-7.305 5.96-7.305 3.844 0 6.536 3.075 5.959 7.111l-1.922 17.302 14.417-10.572c1.73-1.346 3.075-1.923 4.805-1.923 3.461 0 6.345 2.883 6.345 6.344 0 3.075-2.115 4.997-4.421 5.959l-16.918 7.497 16.918 7.306c2.306.96 4.42 3.075 4.42 6.15 0 3.46-3.076 6.345-6.535 6.345-1.539 0-2.884-.769-4.614-1.923l-14.417-10.572 1.922 17.108c.577 4.036-2.115 7.305-5.96 7.305-3.844 0-6.535-3.076-5.959-7.113l1.922-17.3z" />
    </g>
</svg>
