<svg viewBox="0 0 600 300" xmlns="http://www.w3.org/2000/svg">
    <title>
        heartinternet
    </title>
    <g fill="#000" fill-rule="evenodd">
        <path d="M599.147 214.581c1.078 3.69.924 7.231.021 10.9H.901c-.577-1.15-.712-2.503-.83-3.837-.193-2.172.024-4.327.473-6.463.13-.625.437-.877 1.049-.834.254.019.51.002.766.002l405.18.045c20.594.002 41.19-.01 61.785.013 42.847.048 85.693.115 128.54.174h1.283M1.038 86.155C-.303 83.445-.246 78.028.85 75h598.185c1.166 2.605 1.136 8.624-.016 10.928h-1.305l-17.872.005c-51.443.003-102.887-.014-154.33.013-102.203.052-204.406.133-306.609.192-38.806.022-77.612.012-116.418.017H1.038zM84.175 152.631c2.25.277 20.365.191 21.27-.065.015-.12.06-.25.043-.37-.657-4.367-3.647-7.455-7.972-8.077-1.442-.206-2.86-.192-4.31-.018-3.848.461-6.524 2.458-8.095 5.963-.357.796-.602 1.642-.936 2.567m32.691 10.187H83.62c.235 2.662.815 5.025 2.266 7.106 1.053 1.51 2.511 2.521 4.178 3.243 1.811.784 3.72 1.176 5.681 1.314 5.077.358 9.996-.4 14.783-2.095.36-.127.722-.248 1.087-.362.076-.024.166-.003.328-.003 1.86 2.944 2.383 6.243 2.53 9.692-2.097 1.037-4.22 1.745-6.416 2.243-4.383.995-8.835 1.268-13.302 1-4.41-.267-8.633-1.304-12.484-3.61-4.89-2.93-7.89-7.254-9.45-12.65-.916-3.164-1.3-6.418-1.22-9.698.12-4.844.964-9.549 3.26-13.89 3.186-6.02 8.148-9.676 14.827-10.971 4.316-.838 8.646-.843 12.87.418 7.43 2.219 12.023 7.22 13.937 14.71.937 3.672.967 7.395.591 11.138-.075.752-.137 1.504-.22 2.415M405.93 152.645c.02-.18.095-.393.055-.58-.851-3.992-2.934-6.931-7.565-7.94-1.812-.394-3.62-.286-5.436-.004-4.276.665-7.75 4.2-8.308 8.489.948.255 19.891.298 21.254.035m11.33 10.133H384.18c-.286 1.17.076 2.145.3 3.113 1.157 4.975 4.566 7.536 9.371 8.323 5.058.83 10.077.424 14.987-1.104 1.129-.351 2.254-.714 3.402-1.08 1.233 1.744 1.844 3.671 2.183 5.696.16.961.246 1.935.377 2.901.137 1.01.14 1.054-.776 1.456-2.265.996-4.628 1.664-7.059 2.123a46.96 46.96 0 0 1-11.418.722c-4.676-.266-9.14-1.332-13.188-3.85-3.947-2.453-6.651-5.89-8.305-10.186-1.598-4.147-2.173-8.475-1.942-12.885.223-4.264 1.004-8.424 2.942-12.3 2.972-5.947 7.628-9.751 14.118-11.315 2.756-.664 5.546-.854 8.35-.694 5.54.315 10.454 2.172 14.373 6.236 2.637 2.734 4.2 6.055 5.059 9.72a27.75 27.75 0 0 1 .74 7.074c-.052 1.946-.27 3.888-.432 6.05M547.948 152.761c-.182-.764-.295-1.344-.46-1.908-1.072-3.675-3.484-5.934-7.225-6.743-1.761-.381-3.523-.319-5.31-.043-3.515.543-6.022 2.405-7.562 5.57-.467.96-.99 1.94-.962 3.124h21.519zm11.026 9.986H526.03c-.553.807-.14 1.514-.02 2.185.617 3.429 2.213 6.226 5.378 7.934 1.706.921 3.58 1.342 5.471 1.622 2.49.367 5.008.263 7.494-.01a33.517 33.517 0 0 0 7.314-1.652c.76-.263 1.532-.493 2.367-.76 1.067 1.598 1.707 3.332 2.053 5.172.219 1.165.322 2.35.498 3.524.098.647-.145 1.018-.753 1.272-2.32.97-4.7 1.72-7.181 2.154-3.612.632-7.253.915-10.908.732-4.586-.23-9.006-1.169-13.027-3.538-3.188-1.878-5.677-4.453-7.496-7.653-1.658-2.917-2.671-6.074-2.922-9.42-.193-2.579-.365-5.184-.22-7.758.273-4.864 1.61-9.456 4.355-13.545 3.332-4.961 8.029-7.805 13.883-8.845 2.188-.389 4.384-.577 6.594-.454 5.757.32 10.895 2.117 14.916 6.462 2.765 2.987 4.357 6.547 5.1 10.517.447 2.39.611 4.804.487 7.227-.08 1.559-.277 3.111-.438 4.834zM151.43 162.382c-2.841-.466-5.6-.5-8.348-.29-2.072.156-4.112.576-5.997 1.565-1.886.99-3.028 2.449-3.087 4.62-.066 2.451.4 4.4 3.504 5.507.518.185 1.049.347 1.587.455 3.456.69 6.926.569 10.397.132.624-.078 1.247-.165 1.944-.259v-11.73zm11.49 20.372c-.49.097-.934.203-1.385.271-3.314.5-6.632.976-9.945 1.491-3.335.52-6.695.58-10.052.458-3.806-.14-7.508-.83-10.976-2.516-5.226-2.539-7.741-6.789-7.99-12.506-.124-2.845.215-5.59 1.506-8.18 2.114-4.238 5.578-6.893 9.939-8.465 3.146-1.134 6.413-1.64 9.76-1.595l7.538.104c.589-2.28-.609-6.104-3.785-7.154-2.012-.666-4.078-.86-6.165-.721-2.583.17-5.174.338-7.7.972-1.154.289-2.3.606-3.451.902-.242.062-.495.082-.775.127-1.546-1.943-2.242-4.185-2.489-6.585-.086-.843-.01-1.702-.054-2.55-.035-.66.204-1.02.87-1.17 1.698-.38 3.372-.879 5.08-1.193 3.945-.726 7.935-.962 11.939-.786 3.07.135 6.079.647 8.938 1.847 4.71 1.977 7.558 5.526 8.67 10.459.334 1.48.54 3.024.547 4.54.051 10.34.035 20.68.037 31.019 0 .378-.035.755-.058 1.231zM295.412 184.373c-3.855.85-7.578.843-11.38.052V135.84c3.466-.562 6.87-.598 10.428-.026l.516 3.334c.274-.146.494-.23.675-.366 3.245-2.43 6.874-3.805 10.922-4.173 3.529-.32 6.944.052 10.255 1.312 3.893 1.481 6.433 4.32 8.052 8.072 1.003 2.322 1.61 4.743 1.737 7.271.1 1.993.203 3.988.208 5.983.026 8.591.016 17.183.02 25.775v1.345c-3.836.883-7.56.818-11.462.024v-1.521c-.001-9.315-.004-18.63-.002-27.944 0-1.839-.252-3.641-.77-5.403-.856-2.903-2.658-4.281-5.665-4.417-3.465-.157-6.584.71-9.143 3.13-2.31 2.182-3.557 4.957-4.068 8.048-.233 1.416-.306 2.872-.312 4.31-.029 7.4-.012 14.802-.011 22.202v1.576M506.536 184.304c-2.801.855-8.141.872-11.108.013-.017-.449-.052-.945-.052-1.44-.002-9.064.028-18.127-.017-27.19-.012-2.549-.275-5.084-1.337-7.472-.783-1.756-2.164-2.767-3.974-3.036-4.41-.656-8.264.513-11.27 3.917-1.913 2.166-2.898 4.79-3.307 7.616-.2 1.381-.273 2.79-.278 4.187-.025 7.276-.01 14.552-.009 21.828v1.626c-3.726.808-7.368.85-11.009.058-.287-.932-.368-46.82-.083-48.536 3.345-.604 6.713-.554 10.203-.032.16 1.07.329 2.18.515 3.414.332-.206.581-.337.805-.502 2.856-2.114 6.04-3.503 9.551-3.979 3.916-.53 7.794-.29 11.522 1.2 3.847 1.537 6.449 4.313 8.054 8.083 1.25 2.933 1.815 6.018 1.827 9.184.039 10 .023 19.999.025 29.998 0 .335-.036.67-.058 1.063M238.12 173.18c1.153 3.35 1.841 6.605 1.968 10.13-1.473.377-2.881.886-4.332 1.076-2.31.3-4.65.531-6.977.53a15.666 15.666 0 0 1-7.361-1.808c-3.54-1.865-5.527-4.827-6.117-8.73-.203-1.338-.266-2.707-.27-4.062-.022-7.914-.007-15.828-.005-23.742v-1.683c-2.538-.112-4.986.023-7.475-.077-.984-3.408-.995-6.692-.037-10.135h7.514v-1.511c0-.979.11-1.973-.024-2.933-.245-1.75.411-2.961 1.754-4.048 1.717-1.388 3.309-2.934 4.922-4.445.47-.44.944-.653 1.59-.626 1.008.042 2.02.011 3.18.011v13.486h12.03c1.098 2.508 1.15 6.893.12 10.165-1.916.149-3.903.044-5.884.063-1.997.02-3.994.004-6.113.004-.046.44-.118.803-.119 1.166-.004 8.297.02 16.594-.01 24.891-.011 3.081 1.335 3.608 3.561 3.655 2.279.048 4.495-.182 6.647-.953.433-.154.883-.261 1.438-.423M364.444 173.211c.974 1.886 1.857 6.17 2.083 9.99a22.343 22.343 0 0 1-4.735 1.243c-1.343.193-2.695.37-4.05.44-3.89.201-7.63-.297-10.997-2.481-2.616-1.697-4.15-4.133-4.769-7.114a25.18 25.18 0 0 1-.495-4.932c-.048-7.914-.02-15.829-.019-23.743v-1.669c-.482-.04-.885-.103-1.29-.106a241.62 241.62 0 0 0-5.233.004c-.65.01-1.012-.19-1.17-.87-.659-2.824-.708-5.638.022-8.454.063-.242.18-.47.31-.807h7.23c.05-.458.123-.818.126-1.179.015-1.489.048-2.98-.006-4.467-.03-.845.258-1.45.88-2.003 1.839-1.642 3.665-3.3 5.45-5 .694-.662 1.41-1.017 2.386-.931.838.073 1.687.015 2.71.015.029 4.51.002 8.915.018 13.477 1.386.114 2.692.047 3.991.06 1.362.013 2.723.001 4.085.001h4.05c1.152 3.363 1.02 6.671.046 10.135h-12.084c-.036.546-.087.957-.087 1.367-.003 8.255 0 16.51.003 24.765 0 .255-.002.51.018.765.137 1.734 1.004 2.665 2.721 2.788 2.387.17 4.76.117 7.048-.738.553-.207 1.127-.358 1.758-.556M582.743 144.712c-.028.527-.07.94-.07 1.353-.003 8.212-.006 16.425.008 24.637.002.63.07 1.272.204 1.888.257 1.185 1.084 1.758 2.245 1.945 2.533.406 4.987.049 7.406-.711.565-.178 1.132-.35 1.798-.554 1.274 3.142 1.732 6.399 2.027 9.759-.145.092-.303.246-.491.306a31.71 31.71 0 0 1-7.23 1.406c-1.748.137-3.479.138-5.205-.056-4.053-.454-7.567-1.969-9.928-5.478-1.44-2.14-2.022-4.575-2.028-7.133-.02-8.51-.012-17.02-.014-25.53 0-1.898 0-1.899-1.877-1.9-1.447 0-2.894.004-4.34-.003-.418-.002-.835-.035-1.21-.052-1.017-2.237-1.049-6.694-.055-9.863h7.374c.046-.522.102-.889.105-1.256.01-1.532.03-3.064-.01-4.595-.02-.698.198-1.205.716-1.672 2.051-1.85 4.069-3.736 6.117-5.588.234-.212.58-.404.883-.418 1.096-.05 2.197-.02 3.401-.02.206 1.57.073 3.049.097 4.519.024 1.446.006 2.893.006 4.34v4.578c.566.039 1.015.093 1.464.094 3.192.007 6.383-.001 9.575.002 1.248.002 1.2.022 1.5 1.21.641 2.53.582 5.046-.004 7.568-.265 1.14-.277 1.157-1.43 1.159-3.276.005-6.552-.003-9.829 0-.336 0-.673.035-1.205.065M4.045 116.536c3.91-.734 7.77-.738 11.608 0 .279 1.48.218 66.099-.056 67.063-3.808.836-7.636.76-11.458.058-.282-.942-.385-64.81-.094-67.12M52.096 116.562c3.88-.786 7.734-.74 11.68-.01v66.89c-2.259.867-7.444 1.06-11.68.16v-67.04zM258.855 116.939c3.85-.608 7.63-.59 11.494.002v66.635c-3.8.81-7.613.814-11.434.017-.03-.031-.061-.06-.088-.093-.025-.033-.06-.068-.065-.105-.027-.21-.066-.42-.066-.63.005-21.77.014-43.541.027-65.311 0-.122.06-.244.132-.515M199.78 145.644c-.395-.046-.763-.094-1.132-.13-1.993-.196-3.987-.293-5.967.117-4.007.83-6.559 3.158-7.537 7.199-.547 2.256-.646 4.548-.663 6.834-.055 7.445-.016 14.891-.013 22.337v1.541c-3.787.874-7.442.82-11.085.088-.046-.045-.079-.073-.107-.104-.027-.032-.067-.064-.073-.1-.034-.209-.083-.418-.083-.628.002-15.785.007-31.57.017-47.354 0-.12.064-.24.122-.449a26.269 26.269 0 0 1 10.41-.015l.408 3.111c2.386-1.723 4.852-2.857 7.646-3.218 2.755-.355 5.488-.377 8.222.057 1.028 3.602 1.005 7.065-.165 10.714M437.628 135.039l.56 3.157c4.808-3.731 10.114-3.896 15.679-3.254 1.22 3.546 1.01 7.023-.027 10.589-.236-.013-.477-.007-.713-.04-2.24-.32-4.475-.366-6.697.139-3.85.875-6.26 3.22-7.236 7.057-.517 2.033-.693 4.11-.706 6.184-.047 7.698-.016 15.397-.014 23.096v1.46c-2.689.82-7.399.987-11.073.11-.238-.91-.29-46.968-.04-48.488 3.372-.627 6.76-.77 10.267-.01M19.47 159.817c-.835-2.55-.73-4.992-.076-7.493h29.04c.745 2.469.75 4.88-.002 7.43-.309.041-.671.133-1.033.133-9.015.008-18.03.007-27.045.004-.25 0-.501-.04-.885-.074M19.44 148.925c-.791-2.437-.69-4.843-.088-7.337h29.064c.807 2.389.727 4.795.086 7.213-.924.276-26.232.397-29.061.124"/>
    </g>
</svg>
