<svg viewBox="0 0 600 300" xmlns="http://www.w3.org/2000/svg">
    <title>
        javascriptweekly
    </title>
    <g fill="#000" fill-rule="evenodd">
        <path d="M585.242 170.619a293.314 293.314 0 0 1-1.994 4.857c-.653 1.547-1.45 2.912-2.393 4.097a10.347 10.347 0 0 1-3.516 2.828c-1.403.7-3.19 1.052-5.366 1.052-1.934 0-3.843-.146-5.728-.436v-6.96c.676.096 1.329.205 1.957.326.628.12 1.281.181 1.959.181.966 0 1.763-.12 2.392-.362a3.985 3.985 0 0 0 1.56-1.051c.409-.46.76-1.004 1.05-1.632.29-.629.556-1.354.798-2.175l.942-2.9-14.211-37.341h9.063l9.789 27.987h.145l9.498-27.987h8.629l-14.574 39.516zM550.656 168.589h8.266v-51.77h-8.266zM537.461 168.589l-11.456-18.2-4.93 4.786v13.414h-8.266v-51.77h8.266v29.438l14.936-15.154h10.15l-14.356 13.776 15.734 23.71zM479.818 151.984c0 1.45.205 2.853.616 4.206.41 1.354 1.027 2.537 1.85 3.553.821 1.015 1.86 1.825 3.117 2.429 1.257.605 2.756.906 4.496.906 2.416 0 4.362-.519 5.836-1.559 1.474-1.039 2.574-2.598 3.3-4.676h7.83c-.435 2.03-1.185 3.843-2.247 5.437a15.654 15.654 0 0 1-3.843 4.025 16.586 16.586 0 0 1-5.04 2.465 20.31 20.31 0 0 1-5.836.834c-2.949 0-5.56-.484-7.831-1.45-2.273-.967-4.194-2.32-5.764-4.061-1.572-1.74-2.756-3.818-3.553-6.235-.798-2.417-1.196-5.076-1.196-7.976 0-2.658.422-5.184 1.268-7.577.846-2.393 2.054-4.496 3.626-6.308 1.57-1.813 3.467-3.25 5.692-4.314 2.222-1.063 4.736-1.596 7.54-1.596 2.948 0 5.595.617 7.94 1.85 2.344 1.232 4.289 2.864 5.836 4.894 1.547 2.03 2.67 4.362 3.372 6.997.7 2.635.881 5.354.544 8.156h-27.553zm16.568-12.362a9.355 9.355 0 0 0-2.9-2.175c-1.137-.555-2.405-.834-3.807-.834-1.45 0-2.768.254-3.951.762a9.02 9.02 0 0 0-3.046 2.102 10.402 10.402 0 0 0-2.03 3.154c-.507 1.209-.786 2.514-.834 3.916h19.287a13.374 13.374 0 0 0-.834-3.77c-.46-1.209-1.088-2.26-1.885-3.155zM440.592 151.984c0 1.45.205 2.853.616 4.206.41 1.354 1.027 2.537 1.85 3.553.82 1.015 1.86 1.825 3.117 2.429 1.257.605 2.755.906 4.495.906 2.417 0 4.362-.519 5.837-1.559 1.474-1.039 2.574-2.598 3.3-4.676h7.83c-.435 2.03-1.185 3.843-2.247 5.437a15.662 15.662 0 0 1-3.843 4.025 16.593 16.593 0 0 1-5.04 2.465c-1.86.555-3.806.834-5.837.834-2.948 0-5.559-.484-7.83-1.45-2.273-.967-4.195-2.32-5.765-4.061-1.571-1.74-2.755-3.818-3.553-6.235-.797-2.417-1.196-5.076-1.196-7.976 0-2.658.422-5.184 1.269-7.577.845-2.393 2.054-4.496 3.625-6.308 1.57-1.813 3.468-3.25 5.692-4.314 2.223-1.063 4.737-1.596 7.54-1.596 2.949 0 5.595.617 7.94 1.85 2.344 1.232 4.29 2.864 5.837 4.894 1.547 2.03 2.67 4.362 3.372 6.997.7 2.635.881 5.354.543 8.156h-27.552zm16.568-12.362a9.355 9.355 0 0 0-2.9-2.175c-1.137-.555-2.406-.834-3.807-.834-1.45 0-2.768.254-3.952.762a9.02 9.02 0 0 0-3.045 2.102 10.402 10.402 0 0 0-2.03 3.154c-.508 1.209-.786 2.514-.835 3.916h19.288a13.374 13.374 0 0 0-.834-3.77c-.46-1.209-1.088-2.26-1.885-3.155zM417.462 168.589h-9.208l-10.368-39.59-10.731 39.59H377.8l-13.63-51.77h9.207l9.354 39.588 10.586-39.588h9.28l10.151 39.588 9.789-39.588h9.208zM344.159 137.266h-7.468v20.011c0 .87.036 1.62.108 2.248.073.629.242 1.16.508 1.595.265.436.664.762 1.196.98.531.217 1.257.325 2.176.325.58 0 1.16-.01 1.74-.036a8.632 8.632 0 0 0 1.74-.253v6.38c-.92.096-1.813.193-2.683.29-.87.096-1.765.145-2.683.145-2.175 0-3.927-.206-5.257-.616-1.33-.41-2.369-1.015-3.117-1.813-.75-.797-1.258-1.8-1.523-3.009-.266-1.207-.423-2.585-.471-4.133v-22.114h-6.236v-6.163h6.236v-11.239h8.266v11.239h7.468v6.163zM316.135 163.622c-1.33 1.813-3.009 3.263-5.039 4.35-2.03 1.088-4.423 1.632-7.178 1.632-1.209 0-2.417-.11-3.625-.327a15.67 15.67 0 0 1-3.48-1.05 13.658 13.658 0 0 1-3.082-1.85 10.23 10.23 0 0 1-2.357-2.647h-.144v18.708h-8.267v-51.335h7.831v5.075h.146c1.16-2.175 2.778-3.734 4.857-4.676 2.078-.943 4.326-1.415 6.744-1.415 2.947 0 5.521.52 7.721 1.56s4.025 2.465 5.475 4.277c1.45 1.813 2.537 3.928 3.263 6.345.725 2.418 1.087 5.002 1.087 7.758 0 2.514-.326 4.955-.979 7.323-.652 2.369-1.644 4.46-2.973 6.272zm-6.924-22.912a10.118 10.118 0 0 0-3.263-2.973c-1.305-.749-2.804-1.124-4.495-1.124-3.48 0-6.103 1.21-7.867 3.625-1.765 2.418-2.647 5.632-2.647 9.644 0 1.885.23 3.638.69 5.257.458 1.62 1.147 3.009 2.066 4.169a10.307 10.307 0 0 0 3.298 2.755c1.28.678 2.767 1.015 4.46 1.015 1.885 0 3.48-.386 4.785-1.16a10.118 10.118 0 0 0 3.227-3.009c.845-1.233 1.45-2.634 1.812-4.205.363-1.57.544-3.178.544-4.822 0-1.692-.217-3.336-.652-4.93-.435-1.596-1.088-3.01-1.958-4.242zM266.577 124.65h8.266v-7.83h-8.266zM266.577 168.589h8.266v-37.486h-8.266zM263.895 138.28a39.502 39.502 0 0 0-1.776-.253 14.916 14.916 0 0 0-1.776-.109c-1.403 0-2.72.279-3.952.834-1.233.557-2.309 1.378-3.227 2.465-.918 1.088-1.644 2.43-2.175 4.025-.533 1.594-.797 3.432-.797 5.51v17.837h-8.266v-37.486h7.758v7.25h.145c.241-1.014.713-2.005 1.414-2.973.7-.966 1.546-1.848 2.538-2.646.99-.797 2.09-1.438 3.298-1.921a9.886 9.886 0 0 1 3.699-.726c.966 0 1.63.025 1.993.073.363.049.737.098 1.124.145v7.976zM211.437 159.018a9.409 9.409 0 0 0 3.081 2.936c1.257.75 2.78 1.124 4.568 1.124 2.417 0 4.411-.749 5.982-2.247 1.57-1.499 2.55-3.6 2.936-6.309h8.266c-.773 4.883-2.622 8.617-5.546 11.203-2.926 2.586-6.805 3.879-11.638 3.879-2.949 0-5.546-.497-7.794-1.487-2.248-.99-4.145-2.344-5.692-4.06-1.548-1.715-2.719-3.758-3.516-6.127-.798-2.368-1.197-4.93-1.197-7.685 0-2.803.387-5.439 1.16-7.904.773-2.465 1.933-4.604 3.48-6.417 1.547-1.812 3.468-3.237 5.765-4.277 2.295-1.04 4.99-1.56 8.085-1.56 2.174 0 4.241.28 6.199.834 1.957.557 3.697 1.39 5.22 2.502 1.523 1.113 2.766 2.514 3.734 4.205.967 1.693 1.547 3.698 1.74 6.019h-8.266c-.338-2.32-1.268-4.072-2.79-5.257-1.524-1.184-3.445-1.777-5.765-1.777-1.064 0-2.2.182-3.408.544-1.209.363-2.32 1.04-3.335 2.03-1.016.992-1.862 2.37-2.538 4.133-.678 1.765-1.015 4.073-1.015 6.925 0 1.547.181 3.093.544 4.64.362 1.548.942 2.925 1.74 4.133zM190.591 166.051c-1.934 1.305-4.132 2.26-6.598 2.864-2.465.604-4.979.906-7.54.906-2.95 0-5.728-.362-8.339-1.088-2.61-.724-4.882-1.836-6.815-3.334-1.934-1.498-3.48-3.42-4.64-5.765-1.16-2.344-1.766-5.112-1.813-8.302h9.063c0 1.983.337 3.674 1.015 5.075.676 1.403 1.62 2.55 2.828 3.445 1.208.895 2.598 1.547 4.169 1.957 1.57.412 3.274.616 5.112.616 1.981 0 3.673-.228 5.075-.688 1.401-.459 2.538-1.051 3.408-1.777.87-.725 1.498-1.559 1.885-2.501.387-.943.58-1.897.58-2.864 0-1.982-.447-3.444-1.341-4.387-.895-.942-1.874-1.606-2.937-1.994-1.837-.676-3.976-1.316-6.416-1.921-2.442-.604-5.451-1.39-9.027-2.356-2.225-.58-4.073-1.342-5.547-2.285-1.475-.942-2.647-1.994-3.517-3.153-.87-1.16-1.486-2.393-1.849-3.698a14.831 14.831 0 0 1-.544-3.988c0-2.61.544-4.87 1.632-6.78a14.513 14.513 0 0 1 4.314-4.749c1.788-1.256 3.818-2.186 6.09-2.791a26.712 26.712 0 0 1 6.889-.906c2.706 0 5.257.35 7.649 1.05 2.393.702 4.495 1.753 6.308 3.155a15.46 15.46 0 0 1 4.314 5.184c1.063 2.055 1.595 4.435 1.595 7.142h-9.063c-.242-3.336-1.377-5.692-3.408-7.07-2.03-1.378-4.616-2.066-7.758-2.066-1.063 0-2.151.109-3.263.326a10.34 10.34 0 0 0-3.045 1.088 6.672 6.672 0 0 0-2.284 2.066c-.605.87-.906 1.958-.906 3.263 0 1.838.567 3.275 1.704 4.314 1.135 1.04 2.621 1.825 4.459 2.357.192.048.954.253 2.284.616 1.329.363 2.815.761 4.459 1.196 1.643.436 3.25.86 4.822 1.27a188.3 188.3 0 0 1 3.371.905c1.691.533 3.166 1.258 4.423 2.176 1.256.919 2.308 1.97 3.154 3.154a13.088 13.088 0 0 1 1.885 3.806c.41 1.354.617 2.708.617 4.06 0 2.901-.593 5.378-1.777 7.433a15.091 15.091 0 0 1-4.677 5.04zM152.96 168.661c-.29.096-.664.205-1.123.326-.46.12-.931.229-1.414.327-.484.096-.968.168-1.45.217-.484.048-.895.073-1.233.073-1.692 0-3.094-.34-4.205-1.015-1.113-.677-1.838-1.86-2.175-3.553-1.644 1.595-3.662 2.755-6.055 3.48-2.393.725-4.702 1.088-6.924 1.088-1.693 0-3.312-.23-4.858-.69-1.547-.458-2.913-1.134-4.097-2.03-1.185-.893-2.127-2.03-2.828-3.407-.7-1.378-1.05-2.984-1.05-4.822 0-2.32.422-4.205 1.268-5.655.845-1.45 1.958-2.586 3.335-3.408 1.378-.821 2.925-1.414 4.64-1.777a53.943 53.943 0 0 1 5.185-.834 42.4 42.4 0 0 1 4.278-.616c1.353-.12 2.549-.326 3.589-.616 1.039-.29 1.86-.736 2.465-1.341.604-.604.907-1.51.907-2.72 0-1.062-.254-1.932-.762-2.61a5.119 5.119 0 0 0-1.885-1.558 8.161 8.161 0 0 0-2.501-.725c-.92-.12-1.79-.182-2.61-.182-2.32 0-4.231.484-5.729 1.45-1.499.968-2.345 2.465-2.537 4.496h-8.266c.145-2.417.725-4.423 1.74-6.018a12.032 12.032 0 0 1 3.879-3.843c1.57-.967 3.347-1.643 5.33-2.03a31.731 31.731 0 0 1 6.09-.58c1.836 0 3.649.193 5.438.58 1.788.387 3.395 1.015 4.821 1.885a10.455 10.455 0 0 1 3.445 3.371c.87 1.378 1.305 3.058 1.305 5.04v19.286c0 1.015.132 1.74.398 2.175.266.436.785.653 1.56.653h.87c.337 0 .725-.047 1.16-.145v5.728zm-22.404-16.604c-.87.145-1.716.351-2.538.617a7.643 7.643 0 0 0-2.175 1.087 4.782 4.782 0 0 0-1.486 1.812c-.363.75-.544 1.657-.544 2.72 0 .919.265 1.692.798 2.32a5.773 5.773 0 0 0 1.921 1.486 8.88 8.88 0 0 0 2.465.762 15.29 15.29 0 0 0 2.43.217c.917 0 1.908-.12 2.972-.363a9.896 9.896 0 0 0 3.01-1.232 7.92 7.92 0 0 0 2.355-2.212c.628-.893.943-1.994.943-3.299v-6.163c-1.258.823-2.804 1.318-4.64 1.487-1.838.17-3.675.423-5.511.761zM76.901 168.93c-.29.096-.665.205-1.124.326-.46.12-.93.23-1.413.327-.484.096-.968.169-1.45.217-.484.048-.895.073-1.233.073-1.693 0-3.094-.339-4.205-1.015-1.113-.677-1.838-1.86-2.176-3.553-1.644 1.595-3.661 2.755-6.054 3.48-2.393.725-4.702 1.088-6.924 1.088-1.693 0-3.312-.23-4.859-.69-1.547-.458-2.912-1.134-4.096-2.03-1.185-.893-2.128-2.03-2.828-3.407-.7-1.378-1.05-2.984-1.05-4.822 0-2.32.422-4.205 1.268-5.655.845-1.45 1.957-2.586 3.335-3.408 1.378-.821 2.924-1.414 4.64-1.776a53.943 53.943 0 0 1 5.185-.835 42.4 42.4 0 0 1 4.278-.616c1.353-.12 2.549-.326 3.589-.616 1.039-.29 1.86-.736 2.465-1.341.604-.604.906-1.51.906-2.72 0-1.062-.254-1.932-.761-2.61a5.119 5.119 0 0 0-1.885-1.558 8.161 8.161 0 0 0-2.502-.725c-.919-.12-1.789-.182-2.61-.182-2.32 0-4.23.484-5.728 1.45-1.499.968-2.345 2.465-2.538 4.496h-8.265c.144-2.417.725-4.423 1.74-6.018a12.032 12.032 0 0 1 3.879-3.843c1.57-.967 3.347-1.643 5.33-2.03a31.731 31.731 0 0 1 6.09-.58c1.836 0 3.649.193 5.438.58 1.788.387 3.395 1.015 4.821 1.885a10.455 10.455 0 0 1 3.444 3.371c.87 1.378 1.306 3.058 1.306 5.04v19.286c0 1.015.132 1.74.398 2.175.265.436.785.653 1.56.653h.87c.337 0 .724-.047 1.16-.145v5.728zm-22.404-16.604c-.87.145-1.716.351-2.538.617a7.643 7.643 0 0 0-2.175 1.087 4.782 4.782 0 0 0-1.487 1.812c-.362.75-.543 1.657-.543 2.72 0 .919.265 1.692.797 2.32a5.773 5.773 0 0 0 1.922 1.486 8.88 8.88 0 0 0 2.465.762 15.29 15.29 0 0 0 2.429.217c.918 0 1.91-.12 2.973-.362a9.896 9.896 0 0 0 3.009-1.233 7.92 7.92 0 0 0 2.356-2.212c.628-.893.943-1.993.943-3.299v-6.163c-1.258.823-2.804 1.318-4.64 1.487-1.838.17-3.675.423-5.511.761zM100.248 168.589h-9.28l-13.632-37.486h8.991l9.499 28.785h.145l9.135-28.785h8.556zM33.035 151.912c0 2.272-.193 4.472-.58 6.598-.387 2.128-1.172 4.037-2.356 5.728-1.185 1.693-2.9 3.046-5.148 4.06-2.248 1.016-5.233 1.523-8.955 1.523-2.755 0-5.1-.423-7.033-1.269-1.933-.845-3.528-2.005-4.785-3.48-1.258-1.474-2.175-3.226-2.755-5.257-.58-2.03-.87-4.229-.87-6.598v-2.755h9.063v2.683c0 2.949.495 5.233 1.486 6.852.99 1.62 2.864 2.428 5.62 2.428 1.45 0 2.646-.217 3.589-.652a5.277 5.277 0 0 0 2.247-1.921c.556-.846.93-1.897 1.125-3.154.192-1.257.29-2.683.29-4.279v-35.6h9.062v35.093z"/>
    </g>
</svg>
