<svg viewBox="0 0 600 300" xmlns="http://www.w3.org/2000/svg">
    <title>
        marvel
    </title>
    <g fill="#000" fill-rule="evenodd">
        <path d="M398.747 118.194c5.679.548 12.627-2.92 14.138-7.093.435-1.202.275-3.157-.468-4.079-.602-.749-2.756-1.03-3.754-.548-4.945 2.388-7.585 6.8-9.916 11.72m49.946-3.96c4.293-3.952 9.854-8.424 14.585-13.648 3.234-3.573 5.399-8.142 7.82-12.393.44-.773-.19-2.156-.326-3.257-1.058.26-2.18.38-3.152.826-.706.325-1.241 1.056-1.807 1.65-7.791 8.172-12.498 18.267-17.12 26.821m-204.57 5.738c-.29-.722-.515-2.59-1.25-2.82-1.249-.39-3.112-.176-4.19.559-1.69 1.15-3.164 2.793-4.34 4.497-4.453 6.454-7.1 13.688-8.55 21.353a32.491 32.491 0 0 0-.557 6.965c.03 1.006.788 2.48 1.602 2.824.709.298 2.175-.468 2.927-1.169 1.265-1.18 2.57-2.528 3.26-4.074 3.564-7.994 6.966-16.064 10.349-24.14.44-1.049.443-2.281.749-3.995m181.433 23.652c-4.592 3.021-9.074 6.225-13.8 9.017-5.71 3.37-11.765 5.74-18.632 5.64-11.028-.16-16.742-5.422-17.325-16.482-.129-2.449-.106-4.961.29-7.37.708-4.31-3.156-3.645-5.125-4.957-2.04-1.359-2.807.426-3.735 1.833-5.376 8.154-11.018 16.087-18.873 22.138-4.265 3.286-8.878 5.808-14.353 6.137-6.784.407-10.567-2.367-12.597-8.833-1.705-5.432-1.259-10.893-.372-16.375.256-1.584.477-3.175.717-4.783-3.664 1.861-6.946 3.955-10.518 5.242-5.586 2.012-10.401-1.416-10.175-7.358.155-4.036 1.315-8.041 2.106-12.045.329-1.662.868-3.284 1.31-4.924l-1.111-.799c-1.845 2.052-4.018 3.894-5.478 6.19-6.803 10.694-9.954 22.727-12.359 35-.52 2.65-.95 5.316-1.42 7.976-.725 4.108-4.409 6.667-9.122 6.333-4.043-.286-6.129-2.719-6.3-8.09-1.617 1.589-2.736 3.054-4.181 4.038-3.848 2.616-7.592 5.617-11.83 7.369-5.601 2.315-9.63.36-12.767-4.857-.461-.766-1.005-1.483-1.785-2.626-1.039 1.258-1.802 2.24-2.623 3.168-1.865 2.107-3.616 4.34-5.665 6.251-8.374 7.81-18.693 4.905-21.101-6.242-.996-4.607-1.148-9.666-.427-14.324 2.114-13.657 6.83-26.375 16.034-37.018 4.914-5.684 10.805-10.603 18.672-9.47 5.39.775 9.52.85 14.42-2.32 4.698-3.041 9.739 1.238 8.863 7.11-.597 3.997-1.858 8.073-3.692 11.669-3.668 7.193-4.962 14.891-5.856 22.711-.18 1.569.775 3.267 1.206 4.906 1.686-.575 3.805-.69 4.985-1.802 5.956-5.61 10.849-11.904 12.664-20.24 1.573-7.219 3.31-14.446 5.684-21.429.969-2.85 3.396-5.693 5.936-7.348 1.712-1.114 4.97-.697 7.2.046 2.584.86 2.52 3.658 2.307 6.084-.061.69-.14 1.378-.272 2.675 2.822-3.124 4.958-6.257 7.821-8.432 2.576-1.958 5.908-3.897 8.979-4.017 5.885-.23 9.45 5.558 7.828 11.88-.84 3.279-2.347 6.384-3.452 9.602-.465 1.353-.67 2.795-1.236 5.255 2.054-.996 3.458-1.243 4.128-2.078 3.05-3.799 6.013-7.68 8.762-11.7 1.512-2.212 2.263-4.96 3.86-7.09a21.883 21.883 0 0 1 5.599-5.2c3.982-2.55 9.238-2.281 11.512.16 2.258 2.426 2.022 6.887-1.113 11.054-7.031 9.35-7.915 20.588-9.94 31.471-.193 1.036.464 2.673 1.285 3.304.58.446 2.28-.055 3.18-.616 7.412-4.618 12.54-11.269 16.114-19.093.619-1.356.165-3.445-.333-5.024-1.798-5.703-2.06-11.307.433-16.85a18.155 18.155 0 0 1 2.149-3.609c2.805-3.635 7.03-5.116 10.894-3.77 4.2 1.465 6.397 4.896 6.107 8.964-.345 4.837-1.751 9.618-2.926 14.367-.444 1.793-1.32 3.28 1.084 4.342 2.355 1.04 3.32-.075 4.346-2.004 5.357-10.082 12.528-18.42 23.069-23.415 4.487-2.128 9.085-2.954 14.015-1.61 5.505 1.5 9.044 5.728 9.268 11.426.428 10.89-5.884 20.216-17.5 25.228-4.07 1.756-8.495 2.67-12.675 4.195-1.56.57-3.81 1.545-4.126 2.759-.705 2.702.721 5.464 3.506 6.064 2.738.591 5.924.633 8.577-.18 9.546-2.923 17.373-8.713 24.007-16.05 1.253-1.385 1.674-3.58 2.3-5.462 4.147-12.465 9.677-24.252 17.898-34.552 4.688-5.874 9.86-11.422 17.376-13.87 9.43-3.072 16.41 1.8 17.002 11.764.47 7.899-3.033 14.383-7.41 20.444-7.22 9.994-16.27 18.163-26.236 25.34-3.058 2.203-6.283 4.116-6.466 8.583-.166 4.042 1.95 6.194 5.568 4.397 4.023-1.998 7.661-4.881 11.184-7.73 2.15-1.738 3.857-4.078 6.943-2.198 2.348 1.43 2.904 4.723 1.102 7.902-3.829 6.755-9.842 11.365-16.42 15.044-4.25 2.377-8.954 4.179-13.67 5.424-6.4 1.692-10.444-1.036-12.018-7.493-.684-2.808-.852-5.742-1.275-8.767M168.876 121.766c2.09-4.048 3.525-7.664 5.668-10.794 3.96-5.778 8.31-11.288 12.559-16.863.626-.821 1.53-1.466 2.394-2.062 4.336-2.983 8.976-5.025 14.16-2.489 5.132 2.511 7.063 7.45 6.898 12.61-.184 5.8-1.228 11.655-2.608 17.314-2.445 10.03-6.087 19.807-7.96 29.926-1.322 7.145-.99 14.704-.573 22.032.32 5.607-.697 8.636-5.272 9.89-5.712 1.567-10.905-.268-12.108-5.315-1.144-4.801-1.759-10.07-1.045-14.904 1.798-12.179 4.568-24.211 6.703-36.346.313-1.784-.713-3.805-1.12-5.716-1.8 1.06-4.495 1.692-5.247 3.256-3.184 6.628-6.423 13.35-8.473 20.378-3.784 12.972-6.476 26.206-5.53 39.91.256 3.685-2.546 6.628-6.318 7.309-5.177.932-9.614-.948-10.547-5.736-.967-4.967-1.124-10.294-.506-15.326 1.158-9.427 3.214-18.739 4.714-28.129.458-2.875.45-5.85.38-8.772-.023-1-.676-2.55-1.413-2.816-.826-.296-2.511.256-3.061 1-2.14 2.901-4.728 5.785-5.79 9.11-3.454 10.822-7.002 21.7-9.179 32.818-1.787 9.134-1.76 18.635-2.362 27.984-.316 4.895-2.472 8.216-6.573 9.303-5.05 1.339-9.445-.821-10.711-5.869-.815-3.244-1.079-6.747-.905-10.1 1.096-21.253 4.818-41.989 13.317-61.633 4.12-9.522 8.878-18.76 17.429-25.212 9.684-7.309 20.044-3.108 22.014 8.77.318 1.918.631 3.838 1.065 6.472M375.225 170.36c17.455.884 34.91 1.745 52.361 2.67 3.682.195 5.31 1.818 5.224 4.825-.09 3.177-1.92 5.018-5.571 4.914-11.724-.334-23.451-1.358-35.163-1.181-25.451.384-50.86 1.572-76.19 4.558-32.966 3.885-65.433 10.073-97.317 19.28-19.673 5.682-38.761 12.887-57.104 22.07-3.027 1.516-6.664 2.361-10.054 2.477-5.49.188-8.343-3.886-7.004-9.216 1.801-7.166 7.423-10.914 13.598-13.254 12.72-4.82 25.552-9.478 38.615-13.242 32.801-9.452 66.367-15.27 100.26-18.906 18.293-1.961 36.719-2.74 55.101-3.752 7.717-.425 15.476-.072 23.216-.072.01-.39.02-.78.028-1.171"/>
    </g>
</svg>
