<svg width="300" height="300" viewBox="0 0 300 300" xmlns="http://www.w3.org/2000/svg">
    <title>
        netmagazine
    </title>
    <path d="M242.78 179.906c-7.262 3.725-15.095 5.651-23.41 4.695-3.725-.427-7.546-1.263-10.975-2.726-6.48-2.767-9.757-8.254-9.916-15.143-.305-13.222-.2-26.454-.262-39.682-.006-1.322-.001-2.644-.001-4.224l-7.225-.38v-15.752l7.172-.544V90.879l21.81-2.175v17.705h19.42v16.036h-19.022c-.141 1.598-.31 2.642-.313 3.686-.037 11.728-.07 23.459-.06 35.188.006 6.002 3.68 8.556 8.995 5.596 4.495-2.505 8.93-1.415 13.787-1.767v14.758zm-89.784-11.23c4.902.462 9.518-.399 13.659-3.098 2.392-1.558 4.88-2.116 7.715-2.02 4.755.16 9.519.043 14.66.043v12.597c-5.014 3.595-10.778 6.205-16.987 7.814a60.99 60.99 0 0 1-24.336 1.308c-10.444-1.544-19.482-5.819-25.446-15.134-2.343-3.66-3.678-7.703-3.758-11.92-.172-9.118-.319-18.271.29-27.36.692-10.323 6.807-17.32 15.94-21.519 12.16-5.591 24.568-6.138 37.228-1.241 9.643 3.731 15.597 10.635 17.088 20.569 1.14 7.594.682 15.428.956 23.826h-49.734c-1.399 8.717 4.096 15.323 12.725 16.136zm-32.927 15.205H84.26c-1.264-3.409-1.152-8.784.227-11.74 2.007-.72 4.015-1.436 6.388-2.284 0-1.801.002-3.41 0-5.021-.008-9.682-.235-19.37.043-29.044.226-7.842-5.45-13.18-13.376-13.105-2.033.02-4.18-.17-6.073.4-5.934 1.79-9.55 5.768-9.619 12.173-.118 11.038-.019 22.079 0 33.12 0 .261.133.525.388 1.476l6.676 2.685v11.496H33.158v-11.803c1.357-.385 2.494-.837 3.672-1.01 2.64-.393 3.643-1.811 3.617-4.477-.082-8.726.007-17.452.02-26.178.009-6.126.002-12.254.002-18.9l-11.987-2.706v-9.79l24.712-2.592 2.357 3.187c4.87-1.434 9.446-3.202 14.187-4.094 12.235-2.305 23.59.006 33.375 7.982 4.95 4.035 7.806 9.598 8.15 15.915.583 10.735.596 21.5.836 32.255.034 1.498-.036 2.998-.003 4.497.078 3.656.543 4.204 4.022 4.975a48.43 48.43 0 0 1 3.146.813c.235.07.411.343.805.69v11.08zm152.607-25.436c9.51-8.024 17.213-17.663 27.07-25-13.105 14.394-26.935 28.06-40.704 41.79-13.991 13.95-27.99 27.893-41.94 41.883-13.852 13.89-27.5 27.987-41.51 41.714-13.943 13.658-27.214 28.017-41.652 41.168l-1.059-1.127c8.96-8.948 17.921-17.895 26.881-26.84l-.302-.763c-51.457 6.193-94.814-9.077-128.119-49.212-23.262-28.032-32.83-61.032-29.795-97.053C7.46 54.805 63.616 2.865 131.691.129c42.74-1.718 79.246 13.747 107.762 46.087 28.293 32.087 38.366 69.87 33.223 112.229zm-115.698-35.782c-11.461-.964-17.416 5.278-16.887 13.607h28.372c1.006-7.158-4.156-12.99-11.485-13.607z" fill="#231F20" fill-rule="evenodd"/>
</svg>
