<svg viewBox="0 0 600 300" xmlns="http://www.w3.org/2000/svg">
    <title>
        scotchio
    </title>
    <g fill="#000" fill-rule="evenodd">
        <path d="M120.894 184.79c-.596-.479-.894-1.198-.894-2.157 0-.798.188-1.657.566-2.576.377-.919.864-1.768 1.46-2.547a8.647 8.647 0 0 1 2.056-1.947c.775-.519 1.52-.779 2.236-.779.277 0 .555.04.834.12.277.08.536.2.775.36 7.31 5.073 15.316 7.61 24.019 7.61 5.521 0 10.002-1.029 13.44-3.086 3.435-2.058 5.155-5.103 5.155-9.138 0-3.475-.924-6.132-2.772-7.97-1.848-1.837-4.917-3.476-9.208-4.914l-18.953-6.35c-6.516-2.198-11.285-5.005-14.304-8.42-3.02-3.416-4.529-8.059-4.529-13.932 0-7.35 2.98-13.162 8.94-17.437 5.959-4.274 13.568-6.411 22.826-6.411 5.76 0 11.274.858 16.54 2.577 5.264 1.717 9.327 3.795 12.188 6.23.555.442.963.97 1.22 1.589.26.62.389 1.288.389 2.007 0 1.559-.537 2.976-1.61 4.254-1.072 1.28-2.364 1.918-3.873 1.918-.954 0-1.928-.3-2.921-.898-6.675-3.874-13.628-5.814-20.86-5.814-3.616 0-6.745.342-9.387 1.02-2.643.68-4.838 1.898-6.586 3.655-1.748 1.759-2.622 4.015-2.622 6.77 0 2.678.705 4.845 2.115 6.502 1.41 1.658 3.666 3.007 6.766 4.045l18.833 6.052c2.94.959 5.513 1.947 7.718 2.966a37.294 37.294 0 0 1 6.14 3.565c1.885 1.36 3.426 2.867 4.618 4.524 1.192 1.659 2.125 3.586 2.801 5.783.675 2.197 1.013 4.634 1.013 7.31 0 5.273-1.37 9.837-4.112 13.693-2.741 3.854-6.616 6.781-11.622 8.778-5.006 1.997-10.867 2.996-17.582 2.996-12.835 0-23.105-3.316-30.813-9.947M206.467 190.064c-4.49-2.796-7.897-6.511-10.221-11.145-2.324-4.634-3.486-9.787-3.486-15.46 0-4.154.704-8.1 2.115-11.835 1.41-3.735 3.377-7 5.9-9.797 2.523-2.795 5.642-5.013 9.358-6.651 3.714-1.637 7.757-2.457 12.128-2.457 6.635 0 12.139 1.539 16.51 4.614.555.4 1.022.83 1.4 1.288.378.46.656.91.834 1.349a3.534 3.534 0 0 1-.536 3.595 4.48 4.48 0 0 1-.894.838c-.337.24-.725.42-1.162.54-.437.12-.894.18-1.37.18-.438 0-.886-.06-1.342-.18-.457-.12-.904-.3-1.34-.54-3.497-1.917-7.173-2.875-11.026-2.875-5.405 0-9.676 2.018-12.815 6.051-3.139 4.036-4.708 9.309-4.708 15.82 0 6.552 1.52 11.844 4.559 15.879 3.04 4.035 7.242 6.051 12.606 6.051 5.244 0 9.436-1.138 12.576-3.414a4.773 4.773 0 0 1 2.92-1.02c.357 0 .705.052 1.043.15.336.101.645.23.923.39s.536.36.775.599c.239.24.447.51.626.809.18.3.307.62.388.958.079.34.118.69.118 1.05 0 1.477-.715 2.836-2.145 4.075-4.093 3.555-10.172 5.333-18.237 5.333-5.841 0-11.007-1.399-15.497-4.195M290.73 179.577c3.1-3.834 4.648-9.168 4.648-15.999 0-6.87-1.56-12.253-4.678-16.148-3.12-3.895-7.44-5.842-12.963-5.842-5.523 0-9.844 1.937-12.963 5.811-3.12 3.875-4.679 9.27-4.679 16.18 0 6.83 1.56 12.164 4.68 15.998 3.118 3.836 7.439 5.753 12.962 5.753 5.563 0 9.894-1.917 12.993-5.753m-26.462 12.105c-3.974-1.717-7.182-4.025-9.626-6.92a30.93 30.93 0 0 1-5.572-9.768c-1.272-3.615-1.907-7.42-1.907-11.416 0-4.073.645-7.94 1.936-11.594 1.291-3.655 3.159-6.93 5.602-9.828 2.444-2.895 5.652-5.191 9.626-6.89 3.973-1.698 8.443-2.547 13.41-2.547 4.927 0 9.357.83 13.291 2.488 3.934 1.657 7.141 3.924 9.625 6.8 2.483 2.876 4.381 6.152 5.692 9.828 1.312 3.675 1.967 7.59 1.967 11.743a35.65 35.65 0 0 1-1.162 9.139 30.284 30.284 0 0 1-3.636 8.359 28.034 28.034 0 0 1-6.019 6.86c-2.365 1.939-5.236 3.476-8.613 4.615-3.377 1.138-7.092 1.707-11.145 1.707-5.006 0-9.497-.859-13.469-2.576M327.223 189.255c-2.92-3.176-4.38-7.62-4.38-13.332v-33.257h-6.616c-1.51 0-2.682-.42-3.517-1.258-.834-.839-1.252-1.857-1.252-3.056s.397-2.197 1.193-2.997c.794-.798 1.946-1.198 3.457-1.198h6.735l1.788-16.238c.197-1.717.883-3.106 2.056-4.164 1.171-1.06 2.632-1.589 4.38-1.589 1.43 0 2.593.41 3.487 1.23.894.818 1.341 2.066 1.341 3.743v17.018h10.43c1.509 0 2.652.41 3.427 1.229.775.82 1.162 1.848 1.162 3.086 0 1.238-.378 2.247-1.133 3.026-.755.78-1.907 1.168-3.456 1.168h-10.43v30.14c0 2.398.198 4.385.596 5.963.397 1.578 1.092 2.816 2.086 3.715.993.899 2.303 1.348 3.934 1.348h.535l4.351-.3h.418c1.072 0 1.996.25 2.771.75.775.5 1.35 1.128 1.728 1.887.378.76.566 1.578.566 2.456 0 .64-.08 1.21-.237 1.708-.16.5-.398.93-.716 1.288-.318.36-.676.681-1.072.959-.399.28-.885.5-1.46.66-.577.16-1.144.299-1.7.42-.557.119-1.212.199-1.966.24-.756.038-1.43.068-2.027.09-.596.018-1.331.029-2.205.029h-2.324c-5.047 0-9.03-1.588-11.95-4.764M370.987 190.064c-4.49-2.796-7.897-6.511-10.221-11.145-2.324-4.634-3.487-9.787-3.487-15.46 0-4.154.705-8.1 2.116-11.835 1.41-3.735 3.377-7 5.9-9.797 2.523-2.795 5.642-5.013 9.358-6.651 3.714-1.637 7.757-2.457 12.128-2.457 6.635 0 12.138 1.539 16.51 4.614.555.4 1.022.83 1.4 1.288.378.46.656.91.834 1.349a3.534 3.534 0 0 1-.536 3.595 4.48 4.48 0 0 1-.894.838c-.338.24-.726.42-1.162.54-.438.12-.894.18-1.37.18-.438 0-.886-.06-1.342-.18-.457-.12-.904-.3-1.341-.54-3.496-1.917-7.172-2.875-11.026-2.875-5.404 0-9.675 2.018-12.814 6.051-3.139 4.036-4.708 9.309-4.708 15.82 0 6.552 1.52 11.844 4.559 15.879 3.04 4.035 7.242 6.051 12.606 6.051 5.244 0 9.436-1.138 12.575-3.414a4.773 4.773 0 0 1 2.92-1.02c.358 0 .706.052 1.043.15.337.101.646.23.924.39s.536.36.775.599c.239.24.446.51.626.809.18.3.307.62.388.958.078.34.118.69.118 1.05 0 1.477-.715 2.836-2.145 4.075-4.093 3.555-10.172 5.333-18.237 5.333-5.841 0-11.008-1.399-15.497-4.195M417.135 191.742c-1.292-1.119-1.937-2.676-1.937-4.675v-73.463c0-1.917.656-3.424 1.967-4.524 1.31-1.098 2.86-1.648 4.649-1.648 1.748 0 3.268.55 4.559 1.648 1.29 1.1 1.937 2.607 1.937 4.524v28.223c1.788-2.836 4.36-5.063 7.719-6.681 3.356-1.618 7.26-2.426 11.71-2.426 2.9 0 5.603.449 8.106 1.347a21.32 21.32 0 0 1 6.825 4.015c2.046 1.778 3.654 4.164 4.828 7.16 1.17 2.997 1.757 6.453 1.757 10.367v31.458c0 1.999-.656 3.556-1.966 4.675-1.312 1.119-2.861 1.677-4.65 1.677-1.748 0-3.258-.558-4.53-1.677-1.271-1.119-1.906-2.676-1.906-4.675V155.37c0-4.474-1.103-7.86-3.308-10.157-2.205-2.297-5.076-3.445-8.613-3.445-4.37 0-8.125 1.637-11.264 4.914-3.139 3.275-4.708 7.609-4.708 13.002v27.383c0 1.999-.646 3.556-1.937 4.675-1.291 1.119-2.831 1.677-4.619 1.677-1.788 0-3.328-.558-4.619-1.677M486.528 191.412c-1.511-1.458-2.265-3.205-2.265-5.243 0-1.997.735-3.735 2.205-5.213 1.47-1.478 3.377-2.217 5.721-2.217 2.226 0 4.092.719 5.603 2.157 1.51 1.438 2.265 3.196 2.265 5.273 0 1.998-.736 3.735-2.205 5.213-1.47 1.478-3.359 2.217-5.663 2.217-2.265 0-4.152-.729-5.661-2.187M517.835 191.711c-1.252-1.138-1.877-2.745-1.877-4.823V140.09c0-2.037.656-3.635 1.967-4.794 1.311-1.158 2.86-1.737 4.648-1.737 1.748 0 3.268.58 4.56 1.737 1.29 1.159 1.936 2.757 1.936 4.794v46.798c0 1.998-.665 3.586-1.995 4.764-1.333 1.179-2.891 1.767-4.68 1.767-1.787 0-3.307-.57-4.559-1.708m-1.072-72.744c-1.452-1.378-2.175-3.206-2.175-5.482 0-2.237.723-4.055 2.175-5.454 1.45-1.397 3.367-2.096 5.75-2.096 2.385 0 4.293.699 5.723 2.096 1.43 1.399 2.145 3.217 2.145 5.454 0 2.276-.726 4.104-2.175 5.482-1.45 1.379-3.368 2.068-5.752 2.068-2.345 0-4.24-.69-5.691-2.068M582.102 179.577c3.1-3.834 4.648-9.168 4.648-15.999 0-6.87-1.56-12.253-4.678-16.148-3.12-3.895-7.44-5.842-12.963-5.842-5.524 0-9.844 1.937-12.963 5.811-3.12 3.875-4.679 9.27-4.679 16.18 0 6.83 1.56 12.164 4.679 15.998 3.119 3.836 7.44 5.753 12.963 5.753 5.562 0 9.893-1.917 12.993-5.753m-26.462 12.105c-3.974-1.717-7.182-4.025-9.626-6.92a30.93 30.93 0 0 1-5.572-9.768c-1.272-3.615-1.907-7.42-1.907-11.416 0-4.073.645-7.94 1.936-11.594 1.291-3.655 3.159-6.93 5.602-9.828 2.444-2.895 5.652-5.191 9.626-6.89 3.973-1.698 8.443-2.547 13.41-2.547 4.927 0 9.357.83 13.291 2.488 3.934 1.657 7.141 3.924 9.625 6.8 2.483 2.876 4.381 6.152 5.691 9.828 1.313 3.675 1.968 7.59 1.968 11.743a35.65 35.65 0 0 1-1.162 9.139 30.284 30.284 0 0 1-3.636 8.359 28.034 28.034 0 0 1-6.02 6.86c-2.364 1.939-5.235 3.476-8.612 4.615-3.377 1.138-7.092 1.707-11.145 1.707-5.006 0-9.497-.859-13.469-2.576M74.24 154.764c-1.438 7.765-5.772 13.798-11.34 19.08-1.308 1.242-2.714 2.379-4.094 3.54-2.308 1.945-2.688 4.199-1.36 7.032 1.725 3.683 3.495 7.345 5.193 11.04.564 1.226 1.087 2.495 1.415 3.798.74 2.945-.418 5.392-3.123 6.789-.705.364-1.481.611-2.249.827-4.12 1.159-8.363 1.624-12.608 1.74-6.501.178-13.027.397-19.491-.583-2.608-.396-5.252-.891-7.722-1.781-3.224-1.162-4.683-3.906-3.715-7.214.197-.674.376-1.363.67-1.995 1.718-3.687 3.475-7.355 5.198-11.04.424-.907.836-1.831 1.137-2.784.747-2.36.073-4.356-1.808-5.924-2.731-2.277-5.485-4.52-7.779-7.286-8.341-9.06-8.931-18.816-7.681-25.912 1.25-7.096 1.578-8.887 2.868-13.224 2.075-6.974 4.245-13.929 5.437-21.129.63-3.807 1.215-7.629 1.625-11.466.367-3.436.468-6.901.687-10.354h1.804c-.205 4.259-.169 8.548-.677 12.77-.618 5.125-1.537 10.228-2.622 15.277-.905 4.217-2.17 8.362-3.396 12.504-1.541 5.207-2.913 10.444-3.713 15.827-1.302 8.756.917 16.456 6.411 23.38 5.453 6.873 12.495 10.917 20.998 12.403 9.434 1.65 18.145-.466 25.59-6.442 6.004-4.82 10.54-10.872 12.184-18.697.606-2.885.603-5.77.347-8.69-.662-7.574-2.98-14.749-5.131-21.968-2.2-7.38-3.721-14.901-4.667-22.546-.569-4.59-.822-9.195-.816-13.818h1.805c.11.891.255 1.78.325 2.675.336 4.29.47 8.607 1.013 12.87 1.034 8.12 2.974 16.053 5.404 23.869 1.502 4.833 2.943 9.69 3.63 14.726 1.205 8.852.32 12.333.251 12.706m-51.649-9.825c2.57 0 5.244.787 8.175 2.403.984.544 1.951 1.169 2.947 1.836-1.236.977-2.418 1.9-3.636 2.773-3.513 2.518-6.418 3.852-9.418 4.327a8.461 8.461 0 0 1-1.304.108c-2.06 0-3.645-.924-5.14-2.998-.293-.407-.53-1.078-.053-2.967.692-2.746 2.504-4.429 5.54-5.144a12.619 12.619 0 0 1 2.89-.338m15.071 6.586a2.738 2.738 0 0 0 .66.033l.78.832c1.663 1.773 3.384 3.606 5.04 5.433l.122.134c2.428 2.68 4.938 5.45 8.56 7.013 1.464.631 2.908.952 4.293.952.403 0 .802-.027 1.197-.08-.894.9-1.867 1.742-2.923 2.53-4.672 3.49-9.813 5.2-15.717 5.228h-.147c-7.316 0-13.712-2.722-19.01-8.092a24.04 24.04 0 0 1-3.91-5.199c.873.247 1.79.372 2.748.372.633 0 1.295-.054 1.969-.16 4.784-.757 8.706-3.26 11.24-5.075 1.525-1.094 2.96-2.23 4.48-3.432l.618-.489m6.684-4.736c2.125-2.029 4.324-4.127 6.536-6.115a19.047 19.047 0 0 1 6.17-3.713c.868-.32 1.69-.482 2.442-.482 1.887 0 3.384 1.016 4.578 3.108 1 1.754 1.341 3.765 1.545 6.245.36 4.391-.275 7.743-1.998 10.547-1.117 1.82-2.143 3.233-3.514 4.214-.986.705-1.935 1.034-2.988 1.034-.8 0-1.675-.203-2.602-.602-2.77-1.196-4.864-3.508-7.082-5.955l-.125-.137a427.861 427.861 0 0 0-5.099-5.495l-.305-.326c.816-.771 1.629-1.547 2.442-2.323m33.66-5.835a180.434 180.434 0 0 0-3.21-12.666c-1.968-6.772-3.863-13.538-4.926-20.54-.723-4.765-1.086-9.539-1.376-14.331-.162-2.688-.3-5.377-.467-8.4h-2.411L16.97 85c-1.603 0-3.206-.003-4.807.028-.42.008-.84.137-1.196.2-.177 2.566-.36 4.992-.505 7.421-.148 2.495-.135 5.006-.411 7.486-.41 3.687-.939 7.365-1.551 11.024-.857 5.126-2.217 10.13-3.72 15.108C2.82 132.761.856 139.26.28 146.091c-.3 3.535-.493 7.037.146 10.54 1.242 6.815 4.338 12.723 8.952 17.806 2.063 2.273 4.387 4.31 6.644 6.4 1.594 1.477 1.645 1.531.68 3.593a3517.132 3517.132 0 0 0-5.123 10.998c-1.167 2.52-1.446 5.197-1.11 7.91.215 1.736.964 3.267 2.173 4.622 1.921 2.153 4.334 3.351 7.038 4.07 2.348.624 4.718 1.065 7.157 1.262 3.182.258 6.345.752 9.55.701 1.282-.02 2.565-.023 3.846-.005 5.96.084 11.88-.266 17.718-1.576 2.32-.52 4.52-1.268 6.56-2.58 2.7-1.738 5.05-6.867 4.148-10.717-.613-2.613-1.784-4.934-2.898-7.309-1.28-2.729-2.603-5.437-3.869-8.173-.524-1.134-.438-1.482.424-2.18a62.47 62.47 0 0 0 6.981-6.568c3.06-3.369 5.505-7.085 7.293-11.24 1.219-2.832 2.043-5.821 2.264-8.898.332-4.623.123-9.258-.846-13.793"/>
    </g>
</svg>
