<svg viewBox="0 0 600 300" xmlns="http://www.w3.org/2000/svg">
    <title>
        sitepoint
    </title>
    <g fill="#000" fill-rule="nonzero">
        <path d="M211.456 100.595c-3.486.225-5.54 2.28-5.505 5.78.033 3.8 2.43 5.548 5.987 5.802 3.792-.376 6.065-2.527 5.878-6.132-.182-3.595-2.584-5.694-6.36-5.45zM325.266 152.458c4.333-22.164-15.16-40.196-36.263-34.18-14.685 4.192-22.914 18.205-20.938 35.68 2.494 22.033 23.857 33.875 43.87 24.24 7.368-3.55 11.507-9.557 13.045-18.451l-10.302.163-.927 2.646c-3.992 8.037-11.758 11.188-21.457 8.637-8.278-2.176-13.335-9.28-12.911-18.736l45.883.001zm-30.555-25.91c10.76-.778 17.972 5.012 19.755 16.49h-34.932c.172-8.917 6.592-15.87 15.177-16.49zM247.713 100.763H236.85v17.87h-10.446v9.094h10.5c0 2.237-.005 4.028 0 5.81.034 11.776-.063 23.556.166 35.32.118 6.154 2.444 9.404 7.533 10.131 4.977.723 10.084.57 15.218.801v-9.386c-2.08 0-3.889-.128-5.666.025-4.624.4-6.738-1.427-6.497-6.27.261-5.294.056-10.61.056-15.92v-20.633h12.175v-9.066h-12.175l-.001-17.776zM207 179.205h9.836v-60.36H207v60.36zM53.09 159.36c-6.834-6.27-13.58-12.66-20.444-18.902-3.35-3.047-3.898-5.761-.2-9.07 4.69-4.199 9.18-8.636 13.571-13.148 6.198-6.366 12.213-12.893 17.378-18.372-4.202-4.943-8.701-10.234-13.485-15.865-16.322 15.837-32.093 30.952-47.604 46.33-3.375 3.35-2.947 8.173.634 11.631 12.986 12.534 26.143 24.892 39.493 37.563 3.858-3.669 7.5-7.01 11.01-10.487 4.161-4.135 4.022-5.655-.353-9.68z" />
        <path d="M88.078 141.564c-7.334-6.873-14.714-13.71-22.2-20.678-4.008 3.83-7.53 7.334-11.205 10.669-3.375 3.065-3.152 5.666.222 8.671 7.188 6.4 14.16 13.042 21.259 19.542 3.201 2.93 3.492 5.666.159 8.812-7.239 6.845-14.375 13.799-21.476 20.78-3.744 3.682-7.336 7.526-10.728 11.023 4.81 5.034 9.5 9.94 14.283 14.952.94-.491 1.283-.585 1.509-.801 15.071-14.502 30.173-28.974 45.16-43.566 4.314-4.208 3.907-9.556-.72-13.998a2047.967 2047.967 0 0 0-16.263-15.406zM194.837 160.781c-.322-6.539-3.973-10.921-9.8-13.158-4.767-1.832-9.877-2.748-14.785-4.226-4.427-1.33-9.063-2.336-13.098-4.465-4.798-2.53-4.482-8.306.465-10.573 7.492-3.444 20.884-3.664 24.339 8.037h9.95c-.176-6.422-2.4-11.552-7.589-15.12-8.71-5.982-27.051-5.468-35.561.919-9.044 6.798-8.443 19.869 1.442 25.28 3.566 1.953 7.7 2.951 11.65 4.113 5.236 1.54 10.624 2.6 15.8 4.305 3.45 1.139 6.106 3.402 5.765 7.7-.353 4.396-3.321 6.497-7.028 7.214-7.03 1.363-8.417 1.132-15.73-.16-4.08-.722-6.976-3.417-8.412-7.626l-.656-2.702-10.229-.053c.142 7.54 2.688 13.443 8.958 16.584 11.471 5.735 25.383 5.61 36.726-.486 5.967-3.21 8.124-8.948 7.793-15.583zM599.566 127.483v-8.89H587.13v-17.797h-10.868v17.858h-9.994v9.072h10.113c0 2.385-.02 4.323 0 6.258.132 11.937.206 23.869.43 35.801.084 4.864 2.454 8.496 7.39 9.203 4.99.71 10.09.568 15.28.805v-9.4c-2.621 0-4.915-.029-7.21.007-3.24.065-5.033-1.462-5.045-4.734-.027-12.414-.015-24.829-.015-38.185 4.52.002 8.406.002 12.355.002zM437.253 117.246c-17.813-1.315-30.803 10.367-32.23 28.984-1.514 19.775 9.574 33.322 28.464 34.766 18.019 1.381 31.375-10.237 32.754-28.495 1.547-20.394-9.486-33.819-28.988-35.255zm-5.103 54.264c-10.79-1.793-16.802-11.88-15.618-26.203.908-10.928 8.704-18.714 18.82-18.782 11.864-.081 19.517 8.858 19.497 22.745-.032 15.027-9.621 24.415-22.7 22.24zM484.522 100.625c-3.662-.193-6.08 1.563-6.355 5.354-.286 3.86 2.033 5.669 5.756 6.236 3.45-.293 5.992-2.128 6.08-5.757.08-3.294-1.925-5.647-5.481-5.833zM382.103 120.67c-10.336-5.912-24.609-4.428-35.181 3.929l.016-5.632h-9.999v83.667h10.358v-29.928c10.164 8.9 20.675 10.242 31.68 6.32 11.047-3.947 15.673-13.083 17.288-24.11 2.089-14.301-3.656-28.238-14.162-34.246zm3.212 29.088c-.233 3.272-.816 6.593-1.793 9.716-2.44 7.865-8.085 12.027-16.1 12.35-8.307.331-14.831-3.423-17.935-10.697-3.409-7.979-3.458-16.14.024-24.1 3.08-7.059 8.657-10.595 16.424-10.528 11.96.019 20.333 9.947 19.38 23.259zM556.891 134.14c-.372-9.82-6.925-15.55-16.626-16.69-9.623-1.13-18.482.81-25.268 9.584l-.033-8.092h-9.605v60.347h10.453c0-2.334-.008-4.3 0-6.268.067-10.293-.303-20.61.307-30.866.707-11.955 10.802-17.754 22.58-15.07 4.149.945 6.926 4.016 7.533 8.39.45 3.27.58 6.603.605 9.913.069 11.242.028 22.48.028 33.999h10.183c-.007-15.417.42-30.351-.157-45.247zM479.057 179.317h9.983v-60.375h-9.983v60.375z" />
    </g>
</svg>
