<svg viewBox="0 0 600 300" xmlns="http://www.w3.org/2000/svg">
    <title>
        smashingmagazine
    </title>
    <g fill="#000" fill-rule="nonzero">
        <path d="M190.95 135.252c0 1.983.356 3.662 1.067 5.04.71 1.378 1.654 2.491 2.833 3.345 1.163.853 2.532 1.49 4.088 1.902 1.562.413 3.21.618 4.955.618 1.143 0 2.374-.099 3.688-.29a12.93 12.93 0 0 0 3.69-1.113c1.144-.553 2.105-1.312 2.86-2.275.765-.964 1.152-2.186 1.152-3.678 0-1.599-.513-2.893-1.516-3.883-1.011-.987-2.335-1.831-3.972-2.522-1.639-.685-3.497-1.266-5.568-1.734a116.471 116.471 0 0 1-6.31-1.612 55.587 55.587 0 0 1-6.393-2.025c-2.075-.795-3.929-1.827-5.568-3.099-1.64-1.264-2.96-2.837-3.973-4.706-1.007-1.871-1.515-4.188-1.515-6.944 0-3.033.642-5.66 1.922-7.893a17.527 17.527 0 0 1 5.045-5.577c2.07-1.49 4.417-2.59 7.041-3.307a29.838 29.838 0 0 1 7.862-1.072c3.052 0 5.994.34 8.807 1.031 2.816.69 5.312 1.804 7.49 3.348 2.19 1.543 3.922 3.514 5.205 5.908 1.284 2.394 1.925 5.304 1.925 8.716h-12.447c-.117-1.76-.479-3.222-1.114-4.379-.629-1.158-1.456-2.065-2.498-2.726-1.037-.663-2.237-1.131-3.601-1.404a21.862 21.862 0 0 0-4.337-.413c-1.04 0-2.082.109-3.12.328a8.364 8.364 0 0 0-2.82 1.154 6.872 6.872 0 0 0-2.088 2.111c-.55.854-.819 1.888-.819 3.098 0 1.153.216 2.094.65 2.81.439.714 1.296 1.364 2.581 1.943 1.284.577 3.063 1.185 5.329 1.817 2.263.636 5.225 1.42 8.882 2.356.712.164 1.64.396 2.785.696 1.15.308 2.366.72 3.65 1.243a24.207 24.207 0 0 1 3.85 2.026 16.995 16.995 0 0 1 3.517 3.058c1.065 1.212 1.925 2.657 2.58 4.338.661 1.684.985 3.624.985 5.826 0 2.7-.52 5.206-1.555 7.521-1.044 2.316-2.585 4.311-4.631 5.99-2.049 1.684-4.587 3.004-7.615 3.967-3.034.966-6.54 1.45-10.522 1.45a35.44 35.44 0 0 1-9.38-1.245c-3.034-.824-5.7-2.09-7.989-3.795-2.294-1.712-4.137-3.887-5.53-6.529-1.389-2.642-2.062-5.78-2.01-9.415l12.452-.004zM231.245 95.833h18.11l13.676 40.578h.165l12.942-40.578h18.098v59.002h-12.038V113.02h-.161l-14.335 41.814h-9.913l-14.337-41.402h-.16v41.4h-12.047zM317.419 95.833h13.19l21.864 59.002H339.12l-4.422-13.134h-21.863l-4.592 13.134H295.22l22.198-59.002zm-1.23 36.197h15.154l-7.367-21.65h-.174l-7.613 21.65zM362.223 135.252c0 1.983.357 3.662 1.066 5.04.713 1.378 1.656 2.491 2.829 3.345 1.171.853 2.528 1.49 4.094 1.902 1.544.413 3.2.618 4.944.618 1.149 0 2.377-.099 3.69-.29a12.97 12.97 0 0 0 3.696-1.113 8.045 8.045 0 0 0 2.866-2.275c.77-.964 1.15-2.186 1.15-3.678 0-1.599-.508-2.893-1.514-3.883-1.024-.987-2.336-1.831-3.98-2.522-1.639-.685-3.497-1.266-5.576-1.734a121.589 121.589 0 0 1-6.314-1.612 56.162 56.162 0 0 1-6.378-2.025c-2.07-.795-3.93-1.827-5.569-3.099a14.575 14.575 0 0 1-3.975-4.706c-1.016-1.871-1.514-4.188-1.514-6.944 0-3.033.642-5.66 1.924-7.893a17.553 17.553 0 0 1 5.034-5.577c2.081-1.49 4.428-2.59 7.052-3.307a29.697 29.697 0 0 1 7.857-1.072c3.058 0 5.996.34 8.812 1.031 2.813.69 5.314 1.804 7.5 3.348 2.173 1.543 3.907 3.514 5.191 5.908 1.286 2.394 1.928 5.304 1.928 8.716h-12.448c-.11-1.76-.476-3.222-1.108-4.379-.625-1.158-1.466-2.065-2.505-2.726-1.038-.663-2.243-1.131-3.607-1.404a21.867 21.867 0 0 0-4.342-.413c-1.036 0-2.06.109-3.1.328a8.298 8.298 0 0 0-2.828 1.154 6.676 6.676 0 0 0-2.09 2.111c-.546.854-.82 1.888-.82 3.098 0 1.153.222 2.094.66 2.81.433.714 1.282 1.364 2.565 1.943 1.283.577 3.057 1.185 5.331 1.817 2.267.636 5.233 1.42 8.888 2.356a96.95 96.95 0 0 1 2.799.696c1.149.308 2.36.72 3.636 1.243a23.757 23.757 0 0 1 3.85 2.026 16.849 16.849 0 0 1 3.523 3.058c1.067 1.212 1.927 2.657 2.583 4.338.66 1.684.985 3.624.985 5.826 0 2.7-.521 5.206-1.562 7.521-1.036 2.316-2.582 4.311-4.617 5.99-2.052 1.684-4.603 3.004-7.636 3.967-3.026.966-6.531 1.45-10.524 1.45-3.223 0-6.34-.417-9.371-1.245-3.037-.824-5.693-2.09-7.994-3.795-2.287-1.712-4.136-3.887-5.53-6.529-1.393-2.642-2.063-5.78-2.005-9.415l12.454-.004zM402.527 95.833h12.856v22.643h23.68V95.833h12.854v59.002h-12.854v-25.45h-23.68v25.45h-12.856zM459.127 95.833h12.858v59.002h-12.858zM479.18 95.833h12.785l24.416 39.584h.151V95.833h12.05v59.002h-12.871l-24.32-39.497h-.167v39.497h-12.048zM577.352 142.054c.529-.656 1.173-1.965 1.173-1.965l-3.319.687c-3.17-1.88-9.808-6.127-9.808-6.127l-1.56-.947 2.693-.525s21.34-3.715 33.24-5.789c-1.86 11.77-3.567 22.593-5.602 35.44-2.812-3.55-7.367-9.274-7.367-9.274l.231-3.734-1.9 1.629c-9.576 6.99-21.025 9.782-33.446 4.652-7.936-3.282-13.427-9.184-16.626-17.097-6.573-16.23 1.314-34.461 17.594-40.984 14.713-5.895 32.568.584 38.169 13.986-3.304 1.926-9.99 4.668-9.99 4.668s-3.1-3.985-5.148-5.693c-8.618-7.173-20.913-4.932-27.757 3.852-6.67 8.553-5.34 21.212 2.81 28.167 6.53 5.544 19.563 8.275 26.613-.946zM185.688 169.587h5.062l12.495 31.671 12.444-31.671h5.065v36.13h-3.444v-31.222h-.1l-12.345 31.222h-3.238l-12.397-31.222h-.104v31.222h-3.438v-36.13zM259.71 169.587h3.846l14.167 36.13h-3.693l-4.401-11.235h-16.446l-4.348 11.235h-3.697l14.572-36.13zm-5.464 21.963h14.22l-6.981-18.52-7.239 18.52zM333.082 205.715h-2.48l-.456-6.575h-.1c-.611 1.284-1.363 2.386-2.253 3.31a12.35 12.35 0 0 1-2.962 2.279 13.493 13.493 0 0 1-3.466 1.314c-1.232.286-2.504.43-3.817.43-2.836 0-5.323-.516-7.466-1.547-2.144-1.025-3.921-2.408-5.338-4.143-1.414-1.739-2.48-3.745-3.188-6.025a23.838 23.838 0 0 1-1.063-7.112c0-2.461.356-4.835 1.063-7.11.708-2.278 1.77-4.288 3.188-6.023 1.417-1.738 3.2-3.121 5.338-4.149 2.145-1.025 4.632-1.541 7.466-1.541 1.888 0 3.675.25 5.364.758 1.686.507 3.199 1.264 4.53 2.276a13.204 13.204 0 0 1 3.343 3.77c.889 1.505 1.509 3.229 1.842 5.185h-3.439c-.103-1.045-.448-2.101-1.037-3.16-.594-1.065-1.384-2.033-2.378-2.912-.994-.87-2.185-1.59-3.565-2.146-1.383-.56-2.937-.837-4.654-.837-2.4 0-4.452.454-6.177 1.364-1.719.914-3.127 2.117-4.226 3.617-1.096 1.504-1.908 3.206-2.425 5.113a21.778 21.778 0 0 0 0 11.612c.522 1.89 1.329 3.583 2.425 5.085 1.099 1.503 2.505 2.704 4.226 3.617 1.72.916 3.779 1.365 6.177 1.365 1.986 0 3.767-.328 5.335-.988 1.566-.66 2.892-1.577 3.974-2.753 1.076-1.18 1.888-2.583 2.426-4.199.54-1.615.793-3.395.762-5.315h-12.295v-2.935h15.33l-.004 18.375zM371.482 169.587h3.842l14.18 36.13h-3.7l-4.397-11.235h-16.445l-4.345 11.235h-3.696l14.561-36.13zm-5.464 21.963h14.221l-6.982-18.52-7.24 18.52zM412.213 169.587h26.01v3.038l-23.784 30.158h24.288v2.934h-28.135v-3.036l23.784-30.158h-22.162zM464.483 169.587h3.446v36.13h-3.446zM496.605 169.587h3.844l21.047 30.563h.104v-30.563h3.444v36.13H521.2l-21.055-30.561h-.094v30.56h-3.447zM553.479 169.587h24.946v2.936h-21.504v13.057h20.135v2.934h-20.135v14.27h21.753v2.933h-25.2zM92.114 173.164c-2.838-2.552-6.288-4.587-9.756-6.232-8.321-3.952-16.88-7.395-25.214-11.306-23.158-10.863-37.97-35.545-21.123-64.965l-24.665 5.622C3.494 98.075-1.423 105.9.369 113.762l23.576 103.46c1.794 7.861 9.616 12.782 17.49 10.991l10.272-2.349c0-.058.007-.113 0-.17l-20.015-8.892c4.035-9.59 7.856-18.657 11.898-28.273 2.568 1.534 4.375 2.673 6.239 3.72 10.91 6.101 22.471 8.944 34.98 6.847 5.8-.966 10.793-3.085 12.447-9.477 1.686-6.519-.333-12.124-5.142-16.455zM114.817 72.702l-14.718 3.354c.01.007.01.013.01.013 7.165 2.33 13.361 4.156 19.315 6.533 1.578.633 5.256 2.1 5.256 2.1s-7.313 18.965-10.412 27.963c-11.699-9.345-22.757-11.876-35.514-9.995-5.475.815-10.816 4.547-12.42 10.237-1.674 5.963.405 10.629 5.378 13.845 3.652 2.358 7.584 4.372 11.575 6.104 7.794 3.38 15.857 6.164 23.565 9.727 18.983 8.763 28.772 23.481 27.07 44.693-.487 6.136-2.292 13.418-3.908 20.584.042.048.074.089.104.133l14.768-3.368c7.862-1.79 12.778-9.617 10.994-17.477L132.295 83.69c-1.795-7.86-9.618-12.78-17.478-10.988z"/>
    </g>
</svg>
